M48
; DRILL file {KiCad 8.0.2} date 2024-05-25T14:11:50+0300
; FORMAT={-:-/ absolute / metric / decimal}
; #@! TF.CreationDate,2024-05-25T14:11:50+03:00
; #@! TF.GenerationSoftware,Kicad,Pcbnew,8.0.2
; #@! TF.FileFunction,MixedPlating,1,2
FMAT,2
METRIC
; #@! TA.AperFunction,Plated,PTH,ComponentDrill
T1C0.800
; #@! TA.AperFunction,Plated,PTH,ComponentDrill
T2C0.900
; #@! TA.AperFunction,Plated,PTH,ComponentDrill
T3C1.000
; #@! TA.AperFunction,Plated,PTH,ComponentDrill
T4C1.200
; #@! TA.AperFunction,Plated,PTH,ComponentDrill
T5C1.300
; #@! TA.AperFunction,Plated,PTH,ComponentDrill
T6C1.500
; #@! TA.AperFunction,Plated,PTH,ComponentDrill
T7C1.700
%
G90
G05
T1
X154.15Y-85.5
X154.15Y-90.0
X154.15Y-94.5
X166.85Y-85.5
X166.85Y-90.0
X166.85Y-94.5
T2
X100.5Y-70.503
X100.5Y-109.873
X117.645Y-70.503
X117.645Y-109.873
X171.97Y-82.0
X171.97Y-96.0
X172.0Y-89.0
X174.51Y-82.0
X174.51Y-96.0
X174.54Y-89.0
T3
X128.95Y-102.55
X128.95Y-114.55
X129.11Y-48.64
X129.11Y-51.18
X129.11Y-53.72
X129.11Y-56.26
X129.11Y-58.8
X129.11Y-61.34
X129.11Y-63.88
X129.11Y-66.42
X129.11Y-68.96
X129.11Y-71.5
X129.11Y-74.04
X129.11Y-76.58
X129.11Y-79.12
X129.11Y-81.66
X129.11Y-84.2
X129.11Y-86.74
X129.11Y-89.28
X129.11Y-91.82
X129.11Y-94.36
X129.11Y-96.9
X146.89Y-48.64
X146.89Y-51.18
X146.89Y-53.72
X146.89Y-56.26
X146.89Y-58.8
X146.89Y-61.34
X146.89Y-63.88
X146.89Y-66.42
X146.89Y-68.96
X146.89Y-71.5
X146.89Y-74.04
X146.89Y-76.58
X146.89Y-79.12
X146.89Y-81.66
X146.89Y-84.2
X146.89Y-86.74
X146.89Y-89.28
X146.89Y-91.82
X146.89Y-94.36
X146.89Y-96.9
X156.0Y-72.88
X156.0Y-75.42
X156.0Y-77.96
X156.0Y-80.5
T4
X152.95Y-111.0
X156.45Y-111.0
T5
X91.0Y-104.0
X91.0Y-109.0
X127.0Y-108.5
X141.15Y-114.55
X141.2Y-102.5
T6
X91.96Y-48.96
T7
X89.42Y-46.42
X89.42Y-51.5
X94.5Y-46.42
X94.5Y-51.5
M30
