%TF.GenerationSoftware,KiCad,Pcbnew,8.0.2*%
%TF.CreationDate,2024-05-25T14:23:29+03:00*%
%TF.ProjectId,LoRa_irrigation_system,4c6f5261-5f69-4727-9269-676174696f6e,rev?*%
%TF.SameCoordinates,Original*%
%TF.FileFunction,Legend,Top*%
%TF.FilePolarity,Positive*%
%FSLAX46Y46*%
G04 Gerber Fmt 4.6, Leading zero omitted, Abs format (unit mm)*
G04 Created by KiCad (PCBNEW 8.0.2) date 2024-05-25 14:23:29*
%MOMM*%
%LPD*%
G01*
G04 APERTURE LIST*
%ADD10C,0.150000*%
%ADD11C,0.120000*%
%ADD12C,0.152400*%
%ADD13C,0.203200*%
%ADD14C,0.200000*%
G04 APERTURE END LIST*
D10*
X91626666Y-53164819D02*
X91626666Y-53879104D01*
X91626666Y-53879104D02*
X91579047Y-54021961D01*
X91579047Y-54021961D02*
X91483809Y-54117200D01*
X91483809Y-54117200D02*
X91340952Y-54164819D01*
X91340952Y-54164819D02*
X91245714Y-54164819D01*
X92531428Y-53498152D02*
X92531428Y-54164819D01*
X92293333Y-53117200D02*
X92055238Y-53831485D01*
X92055238Y-53831485D02*
X92674285Y-53831485D01*
X172531905Y-93414819D02*
X172531905Y-92414819D01*
X172531905Y-92414819D02*
X172770000Y-92414819D01*
X172770000Y-92414819D02*
X172912857Y-92462438D01*
X172912857Y-92462438D02*
X173008095Y-92557676D01*
X173008095Y-92557676D02*
X173055714Y-92652914D01*
X173055714Y-92652914D02*
X173103333Y-92843390D01*
X173103333Y-92843390D02*
X173103333Y-92986247D01*
X173103333Y-92986247D02*
X173055714Y-93176723D01*
X173055714Y-93176723D02*
X173008095Y-93271961D01*
X173008095Y-93271961D02*
X172912857Y-93367200D01*
X172912857Y-93367200D02*
X172770000Y-93414819D01*
X172770000Y-93414819D02*
X172531905Y-93414819D01*
X173484286Y-92510057D02*
X173531905Y-92462438D01*
X173531905Y-92462438D02*
X173627143Y-92414819D01*
X173627143Y-92414819D02*
X173865238Y-92414819D01*
X173865238Y-92414819D02*
X173960476Y-92462438D01*
X173960476Y-92462438D02*
X174008095Y-92510057D01*
X174008095Y-92510057D02*
X174055714Y-92605295D01*
X174055714Y-92605295D02*
X174055714Y-92700533D01*
X174055714Y-92700533D02*
X174008095Y-92843390D01*
X174008095Y-92843390D02*
X173436667Y-93414819D01*
X173436667Y-93414819D02*
X174055714Y-93414819D01*
X172501905Y-86414819D02*
X172501905Y-85414819D01*
X172501905Y-85414819D02*
X172740000Y-85414819D01*
X172740000Y-85414819D02*
X172882857Y-85462438D01*
X172882857Y-85462438D02*
X172978095Y-85557676D01*
X172978095Y-85557676D02*
X173025714Y-85652914D01*
X173025714Y-85652914D02*
X173073333Y-85843390D01*
X173073333Y-85843390D02*
X173073333Y-85986247D01*
X173073333Y-85986247D02*
X173025714Y-86176723D01*
X173025714Y-86176723D02*
X172978095Y-86271961D01*
X172978095Y-86271961D02*
X172882857Y-86367200D01*
X172882857Y-86367200D02*
X172740000Y-86414819D01*
X172740000Y-86414819D02*
X172501905Y-86414819D01*
X174025714Y-86414819D02*
X173454286Y-86414819D01*
X173740000Y-86414819D02*
X173740000Y-85414819D01*
X173740000Y-85414819D02*
X173644762Y-85557676D01*
X173644762Y-85557676D02*
X173549524Y-85652914D01*
X173549524Y-85652914D02*
X173454286Y-85700533D01*
X154366666Y-106294819D02*
X154366666Y-107009104D01*
X154366666Y-107009104D02*
X154319047Y-107151961D01*
X154319047Y-107151961D02*
X154223809Y-107247200D01*
X154223809Y-107247200D02*
X154080952Y-107294819D01*
X154080952Y-107294819D02*
X153985714Y-107294819D01*
X154747619Y-106294819D02*
X155366666Y-106294819D01*
X155366666Y-106294819D02*
X155033333Y-106675771D01*
X155033333Y-106675771D02*
X155176190Y-106675771D01*
X155176190Y-106675771D02*
X155271428Y-106723390D01*
X155271428Y-106723390D02*
X155319047Y-106771009D01*
X155319047Y-106771009D02*
X155366666Y-106866247D01*
X155366666Y-106866247D02*
X155366666Y-107104342D01*
X155366666Y-107104342D02*
X155319047Y-107199580D01*
X155319047Y-107199580D02*
X155271428Y-107247200D01*
X155271428Y-107247200D02*
X155176190Y-107294819D01*
X155176190Y-107294819D02*
X154890476Y-107294819D01*
X154890476Y-107294819D02*
X154795238Y-107247200D01*
X154795238Y-107247200D02*
X154747619Y-107199580D01*
X85394819Y-106833333D02*
X86109104Y-106833333D01*
X86109104Y-106833333D02*
X86251961Y-106880952D01*
X86251961Y-106880952D02*
X86347200Y-106976190D01*
X86347200Y-106976190D02*
X86394819Y-107119047D01*
X86394819Y-107119047D02*
X86394819Y-107214285D01*
X86394819Y-105833333D02*
X86394819Y-106404761D01*
X86394819Y-106119047D02*
X85394819Y-106119047D01*
X85394819Y-106119047D02*
X85537676Y-106214285D01*
X85537676Y-106214285D02*
X85632914Y-106309523D01*
X85632914Y-106309523D02*
X85680533Y-106404761D01*
X160333333Y-87734819D02*
X160000000Y-87258628D01*
X159761905Y-87734819D02*
X159761905Y-86734819D01*
X159761905Y-86734819D02*
X160142857Y-86734819D01*
X160142857Y-86734819D02*
X160238095Y-86782438D01*
X160238095Y-86782438D02*
X160285714Y-86830057D01*
X160285714Y-86830057D02*
X160333333Y-86925295D01*
X160333333Y-86925295D02*
X160333333Y-87068152D01*
X160333333Y-87068152D02*
X160285714Y-87163390D01*
X160285714Y-87163390D02*
X160238095Y-87211009D01*
X160238095Y-87211009D02*
X160142857Y-87258628D01*
X160142857Y-87258628D02*
X159761905Y-87258628D01*
X160714286Y-86830057D02*
X160761905Y-86782438D01*
X160761905Y-86782438D02*
X160857143Y-86734819D01*
X160857143Y-86734819D02*
X161095238Y-86734819D01*
X161095238Y-86734819D02*
X161190476Y-86782438D01*
X161190476Y-86782438D02*
X161238095Y-86830057D01*
X161238095Y-86830057D02*
X161285714Y-86925295D01*
X161285714Y-86925295D02*
X161285714Y-87020533D01*
X161285714Y-87020533D02*
X161238095Y-87163390D01*
X161238095Y-87163390D02*
X160666667Y-87734819D01*
X160666667Y-87734819D02*
X161285714Y-87734819D01*
X122378319Y-91013404D02*
X123187842Y-91013404D01*
X123187842Y-91013404D02*
X123283080Y-90965785D01*
X123283080Y-90965785D02*
X123330700Y-90918166D01*
X123330700Y-90918166D02*
X123378319Y-90822928D01*
X123378319Y-90822928D02*
X123378319Y-90632452D01*
X123378319Y-90632452D02*
X123330700Y-90537214D01*
X123330700Y-90537214D02*
X123283080Y-90489595D01*
X123283080Y-90489595D02*
X123187842Y-90441976D01*
X123187842Y-90441976D02*
X122378319Y-90441976D01*
X123378319Y-89441976D02*
X123378319Y-90013404D01*
X123378319Y-89727690D02*
X122378319Y-89727690D01*
X122378319Y-89727690D02*
X122521176Y-89822928D01*
X122521176Y-89822928D02*
X122616414Y-89918166D01*
X122616414Y-89918166D02*
X122664033Y-90013404D01*
X137400074Y-71069065D02*
X137400074Y-71706486D01*
X137400074Y-71706486D02*
X137437570Y-71781476D01*
X137437570Y-71781476D02*
X137475065Y-71818972D01*
X137475065Y-71818972D02*
X137550056Y-71856467D01*
X137550056Y-71856467D02*
X137700037Y-71856467D01*
X137700037Y-71856467D02*
X137775028Y-71818972D01*
X137775028Y-71818972D02*
X137812523Y-71781476D01*
X137812523Y-71781476D02*
X137850018Y-71706486D01*
X137850018Y-71706486D02*
X137850018Y-71069065D01*
X138187476Y-71144056D02*
X138224971Y-71106560D01*
X138224971Y-71106560D02*
X138299962Y-71069065D01*
X138299962Y-71069065D02*
X138487439Y-71069065D01*
X138487439Y-71069065D02*
X138562429Y-71106560D01*
X138562429Y-71106560D02*
X138599925Y-71144056D01*
X138599925Y-71144056D02*
X138637420Y-71219046D01*
X138637420Y-71219046D02*
X138637420Y-71294037D01*
X138637420Y-71294037D02*
X138599925Y-71406523D01*
X138599925Y-71406523D02*
X138149981Y-71856467D01*
X138149981Y-71856467D02*
X138637420Y-71856467D01*
X127603332Y-85117438D02*
X127603332Y-83784104D01*
X127603332Y-84165057D02*
X127698570Y-83974580D01*
X127698570Y-83974580D02*
X127793808Y-83879342D01*
X127793808Y-83879342D02*
X127984284Y-83784104D01*
X127984284Y-83784104D02*
X128174761Y-83784104D01*
X129698570Y-85117438D02*
X129698570Y-84069819D01*
X129698570Y-84069819D02*
X129603332Y-83879342D01*
X129603332Y-83879342D02*
X129412856Y-83784104D01*
X129412856Y-83784104D02*
X129031903Y-83784104D01*
X129031903Y-83784104D02*
X128841427Y-83879342D01*
X129698570Y-85022200D02*
X129508094Y-85117438D01*
X129508094Y-85117438D02*
X129031903Y-85117438D01*
X129031903Y-85117438D02*
X128841427Y-85022200D01*
X128841427Y-85022200D02*
X128746189Y-84831723D01*
X128746189Y-84831723D02*
X128746189Y-84641247D01*
X128746189Y-84641247D02*
X128841427Y-84450771D01*
X128841427Y-84450771D02*
X129031903Y-84355533D01*
X129031903Y-84355533D02*
X129508094Y-84355533D01*
X129508094Y-84355533D02*
X129698570Y-84260295D01*
X130555713Y-85022200D02*
X130746189Y-85117438D01*
X130746189Y-85117438D02*
X131127141Y-85117438D01*
X131127141Y-85117438D02*
X131317618Y-85022200D01*
X131317618Y-85022200D02*
X131412856Y-84831723D01*
X131412856Y-84831723D02*
X131412856Y-84736485D01*
X131412856Y-84736485D02*
X131317618Y-84546009D01*
X131317618Y-84546009D02*
X131127141Y-84450771D01*
X131127141Y-84450771D02*
X130841427Y-84450771D01*
X130841427Y-84450771D02*
X130650951Y-84355533D01*
X130650951Y-84355533D02*
X130555713Y-84165057D01*
X130555713Y-84165057D02*
X130555713Y-84069819D01*
X130555713Y-84069819D02*
X130650951Y-83879342D01*
X130650951Y-83879342D02*
X130841427Y-83784104D01*
X130841427Y-83784104D02*
X131127141Y-83784104D01*
X131127141Y-83784104D02*
X131317618Y-83879342D01*
X132269999Y-85117438D02*
X132269999Y-83117438D01*
X132269999Y-83879342D02*
X132460475Y-83784104D01*
X132460475Y-83784104D02*
X132841428Y-83784104D01*
X132841428Y-83784104D02*
X133031904Y-83879342D01*
X133031904Y-83879342D02*
X133127142Y-83974580D01*
X133127142Y-83974580D02*
X133222380Y-84165057D01*
X133222380Y-84165057D02*
X133222380Y-84736485D01*
X133222380Y-84736485D02*
X133127142Y-84926961D01*
X133127142Y-84926961D02*
X133031904Y-85022200D01*
X133031904Y-85022200D02*
X132841428Y-85117438D01*
X132841428Y-85117438D02*
X132460475Y-85117438D01*
X132460475Y-85117438D02*
X132269999Y-85022200D01*
X134841428Y-85022200D02*
X134650952Y-85117438D01*
X134650952Y-85117438D02*
X134269999Y-85117438D01*
X134269999Y-85117438D02*
X134079523Y-85022200D01*
X134079523Y-85022200D02*
X133984285Y-84831723D01*
X133984285Y-84831723D02*
X133984285Y-84069819D01*
X133984285Y-84069819D02*
X134079523Y-83879342D01*
X134079523Y-83879342D02*
X134269999Y-83784104D01*
X134269999Y-83784104D02*
X134650952Y-83784104D01*
X134650952Y-83784104D02*
X134841428Y-83879342D01*
X134841428Y-83879342D02*
X134936666Y-84069819D01*
X134936666Y-84069819D02*
X134936666Y-84260295D01*
X134936666Y-84260295D02*
X133984285Y-84450771D01*
X135793809Y-85117438D02*
X135793809Y-83784104D01*
X135793809Y-84165057D02*
X135889047Y-83974580D01*
X135889047Y-83974580D02*
X135984285Y-83879342D01*
X135984285Y-83879342D02*
X136174761Y-83784104D01*
X136174761Y-83784104D02*
X136365238Y-83784104D01*
X137031904Y-85117438D02*
X137031904Y-83784104D01*
X137031904Y-84165057D02*
X137127142Y-83974580D01*
X137127142Y-83974580D02*
X137222380Y-83879342D01*
X137222380Y-83879342D02*
X137412856Y-83784104D01*
X137412856Y-83784104D02*
X137603333Y-83784104D01*
X138079523Y-83784104D02*
X138555713Y-85117438D01*
X139031904Y-83784104D02*
X138555713Y-85117438D01*
X138555713Y-85117438D02*
X138365237Y-85593628D01*
X138365237Y-85593628D02*
X138269999Y-85688866D01*
X138269999Y-85688866D02*
X138079523Y-85784104D01*
X141317619Y-83784104D02*
X141317619Y-85784104D01*
X141317619Y-83879342D02*
X141508095Y-83784104D01*
X141508095Y-83784104D02*
X141889048Y-83784104D01*
X141889048Y-83784104D02*
X142079524Y-83879342D01*
X142079524Y-83879342D02*
X142174762Y-83974580D01*
X142174762Y-83974580D02*
X142270000Y-84165057D01*
X142270000Y-84165057D02*
X142270000Y-84736485D01*
X142270000Y-84736485D02*
X142174762Y-84926961D01*
X142174762Y-84926961D02*
X142079524Y-85022200D01*
X142079524Y-85022200D02*
X141889048Y-85117438D01*
X141889048Y-85117438D02*
X141508095Y-85117438D01*
X141508095Y-85117438D02*
X141317619Y-85022200D01*
X143127143Y-85117438D02*
X143127143Y-83784104D01*
X143127143Y-83117438D02*
X143031905Y-83212676D01*
X143031905Y-83212676D02*
X143127143Y-83307914D01*
X143127143Y-83307914D02*
X143222381Y-83212676D01*
X143222381Y-83212676D02*
X143127143Y-83117438D01*
X143127143Y-83117438D02*
X143127143Y-83307914D01*
X145603334Y-83784104D02*
X145603334Y-85784104D01*
X145603334Y-83879342D02*
X145793810Y-83784104D01*
X145793810Y-83784104D02*
X146174763Y-83784104D01*
X146174763Y-83784104D02*
X146365239Y-83879342D01*
X146365239Y-83879342D02*
X146460477Y-83974580D01*
X146460477Y-83974580D02*
X146555715Y-84165057D01*
X146555715Y-84165057D02*
X146555715Y-84736485D01*
X146555715Y-84736485D02*
X146460477Y-84926961D01*
X146460477Y-84926961D02*
X146365239Y-85022200D01*
X146365239Y-85022200D02*
X146174763Y-85117438D01*
X146174763Y-85117438D02*
X145793810Y-85117438D01*
X145793810Y-85117438D02*
X145603334Y-85022200D01*
X147412858Y-85117438D02*
X147412858Y-83784104D01*
X147412858Y-83117438D02*
X147317620Y-83212676D01*
X147317620Y-83212676D02*
X147412858Y-83307914D01*
X147412858Y-83307914D02*
X147508096Y-83212676D01*
X147508096Y-83212676D02*
X147412858Y-83117438D01*
X147412858Y-83117438D02*
X147412858Y-83307914D01*
X149222382Y-85022200D02*
X149031906Y-85117438D01*
X149031906Y-85117438D02*
X148650953Y-85117438D01*
X148650953Y-85117438D02*
X148460477Y-85022200D01*
X148460477Y-85022200D02*
X148365239Y-84926961D01*
X148365239Y-84926961D02*
X148270001Y-84736485D01*
X148270001Y-84736485D02*
X148270001Y-84165057D01*
X148270001Y-84165057D02*
X148365239Y-83974580D01*
X148365239Y-83974580D02*
X148460477Y-83879342D01*
X148460477Y-83879342D02*
X148650953Y-83784104D01*
X148650953Y-83784104D02*
X149031906Y-83784104D01*
X149031906Y-83784104D02*
X149222382Y-83879342D01*
X150365239Y-85117438D02*
X150174763Y-85022200D01*
X150174763Y-85022200D02*
X150079525Y-84926961D01*
X150079525Y-84926961D02*
X149984287Y-84736485D01*
X149984287Y-84736485D02*
X149984287Y-84165057D01*
X149984287Y-84165057D02*
X150079525Y-83974580D01*
X150079525Y-83974580D02*
X150174763Y-83879342D01*
X150174763Y-83879342D02*
X150365239Y-83784104D01*
X150365239Y-83784104D02*
X150650954Y-83784104D01*
X150650954Y-83784104D02*
X150841430Y-83879342D01*
X150841430Y-83879342D02*
X150936668Y-83974580D01*
X150936668Y-83974580D02*
X151031906Y-84165057D01*
X151031906Y-84165057D02*
X151031906Y-84736485D01*
X151031906Y-84736485D02*
X150936668Y-84926961D01*
X150936668Y-84926961D02*
X150841430Y-85022200D01*
X150841430Y-85022200D02*
X150650954Y-85117438D01*
X150650954Y-85117438D02*
X150365239Y-85117438D01*
X127443809Y-97754104D02*
X128967619Y-98325533D01*
X128967619Y-98325533D02*
X127443809Y-98896961D01*
X129919999Y-99087438D02*
X129919999Y-97087438D01*
X129919999Y-97087438D02*
X131062856Y-99087438D01*
X131062856Y-99087438D02*
X131062856Y-97087438D01*
X131919999Y-98516009D02*
X132872380Y-98516009D01*
X131729523Y-99087438D02*
X132396189Y-97087438D01*
X132396189Y-97087438D02*
X133062856Y-99087438D01*
X133729523Y-99087438D02*
X133729523Y-97087438D01*
X133729523Y-97087438D02*
X134396190Y-98516009D01*
X134396190Y-98516009D02*
X135062856Y-97087438D01*
X135062856Y-97087438D02*
X135062856Y-99087438D01*
X136015237Y-98039819D02*
X136681904Y-98039819D01*
X136967618Y-99087438D02*
X136015237Y-99087438D01*
X136015237Y-99087438D02*
X136015237Y-97087438D01*
X136015237Y-97087438D02*
X136967618Y-97087438D01*
X155666666Y-69564819D02*
X155666666Y-70279104D01*
X155666666Y-70279104D02*
X155619047Y-70421961D01*
X155619047Y-70421961D02*
X155523809Y-70517200D01*
X155523809Y-70517200D02*
X155380952Y-70564819D01*
X155380952Y-70564819D02*
X155285714Y-70564819D01*
X156095238Y-69660057D02*
X156142857Y-69612438D01*
X156142857Y-69612438D02*
X156238095Y-69564819D01*
X156238095Y-69564819D02*
X156476190Y-69564819D01*
X156476190Y-69564819D02*
X156571428Y-69612438D01*
X156571428Y-69612438D02*
X156619047Y-69660057D01*
X156619047Y-69660057D02*
X156666666Y-69755295D01*
X156666666Y-69755295D02*
X156666666Y-69850533D01*
X156666666Y-69850533D02*
X156619047Y-69993390D01*
X156619047Y-69993390D02*
X156047619Y-70564819D01*
X156047619Y-70564819D02*
X156666666Y-70564819D01*
X134361905Y-118154819D02*
X134361905Y-117154819D01*
X134933333Y-118154819D02*
X134504762Y-117583390D01*
X134933333Y-117154819D02*
X134361905Y-117726247D01*
X135314286Y-117250057D02*
X135361905Y-117202438D01*
X135361905Y-117202438D02*
X135457143Y-117154819D01*
X135457143Y-117154819D02*
X135695238Y-117154819D01*
X135695238Y-117154819D02*
X135790476Y-117202438D01*
X135790476Y-117202438D02*
X135838095Y-117250057D01*
X135838095Y-117250057D02*
X135885714Y-117345295D01*
X135885714Y-117345295D02*
X135885714Y-117440533D01*
X135885714Y-117440533D02*
X135838095Y-117583390D01*
X135838095Y-117583390D02*
X135266667Y-118154819D01*
X135266667Y-118154819D02*
X135885714Y-118154819D01*
X113126471Y-65113806D02*
X113126471Y-65925459D01*
X113126471Y-65925459D02*
X113174215Y-66020947D01*
X113174215Y-66020947D02*
X113221960Y-66068692D01*
X113221960Y-66068692D02*
X113317448Y-66116436D01*
X113317448Y-66116436D02*
X113508425Y-66116436D01*
X113508425Y-66116436D02*
X113603914Y-66068692D01*
X113603914Y-66068692D02*
X113651658Y-66020947D01*
X113651658Y-66020947D02*
X113699402Y-65925459D01*
X113699402Y-65925459D02*
X113699402Y-65113806D01*
X114606544Y-65448016D02*
X114606544Y-66116436D01*
X114367822Y-65066062D02*
X114129101Y-65782226D01*
X114129101Y-65782226D02*
X114749776Y-65782226D01*
X160333333Y-92234819D02*
X160000000Y-91758628D01*
X159761905Y-92234819D02*
X159761905Y-91234819D01*
X159761905Y-91234819D02*
X160142857Y-91234819D01*
X160142857Y-91234819D02*
X160238095Y-91282438D01*
X160238095Y-91282438D02*
X160285714Y-91330057D01*
X160285714Y-91330057D02*
X160333333Y-91425295D01*
X160333333Y-91425295D02*
X160333333Y-91568152D01*
X160333333Y-91568152D02*
X160285714Y-91663390D01*
X160285714Y-91663390D02*
X160238095Y-91711009D01*
X160238095Y-91711009D02*
X160142857Y-91758628D01*
X160142857Y-91758628D02*
X159761905Y-91758628D01*
X160666667Y-91234819D02*
X161285714Y-91234819D01*
X161285714Y-91234819D02*
X160952381Y-91615771D01*
X160952381Y-91615771D02*
X161095238Y-91615771D01*
X161095238Y-91615771D02*
X161190476Y-91663390D01*
X161190476Y-91663390D02*
X161238095Y-91711009D01*
X161238095Y-91711009D02*
X161285714Y-91806247D01*
X161285714Y-91806247D02*
X161285714Y-92044342D01*
X161285714Y-92044342D02*
X161238095Y-92139580D01*
X161238095Y-92139580D02*
X161190476Y-92187200D01*
X161190476Y-92187200D02*
X161095238Y-92234819D01*
X161095238Y-92234819D02*
X160809524Y-92234819D01*
X160809524Y-92234819D02*
X160714286Y-92187200D01*
X160714286Y-92187200D02*
X160666667Y-92139580D01*
X160333333Y-83234819D02*
X160000000Y-82758628D01*
X159761905Y-83234819D02*
X159761905Y-82234819D01*
X159761905Y-82234819D02*
X160142857Y-82234819D01*
X160142857Y-82234819D02*
X160238095Y-82282438D01*
X160238095Y-82282438D02*
X160285714Y-82330057D01*
X160285714Y-82330057D02*
X160333333Y-82425295D01*
X160333333Y-82425295D02*
X160333333Y-82568152D01*
X160333333Y-82568152D02*
X160285714Y-82663390D01*
X160285714Y-82663390D02*
X160238095Y-82711009D01*
X160238095Y-82711009D02*
X160142857Y-82758628D01*
X160142857Y-82758628D02*
X159761905Y-82758628D01*
X161285714Y-83234819D02*
X160714286Y-83234819D01*
X161000000Y-83234819D02*
X161000000Y-82234819D01*
X161000000Y-82234819D02*
X160904762Y-82377676D01*
X160904762Y-82377676D02*
X160809524Y-82472914D01*
X160809524Y-82472914D02*
X160714286Y-82520533D01*
X172501905Y-100414819D02*
X172501905Y-99414819D01*
X172501905Y-99414819D02*
X172740000Y-99414819D01*
X172740000Y-99414819D02*
X172882857Y-99462438D01*
X172882857Y-99462438D02*
X172978095Y-99557676D01*
X172978095Y-99557676D02*
X173025714Y-99652914D01*
X173025714Y-99652914D02*
X173073333Y-99843390D01*
X173073333Y-99843390D02*
X173073333Y-99986247D01*
X173073333Y-99986247D02*
X173025714Y-100176723D01*
X173025714Y-100176723D02*
X172978095Y-100271961D01*
X172978095Y-100271961D02*
X172882857Y-100367200D01*
X172882857Y-100367200D02*
X172740000Y-100414819D01*
X172740000Y-100414819D02*
X172501905Y-100414819D01*
X173406667Y-99414819D02*
X174025714Y-99414819D01*
X174025714Y-99414819D02*
X173692381Y-99795771D01*
X173692381Y-99795771D02*
X173835238Y-99795771D01*
X173835238Y-99795771D02*
X173930476Y-99843390D01*
X173930476Y-99843390D02*
X173978095Y-99891009D01*
X173978095Y-99891009D02*
X174025714Y-99986247D01*
X174025714Y-99986247D02*
X174025714Y-100224342D01*
X174025714Y-100224342D02*
X173978095Y-100319580D01*
X173978095Y-100319580D02*
X173930476Y-100367200D01*
X173930476Y-100367200D02*
X173835238Y-100414819D01*
X173835238Y-100414819D02*
X173549524Y-100414819D01*
X173549524Y-100414819D02*
X173454286Y-100367200D01*
X173454286Y-100367200D02*
X173406667Y-100319580D01*
D11*
%TO.C,J4*%
X88280000Y-50760000D02*
X88280000Y-47160000D01*
X93760000Y-45280000D02*
X90160000Y-45280000D01*
X93760000Y-52640000D02*
X90160000Y-52640000D01*
X95640000Y-50760000D02*
X95640000Y-47160000D01*
%TO.C,D2*%
X175830000Y-90545000D02*
X175830000Y-87455000D01*
X170280000Y-89000462D02*
G75*
G02*
X175830000Y-87455170I2990000J462D01*
G01*
X175830000Y-90544830D02*
G75*
G02*
X170280000Y-88999538I-2560000J1544830D01*
G01*
X175770000Y-89000000D02*
G75*
G02*
X170770000Y-89000000I-2500000J0D01*
G01*
X170770000Y-89000000D02*
G75*
G02*
X175770000Y-89000000I2500000J0D01*
G01*
%TO.C,D1*%
X175800000Y-83545000D02*
X175800000Y-80455000D01*
X170250000Y-82000462D02*
G75*
G02*
X175800000Y-80455170I2990000J462D01*
G01*
X175800000Y-83544830D02*
G75*
G02*
X170250000Y-81999538I-2560000J1544830D01*
G01*
X175740000Y-82000000D02*
G75*
G02*
X170740000Y-82000000I-2500000J0D01*
G01*
X170740000Y-82000000D02*
G75*
G02*
X175740000Y-82000000I2500000J0D01*
G01*
%TO.C,J3*%
X150900000Y-115160000D02*
X150900000Y-115800000D01*
X150900000Y-115800000D02*
X151300000Y-115800000D01*
X151140000Y-107840000D02*
X151140000Y-115560000D01*
X151140000Y-107840000D02*
X158260000Y-107840000D01*
X151140000Y-114000000D02*
X158260000Y-114000000D01*
X151140000Y-115100000D02*
X158260000Y-115100000D01*
X151140000Y-115560000D02*
X158260000Y-115560000D01*
X155305000Y-111941000D02*
X155176000Y-112069000D01*
X155475000Y-112181000D02*
X155381000Y-112274000D01*
X157520000Y-109725000D02*
X157426000Y-109819000D01*
X157725000Y-109931000D02*
X157596000Y-110059000D01*
X158260000Y-107840000D02*
X158260000Y-115560000D01*
X151524642Y-111889894D02*
G75*
G02*
X151510000Y-110134000I1425356J889894D01*
G01*
X152060106Y-109574642D02*
G75*
G02*
X153816000Y-109560000I889894J-1425356D01*
G01*
X152978674Y-112680099D02*
G75*
G02*
X152084000Y-112440000I-28671J1680113D01*
G01*
X153840264Y-112424721D02*
G75*
G02*
X152950000Y-112680000I-890261J1424711D01*
G01*
X154375504Y-110109807D02*
G75*
G02*
X154375000Y-111891000I-1425507J-890193D01*
G01*
X158130000Y-111000000D02*
G75*
G02*
X154770000Y-111000000I-1680000J0D01*
G01*
X154770000Y-111000000D02*
G75*
G02*
X158130000Y-111000000I1680000J0D01*
G01*
%TO.C,J1*%
X86940000Y-101440000D02*
X96060000Y-101440000D01*
X86940000Y-111560000D02*
X86940000Y-101440000D01*
X86940000Y-111560000D02*
X96060000Y-111560000D01*
X89346000Y-102612000D02*
X89726000Y-102992000D01*
X89346000Y-107612000D02*
X89453000Y-107719000D01*
X89612000Y-102346000D02*
X90008000Y-102741000D01*
X89612000Y-107346000D02*
X89719000Y-107453000D01*
X91992000Y-105258000D02*
X92388000Y-105653000D01*
X92274000Y-105007000D02*
X92654000Y-105387000D01*
X92281000Y-110548000D02*
X92388000Y-110654000D01*
X92547000Y-110282000D02*
X92654000Y-110388000D01*
X94500000Y-111560000D02*
X94500000Y-101440000D01*
X95600000Y-111560000D02*
X95600000Y-101440000D01*
X95660000Y-111800000D02*
X96300000Y-111800000D01*
X96060000Y-111560000D02*
X96060000Y-101440000D01*
X96300000Y-111800000D02*
X96300000Y-111400000D01*
X93180000Y-104000000D02*
G75*
G02*
X88820000Y-104000000I-2180000J0D01*
G01*
X88820000Y-104000000D02*
G75*
G02*
X93180000Y-104000000I2180000J0D01*
G01*
X93180000Y-109000000D02*
G75*
G02*
X88820000Y-109000000I-2180000J0D01*
G01*
X88820000Y-109000000D02*
G75*
G02*
X93180000Y-109000000I2180000J0D01*
G01*
%TO.C,R2*%
X155190000Y-90000000D02*
X155880000Y-90000000D01*
X155880000Y-88280000D02*
X155880000Y-91720000D01*
X155880000Y-91720000D02*
X165120000Y-91720000D01*
X165120000Y-88280000D02*
X155880000Y-88280000D01*
X165120000Y-91720000D02*
X165120000Y-88280000D01*
X165810000Y-90000000D02*
X165120000Y-90000000D01*
%TO.C,U1*%
X98531500Y-111841500D02*
X119613500Y-111841500D01*
X119613500Y-68661500D01*
X98531500Y-68661500D01*
X98531500Y-111841500D01*
D12*
%TO.C,U2*%
X126570000Y-46100000D02*
X126570000Y-99440000D01*
X126570000Y-99440000D02*
X149430000Y-99440000D01*
X134106690Y-43560000D02*
X134106690Y-48640000D01*
X134106690Y-48640000D02*
X141810000Y-48640000D01*
X141810000Y-43560000D02*
X134106690Y-43560000D01*
X141810000Y-48640000D02*
X141810000Y-43560000D01*
X149430000Y-46100000D02*
X126570000Y-46100000D01*
X149430000Y-99440000D02*
X149430000Y-46100000D01*
D11*
%TO.C,J2*%
X154670000Y-74150000D02*
X154670000Y-81830000D01*
X154670000Y-74150000D02*
X157330000Y-74150000D01*
X154670000Y-81830000D02*
X157330000Y-81830000D01*
X156000000Y-71550000D02*
X157330000Y-71550000D01*
X157330000Y-71550000D02*
X157330000Y-72880000D01*
X157330000Y-74150000D02*
X157330000Y-81830000D01*
%TO.C,K2*%
X125600000Y-100700000D02*
X125600000Y-107300000D01*
X125600000Y-100700000D02*
X145400000Y-100700000D01*
X125600000Y-109700000D02*
X125600000Y-116300000D01*
X129650000Y-108550000D02*
X128850000Y-108550000D01*
X129650000Y-108550000D02*
X129650000Y-112150000D01*
X130550000Y-114550000D02*
X133050000Y-114550000D01*
X131050000Y-106750000D02*
X135050000Y-106750000D01*
X131050000Y-110350000D02*
X131050000Y-106750000D01*
X133050000Y-102550000D02*
X130550000Y-102550000D01*
X133050000Y-102550000D02*
X133050000Y-106750000D01*
X133050000Y-110350000D02*
X133050000Y-114550000D01*
X135050000Y-106750000D02*
X135050000Y-110350000D01*
X135050000Y-110350000D02*
X131050000Y-106750000D01*
X135050000Y-110350000D02*
X131050000Y-110350000D01*
X136450000Y-108550000D02*
X136450000Y-112150000D01*
X136450000Y-108550000D02*
X137950000Y-108550000D01*
X136450000Y-112150000D02*
X129650000Y-112150000D01*
X137950000Y-108550000D02*
X142550000Y-106050000D01*
X141150000Y-104300000D02*
X141150000Y-106800000D01*
X141150000Y-112700000D02*
X141150000Y-110250000D01*
X145400000Y-100700000D02*
X145400000Y-116300000D01*
X145400000Y-116300000D02*
X125600000Y-116300000D01*
D13*
%TO.C,U4*%
X100050000Y-48000000D02*
X116050000Y-48000000D01*
X116050000Y-64000000D02*
X100050000Y-64000000D01*
D14*
X117675000Y-62985000D02*
G75*
G02*
X117475000Y-62985000I-100000J0D01*
G01*
X117475000Y-62985000D02*
G75*
G02*
X117675000Y-62985000I100000J0D01*
G01*
D11*
%TO.C,R3*%
X155190000Y-94500000D02*
X155880000Y-94500000D01*
X155880000Y-92780000D02*
X155880000Y-96220000D01*
X155880000Y-96220000D02*
X165120000Y-96220000D01*
X165120000Y-92780000D02*
X155880000Y-92780000D01*
X165120000Y-96220000D02*
X165120000Y-92780000D01*
X165810000Y-94500000D02*
X165120000Y-94500000D01*
%TO.C,R1*%
X155190000Y-85500000D02*
X155880000Y-85500000D01*
X155880000Y-83780000D02*
X155880000Y-87220000D01*
X155880000Y-87220000D02*
X165120000Y-87220000D01*
X165120000Y-83780000D02*
X155880000Y-83780000D01*
X165120000Y-87220000D02*
X165120000Y-83780000D01*
X165810000Y-85500000D02*
X165120000Y-85500000D01*
%TO.C,D3*%
X175800000Y-97545000D02*
X175800000Y-94455000D01*
X170250000Y-96000462D02*
G75*
G02*
X175800000Y-94455170I2990000J462D01*
G01*
X175800000Y-97544830D02*
G75*
G02*
X170250000Y-95999538I-2560000J1544830D01*
G01*
X175740000Y-96000000D02*
G75*
G02*
X170740000Y-96000000I-2500000J0D01*
G01*
X170740000Y-96000000D02*
G75*
G02*
X175740000Y-96000000I2500000J0D01*
G01*
%TD*%
M02*
