%TF.GenerationSoftware,KiCad,Pcbnew,8.0.2*%
%TF.CreationDate,2024-05-25T14:23:29+03:00*%
%TF.ProjectId,LoRa_irrigation_system,4c6f5261-5f69-4727-9269-676174696f6e,rev?*%
%TF.SameCoordinates,Original*%
%TF.FileFunction,Copper,L2,Bot*%
%TF.FilePolarity,Positive*%
%FSLAX46Y46*%
G04 Gerber Fmt 4.6, Leading zero omitted, Abs format (unit mm)*
G04 Created by KiCad (PCBNEW 8.0.2) date 2024-05-25 14:23:29*
%MOMM*%
%LPD*%
G01*
G04 APERTURE LIST*
%TA.AperFunction,ComponentPad*%
%ADD10C,2.050000*%
%TD*%
%TA.AperFunction,ComponentPad*%
%ADD11C,2.250000*%
%TD*%
%TA.AperFunction,ComponentPad*%
%ADD12R,1.800000X1.800000*%
%TD*%
%TA.AperFunction,ComponentPad*%
%ADD13C,1.800000*%
%TD*%
%TA.AperFunction,ComponentPad*%
%ADD14R,2.400000X2.400000*%
%TD*%
%TA.AperFunction,ComponentPad*%
%ADD15C,2.400000*%
%TD*%
%TA.AperFunction,ComponentPad*%
%ADD16R,2.600000X2.600000*%
%TD*%
%TA.AperFunction,ComponentPad*%
%ADD17C,2.600000*%
%TD*%
%TA.AperFunction,ComponentPad*%
%ADD18C,1.600000*%
%TD*%
%TA.AperFunction,ComponentPad*%
%ADD19O,1.600000X1.600000*%
%TD*%
%TA.AperFunction,ComponentPad*%
%ADD20R,2.000000X2.000000*%
%TD*%
%TA.AperFunction,ComponentPad*%
%ADD21R,1.508000X1.508000*%
%TD*%
%TA.AperFunction,ComponentPad*%
%ADD22R,1.700000X1.700000*%
%TD*%
%TA.AperFunction,ComponentPad*%
%ADD23O,1.700000X1.700000*%
%TD*%
%TA.AperFunction,ComponentPad*%
%ADD24C,3.000000*%
%TD*%
%TA.AperFunction,ComponentPad*%
%ADD25C,2.500000*%
%TD*%
%TA.AperFunction,Conductor*%
%ADD26C,0.800000*%
%TD*%
G04 APERTURE END LIST*
D10*
%TO.P,J4,1,In*%
%TO.N,Net-(J4-In)*%
X91960000Y-48960000D03*
D11*
%TO.P,J4,2,Ext*%
%TO.N,GND*%
X94500000Y-51500000D03*
X94500000Y-46420000D03*
X89420000Y-51500000D03*
X89420000Y-46420000D03*
%TD*%
D12*
%TO.P,D2,1,K*%
%TO.N,GND*%
X174540000Y-89000000D03*
D13*
%TO.P,D2,2,A*%
%TO.N,Net-(D2-A)*%
X172000000Y-89000000D03*
%TD*%
D12*
%TO.P,D1,1,K*%
%TO.N,GND*%
X174510000Y-82000000D03*
D13*
%TO.P,D1,2,A*%
%TO.N,Net-(D1-A)*%
X171970000Y-82000000D03*
%TD*%
D14*
%TO.P,J3,1,Pin_1*%
%TO.N,Pump active*%
X152950000Y-111000000D03*
D15*
%TO.P,J3,2,Pin_2*%
%TO.N,GND*%
X156450000Y-111000000D03*
%TD*%
D16*
%TO.P,J1,1,Pin_1*%
%TO.N,+12V*%
X91000000Y-109000000D03*
D17*
%TO.P,J1,2,Pin_2*%
%TO.N,GND*%
X91000000Y-104000000D03*
%TD*%
D18*
%TO.P,R2,1*%
%TO.N,MoistureOK*%
X154150000Y-90000000D03*
D19*
%TO.P,R2,2*%
%TO.N,Net-(D2-A)*%
X166850000Y-90000000D03*
%TD*%
D20*
%TO.P,U1,1,IN+*%
%TO.N,+12V*%
X100500000Y-109873000D03*
%TO.P,U1,2,IN-*%
%TO.N,GND*%
X117645000Y-109873000D03*
%TO.P,U1,3,OUT-*%
X117645000Y-70503000D03*
%TO.P,U1,4,OUT+*%
%TO.N,+3.3V*%
X100500000Y-70503000D03*
%TD*%
D21*
%TO.P,U2,3V3,3V3*%
%TO.N,unconnected-(U2-Pad3V3)*%
X146890000Y-58800000D03*
%TO.P,U2,3V3_EN,3V3_EN*%
%TO.N,unconnected-(U2-Pad3V3_EN)*%
X146890000Y-56260000D03*
%TO.P,U2,ADC_VREF,ADC_VREF*%
%TO.N,unconnected-(U2-PadADC_VREF)*%
X146890000Y-61340000D03*
%TO.P,U2,AGND,AGND*%
%TO.N,GND*%
X146890000Y-66420000D03*
%TO.P,U2,GND,GND*%
X146890000Y-53720000D03*
%TO.P,U2,GND2,GND2*%
X146890000Y-79120000D03*
%TO.P,U2,GND3,GND3*%
X146890000Y-91820000D03*
%TO.P,U2,GND4,GND4*%
X129110000Y-53720000D03*
%TO.P,U2,GND5,GND5*%
X129110000Y-66420000D03*
%TO.P,U2,GND6,GND6*%
X129110000Y-79120000D03*
%TO.P,U2,GND7,GND7*%
X129110000Y-91820000D03*
%TO.P,U2,GP0,GP0*%
%TO.N,RESET*%
X129110000Y-48640000D03*
%TO.P,U2,GP1,GP1*%
%TO.N,NSS*%
X129110000Y-51180000D03*
%TO.P,U2,GP2,GP2*%
%TO.N,SCK*%
X129110000Y-56260000D03*
%TO.P,U2,GP3,GP3*%
%TO.N,MOSI*%
X129110000Y-58800000D03*
%TO.P,U2,GP4,GP4*%
%TO.N,MISO*%
X129110000Y-61340000D03*
%TO.P,U2,GP5,GP5*%
%TO.N,DIO0*%
X129110000Y-63880000D03*
%TO.P,U2,GP6,GP6*%
%TO.N,unconnected-(U2-PadGP6)*%
X129110000Y-68960000D03*
%TO.P,U2,GP7,GP7*%
%TO.N,unconnected-(U2-PadGP7)*%
X129110000Y-71500000D03*
%TO.P,U2,GP8,GP8*%
%TO.N,unconnected-(U2-PadGP8)*%
X129110000Y-74040000D03*
%TO.P,U2,GP9,GP9*%
%TO.N,unconnected-(U2-PadGP9)*%
X129110000Y-76580000D03*
%TO.P,U2,GP10,GP10*%
%TO.N,unconnected-(U2-PadGP10)*%
X129110000Y-81660000D03*
%TO.P,U2,GP11,GP11*%
%TO.N,unconnected-(U2-PadGP11)*%
X129110000Y-84200000D03*
%TO.P,U2,GP12,GP12*%
%TO.N,unconnected-(U2-PadGP12)*%
X129110000Y-86740000D03*
%TO.P,U2,GP13,GP13*%
%TO.N,unconnected-(U2-PadGP13)*%
X129110000Y-89280000D03*
%TO.P,U2,GP14,GP14*%
%TO.N,unconnected-(U2-PadGP14)*%
X129110000Y-94360000D03*
%TO.P,U2,GP15,GP15*%
%TO.N,RelayON*%
X129110000Y-96900000D03*
%TO.P,U2,GP16,GP16*%
%TO.N,unconnected-(U2-PadGP16)*%
X146890000Y-96900000D03*
%TO.P,U2,GP17,GP17*%
%TO.N,unconnected-(U2-PadGP17)*%
X146890000Y-94360000D03*
%TO.P,U2,GP18,GP18*%
%TO.N,MoistureLOW*%
X146890000Y-89280000D03*
%TO.P,U2,GP19,GP19*%
%TO.N,MoistureOK*%
X146890000Y-86740000D03*
%TO.P,U2,GP20,GP20*%
%TO.N,IrrigON*%
X146890000Y-84200000D03*
%TO.P,U2,GP21,GP21*%
%TO.N,unconnected-(U2-PadGP21)*%
X146890000Y-81660000D03*
%TO.P,U2,GP22,GP22*%
%TO.N,D0*%
X146890000Y-76580000D03*
%TO.P,U2,GP26_A0,GP26_A0*%
%TO.N,A0*%
X146890000Y-71500000D03*
%TO.P,U2,GP27_A1,GP27_A1*%
%TO.N,unconnected-(U2-PadGP27_A1)*%
X146890000Y-68960000D03*
%TO.P,U2,GP28_A2,GP28_A2*%
%TO.N,unconnected-(U2-PadGP28_A2)*%
X146890000Y-63880000D03*
%TO.P,U2,RUN,RUN*%
%TO.N,unconnected-(U2-PadRUN)*%
X146890000Y-74040000D03*
%TO.P,U2,VBUS,VBUS*%
%TO.N,unconnected-(U2-PadVBUS)*%
X146890000Y-48640000D03*
%TO.P,U2,VSYS,VSYS*%
%TO.N,+3.3V*%
X146890000Y-51180000D03*
%TD*%
D22*
%TO.P,J2,1,Pin_1*%
%TO.N,A0*%
X156000000Y-72880000D03*
D23*
%TO.P,J2,2,Pin_2*%
%TO.N,D0*%
X156000000Y-75420000D03*
%TO.P,J2,3,Pin_3*%
%TO.N,GND*%
X156000000Y-77960000D03*
%TO.P,J2,4,Pin_4*%
%TO.N,+3.3V*%
X156000000Y-80500000D03*
%TD*%
D24*
%TO.P,K2,1*%
%TO.N,+12V*%
X127000000Y-108500000D03*
D25*
%TO.P,K2,2*%
%TO.N,GND*%
X128950000Y-114550000D03*
D24*
%TO.P,K2,3*%
%TO.N,Pump active*%
X141150000Y-114550000D03*
%TO.P,K2,4*%
%TO.N,unconnected-(K2-Pad4)*%
X141200000Y-102500000D03*
D25*
%TO.P,K2,5*%
%TO.N,RelayON*%
X128950000Y-102550000D03*
%TD*%
D18*
%TO.P,R3,1*%
%TO.N,MoistureLOW*%
X154150000Y-94500000D03*
D19*
%TO.P,R3,2*%
%TO.N,Net-(D3-A)*%
X166850000Y-94500000D03*
%TD*%
D18*
%TO.P,R1,1*%
%TO.N,IrrigON*%
X154150000Y-85500000D03*
D19*
%TO.P,R1,2*%
%TO.N,Net-(D1-A)*%
X166850000Y-85500000D03*
%TD*%
D12*
%TO.P,D3,1,K*%
%TO.N,GND*%
X174510000Y-96000000D03*
D13*
%TO.P,D3,2,A*%
%TO.N,Net-(D3-A)*%
X171970000Y-96000000D03*
%TD*%
D26*
%TO.N,GND*%
X155510000Y-78450000D02*
X156000000Y-77960000D01*
X117645000Y-109873000D02*
X117645000Y-114645000D01*
X117645000Y-114645000D02*
X118000000Y-115000000D01*
X152500000Y-96406000D02*
X150943629Y-94849629D01*
X118000000Y-115000000D02*
X118450000Y-114550000D01*
X125500000Y-66420000D02*
X121728000Y-66420000D01*
X121728000Y-66420000D02*
X117645000Y-70503000D01*
X132000000Y-117600000D02*
X132000000Y-118500000D01*
X132000000Y-118500000D02*
X156000000Y-118500000D01*
X154321572Y-97500000D02*
X152500000Y-97500000D01*
X94500000Y-51500000D02*
X89420000Y-51500000D01*
X156450000Y-99628428D02*
X154321572Y-97500000D01*
X156450000Y-111000000D02*
X156450000Y-99628428D01*
X116500000Y-98000000D02*
X117645000Y-96855000D01*
X156000000Y-118500000D02*
X156500000Y-118000000D01*
X150943629Y-93556371D02*
X149207258Y-91820000D01*
X129110000Y-66420000D02*
X125500000Y-66420000D01*
X174510000Y-107990000D02*
X174510000Y-96000000D01*
X171500000Y-111000000D02*
X174510000Y-107990000D01*
X129110000Y-79120000D02*
X125620000Y-79120000D01*
X129110000Y-91820000D02*
X125820000Y-91820000D01*
X150943629Y-94849629D02*
X150943629Y-93556371D01*
X174510000Y-82000000D02*
X174510000Y-88970000D01*
X125500000Y-79000000D02*
X125500000Y-66420000D01*
X129110000Y-53720000D02*
X146890000Y-53720000D01*
X125820000Y-91820000D02*
X125500000Y-91500000D01*
X126220000Y-53720000D02*
X126000000Y-53500000D01*
X149207258Y-91820000D02*
X146890000Y-91820000D01*
X174510000Y-89030000D02*
X174540000Y-89000000D01*
X118450000Y-114550000D02*
X128950000Y-114550000D01*
X174510000Y-96000000D02*
X174510000Y-89030000D01*
X174510000Y-88970000D02*
X174540000Y-89000000D01*
X112000000Y-104000000D02*
X116500000Y-99500000D01*
X146890000Y-79120000D02*
X147880000Y-79120000D01*
X125500000Y-54000000D02*
X125500000Y-66420000D01*
X125620000Y-79120000D02*
X125500000Y-79000000D01*
X129110000Y-66420000D02*
X146890000Y-66420000D01*
X91000000Y-104000000D02*
X112000000Y-104000000D01*
X148550000Y-78450000D02*
X155510000Y-78450000D01*
X152500000Y-97500000D02*
X152500000Y-96406000D01*
X94500000Y-46420000D02*
X89420000Y-46420000D01*
X156450000Y-111000000D02*
X171500000Y-111000000D01*
X156500000Y-118000000D02*
X156450000Y-117950000D01*
X117645000Y-96855000D02*
X117645000Y-70503000D01*
X147880000Y-79120000D02*
X148550000Y-78450000D01*
X89420000Y-46420000D02*
X89420000Y-51500000D01*
X129110000Y-79120000D02*
X146890000Y-79120000D01*
X125500000Y-91500000D02*
X125620000Y-91380000D01*
X128950000Y-114550000D02*
X132000000Y-117600000D01*
X129110000Y-91820000D02*
X146890000Y-91820000D01*
X156450000Y-117950000D02*
X156450000Y-111000000D01*
X129110000Y-53720000D02*
X126220000Y-53720000D01*
X126000000Y-53500000D02*
X125500000Y-54000000D01*
X116500000Y-99500000D02*
X116500000Y-98000000D01*
X125620000Y-91380000D02*
X125620000Y-79120000D01*
%TO.N,Net-(D1-A)*%
X166850000Y-85500000D02*
X168470000Y-85500000D01*
X168470000Y-85500000D02*
X171970000Y-82000000D01*
%TO.N,Net-(D2-A)*%
X171000000Y-90000000D02*
X172000000Y-89000000D01*
X166850000Y-90000000D02*
X171000000Y-90000000D01*
%TO.N,Net-(D3-A)*%
X170470000Y-94500000D02*
X171970000Y-96000000D01*
X166850000Y-94500000D02*
X170470000Y-94500000D01*
%TO.N,+12V*%
X102700000Y-107673000D02*
X126173000Y-107673000D01*
X91000000Y-109000000D02*
X99627000Y-109000000D01*
X99627000Y-109000000D02*
X100500000Y-109873000D01*
X126173000Y-107673000D02*
X127000000Y-108500000D01*
X100500000Y-109873000D02*
X102700000Y-107673000D01*
%TO.N,D0*%
X155640862Y-75420000D02*
X156000000Y-75420000D01*
X154480862Y-76580000D02*
X155640862Y-75420000D01*
X146890000Y-76580000D02*
X154480862Y-76580000D01*
%TO.N,+3.3V*%
X126500000Y-45000000D02*
X137500000Y-45000000D01*
X100997000Y-70503000D02*
X126500000Y-45000000D01*
X148444000Y-51180000D02*
X159500000Y-62236000D01*
X100500000Y-70503000D02*
X100997000Y-70503000D01*
X159500000Y-62236000D02*
X159500000Y-80500000D01*
X137500000Y-45000000D02*
X143680000Y-51180000D01*
X159500000Y-80500000D02*
X156000000Y-80500000D01*
X143680000Y-51180000D02*
X146890000Y-51180000D01*
X146890000Y-51180000D02*
X148444000Y-51180000D01*
%TO.N,A0*%
X154620000Y-71500000D02*
X156000000Y-72880000D01*
X146890000Y-71500000D02*
X154620000Y-71500000D01*
%TO.N,Pump active*%
X149400000Y-114550000D02*
X152950000Y-111000000D01*
X141150000Y-114550000D02*
X149400000Y-114550000D01*
%TO.N,RelayON*%
X129110000Y-102390000D02*
X128950000Y-102550000D01*
X129110000Y-96900000D02*
X129110000Y-102390000D01*
%TO.N,MoistureOK*%
X146890000Y-86740000D02*
X150890000Y-86740000D01*
X150890000Y-86740000D02*
X154150000Y-90000000D01*
%TO.N,MoistureLOW*%
X146890000Y-89280000D02*
X148930000Y-89280000D01*
X148930000Y-89280000D02*
X154150000Y-94500000D01*
%TO.N,IrrigON*%
X152850000Y-84200000D02*
X154150000Y-85500000D01*
X146890000Y-84200000D02*
X152850000Y-84200000D01*
%TD*%
%TA.AperFunction,Conductor*%
%TO.N,GND*%
G36*
X148334574Y-52771125D02*
G01*
X148351537Y-52785301D01*
X158263181Y-62696945D01*
X158296666Y-62758268D01*
X158299500Y-62784626D01*
X158299500Y-79175500D01*
X158279815Y-79242539D01*
X158227011Y-79288294D01*
X158175500Y-79299500D01*
X157181531Y-79299500D01*
X157114492Y-79279815D01*
X157101000Y-79269790D01*
X156973143Y-79160590D01*
X156973135Y-79160584D01*
X156943229Y-79142258D01*
X156896354Y-79090447D01*
X156884931Y-79021517D01*
X156912588Y-78957354D01*
X156920338Y-78948850D01*
X157038105Y-78831082D01*
X157173600Y-78637578D01*
X157273429Y-78423492D01*
X157273432Y-78423486D01*
X157330636Y-78210000D01*
X156433012Y-78210000D01*
X156465925Y-78152993D01*
X156500000Y-78025826D01*
X156500000Y-77894174D01*
X156465925Y-77767007D01*
X156433012Y-77710000D01*
X157330636Y-77710000D01*
X157330635Y-77709999D01*
X157273432Y-77496513D01*
X157273429Y-77496507D01*
X157173600Y-77282422D01*
X157173599Y-77282420D01*
X157038113Y-77088926D01*
X156920337Y-76971149D01*
X156886853Y-76909826D01*
X156891837Y-76840134D01*
X156933709Y-76784201D01*
X156943223Y-76777744D01*
X156973140Y-76759412D01*
X157170689Y-76590689D01*
X157339412Y-76393140D01*
X157475154Y-76171628D01*
X157574573Y-75931610D01*
X157635221Y-75678994D01*
X157655604Y-75420000D01*
X157635221Y-75161006D01*
X157574573Y-74908390D01*
X157516334Y-74767790D01*
X157475154Y-74668371D01*
X157362297Y-74484205D01*
X157344052Y-74416759D01*
X157365168Y-74350157D01*
X157380333Y-74331744D01*
X157479816Y-74232262D01*
X157575789Y-74079522D01*
X157635368Y-73909255D01*
X157650500Y-73774954D01*
X157650500Y-71985046D01*
X157645565Y-71941246D01*
X157635369Y-71850750D01*
X157635368Y-71850745D01*
X157576410Y-71682254D01*
X157575789Y-71680478D01*
X157479816Y-71527738D01*
X157352262Y-71400184D01*
X157199523Y-71304211D01*
X157029254Y-71244631D01*
X157029249Y-71244630D01*
X156894960Y-71229500D01*
X156894954Y-71229500D01*
X156098626Y-71229500D01*
X156031587Y-71209815D01*
X156010945Y-71193181D01*
X155402076Y-70584312D01*
X155402074Y-70584310D01*
X155249199Y-70473240D01*
X155080836Y-70387454D01*
X154901118Y-70329059D01*
X154714486Y-70299500D01*
X154714481Y-70299500D01*
X148445876Y-70299500D01*
X148378837Y-70279815D01*
X148333082Y-70227011D01*
X148323138Y-70157853D01*
X148340882Y-70109528D01*
X148357671Y-70082807D01*
X148369789Y-70063522D01*
X148429368Y-69893255D01*
X148444500Y-69758954D01*
X148444500Y-68161046D01*
X148429368Y-68026745D01*
X148369789Y-67856478D01*
X148273816Y-67703738D01*
X148146262Y-67576184D01*
X148135655Y-67569519D01*
X148089366Y-67517184D01*
X148078719Y-67448131D01*
X148085448Y-67421193D01*
X148137597Y-67281376D01*
X148137598Y-67281372D01*
X148143999Y-67221844D01*
X148144000Y-67221827D01*
X148144000Y-66670000D01*
X147323012Y-66670000D01*
X147355925Y-66612993D01*
X147390000Y-66485826D01*
X147390000Y-66354174D01*
X147355925Y-66227007D01*
X147323012Y-66170000D01*
X148144000Y-66170000D01*
X148144000Y-65618172D01*
X148143999Y-65618155D01*
X148137598Y-65558627D01*
X148137597Y-65558623D01*
X148085448Y-65418805D01*
X148080464Y-65349113D01*
X148113949Y-65287790D01*
X148135655Y-65270480D01*
X148146262Y-65263816D01*
X148273816Y-65136262D01*
X148369789Y-64983522D01*
X148429368Y-64813255D01*
X148444500Y-64678954D01*
X148444500Y-63081046D01*
X148429368Y-62946745D01*
X148369789Y-62776478D01*
X148369788Y-62776476D01*
X148369788Y-62776475D01*
X148306637Y-62675973D01*
X148287636Y-62608736D01*
X148306637Y-62544027D01*
X148369788Y-62443524D01*
X148429368Y-62273254D01*
X148429369Y-62273249D01*
X148444211Y-62141519D01*
X148444500Y-62138954D01*
X148444500Y-60541046D01*
X148429368Y-60406745D01*
X148369789Y-60236478D01*
X148369788Y-60236476D01*
X148369788Y-60236475D01*
X148306637Y-60135973D01*
X148287636Y-60068736D01*
X148306637Y-60004027D01*
X148369788Y-59903524D01*
X148429368Y-59733254D01*
X148429369Y-59733249D01*
X148444499Y-59598960D01*
X148444500Y-59598956D01*
X148444500Y-58001043D01*
X148444499Y-58001039D01*
X148429369Y-57866750D01*
X148429368Y-57866745D01*
X148369788Y-57696475D01*
X148306637Y-57595973D01*
X148287636Y-57528736D01*
X148306637Y-57464027D01*
X148369788Y-57363524D01*
X148429368Y-57193254D01*
X148429369Y-57193249D01*
X148444499Y-57058960D01*
X148444500Y-57058956D01*
X148444500Y-55461043D01*
X148444499Y-55461039D01*
X148429369Y-55326750D01*
X148429368Y-55326745D01*
X148369788Y-55156476D01*
X148273815Y-55003737D01*
X148146263Y-54876185D01*
X148146262Y-54876184D01*
X148135655Y-54869519D01*
X148089366Y-54817184D01*
X148078719Y-54748131D01*
X148085448Y-54721193D01*
X148137597Y-54581376D01*
X148137598Y-54581372D01*
X148143999Y-54521844D01*
X148144000Y-54521827D01*
X148144000Y-53970000D01*
X147323012Y-53970000D01*
X147355925Y-53912993D01*
X147390000Y-53785826D01*
X147390000Y-53654174D01*
X147355925Y-53527007D01*
X147323012Y-53470000D01*
X148144000Y-53470000D01*
X148144000Y-52918172D01*
X148143999Y-52918158D01*
X148140567Y-52886239D01*
X148152971Y-52817479D01*
X148200581Y-52766341D01*
X148268280Y-52749061D01*
X148334574Y-52771125D01*
G37*
%TD.AperFunction*%
%TA.AperFunction,Conductor*%
G36*
X177942539Y-43520185D02*
G01*
X177988294Y-43572989D01*
X177999500Y-43624500D01*
X177999500Y-119875500D01*
X177979815Y-119942539D01*
X177927011Y-119988294D01*
X177875500Y-119999500D01*
X85624500Y-119999500D01*
X85557461Y-119979815D01*
X85511706Y-119927011D01*
X85500500Y-119875500D01*
X85500500Y-114549995D01*
X127195093Y-114549995D01*
X127195093Y-114550004D01*
X127214692Y-114811545D01*
X127214693Y-114811550D01*
X127273058Y-115067270D01*
X127368883Y-115311426D01*
X127368882Y-115311426D01*
X127500027Y-115538573D01*
X127547874Y-115598571D01*
X128467037Y-114679409D01*
X128484075Y-114742993D01*
X128549901Y-114857007D01*
X128642993Y-114950099D01*
X128757007Y-115015925D01*
X128820590Y-115032962D01*
X127900830Y-115952720D01*
X128072546Y-116069793D01*
X128072550Y-116069795D01*
X128308854Y-116183594D01*
X128308858Y-116183595D01*
X128559494Y-116260907D01*
X128559500Y-116260909D01*
X128818848Y-116299999D01*
X128818857Y-116300000D01*
X129081143Y-116300000D01*
X129081151Y-116299999D01*
X129340499Y-116260909D01*
X129340505Y-116260907D01*
X129591143Y-116183595D01*
X129827445Y-116069798D01*
X129827447Y-116069797D01*
X129999168Y-115952720D01*
X129079409Y-115032962D01*
X129142993Y-115015925D01*
X129257007Y-114950099D01*
X129350099Y-114857007D01*
X129415925Y-114742993D01*
X129432962Y-114679409D01*
X130352125Y-115598572D01*
X130399971Y-115538573D01*
X130531116Y-115311426D01*
X130626941Y-115067270D01*
X130685306Y-114811550D01*
X130685307Y-114811545D01*
X130704907Y-114550004D01*
X130704907Y-114550000D01*
X138844564Y-114550000D01*
X138864287Y-114850918D01*
X138864288Y-114850930D01*
X138923118Y-115146683D01*
X138923122Y-115146698D01*
X139020053Y-115432247D01*
X139020062Y-115432268D01*
X139153431Y-115702713D01*
X139153435Y-115702720D01*
X139320973Y-115953459D01*
X139519810Y-116180189D01*
X139746540Y-116379026D01*
X139997279Y-116546564D01*
X139997286Y-116546568D01*
X140267731Y-116679937D01*
X140267736Y-116679939D01*
X140267748Y-116679945D01*
X140553309Y-116776880D01*
X140753251Y-116816651D01*
X140849069Y-116835711D01*
X140849070Y-116835711D01*
X140849080Y-116835713D01*
X141150000Y-116855436D01*
X141450920Y-116835713D01*
X141746691Y-116776880D01*
X142032252Y-116679945D01*
X142302718Y-116546566D01*
X142553461Y-116379025D01*
X142780189Y-116180189D01*
X142979025Y-115953461D01*
X143077816Y-115805610D01*
X143131428Y-115760804D01*
X143180918Y-115750500D01*
X149494486Y-115750500D01*
X149681118Y-115720940D01*
X149860832Y-115662547D01*
X150029199Y-115576760D01*
X150182074Y-115465690D01*
X152610945Y-113036819D01*
X152672268Y-113003334D01*
X152698626Y-113000500D01*
X154194957Y-113000500D01*
X154194958Y-113000499D01*
X154262104Y-112992934D01*
X154329249Y-112985369D01*
X154329252Y-112985368D01*
X154329255Y-112985368D01*
X154499522Y-112925789D01*
X154652262Y-112829816D01*
X154779816Y-112702262D01*
X154875789Y-112549522D01*
X154935368Y-112379255D01*
X154936779Y-112366738D01*
X154942934Y-112312104D01*
X154950500Y-112244954D01*
X154950500Y-112136684D01*
X154970185Y-112069645D01*
X155022989Y-112023890D01*
X155081454Y-112012879D01*
X155083454Y-112012991D01*
X155885387Y-111211058D01*
X155890889Y-111231591D01*
X155969881Y-111368408D01*
X156081592Y-111480119D01*
X156218409Y-111559111D01*
X156238940Y-111564612D01*
X155436813Y-112366738D01*
X155597616Y-112476371D01*
X155597624Y-112476376D01*
X155827176Y-112586921D01*
X155827174Y-112586921D01*
X156070652Y-112662024D01*
X156070658Y-112662026D01*
X156322595Y-112699999D01*
X156322604Y-112700000D01*
X156577396Y-112700000D01*
X156577404Y-112699999D01*
X156829341Y-112662026D01*
X156829347Y-112662024D01*
X157072824Y-112586921D01*
X157302376Y-112476376D01*
X157302377Y-112476375D01*
X157463185Y-112366738D01*
X156661060Y-111564612D01*
X156681591Y-111559111D01*
X156818408Y-111480119D01*
X156930119Y-111368408D01*
X157009111Y-111231591D01*
X157014612Y-111211059D01*
X157816544Y-112012992D01*
X157816546Y-112012991D01*
X157858544Y-111960330D01*
X157985941Y-111739671D01*
X158079026Y-111502494D01*
X158079031Y-111502477D01*
X158135726Y-111254079D01*
X158154767Y-111000004D01*
X158154767Y-110999995D01*
X158135726Y-110745920D01*
X158079031Y-110497522D01*
X158079026Y-110497505D01*
X157985941Y-110260328D01*
X157985942Y-110260328D01*
X157858545Y-110039672D01*
X157816545Y-109987006D01*
X157014612Y-110788939D01*
X157009111Y-110768409D01*
X156930119Y-110631592D01*
X156818408Y-110519881D01*
X156681591Y-110440889D01*
X156661059Y-110435387D01*
X157463185Y-109633260D01*
X157302384Y-109523628D01*
X157302376Y-109523623D01*
X157072823Y-109413078D01*
X157072825Y-109413078D01*
X156829347Y-109337975D01*
X156829341Y-109337973D01*
X156577404Y-109300000D01*
X156322595Y-109300000D01*
X156070658Y-109337973D01*
X156070652Y-109337975D01*
X155827175Y-109413078D01*
X155597622Y-109523625D01*
X155597609Y-109523632D01*
X155436813Y-109633259D01*
X156238941Y-110435387D01*
X156218409Y-110440889D01*
X156081592Y-110519881D01*
X155969881Y-110631592D01*
X155890889Y-110768409D01*
X155885387Y-110788941D01*
X155083452Y-109987006D01*
X155081452Y-109987119D01*
X155013414Y-109971224D01*
X154964771Y-109921068D01*
X154950500Y-109863314D01*
X154950500Y-109755043D01*
X154950499Y-109755039D01*
X154935369Y-109620750D01*
X154935368Y-109620745D01*
X154901384Y-109523625D01*
X154875789Y-109450478D01*
X154858523Y-109423000D01*
X154832917Y-109382247D01*
X154779816Y-109297738D01*
X154652262Y-109170184D01*
X154499523Y-109074211D01*
X154329254Y-109014631D01*
X154329249Y-109014630D01*
X154194960Y-108999500D01*
X154194954Y-108999500D01*
X151705046Y-108999500D01*
X151705039Y-108999500D01*
X151570750Y-109014630D01*
X151570745Y-109014631D01*
X151400476Y-109074211D01*
X151247737Y-109170184D01*
X151120184Y-109297737D01*
X151024211Y-109450476D01*
X150964631Y-109620745D01*
X150964630Y-109620750D01*
X150949500Y-109755039D01*
X150949500Y-111251374D01*
X150929815Y-111318413D01*
X150913181Y-111339055D01*
X148939055Y-113313181D01*
X148877732Y-113346666D01*
X148851374Y-113349500D01*
X143180918Y-113349500D01*
X143113879Y-113329815D01*
X143077816Y-113294390D01*
X142979026Y-113146540D01*
X142780189Y-112919810D01*
X142553459Y-112720973D01*
X142302720Y-112553435D01*
X142302713Y-112553431D01*
X142032268Y-112420062D01*
X142032247Y-112420053D01*
X141746698Y-112323122D01*
X141746692Y-112323120D01*
X141746691Y-112323120D01*
X141746689Y-112323119D01*
X141746683Y-112323118D01*
X141450930Y-112264288D01*
X141450921Y-112264287D01*
X141450920Y-112264287D01*
X141150000Y-112244564D01*
X140849080Y-112264287D01*
X140849079Y-112264287D01*
X140849069Y-112264288D01*
X140553316Y-112323118D01*
X140553301Y-112323122D01*
X140267752Y-112420053D01*
X140267731Y-112420062D01*
X139997286Y-112553431D01*
X139997279Y-112553435D01*
X139746540Y-112720973D01*
X139519810Y-112919810D01*
X139320973Y-113146540D01*
X139153435Y-113397279D01*
X139153431Y-113397286D01*
X139020062Y-113667731D01*
X139020053Y-113667752D01*
X138923122Y-113953301D01*
X138923118Y-113953316D01*
X138864288Y-114249069D01*
X138864287Y-114249081D01*
X138844564Y-114550000D01*
X130704907Y-114550000D01*
X130704907Y-114549995D01*
X130685307Y-114288454D01*
X130685306Y-114288449D01*
X130626941Y-114032729D01*
X130531116Y-113788573D01*
X130531117Y-113788573D01*
X130399972Y-113561426D01*
X130352124Y-113501427D01*
X129432962Y-114420589D01*
X129415925Y-114357007D01*
X129350099Y-114242993D01*
X129257007Y-114149901D01*
X129142993Y-114084075D01*
X129079410Y-114067037D01*
X129999168Y-113147278D01*
X129827454Y-113030206D01*
X129827445Y-113030201D01*
X129591142Y-112916404D01*
X129591144Y-112916404D01*
X129340505Y-112839092D01*
X129340499Y-112839090D01*
X129081151Y-112800000D01*
X128818848Y-112800000D01*
X128559500Y-112839090D01*
X128559494Y-112839092D01*
X128308858Y-112916404D01*
X128308854Y-112916405D01*
X128072547Y-113030205D01*
X128072539Y-113030210D01*
X127900830Y-113147277D01*
X128820590Y-114067037D01*
X128757007Y-114084075D01*
X128642993Y-114149901D01*
X128549901Y-114242993D01*
X128484075Y-114357007D01*
X128467037Y-114420589D01*
X127547874Y-113501427D01*
X127500028Y-113561425D01*
X127368883Y-113788573D01*
X127273058Y-114032729D01*
X127214693Y-114288449D01*
X127214692Y-114288454D01*
X127195093Y-114549995D01*
X85500500Y-114549995D01*
X85500500Y-107655039D01*
X88899500Y-107655039D01*
X88899500Y-110344960D01*
X88914630Y-110479249D01*
X88914631Y-110479254D01*
X88974211Y-110649523D01*
X89070184Y-110802262D01*
X89197738Y-110929816D01*
X89350478Y-111025789D01*
X89502521Y-111078991D01*
X89520745Y-111085368D01*
X89520750Y-111085369D01*
X89611246Y-111095565D01*
X89655040Y-111100499D01*
X89655043Y-111100500D01*
X89655046Y-111100500D01*
X92344957Y-111100500D01*
X92344958Y-111100499D01*
X92412104Y-111092934D01*
X92479249Y-111085369D01*
X92479252Y-111085368D01*
X92479255Y-111085368D01*
X92649522Y-111025789D01*
X92802262Y-110929816D01*
X92929816Y-110802262D01*
X93025789Y-110649522D01*
X93085368Y-110479255D01*
X93100500Y-110344954D01*
X93100500Y-110324500D01*
X93120185Y-110257461D01*
X93172989Y-110211706D01*
X93224500Y-110200500D01*
X98575500Y-110200500D01*
X98642539Y-110220185D01*
X98688294Y-110272989D01*
X98699500Y-110324500D01*
X98699500Y-110917960D01*
X98714630Y-111052249D01*
X98714631Y-111052254D01*
X98774211Y-111222523D01*
X98856543Y-111353553D01*
X98870184Y-111375262D01*
X98997738Y-111502816D01*
X99150478Y-111598789D01*
X99320745Y-111658368D01*
X99320750Y-111658369D01*
X99411246Y-111668565D01*
X99455040Y-111673499D01*
X99455043Y-111673500D01*
X99455046Y-111673500D01*
X101544957Y-111673500D01*
X101544958Y-111673499D01*
X101612104Y-111665934D01*
X101679249Y-111658369D01*
X101679252Y-111658368D01*
X101679255Y-111658368D01*
X101849522Y-111598789D01*
X102002262Y-111502816D01*
X102129816Y-111375262D01*
X102225789Y-111222522D01*
X102285368Y-111052255D01*
X102300500Y-110917954D01*
X102300500Y-109821625D01*
X102320185Y-109754586D01*
X102336819Y-109733944D01*
X103160944Y-108909819D01*
X103222267Y-108876334D01*
X103248625Y-108873500D01*
X116021000Y-108873500D01*
X116088039Y-108893185D01*
X116133794Y-108945989D01*
X116145000Y-108997500D01*
X116145000Y-109623000D01*
X117269722Y-109623000D01*
X117225667Y-109699306D01*
X117195000Y-109813756D01*
X117195000Y-109932244D01*
X117225667Y-110046694D01*
X117269722Y-110123000D01*
X116145000Y-110123000D01*
X116145000Y-110920844D01*
X116151401Y-110980372D01*
X116151403Y-110980379D01*
X116201645Y-111115086D01*
X116201649Y-111115093D01*
X116287809Y-111230187D01*
X116287812Y-111230190D01*
X116402906Y-111316350D01*
X116402913Y-111316354D01*
X116537620Y-111366596D01*
X116537627Y-111366598D01*
X116597155Y-111372999D01*
X116597172Y-111373000D01*
X117395000Y-111373000D01*
X117395000Y-110248277D01*
X117471306Y-110292333D01*
X117585756Y-110323000D01*
X117704244Y-110323000D01*
X117818694Y-110292333D01*
X117895000Y-110248277D01*
X117895000Y-111373000D01*
X118692828Y-111373000D01*
X118692844Y-111372999D01*
X118752372Y-111366598D01*
X118752379Y-111366596D01*
X118887086Y-111316354D01*
X118887093Y-111316350D01*
X119002187Y-111230190D01*
X119002190Y-111230187D01*
X119088350Y-111115093D01*
X119088354Y-111115086D01*
X119138596Y-110980379D01*
X119138598Y-110980372D01*
X119144999Y-110920844D01*
X119145000Y-110920827D01*
X119145000Y-110123000D01*
X118020278Y-110123000D01*
X118064333Y-110046694D01*
X118095000Y-109932244D01*
X118095000Y-109813756D01*
X118064333Y-109699306D01*
X118020278Y-109623000D01*
X119145000Y-109623000D01*
X119145000Y-108997500D01*
X119164685Y-108930461D01*
X119217489Y-108884706D01*
X119269000Y-108873500D01*
X124626960Y-108873500D01*
X124693999Y-108893185D01*
X124739754Y-108945989D01*
X124748577Y-108973308D01*
X124773119Y-109096686D01*
X124773122Y-109096698D01*
X124870053Y-109382247D01*
X124870062Y-109382268D01*
X125003431Y-109652713D01*
X125003435Y-109652720D01*
X125170973Y-109903459D01*
X125369810Y-110130189D01*
X125596540Y-110329026D01*
X125847279Y-110496564D01*
X125847286Y-110496568D01*
X126117731Y-110629937D01*
X126117736Y-110629939D01*
X126117748Y-110629945D01*
X126403309Y-110726880D01*
X126603251Y-110766651D01*
X126699069Y-110785711D01*
X126699070Y-110785711D01*
X126699080Y-110785713D01*
X127000000Y-110805436D01*
X127300920Y-110785713D01*
X127596691Y-110726880D01*
X127882252Y-110629945D01*
X128152718Y-110496566D01*
X128403461Y-110329025D01*
X128630189Y-110130189D01*
X128829025Y-109903461D01*
X128996566Y-109652718D01*
X129129945Y-109382252D01*
X129226880Y-109096691D01*
X129285713Y-108800920D01*
X129305436Y-108500000D01*
X129285713Y-108199080D01*
X129226880Y-107903309D01*
X129129945Y-107617748D01*
X129082108Y-107520745D01*
X128996568Y-107347286D01*
X128996564Y-107347279D01*
X128829026Y-107096540D01*
X128630189Y-106869810D01*
X128403459Y-106670973D01*
X128152720Y-106503435D01*
X128152713Y-106503431D01*
X127882268Y-106370062D01*
X127882247Y-106370053D01*
X127596698Y-106273122D01*
X127596692Y-106273120D01*
X127596691Y-106273120D01*
X127596689Y-106273119D01*
X127596683Y-106273118D01*
X127300930Y-106214288D01*
X127300921Y-106214287D01*
X127300920Y-106214287D01*
X127000000Y-106194564D01*
X126699080Y-106214287D01*
X126699079Y-106214287D01*
X126699069Y-106214288D01*
X126403316Y-106273118D01*
X126403301Y-106273122D01*
X126117752Y-106370053D01*
X126117731Y-106370062D01*
X125935941Y-106459712D01*
X125881097Y-106472500D01*
X102605514Y-106472500D01*
X102418881Y-106502059D01*
X102239163Y-106560454D01*
X102070800Y-106646240D01*
X102036759Y-106670973D01*
X101917927Y-106757310D01*
X101917925Y-106757312D01*
X101917924Y-106757312D01*
X100639055Y-108036181D01*
X100577732Y-108069666D01*
X100551374Y-108072500D01*
X100433109Y-108072500D01*
X100366070Y-108052815D01*
X100360224Y-108048818D01*
X100256202Y-107973242D01*
X100256201Y-107973241D01*
X100256199Y-107973240D01*
X100203620Y-107946450D01*
X100087836Y-107887454D01*
X99908118Y-107829059D01*
X99721486Y-107799500D01*
X99721481Y-107799500D01*
X93224500Y-107799500D01*
X93157461Y-107779815D01*
X93111706Y-107727011D01*
X93100500Y-107675500D01*
X93100500Y-107655043D01*
X93100499Y-107655039D01*
X93085369Y-107520750D01*
X93085368Y-107520745D01*
X93025788Y-107350476D01*
X92929815Y-107197737D01*
X92802262Y-107070184D01*
X92649523Y-106974211D01*
X92479254Y-106914631D01*
X92479249Y-106914630D01*
X92344960Y-106899500D01*
X92344954Y-106899500D01*
X89655046Y-106899500D01*
X89655039Y-106899500D01*
X89520750Y-106914630D01*
X89520745Y-106914631D01*
X89350476Y-106974211D01*
X89197737Y-107070184D01*
X89070184Y-107197737D01*
X88974211Y-107350476D01*
X88914631Y-107520745D01*
X88914630Y-107520750D01*
X88899500Y-107655039D01*
X85500500Y-107655039D01*
X85500500Y-103999995D01*
X89194953Y-103999995D01*
X89194953Y-104000004D01*
X89215113Y-104269026D01*
X89215113Y-104269028D01*
X89275142Y-104532033D01*
X89275148Y-104532052D01*
X89373709Y-104783181D01*
X89373708Y-104783181D01*
X89508602Y-105016822D01*
X89562294Y-105084151D01*
X89562295Y-105084151D01*
X90398958Y-104247488D01*
X90423978Y-104307890D01*
X90495112Y-104414351D01*
X90585649Y-104504888D01*
X90692110Y-104576022D01*
X90752510Y-104601041D01*
X89914848Y-105438702D01*
X90097483Y-105563220D01*
X90097485Y-105563221D01*
X90340539Y-105680269D01*
X90340537Y-105680269D01*
X90598337Y-105759790D01*
X90598343Y-105759792D01*
X90865101Y-105799999D01*
X90865110Y-105800000D01*
X91134890Y-105800000D01*
X91134898Y-105799999D01*
X91401656Y-105759792D01*
X91401662Y-105759790D01*
X91659461Y-105680269D01*
X91902521Y-105563218D01*
X92085150Y-105438702D01*
X91247488Y-104601041D01*
X91307890Y-104576022D01*
X91414351Y-104504888D01*
X91504888Y-104414351D01*
X91576022Y-104307890D01*
X91601041Y-104247488D01*
X92437703Y-105084151D01*
X92437704Y-105084150D01*
X92491393Y-105016828D01*
X92491400Y-105016817D01*
X92626290Y-104783181D01*
X92724851Y-104532052D01*
X92724857Y-104532033D01*
X92784886Y-104269028D01*
X92784886Y-104269026D01*
X92805047Y-104000004D01*
X92805047Y-103999995D01*
X92784886Y-103730973D01*
X92784886Y-103730971D01*
X92724857Y-103467966D01*
X92724851Y-103467947D01*
X92626290Y-103216818D01*
X92626291Y-103216818D01*
X92491397Y-102983177D01*
X92437704Y-102915847D01*
X91601041Y-103752510D01*
X91576022Y-103692110D01*
X91504888Y-103585649D01*
X91414351Y-103495112D01*
X91307890Y-103423978D01*
X91247488Y-103398958D01*
X92085150Y-102561296D01*
X92068582Y-102550000D01*
X126894709Y-102550000D01*
X126913851Y-102829862D01*
X126913852Y-102829864D01*
X126970921Y-103104499D01*
X126970926Y-103104516D01*
X127064863Y-103368828D01*
X127064864Y-103368830D01*
X127193919Y-103617896D01*
X127355688Y-103847069D01*
X127355692Y-103847073D01*
X127355692Y-103847074D01*
X127547154Y-104052080D01*
X127547155Y-104052081D01*
X127764754Y-104229111D01*
X127764756Y-104229112D01*
X127764757Y-104229113D01*
X128004433Y-104374863D01*
X128213257Y-104465567D01*
X128261725Y-104486620D01*
X128531839Y-104562303D01*
X128776159Y-104595884D01*
X128809741Y-104600500D01*
X128809742Y-104600500D01*
X129090259Y-104600500D01*
X129120219Y-104596381D01*
X129368161Y-104562303D01*
X129638275Y-104486620D01*
X129895568Y-104374862D01*
X130135246Y-104229111D01*
X130352845Y-104052081D01*
X130544312Y-103847069D01*
X130706081Y-103617896D01*
X130835136Y-103368830D01*
X130929075Y-103104511D01*
X130929076Y-103104504D01*
X130929078Y-103104499D01*
X130968280Y-102915847D01*
X130986148Y-102829862D01*
X131005291Y-102550000D01*
X131001871Y-102500000D01*
X138894564Y-102500000D01*
X138898581Y-102561296D01*
X138914287Y-102800918D01*
X138914288Y-102800930D01*
X138973118Y-103096683D01*
X138973122Y-103096698D01*
X139070053Y-103382247D01*
X139070062Y-103382268D01*
X139203431Y-103652713D01*
X139203435Y-103652720D01*
X139370973Y-103903459D01*
X139569810Y-104130189D01*
X139796540Y-104329026D01*
X140047279Y-104496564D01*
X140047286Y-104496568D01*
X140317731Y-104629937D01*
X140317736Y-104629939D01*
X140317748Y-104629945D01*
X140603309Y-104726880D01*
X140803251Y-104766651D01*
X140899069Y-104785711D01*
X140899070Y-104785711D01*
X140899080Y-104785713D01*
X141200000Y-104805436D01*
X141500920Y-104785713D01*
X141796691Y-104726880D01*
X142082252Y-104629945D01*
X142352718Y-104496566D01*
X142603461Y-104329025D01*
X142830189Y-104130189D01*
X143029025Y-103903461D01*
X143196566Y-103652718D01*
X143329945Y-103382252D01*
X143426880Y-103096691D01*
X143485713Y-102800920D01*
X143505436Y-102500000D01*
X143485713Y-102199080D01*
X143426880Y-101903309D01*
X143329945Y-101617748D01*
X143263052Y-101482103D01*
X143196568Y-101347286D01*
X143196564Y-101347279D01*
X143029026Y-101096540D01*
X142830189Y-100869810D01*
X142603459Y-100670973D01*
X142352720Y-100503435D01*
X142352713Y-100503431D01*
X142082268Y-100370062D01*
X142082247Y-100370053D01*
X141796698Y-100273122D01*
X141796692Y-100273120D01*
X141796691Y-100273120D01*
X141796689Y-100273119D01*
X141796683Y-100273118D01*
X141500930Y-100214288D01*
X141500921Y-100214287D01*
X141500920Y-100214287D01*
X141200000Y-100194564D01*
X140899080Y-100214287D01*
X140899079Y-100214287D01*
X140899069Y-100214288D01*
X140603316Y-100273118D01*
X140603301Y-100273122D01*
X140317752Y-100370053D01*
X140317731Y-100370062D01*
X140047286Y-100503431D01*
X140047279Y-100503435D01*
X139796540Y-100670973D01*
X139569810Y-100869810D01*
X139370973Y-101096540D01*
X139203435Y-101347279D01*
X139203431Y-101347286D01*
X139070062Y-101617731D01*
X139070053Y-101617752D01*
X138973122Y-101903301D01*
X138973118Y-101903316D01*
X138914288Y-102199069D01*
X138914287Y-102199079D01*
X138914287Y-102199080D01*
X138894564Y-102500000D01*
X131001871Y-102500000D01*
X130986148Y-102270138D01*
X130966443Y-102175315D01*
X130929078Y-101995500D01*
X130929073Y-101995483D01*
X130835136Y-101731171D01*
X130835136Y-101731170D01*
X130706081Y-101482104D01*
X130544312Y-101252931D01*
X130544307Y-101252925D01*
X130352848Y-101047922D01*
X130349859Y-101045130D01*
X130314303Y-100984984D01*
X130310500Y-100954510D01*
X130310500Y-98387385D01*
X130330185Y-98320346D01*
X130361650Y-98289204D01*
X130360816Y-98288159D01*
X130366256Y-98283819D01*
X130366262Y-98283816D01*
X130493816Y-98156262D01*
X130589789Y-98003522D01*
X130649368Y-97833255D01*
X130664500Y-97698954D01*
X130664500Y-96101046D01*
X130653115Y-96000000D01*
X130649369Y-95966750D01*
X130649368Y-95966745D01*
X130589788Y-95796475D01*
X130541851Y-95720185D01*
X130526636Y-95695971D01*
X130507636Y-95628736D01*
X130526637Y-95564027D01*
X130589788Y-95463524D01*
X130649368Y-95293254D01*
X130649369Y-95293249D01*
X130664499Y-95158960D01*
X130664500Y-95158956D01*
X130664500Y-93561043D01*
X130664499Y-93561039D01*
X130649369Y-93426750D01*
X130649368Y-93426745D01*
X130627684Y-93364776D01*
X130589789Y-93256478D01*
X130493816Y-93103738D01*
X130366262Y-92976184D01*
X130355655Y-92969519D01*
X130309366Y-92917184D01*
X130298719Y-92848131D01*
X130305448Y-92821193D01*
X130357597Y-92681376D01*
X130357598Y-92681372D01*
X130363999Y-92621844D01*
X130364000Y-92621827D01*
X130364000Y-92070000D01*
X129543012Y-92070000D01*
X129575925Y-92012993D01*
X129610000Y-91885826D01*
X129610000Y-91754174D01*
X129575925Y-91627007D01*
X129543012Y-91570000D01*
X130364000Y-91570000D01*
X130364000Y-91018172D01*
X130363999Y-91018155D01*
X130357598Y-90958627D01*
X130357597Y-90958623D01*
X130305448Y-90818805D01*
X130300464Y-90749113D01*
X130333949Y-90687790D01*
X130355655Y-90670480D01*
X130366262Y-90663816D01*
X130493816Y-90536262D01*
X130589789Y-90383522D01*
X130649368Y-90213255D01*
X130664500Y-90078954D01*
X130664500Y-88481046D01*
X130656982Y-88414318D01*
X130649369Y-88346750D01*
X130649368Y-88346745D01*
X130589788Y-88176475D01*
X130547427Y-88109060D01*
X130526636Y-88075971D01*
X130507636Y-88008736D01*
X130526637Y-87944027D01*
X130528854Y-87940500D01*
X130580751Y-87857906D01*
X130589789Y-87843523D01*
X130649368Y-87673254D01*
X130649369Y-87673249D01*
X130664499Y-87538960D01*
X130664500Y-87538956D01*
X130664500Y-85941043D01*
X130664499Y-85941039D01*
X130649369Y-85806750D01*
X130649368Y-85806745D01*
X130589788Y-85636475D01*
X130546668Y-85567851D01*
X130526636Y-85535971D01*
X130507636Y-85468736D01*
X130526637Y-85404027D01*
X130528854Y-85400500D01*
X130589789Y-85303522D01*
X130649368Y-85133255D01*
X130664500Y-84998954D01*
X130664500Y-83401046D01*
X130658000Y-83343354D01*
X130649369Y-83266750D01*
X130649368Y-83266745D01*
X130589788Y-83096475D01*
X130533800Y-83007372D01*
X130526636Y-82995971D01*
X130507636Y-82928736D01*
X130526637Y-82864027D01*
X130530517Y-82857853D01*
X130589789Y-82763522D01*
X130649368Y-82593255D01*
X130664500Y-82458954D01*
X130664500Y-80861046D01*
X130659565Y-80817246D01*
X130649369Y-80726750D01*
X130649368Y-80726745D01*
X130624839Y-80656645D01*
X130589789Y-80556478D01*
X130554301Y-80500000D01*
X130493815Y-80403737D01*
X130366263Y-80276185D01*
X130366262Y-80276184D01*
X130355655Y-80269519D01*
X130309366Y-80217184D01*
X130298719Y-80148131D01*
X130305448Y-80121193D01*
X130357597Y-79981376D01*
X130357598Y-79981372D01*
X130363999Y-79921844D01*
X130364000Y-79921827D01*
X130364000Y-79370000D01*
X129543012Y-79370000D01*
X129575925Y-79312993D01*
X129610000Y-79185826D01*
X129610000Y-79054174D01*
X129575925Y-78927007D01*
X129543012Y-78870000D01*
X130364000Y-78870000D01*
X130364000Y-78318172D01*
X130363999Y-78318155D01*
X130357598Y-78258627D01*
X130357597Y-78258623D01*
X130305448Y-78118805D01*
X130300464Y-78049113D01*
X130333949Y-77987790D01*
X130355655Y-77970480D01*
X130366262Y-77963816D01*
X130493816Y-77836262D01*
X130589789Y-77683522D01*
X130649368Y-77513255D01*
X130651255Y-77496513D01*
X130664499Y-77378960D01*
X130664500Y-77378956D01*
X130664500Y-75781043D01*
X130664499Y-75781039D01*
X130649369Y-75646750D01*
X130649368Y-75646745D01*
X130589788Y-75476475D01*
X130548205Y-75410297D01*
X130526636Y-75375971D01*
X130507636Y-75308736D01*
X130526637Y-75244027D01*
X130530517Y-75237853D01*
X130589789Y-75143522D01*
X130649368Y-74973255D01*
X130664500Y-74838954D01*
X130664500Y-73241046D01*
X130649368Y-73106745D01*
X130589789Y-72936478D01*
X130589788Y-72936476D01*
X130589788Y-72936475D01*
X130526637Y-72835973D01*
X130507636Y-72768736D01*
X130526637Y-72704027D01*
X130528854Y-72700500D01*
X130589789Y-72603522D01*
X130649368Y-72433255D01*
X130664500Y-72298954D01*
X130664500Y-70701046D01*
X130659565Y-70657246D01*
X130649369Y-70566750D01*
X130649368Y-70566745D01*
X130589788Y-70396475D01*
X130547427Y-70329059D01*
X130526636Y-70295971D01*
X130507636Y-70228736D01*
X130526637Y-70164027D01*
X130530517Y-70157853D01*
X130589789Y-70063522D01*
X130649368Y-69893255D01*
X130664500Y-69758954D01*
X130664500Y-68161046D01*
X130649368Y-68026745D01*
X130589789Y-67856478D01*
X130493816Y-67703738D01*
X130366262Y-67576184D01*
X130355655Y-67569519D01*
X130309366Y-67517184D01*
X130298719Y-67448131D01*
X130305448Y-67421193D01*
X130357597Y-67281376D01*
X130357598Y-67281372D01*
X130363999Y-67221844D01*
X130364000Y-67221827D01*
X130364000Y-66670000D01*
X129543012Y-66670000D01*
X129575925Y-66612993D01*
X129610000Y-66485826D01*
X129610000Y-66354174D01*
X129575925Y-66227007D01*
X129543012Y-66170000D01*
X130364000Y-66170000D01*
X130364000Y-65618172D01*
X130363999Y-65618155D01*
X130357598Y-65558627D01*
X130357597Y-65558623D01*
X130305448Y-65418805D01*
X130300464Y-65349113D01*
X130333949Y-65287790D01*
X130355655Y-65270480D01*
X130366262Y-65263816D01*
X130493816Y-65136262D01*
X130589789Y-64983522D01*
X130649368Y-64813255D01*
X130664500Y-64678954D01*
X130664500Y-63081046D01*
X130649368Y-62946745D01*
X130589789Y-62776478D01*
X130589788Y-62776476D01*
X130589788Y-62776475D01*
X130526637Y-62675973D01*
X130507636Y-62608736D01*
X130526637Y-62544027D01*
X130589788Y-62443524D01*
X130649368Y-62273254D01*
X130649369Y-62273249D01*
X130664211Y-62141519D01*
X130664500Y-62138954D01*
X130664500Y-60541046D01*
X130649368Y-60406745D01*
X130589789Y-60236478D01*
X130589788Y-60236476D01*
X130589788Y-60236475D01*
X130526637Y-60135973D01*
X130507636Y-60068736D01*
X130526637Y-60004027D01*
X130589788Y-59903524D01*
X130649368Y-59733254D01*
X130649369Y-59733249D01*
X130664499Y-59598960D01*
X130664500Y-59598956D01*
X130664500Y-58001043D01*
X130664499Y-58001039D01*
X130649369Y-57866750D01*
X130649368Y-57866745D01*
X130589788Y-57696475D01*
X130526637Y-57595973D01*
X130507636Y-57528736D01*
X130526637Y-57464027D01*
X130589788Y-57363524D01*
X130649368Y-57193254D01*
X130649369Y-57193249D01*
X130664499Y-57058960D01*
X130664500Y-57058956D01*
X130664500Y-55461043D01*
X130664499Y-55461039D01*
X130649369Y-55326750D01*
X130649368Y-55326745D01*
X130589788Y-55156476D01*
X130493815Y-55003737D01*
X130366263Y-54876185D01*
X130366262Y-54876184D01*
X130355655Y-54869519D01*
X130309366Y-54817184D01*
X130298719Y-54748131D01*
X130305448Y-54721193D01*
X130357597Y-54581376D01*
X130357598Y-54581372D01*
X130363999Y-54521844D01*
X130364000Y-54521827D01*
X130364000Y-53970000D01*
X129543012Y-53970000D01*
X129575925Y-53912993D01*
X129610000Y-53785826D01*
X129610000Y-53654174D01*
X129575925Y-53527007D01*
X129543012Y-53470000D01*
X130364000Y-53470000D01*
X130364000Y-52918172D01*
X130363999Y-52918155D01*
X130357598Y-52858627D01*
X130357597Y-52858623D01*
X130305448Y-52718805D01*
X130300464Y-52649113D01*
X130333949Y-52587790D01*
X130355655Y-52570480D01*
X130366262Y-52563816D01*
X130493816Y-52436262D01*
X130589789Y-52283522D01*
X130649368Y-52113255D01*
X130651348Y-52095687D01*
X130657414Y-52041844D01*
X130664500Y-51978954D01*
X130664500Y-50381046D01*
X130659565Y-50337246D01*
X130649369Y-50246750D01*
X130649368Y-50246745D01*
X130589788Y-50076475D01*
X130536220Y-49991224D01*
X130526636Y-49975971D01*
X130507636Y-49908736D01*
X130526637Y-49844027D01*
X130530517Y-49837853D01*
X130589789Y-49743522D01*
X130649368Y-49573255D01*
X130664500Y-49438954D01*
X130664500Y-47841046D01*
X130649368Y-47706745D01*
X130589789Y-47536478D01*
X130493816Y-47383738D01*
X130366262Y-47256184D01*
X130336264Y-47237335D01*
X130213523Y-47160211D01*
X130043254Y-47100631D01*
X130043249Y-47100630D01*
X129908960Y-47085500D01*
X129908954Y-47085500D01*
X128311046Y-47085500D01*
X128311039Y-47085500D01*
X128176750Y-47100630D01*
X128176745Y-47100631D01*
X128006476Y-47160211D01*
X127853737Y-47256184D01*
X127726184Y-47383737D01*
X127630211Y-47536476D01*
X127570631Y-47706745D01*
X127570630Y-47706750D01*
X127555500Y-47841039D01*
X127555500Y-49438960D01*
X127570630Y-49573249D01*
X127570631Y-49573254D01*
X127630211Y-49743523D01*
X127693363Y-49844028D01*
X127712363Y-49911265D01*
X127693363Y-49975972D01*
X127630211Y-50076476D01*
X127570631Y-50246745D01*
X127570630Y-50246750D01*
X127555500Y-50381039D01*
X127555500Y-51978960D01*
X127570630Y-52113249D01*
X127570631Y-52113254D01*
X127630211Y-52283523D01*
X127691146Y-52380500D01*
X127726184Y-52436262D01*
X127853738Y-52563816D01*
X127860033Y-52567772D01*
X127864343Y-52570480D01*
X127910633Y-52622816D01*
X127921279Y-52691870D01*
X127914550Y-52718804D01*
X127862403Y-52858617D01*
X127862401Y-52858627D01*
X127856000Y-52918155D01*
X127856000Y-53470000D01*
X128676988Y-53470000D01*
X128644075Y-53527007D01*
X128610000Y-53654174D01*
X128610000Y-53785826D01*
X128644075Y-53912993D01*
X128676988Y-53970000D01*
X127856000Y-53970000D01*
X127856000Y-54521844D01*
X127862401Y-54581372D01*
X127862403Y-54581380D01*
X127914550Y-54721194D01*
X127919534Y-54790886D01*
X127886049Y-54852209D01*
X127864344Y-54869518D01*
X127853743Y-54876179D01*
X127853739Y-54876182D01*
X127726184Y-55003737D01*
X127630211Y-55156476D01*
X127570631Y-55326745D01*
X127570630Y-55326750D01*
X127555500Y-55461039D01*
X127555500Y-57058960D01*
X127570630Y-57193249D01*
X127570631Y-57193254D01*
X127630211Y-57363523D01*
X127693363Y-57464028D01*
X127712363Y-57531265D01*
X127693363Y-57595972D01*
X127630211Y-57696476D01*
X127570631Y-57866745D01*
X127570630Y-57866750D01*
X127555500Y-58001039D01*
X127555500Y-59598960D01*
X127570630Y-59733249D01*
X127570631Y-59733254D01*
X127630211Y-59903523D01*
X127693363Y-60004028D01*
X127712363Y-60071265D01*
X127693363Y-60135972D01*
X127630211Y-60236476D01*
X127570631Y-60406745D01*
X127570630Y-60406750D01*
X127555500Y-60541039D01*
X127555500Y-62138960D01*
X127570630Y-62273249D01*
X127570631Y-62273254D01*
X127630211Y-62443523D01*
X127693363Y-62544028D01*
X127712363Y-62611265D01*
X127693363Y-62675972D01*
X127630211Y-62776476D01*
X127570631Y-62946745D01*
X127570630Y-62946750D01*
X127555500Y-63081039D01*
X127555500Y-64678960D01*
X127570630Y-64813249D01*
X127570631Y-64813254D01*
X127630211Y-64983523D01*
X127726184Y-65136262D01*
X127853738Y-65263816D01*
X127860033Y-65267772D01*
X127864343Y-65270480D01*
X127910633Y-65322816D01*
X127921279Y-65391870D01*
X127914550Y-65418804D01*
X127862403Y-65558617D01*
X127862401Y-65558627D01*
X127856000Y-65618155D01*
X127856000Y-66170000D01*
X128676988Y-66170000D01*
X128644075Y-66227007D01*
X128610000Y-66354174D01*
X128610000Y-66485826D01*
X128644075Y-66612993D01*
X128676988Y-66670000D01*
X127856000Y-66670000D01*
X127856000Y-67221844D01*
X127862401Y-67281372D01*
X127862403Y-67281380D01*
X127914550Y-67421194D01*
X127919534Y-67490886D01*
X127886049Y-67552209D01*
X127864344Y-67569518D01*
X127853743Y-67576179D01*
X127853739Y-67576182D01*
X127726184Y-67703737D01*
X127630211Y-67856476D01*
X127570631Y-68026745D01*
X127570630Y-68026750D01*
X127555500Y-68161039D01*
X127555500Y-69758960D01*
X127570630Y-69893249D01*
X127570631Y-69893254D01*
X127630211Y-70063523D01*
X127693363Y-70164028D01*
X127712363Y-70231265D01*
X127693363Y-70295972D01*
X127630211Y-70396476D01*
X127570631Y-70566745D01*
X127570630Y-70566750D01*
X127555500Y-70701039D01*
X127555500Y-72298960D01*
X127570630Y-72433249D01*
X127570631Y-72433254D01*
X127630211Y-72603523D01*
X127693363Y-72704028D01*
X127712363Y-72771265D01*
X127693363Y-72835972D01*
X127630211Y-72936476D01*
X127570631Y-73106745D01*
X127570630Y-73106750D01*
X127555500Y-73241039D01*
X127555500Y-74838960D01*
X127570630Y-74973249D01*
X127570631Y-74973254D01*
X127630211Y-75143523D01*
X127693363Y-75244028D01*
X127712363Y-75311265D01*
X127693363Y-75375972D01*
X127630211Y-75476476D01*
X127570631Y-75646745D01*
X127570630Y-75646750D01*
X127555500Y-75781039D01*
X127555500Y-77378960D01*
X127570630Y-77513249D01*
X127570631Y-77513254D01*
X127630211Y-77683523D01*
X127682668Y-77767007D01*
X127726184Y-77836262D01*
X127853738Y-77963816D01*
X127860033Y-77967772D01*
X127864343Y-77970480D01*
X127910633Y-78022816D01*
X127921279Y-78091870D01*
X127914550Y-78118804D01*
X127862403Y-78258617D01*
X127862401Y-78258627D01*
X127856000Y-78318155D01*
X127856000Y-78870000D01*
X128676988Y-78870000D01*
X128644075Y-78927007D01*
X128610000Y-79054174D01*
X128610000Y-79185826D01*
X128644075Y-79312993D01*
X128676988Y-79370000D01*
X127856000Y-79370000D01*
X127856000Y-79921844D01*
X127862401Y-79981372D01*
X127862403Y-79981380D01*
X127914550Y-80121194D01*
X127919534Y-80190886D01*
X127886049Y-80252209D01*
X127864344Y-80269518D01*
X127853743Y-80276179D01*
X127853739Y-80276182D01*
X127726184Y-80403737D01*
X127630211Y-80556476D01*
X127570631Y-80726745D01*
X127570630Y-80726750D01*
X127555500Y-80861039D01*
X127555500Y-82458960D01*
X127570630Y-82593249D01*
X127570631Y-82593254D01*
X127630211Y-82763523D01*
X127693363Y-82864028D01*
X127712363Y-82931265D01*
X127693363Y-82995972D01*
X127630211Y-83096476D01*
X127570631Y-83266745D01*
X127570630Y-83266750D01*
X127555500Y-83401039D01*
X127555500Y-84998960D01*
X127570630Y-85133249D01*
X127570631Y-85133254D01*
X127630211Y-85303523D01*
X127693363Y-85404028D01*
X127712363Y-85471265D01*
X127693363Y-85535972D01*
X127630211Y-85636476D01*
X127570631Y-85806745D01*
X127570630Y-85806750D01*
X127555500Y-85941039D01*
X127555500Y-87538960D01*
X127570630Y-87673249D01*
X127570631Y-87673254D01*
X127630211Y-87843523D01*
X127693363Y-87944028D01*
X127712363Y-88011265D01*
X127693363Y-88075972D01*
X127630211Y-88176476D01*
X127570631Y-88346745D01*
X127570630Y-88346750D01*
X127555500Y-88481039D01*
X127555500Y-90078960D01*
X127570630Y-90213249D01*
X127570631Y-90213254D01*
X127630211Y-90383523D01*
X127688827Y-90476809D01*
X127726184Y-90536262D01*
X127853738Y-90663816D01*
X127860033Y-90667772D01*
X127864343Y-90670480D01*
X127910633Y-90722816D01*
X127921279Y-90791870D01*
X127914550Y-90818804D01*
X127862403Y-90958617D01*
X127862401Y-90958627D01*
X127856000Y-91018155D01*
X127856000Y-91570000D01*
X128676988Y-91570000D01*
X128644075Y-91627007D01*
X128610000Y-91754174D01*
X128610000Y-91885826D01*
X128644075Y-92012993D01*
X128676988Y-92070000D01*
X127856000Y-92070000D01*
X127856000Y-92621844D01*
X127862401Y-92681372D01*
X127862403Y-92681380D01*
X127914550Y-92821194D01*
X127919534Y-92890886D01*
X127886049Y-92952209D01*
X127864344Y-92969518D01*
X127853743Y-92976179D01*
X127853739Y-92976182D01*
X127726184Y-93103737D01*
X127630211Y-93256476D01*
X127570631Y-93426745D01*
X127570630Y-93426750D01*
X127555500Y-93561039D01*
X127555500Y-95158960D01*
X127570630Y-95293249D01*
X127570631Y-95293254D01*
X127630211Y-95463523D01*
X127693363Y-95564028D01*
X127712363Y-95631265D01*
X127693363Y-95695972D01*
X127630211Y-95796476D01*
X127570631Y-95966745D01*
X127570630Y-95966750D01*
X127555500Y-96101039D01*
X127555500Y-97698960D01*
X127570630Y-97833249D01*
X127570631Y-97833254D01*
X127630211Y-98003523D01*
X127726184Y-98156262D01*
X127853737Y-98283815D01*
X127859184Y-98288159D01*
X127857943Y-98289714D01*
X127897754Y-98334706D01*
X127909500Y-98387385D01*
X127909500Y-100713145D01*
X127889815Y-100780184D01*
X127849929Y-100819093D01*
X127764754Y-100870888D01*
X127547154Y-101047919D01*
X127355692Y-101252925D01*
X127355692Y-101252926D01*
X127193919Y-101482103D01*
X127064863Y-101731171D01*
X126970926Y-101995483D01*
X126970921Y-101995500D01*
X126913852Y-102270135D01*
X126913851Y-102270137D01*
X126894709Y-102550000D01*
X92068582Y-102550000D01*
X91902517Y-102436779D01*
X91902516Y-102436778D01*
X91659460Y-102319730D01*
X91659462Y-102319730D01*
X91401662Y-102240209D01*
X91401656Y-102240207D01*
X91134898Y-102200000D01*
X90865101Y-102200000D01*
X90598343Y-102240207D01*
X90598337Y-102240209D01*
X90340538Y-102319730D01*
X90097485Y-102436778D01*
X90097476Y-102436783D01*
X89914848Y-102561296D01*
X90752511Y-103398958D01*
X90692110Y-103423978D01*
X90585649Y-103495112D01*
X90495112Y-103585649D01*
X90423978Y-103692110D01*
X90398958Y-103752510D01*
X89562295Y-102915848D01*
X89508600Y-102983180D01*
X89373709Y-103216818D01*
X89275148Y-103467947D01*
X89275142Y-103467966D01*
X89215113Y-103730971D01*
X89215113Y-103730973D01*
X89194953Y-103999995D01*
X85500500Y-103999995D01*
X85500500Y-69458039D01*
X98699500Y-69458039D01*
X98699500Y-71547960D01*
X98714630Y-71682249D01*
X98714631Y-71682254D01*
X98774211Y-71852523D01*
X98857481Y-71985046D01*
X98870184Y-72005262D01*
X98997738Y-72132816D01*
X99150478Y-72228789D01*
X99320745Y-72288368D01*
X99320750Y-72288369D01*
X99411246Y-72298565D01*
X99455040Y-72303499D01*
X99455043Y-72303500D01*
X99455046Y-72303500D01*
X101544957Y-72303500D01*
X101544958Y-72303499D01*
X101612104Y-72295934D01*
X101679249Y-72288369D01*
X101679252Y-72288368D01*
X101679255Y-72288368D01*
X101849522Y-72228789D01*
X102002262Y-72132816D01*
X102129816Y-72005262D01*
X102225789Y-71852522D01*
X102285368Y-71682255D01*
X102285569Y-71680478D01*
X102300499Y-71547960D01*
X102300500Y-71547956D01*
X102300500Y-70948626D01*
X102320185Y-70881587D01*
X102336819Y-70860945D01*
X103742609Y-69455155D01*
X116145000Y-69455155D01*
X116145000Y-70253000D01*
X117269722Y-70253000D01*
X117225667Y-70329306D01*
X117195000Y-70443756D01*
X117195000Y-70562244D01*
X117225667Y-70676694D01*
X117269722Y-70753000D01*
X116145000Y-70753000D01*
X116145000Y-71550844D01*
X116151401Y-71610372D01*
X116151403Y-71610379D01*
X116201645Y-71745086D01*
X116201649Y-71745093D01*
X116287809Y-71860187D01*
X116287812Y-71860190D01*
X116402906Y-71946350D01*
X116402913Y-71946354D01*
X116537620Y-71996596D01*
X116537627Y-71996598D01*
X116597155Y-72002999D01*
X116597172Y-72003000D01*
X117395000Y-72003000D01*
X117395000Y-70878277D01*
X117471306Y-70922333D01*
X117585756Y-70953000D01*
X117704244Y-70953000D01*
X117818694Y-70922333D01*
X117895000Y-70878277D01*
X117895000Y-72003000D01*
X118692828Y-72003000D01*
X118692844Y-72002999D01*
X118752372Y-71996598D01*
X118752379Y-71996596D01*
X118887086Y-71946354D01*
X118887093Y-71946350D01*
X119002187Y-71860190D01*
X119002190Y-71860187D01*
X119088350Y-71745093D01*
X119088354Y-71745086D01*
X119138596Y-71610379D01*
X119138598Y-71610372D01*
X119144999Y-71550844D01*
X119145000Y-71550827D01*
X119145000Y-70753000D01*
X118020278Y-70753000D01*
X118064333Y-70676694D01*
X118095000Y-70562244D01*
X118095000Y-70443756D01*
X118064333Y-70329306D01*
X118020278Y-70253000D01*
X119145000Y-70253000D01*
X119145000Y-69455172D01*
X119144999Y-69455155D01*
X119138598Y-69395627D01*
X119138596Y-69395620D01*
X119088354Y-69260913D01*
X119088350Y-69260906D01*
X119002190Y-69145812D01*
X119002187Y-69145809D01*
X118887093Y-69059649D01*
X118887086Y-69059645D01*
X118752379Y-69009403D01*
X118752372Y-69009401D01*
X118692844Y-69003000D01*
X117895000Y-69003000D01*
X117895000Y-70127722D01*
X117818694Y-70083667D01*
X117704244Y-70053000D01*
X117585756Y-70053000D01*
X117471306Y-70083667D01*
X117395000Y-70127722D01*
X117395000Y-69003000D01*
X116597155Y-69003000D01*
X116537627Y-69009401D01*
X116537620Y-69009403D01*
X116402913Y-69059645D01*
X116402906Y-69059649D01*
X116287812Y-69145809D01*
X116287809Y-69145812D01*
X116201649Y-69260906D01*
X116201645Y-69260913D01*
X116151403Y-69395620D01*
X116151401Y-69395627D01*
X116145000Y-69455155D01*
X103742609Y-69455155D01*
X126960945Y-46236819D01*
X127022268Y-46203334D01*
X127048626Y-46200500D01*
X136951374Y-46200500D01*
X137018413Y-46220185D01*
X137039055Y-46236819D01*
X142764310Y-51962073D01*
X142897927Y-52095690D01*
X143050801Y-52206760D01*
X143116062Y-52240012D01*
X143219163Y-52292545D01*
X143219165Y-52292545D01*
X143219168Y-52292547D01*
X143295457Y-52317335D01*
X143398881Y-52350940D01*
X143585514Y-52380500D01*
X143585519Y-52380500D01*
X145402614Y-52380500D01*
X145469653Y-52400185D01*
X145500791Y-52431645D01*
X145501837Y-52430812D01*
X145506182Y-52436260D01*
X145506184Y-52436262D01*
X145633738Y-52563816D01*
X145640033Y-52567772D01*
X145644343Y-52570480D01*
X145690633Y-52622816D01*
X145701279Y-52691870D01*
X145694550Y-52718804D01*
X145642403Y-52858617D01*
X145642401Y-52858627D01*
X145636000Y-52918155D01*
X145636000Y-53470000D01*
X146456988Y-53470000D01*
X146424075Y-53527007D01*
X146390000Y-53654174D01*
X146390000Y-53785826D01*
X146424075Y-53912993D01*
X146456988Y-53970000D01*
X145636000Y-53970000D01*
X145636000Y-54521844D01*
X145642401Y-54581372D01*
X145642403Y-54581380D01*
X145694550Y-54721194D01*
X145699534Y-54790886D01*
X145666049Y-54852209D01*
X145644344Y-54869518D01*
X145633743Y-54876179D01*
X145633739Y-54876182D01*
X145506184Y-55003737D01*
X145410211Y-55156476D01*
X145350631Y-55326745D01*
X145350630Y-55326750D01*
X145335500Y-55461039D01*
X145335500Y-57058960D01*
X145350630Y-57193249D01*
X145350631Y-57193254D01*
X145410211Y-57363523D01*
X145473363Y-57464028D01*
X145492363Y-57531265D01*
X145473363Y-57595972D01*
X145410211Y-57696476D01*
X145350631Y-57866745D01*
X145350630Y-57866750D01*
X145335500Y-58001039D01*
X145335500Y-59598960D01*
X145350630Y-59733249D01*
X145350631Y-59733254D01*
X145410211Y-59903523D01*
X145473363Y-60004028D01*
X145492363Y-60071265D01*
X145473363Y-60135972D01*
X145410211Y-60236476D01*
X145350631Y-60406745D01*
X145350630Y-60406750D01*
X145335500Y-60541039D01*
X145335500Y-62138960D01*
X145350630Y-62273249D01*
X145350631Y-62273254D01*
X145410211Y-62443523D01*
X145473363Y-62544028D01*
X145492363Y-62611265D01*
X145473363Y-62675972D01*
X145410211Y-62776476D01*
X145350631Y-62946745D01*
X145350630Y-62946750D01*
X145335500Y-63081039D01*
X145335500Y-64678960D01*
X145350630Y-64813249D01*
X145350631Y-64813254D01*
X145410211Y-64983523D01*
X145506184Y-65136262D01*
X145633738Y-65263816D01*
X145640033Y-65267772D01*
X145644343Y-65270480D01*
X145690633Y-65322816D01*
X145701279Y-65391870D01*
X145694550Y-65418804D01*
X145642403Y-65558617D01*
X145642401Y-65558627D01*
X145636000Y-65618155D01*
X145636000Y-66170000D01*
X146456988Y-66170000D01*
X146424075Y-66227007D01*
X146390000Y-66354174D01*
X146390000Y-66485826D01*
X146424075Y-66612993D01*
X146456988Y-66670000D01*
X145636000Y-66670000D01*
X145636000Y-67221844D01*
X145642401Y-67281372D01*
X145642403Y-67281380D01*
X145694550Y-67421194D01*
X145699534Y-67490886D01*
X145666049Y-67552209D01*
X145644344Y-67569518D01*
X145633743Y-67576179D01*
X145633739Y-67576182D01*
X145506184Y-67703737D01*
X145410211Y-67856476D01*
X145350631Y-68026745D01*
X145350630Y-68026750D01*
X145335500Y-68161039D01*
X145335500Y-69758960D01*
X145350630Y-69893249D01*
X145350631Y-69893254D01*
X145410211Y-70063523D01*
X145473363Y-70164028D01*
X145492363Y-70231265D01*
X145473363Y-70295972D01*
X145410211Y-70396476D01*
X145350631Y-70566745D01*
X145350630Y-70566750D01*
X145335500Y-70701039D01*
X145335500Y-72298960D01*
X145350630Y-72433249D01*
X145350631Y-72433254D01*
X145410211Y-72603523D01*
X145473363Y-72704028D01*
X145492363Y-72771265D01*
X145473363Y-72835972D01*
X145410211Y-72936476D01*
X145350631Y-73106745D01*
X145350630Y-73106750D01*
X145335500Y-73241039D01*
X145335500Y-74838960D01*
X145350630Y-74973249D01*
X145350631Y-74973254D01*
X145410211Y-75143523D01*
X145473363Y-75244028D01*
X145492363Y-75311265D01*
X145473363Y-75375972D01*
X145410211Y-75476476D01*
X145350631Y-75646745D01*
X145350630Y-75646750D01*
X145335500Y-75781039D01*
X145335500Y-77378960D01*
X145350630Y-77513249D01*
X145350631Y-77513254D01*
X145410211Y-77683523D01*
X145462668Y-77767007D01*
X145506184Y-77836262D01*
X145633738Y-77963816D01*
X145640033Y-77967772D01*
X145644343Y-77970480D01*
X145690633Y-78022816D01*
X145701279Y-78091870D01*
X145694550Y-78118804D01*
X145642403Y-78258617D01*
X145642401Y-78258627D01*
X145636000Y-78318155D01*
X145636000Y-78870000D01*
X146456988Y-78870000D01*
X146424075Y-78927007D01*
X146390000Y-79054174D01*
X146390000Y-79185826D01*
X146424075Y-79312993D01*
X146456988Y-79370000D01*
X145636000Y-79370000D01*
X145636000Y-79921844D01*
X145642401Y-79981372D01*
X145642403Y-79981380D01*
X145694550Y-80121194D01*
X145699534Y-80190886D01*
X145666049Y-80252209D01*
X145644344Y-80269518D01*
X145633743Y-80276179D01*
X145633739Y-80276182D01*
X145506184Y-80403737D01*
X145410211Y-80556476D01*
X145350631Y-80726745D01*
X145350630Y-80726750D01*
X145335500Y-80861039D01*
X145335500Y-82458960D01*
X145350630Y-82593249D01*
X145350631Y-82593254D01*
X145410211Y-82763523D01*
X145473363Y-82864028D01*
X145492363Y-82931265D01*
X145473363Y-82995972D01*
X145410211Y-83096476D01*
X145350631Y-83266745D01*
X145350630Y-83266750D01*
X145335500Y-83401039D01*
X145335500Y-84998960D01*
X145350630Y-85133249D01*
X145350631Y-85133254D01*
X145410211Y-85303523D01*
X145473363Y-85404028D01*
X145492363Y-85471265D01*
X145473363Y-85535972D01*
X145410211Y-85636476D01*
X145350631Y-85806745D01*
X145350630Y-85806750D01*
X145335500Y-85941039D01*
X145335500Y-87538960D01*
X145350630Y-87673249D01*
X145350631Y-87673254D01*
X145410211Y-87843523D01*
X145473363Y-87944028D01*
X145492363Y-88011265D01*
X145473363Y-88075972D01*
X145410211Y-88176476D01*
X145350631Y-88346745D01*
X145350630Y-88346750D01*
X145335500Y-88481039D01*
X145335500Y-90078960D01*
X145350630Y-90213249D01*
X145350631Y-90213254D01*
X145410211Y-90383523D01*
X145468827Y-90476809D01*
X145506184Y-90536262D01*
X145633738Y-90663816D01*
X145640033Y-90667772D01*
X145644343Y-90670480D01*
X145690633Y-90722816D01*
X145701279Y-90791870D01*
X145694550Y-90818804D01*
X145642403Y-90958617D01*
X145642401Y-90958627D01*
X145636000Y-91018155D01*
X145636000Y-91570000D01*
X146456988Y-91570000D01*
X146424075Y-91627007D01*
X146390000Y-91754174D01*
X146390000Y-91885826D01*
X146424075Y-92012993D01*
X146456988Y-92070000D01*
X145636000Y-92070000D01*
X145636000Y-92621844D01*
X145642401Y-92681372D01*
X145642403Y-92681380D01*
X145694550Y-92821194D01*
X145699534Y-92890886D01*
X145666049Y-92952209D01*
X145644344Y-92969518D01*
X145633743Y-92976179D01*
X145633739Y-92976182D01*
X145506184Y-93103737D01*
X145410211Y-93256476D01*
X145350631Y-93426745D01*
X145350630Y-93426750D01*
X145335500Y-93561039D01*
X145335500Y-95158960D01*
X145350630Y-95293249D01*
X145350631Y-95293254D01*
X145410211Y-95463523D01*
X145473363Y-95564028D01*
X145492363Y-95631265D01*
X145473363Y-95695972D01*
X145410211Y-95796476D01*
X145350631Y-95966745D01*
X145350630Y-95966750D01*
X145335500Y-96101039D01*
X145335500Y-97698960D01*
X145350630Y-97833249D01*
X145350631Y-97833254D01*
X145410211Y-98003523D01*
X145506184Y-98156262D01*
X145633738Y-98283816D01*
X145786478Y-98379789D01*
X145956745Y-98439368D01*
X145956750Y-98439369D01*
X146047246Y-98449565D01*
X146091040Y-98454499D01*
X146091043Y-98454500D01*
X146091046Y-98454500D01*
X147688957Y-98454500D01*
X147688958Y-98454499D01*
X147756104Y-98446934D01*
X147823249Y-98439369D01*
X147823252Y-98439368D01*
X147823255Y-98439368D01*
X147993522Y-98379789D01*
X148146262Y-98283816D01*
X148273816Y-98156262D01*
X148369789Y-98003522D01*
X148429368Y-97833255D01*
X148444500Y-97698954D01*
X148444500Y-96101046D01*
X148433115Y-96000000D01*
X148429369Y-95966750D01*
X148429368Y-95966745D01*
X148369788Y-95796475D01*
X148321851Y-95720185D01*
X148306636Y-95695971D01*
X148287636Y-95628736D01*
X148306637Y-95564027D01*
X148369788Y-95463524D01*
X148429368Y-95293254D01*
X148429369Y-95293249D01*
X148444499Y-95158960D01*
X148444500Y-95158956D01*
X148444500Y-93561043D01*
X148444499Y-93561039D01*
X148429369Y-93426750D01*
X148429368Y-93426745D01*
X148407684Y-93364776D01*
X148369789Y-93256478D01*
X148273816Y-93103738D01*
X148146262Y-92976184D01*
X148135655Y-92969519D01*
X148089366Y-92917184D01*
X148078719Y-92848131D01*
X148085448Y-92821193D01*
X148137597Y-92681376D01*
X148137598Y-92681372D01*
X148143999Y-92621844D01*
X148144000Y-92621827D01*
X148144000Y-92070000D01*
X147323012Y-92070000D01*
X147355925Y-92012993D01*
X147390000Y-91885826D01*
X147390000Y-91754174D01*
X147355925Y-91627007D01*
X147323012Y-91570000D01*
X148144000Y-91570000D01*
X148144000Y-91018172D01*
X148143999Y-91018155D01*
X148137598Y-90958627D01*
X148137597Y-90958623D01*
X148085448Y-90818805D01*
X148080464Y-90749113D01*
X148113949Y-90687790D01*
X148135655Y-90670480D01*
X148146262Y-90663816D01*
X148273816Y-90536262D01*
X148273818Y-90536258D01*
X148278163Y-90530812D01*
X148279717Y-90532052D01*
X148324715Y-90492242D01*
X148377386Y-90480500D01*
X148381374Y-90480500D01*
X148448413Y-90500185D01*
X148469055Y-90516819D01*
X152520089Y-94567852D01*
X152553574Y-94629175D01*
X152556026Y-94645803D01*
X152564317Y-94751148D01*
X152564318Y-94751151D01*
X152623126Y-94996110D01*
X152719533Y-95228859D01*
X152851160Y-95443653D01*
X152851161Y-95443656D01*
X152906604Y-95508571D01*
X153014776Y-95635224D01*
X153163066Y-95761875D01*
X153206343Y-95798838D01*
X153206346Y-95798839D01*
X153421140Y-95930466D01*
X153638928Y-96020676D01*
X153653889Y-96026873D01*
X153898852Y-96085683D01*
X154150000Y-96105449D01*
X154401148Y-96085683D01*
X154646111Y-96026873D01*
X154878859Y-95930466D01*
X155093659Y-95798836D01*
X155285224Y-95635224D01*
X155448836Y-95443659D01*
X155580466Y-95228859D01*
X155676873Y-94996111D01*
X155735683Y-94751148D01*
X155755449Y-94500000D01*
X165244551Y-94500000D01*
X165264317Y-94751151D01*
X165323126Y-94996110D01*
X165419533Y-95228859D01*
X165551160Y-95443653D01*
X165551161Y-95443656D01*
X165606604Y-95508571D01*
X165714776Y-95635224D01*
X165863066Y-95761875D01*
X165906343Y-95798838D01*
X165906346Y-95798839D01*
X166121140Y-95930466D01*
X166338928Y-96020676D01*
X166353889Y-96026873D01*
X166598852Y-96085683D01*
X166850000Y-96105449D01*
X167101148Y-96085683D01*
X167346111Y-96026873D01*
X167578859Y-95930466D01*
X167793659Y-95798836D01*
X167874011Y-95730209D01*
X167937771Y-95701639D01*
X167954541Y-95700500D01*
X169921374Y-95700500D01*
X169988413Y-95720185D01*
X170009055Y-95736819D01*
X170231589Y-95959353D01*
X170265074Y-96020676D01*
X170267561Y-96037767D01*
X170283777Y-96254155D01*
X170321478Y-96419333D01*
X170340492Y-96502637D01*
X170433607Y-96739888D01*
X170561041Y-96960612D01*
X170719950Y-97159877D01*
X170906783Y-97333232D01*
X171117366Y-97476805D01*
X171117371Y-97476807D01*
X171117372Y-97476808D01*
X171117373Y-97476809D01*
X171239328Y-97535538D01*
X171346992Y-97587387D01*
X171346993Y-97587387D01*
X171346996Y-97587389D01*
X171590542Y-97662513D01*
X171842565Y-97700500D01*
X172097435Y-97700500D01*
X172349458Y-97662513D01*
X172593004Y-97587389D01*
X172822634Y-97476805D01*
X173033217Y-97333232D01*
X173100800Y-97270523D01*
X173163328Y-97239357D01*
X173232784Y-97246943D01*
X173259450Y-97262158D01*
X173367910Y-97343352D01*
X173367913Y-97343354D01*
X173502620Y-97393596D01*
X173502627Y-97393598D01*
X173562155Y-97399999D01*
X173562172Y-97400000D01*
X174260000Y-97400000D01*
X174260000Y-96375277D01*
X174336306Y-96419333D01*
X174450756Y-96450000D01*
X174569244Y-96450000D01*
X174683694Y-96419333D01*
X174760000Y-96375277D01*
X174760000Y-97400000D01*
X175457828Y-97400000D01*
X175457844Y-97399999D01*
X175517372Y-97393598D01*
X175517379Y-97393596D01*
X175652086Y-97343354D01*
X175652093Y-97343350D01*
X175767187Y-97257190D01*
X175767190Y-97257187D01*
X175853350Y-97142093D01*
X175853354Y-97142086D01*
X175903596Y-97007379D01*
X175903598Y-97007372D01*
X175909999Y-96947844D01*
X175910000Y-96947827D01*
X175910000Y-96250000D01*
X174885278Y-96250000D01*
X174929333Y-96173694D01*
X174960000Y-96059244D01*
X174960000Y-95940756D01*
X174929333Y-95826306D01*
X174885278Y-95750000D01*
X175910000Y-95750000D01*
X175910000Y-95052172D01*
X175909999Y-95052155D01*
X175903598Y-94992627D01*
X175903596Y-94992620D01*
X175853354Y-94857913D01*
X175853350Y-94857906D01*
X175767190Y-94742812D01*
X175767187Y-94742809D01*
X175652093Y-94656649D01*
X175652086Y-94656645D01*
X175517379Y-94606403D01*
X175517372Y-94606401D01*
X175457844Y-94600000D01*
X174760000Y-94600000D01*
X174760000Y-95624722D01*
X174683694Y-95580667D01*
X174569244Y-95550000D01*
X174450756Y-95550000D01*
X174336306Y-95580667D01*
X174260000Y-95624722D01*
X174260000Y-94600000D01*
X173562155Y-94600000D01*
X173502627Y-94606401D01*
X173502620Y-94606403D01*
X173367913Y-94656645D01*
X173367910Y-94656647D01*
X173259449Y-94737841D01*
X173193984Y-94762258D01*
X173125711Y-94747406D01*
X173100797Y-94729473D01*
X173033217Y-94666768D01*
X172978078Y-94629175D01*
X172822634Y-94523195D01*
X172822630Y-94523193D01*
X172822627Y-94523191D01*
X172822626Y-94523190D01*
X172593006Y-94412612D01*
X172593008Y-94412612D01*
X172349466Y-94337489D01*
X172349462Y-94337488D01*
X172349458Y-94337487D01*
X172228231Y-94319214D01*
X172097440Y-94299500D01*
X172097435Y-94299500D01*
X172018626Y-94299500D01*
X171951587Y-94279815D01*
X171930945Y-94263181D01*
X171252076Y-93584312D01*
X171252074Y-93584310D01*
X171099199Y-93473240D01*
X170930836Y-93387454D01*
X170751118Y-93329059D01*
X170564486Y-93299500D01*
X170564481Y-93299500D01*
X167954541Y-93299500D01*
X167887502Y-93279815D01*
X167874016Y-93269795D01*
X167793659Y-93201164D01*
X167793657Y-93201162D01*
X167793655Y-93201161D01*
X167793653Y-93201160D01*
X167578859Y-93069533D01*
X167346110Y-92973126D01*
X167101151Y-92914317D01*
X166850000Y-92894551D01*
X166598848Y-92914317D01*
X166353889Y-92973126D01*
X166121140Y-93069533D01*
X165906346Y-93201160D01*
X165906343Y-93201161D01*
X165714776Y-93364776D01*
X165551161Y-93556343D01*
X165551160Y-93556346D01*
X165419533Y-93771140D01*
X165323126Y-94003889D01*
X165264317Y-94248848D01*
X165244551Y-94500000D01*
X155755449Y-94500000D01*
X155735683Y-94248852D01*
X155676873Y-94003889D01*
X155580466Y-93771141D01*
X155580466Y-93771140D01*
X155448839Y-93556346D01*
X155448838Y-93556343D01*
X155377861Y-93473240D01*
X155285224Y-93364776D01*
X155158421Y-93256476D01*
X155093656Y-93201161D01*
X155093653Y-93201160D01*
X154878859Y-93069533D01*
X154646110Y-92973126D01*
X154467066Y-92930142D01*
X154401148Y-92914317D01*
X154305181Y-92906764D01*
X154295803Y-92906026D01*
X154230515Y-92881141D01*
X154217852Y-92870089D01*
X149712076Y-88364312D01*
X149712075Y-88364311D01*
X149712074Y-88364310D01*
X149559199Y-88253240D01*
X149408539Y-88176475D01*
X149405615Y-88174985D01*
X149354819Y-88127010D01*
X149338024Y-88059189D01*
X149360561Y-87993054D01*
X149415277Y-87949603D01*
X149461910Y-87940500D01*
X150341374Y-87940500D01*
X150408413Y-87960185D01*
X150429055Y-87976819D01*
X152520089Y-90067853D01*
X152553574Y-90129176D01*
X152556026Y-90145804D01*
X152564317Y-90251148D01*
X152564318Y-90251151D01*
X152623126Y-90496110D01*
X152719533Y-90728859D01*
X152851160Y-90943653D01*
X152851161Y-90943656D01*
X152851164Y-90943659D01*
X153014776Y-91135224D01*
X153163066Y-91261875D01*
X153206343Y-91298838D01*
X153206346Y-91298839D01*
X153421140Y-91430466D01*
X153653889Y-91526873D01*
X153898852Y-91585683D01*
X154150000Y-91605449D01*
X154401148Y-91585683D01*
X154646111Y-91526873D01*
X154878859Y-91430466D01*
X155093659Y-91298836D01*
X155285224Y-91135224D01*
X155448836Y-90943659D01*
X155580466Y-90728859D01*
X155676873Y-90496111D01*
X155735683Y-90251148D01*
X155755449Y-90000000D01*
X165244551Y-90000000D01*
X165264317Y-90251151D01*
X165323126Y-90496110D01*
X165419533Y-90728859D01*
X165551160Y-90943653D01*
X165551161Y-90943656D01*
X165551164Y-90943659D01*
X165714776Y-91135224D01*
X165863066Y-91261875D01*
X165906343Y-91298838D01*
X165906346Y-91298839D01*
X166121140Y-91430466D01*
X166353889Y-91526873D01*
X166598852Y-91585683D01*
X166850000Y-91605449D01*
X167101148Y-91585683D01*
X167346111Y-91526873D01*
X167578859Y-91430466D01*
X167793659Y-91298836D01*
X167874011Y-91230209D01*
X167937771Y-91201639D01*
X167954541Y-91200500D01*
X171094486Y-91200500D01*
X171281118Y-91170940D01*
X171460832Y-91112547D01*
X171629199Y-91026760D01*
X171782074Y-90915690D01*
X171960945Y-90736819D01*
X172022268Y-90703334D01*
X172048626Y-90700500D01*
X172127435Y-90700500D01*
X172379458Y-90662513D01*
X172623004Y-90587389D01*
X172820579Y-90492242D01*
X172852626Y-90476809D01*
X172852626Y-90476808D01*
X172852634Y-90476805D01*
X173063217Y-90333232D01*
X173130800Y-90270523D01*
X173193328Y-90239357D01*
X173262784Y-90246943D01*
X173289450Y-90262158D01*
X173397910Y-90343352D01*
X173397913Y-90343354D01*
X173532620Y-90393596D01*
X173532627Y-90393598D01*
X173592155Y-90399999D01*
X173592172Y-90400000D01*
X174290000Y-90400000D01*
X174290000Y-89375277D01*
X174366306Y-89419333D01*
X174480756Y-89450000D01*
X174599244Y-89450000D01*
X174713694Y-89419333D01*
X174790000Y-89375277D01*
X174790000Y-90400000D01*
X175487828Y-90400000D01*
X175487844Y-90399999D01*
X175547372Y-90393598D01*
X175547379Y-90393596D01*
X175682086Y-90343354D01*
X175682093Y-90343350D01*
X175797187Y-90257190D01*
X175797190Y-90257187D01*
X175883350Y-90142093D01*
X175883354Y-90142086D01*
X175933596Y-90007379D01*
X175933598Y-90007372D01*
X175939999Y-89947844D01*
X175940000Y-89947827D01*
X175940000Y-89250000D01*
X174915278Y-89250000D01*
X174959333Y-89173694D01*
X174990000Y-89059244D01*
X174990000Y-88940756D01*
X174959333Y-88826306D01*
X174915278Y-88750000D01*
X175940000Y-88750000D01*
X175940000Y-88052172D01*
X175939999Y-88052155D01*
X175933598Y-87992627D01*
X175933596Y-87992620D01*
X175883354Y-87857913D01*
X175883350Y-87857906D01*
X175797190Y-87742812D01*
X175797187Y-87742809D01*
X175682093Y-87656649D01*
X175682086Y-87656645D01*
X175547379Y-87606403D01*
X175547372Y-87606401D01*
X175487844Y-87600000D01*
X174790000Y-87600000D01*
X174790000Y-88624722D01*
X174713694Y-88580667D01*
X174599244Y-88550000D01*
X174480756Y-88550000D01*
X174366306Y-88580667D01*
X174290000Y-88624722D01*
X174290000Y-87600000D01*
X173592155Y-87600000D01*
X173532627Y-87606401D01*
X173532620Y-87606403D01*
X173397913Y-87656645D01*
X173397910Y-87656647D01*
X173289449Y-87737841D01*
X173223984Y-87762258D01*
X173155711Y-87747406D01*
X173130797Y-87729473D01*
X173063217Y-87666768D01*
X173048369Y-87656645D01*
X172852634Y-87523195D01*
X172852630Y-87523193D01*
X172852627Y-87523191D01*
X172852626Y-87523190D01*
X172623006Y-87412612D01*
X172623008Y-87412612D01*
X172379466Y-87337489D01*
X172379462Y-87337488D01*
X172379458Y-87337487D01*
X172258231Y-87319214D01*
X172127440Y-87299500D01*
X172127435Y-87299500D01*
X171872565Y-87299500D01*
X171872559Y-87299500D01*
X171715609Y-87323157D01*
X171620542Y-87337487D01*
X171620539Y-87337488D01*
X171620533Y-87337489D01*
X171376992Y-87412612D01*
X171147373Y-87523190D01*
X171147372Y-87523191D01*
X170936782Y-87666768D01*
X170749952Y-87840121D01*
X170749950Y-87840123D01*
X170591041Y-88039388D01*
X170463608Y-88260109D01*
X170370492Y-88497362D01*
X170370490Y-88497369D01*
X170323535Y-88703093D01*
X170289426Y-88764071D01*
X170227765Y-88796929D01*
X170202644Y-88799500D01*
X167954541Y-88799500D01*
X167887502Y-88779815D01*
X167874016Y-88769795D01*
X167793659Y-88701164D01*
X167793657Y-88701162D01*
X167793655Y-88701161D01*
X167793653Y-88701160D01*
X167578859Y-88569533D01*
X167346110Y-88473126D01*
X167101151Y-88414317D01*
X166850000Y-88394551D01*
X166598848Y-88414317D01*
X166353889Y-88473126D01*
X166121140Y-88569533D01*
X165906346Y-88701160D01*
X165906343Y-88701161D01*
X165714776Y-88864776D01*
X165551161Y-89056343D01*
X165551160Y-89056346D01*
X165419533Y-89271140D01*
X165323126Y-89503889D01*
X165264317Y-89748848D01*
X165244551Y-90000000D01*
X155755449Y-90000000D01*
X155735683Y-89748852D01*
X155676873Y-89503889D01*
X155617310Y-89360090D01*
X155580466Y-89271140D01*
X155448839Y-89056346D01*
X155448838Y-89056343D01*
X155350117Y-88940756D01*
X155285224Y-88864776D01*
X155145971Y-88745843D01*
X155093656Y-88701161D01*
X155093653Y-88701160D01*
X154878859Y-88569533D01*
X154646110Y-88473126D01*
X154467066Y-88430142D01*
X154401148Y-88414317D01*
X154307828Y-88406972D01*
X154295804Y-88406026D01*
X154230516Y-88381141D01*
X154217853Y-88370089D01*
X151672076Y-85824312D01*
X151672074Y-85824310D01*
X151519199Y-85713240D01*
X151365615Y-85634985D01*
X151314819Y-85587010D01*
X151298024Y-85519189D01*
X151320561Y-85453054D01*
X151375277Y-85409603D01*
X151421910Y-85400500D01*
X152301374Y-85400500D01*
X152368413Y-85420185D01*
X152389050Y-85436814D01*
X152520090Y-85567853D01*
X152553574Y-85629174D01*
X152556026Y-85645803D01*
X152564317Y-85751148D01*
X152564318Y-85751151D01*
X152623126Y-85996110D01*
X152719533Y-86228859D01*
X152851160Y-86443653D01*
X152851161Y-86443656D01*
X152851164Y-86443659D01*
X153014776Y-86635224D01*
X153163066Y-86761875D01*
X153206343Y-86798838D01*
X153206346Y-86798839D01*
X153421140Y-86930466D01*
X153653889Y-87026873D01*
X153898852Y-87085683D01*
X154150000Y-87105449D01*
X154401148Y-87085683D01*
X154646111Y-87026873D01*
X154878859Y-86930466D01*
X155093659Y-86798836D01*
X155285224Y-86635224D01*
X155448836Y-86443659D01*
X155580466Y-86228859D01*
X155676873Y-85996111D01*
X155735683Y-85751148D01*
X155755449Y-85500000D01*
X165244551Y-85500000D01*
X165264317Y-85751151D01*
X165323126Y-85996110D01*
X165419533Y-86228859D01*
X165551160Y-86443653D01*
X165551161Y-86443656D01*
X165551164Y-86443659D01*
X165714776Y-86635224D01*
X165863066Y-86761875D01*
X165906343Y-86798838D01*
X165906346Y-86798839D01*
X166121140Y-86930466D01*
X166353889Y-87026873D01*
X166598852Y-87085683D01*
X166850000Y-87105449D01*
X167101148Y-87085683D01*
X167346111Y-87026873D01*
X167578859Y-86930466D01*
X167793659Y-86798836D01*
X167874011Y-86730209D01*
X167937771Y-86701639D01*
X167954541Y-86700500D01*
X168564486Y-86700500D01*
X168751118Y-86670940D01*
X168930832Y-86612547D01*
X169099199Y-86526760D01*
X169252074Y-86415690D01*
X171930945Y-83736819D01*
X171992268Y-83703334D01*
X172018626Y-83700500D01*
X172097435Y-83700500D01*
X172349458Y-83662513D01*
X172593004Y-83587389D01*
X172822634Y-83476805D01*
X173033217Y-83333232D01*
X173100800Y-83270523D01*
X173163328Y-83239357D01*
X173232784Y-83246943D01*
X173259450Y-83262158D01*
X173367910Y-83343352D01*
X173367913Y-83343354D01*
X173502620Y-83393596D01*
X173502627Y-83393598D01*
X173562155Y-83399999D01*
X173562172Y-83400000D01*
X174260000Y-83400000D01*
X174260000Y-82375277D01*
X174336306Y-82419333D01*
X174450756Y-82450000D01*
X174569244Y-82450000D01*
X174683694Y-82419333D01*
X174760000Y-82375277D01*
X174760000Y-83400000D01*
X175457828Y-83400000D01*
X175457844Y-83399999D01*
X175517372Y-83393598D01*
X175517379Y-83393596D01*
X175652086Y-83343354D01*
X175652093Y-83343350D01*
X175767187Y-83257190D01*
X175767190Y-83257187D01*
X175853350Y-83142093D01*
X175853354Y-83142086D01*
X175903596Y-83007379D01*
X175903598Y-83007372D01*
X175909999Y-82947844D01*
X175910000Y-82947827D01*
X175910000Y-82250000D01*
X174885278Y-82250000D01*
X174929333Y-82173694D01*
X174960000Y-82059244D01*
X174960000Y-81940756D01*
X174929333Y-81826306D01*
X174885278Y-81750000D01*
X175910000Y-81750000D01*
X175910000Y-81052172D01*
X175909999Y-81052155D01*
X175903598Y-80992627D01*
X175903596Y-80992620D01*
X175853354Y-80857913D01*
X175853350Y-80857906D01*
X175767190Y-80742812D01*
X175767187Y-80742809D01*
X175652093Y-80656649D01*
X175652086Y-80656645D01*
X175517379Y-80606403D01*
X175517372Y-80606401D01*
X175457844Y-80600000D01*
X174760000Y-80600000D01*
X174760000Y-81624722D01*
X174683694Y-81580667D01*
X174569244Y-81550000D01*
X174450756Y-81550000D01*
X174336306Y-81580667D01*
X174260000Y-81624722D01*
X174260000Y-80600000D01*
X173562155Y-80600000D01*
X173502627Y-80606401D01*
X173502620Y-80606403D01*
X173367913Y-80656645D01*
X173367910Y-80656647D01*
X173259449Y-80737841D01*
X173193984Y-80762258D01*
X173125711Y-80747406D01*
X173100797Y-80729473D01*
X173033217Y-80666768D01*
X173018369Y-80656645D01*
X172822634Y-80523195D01*
X172822630Y-80523193D01*
X172822627Y-80523191D01*
X172822626Y-80523190D01*
X172593006Y-80412612D01*
X172593008Y-80412612D01*
X172349466Y-80337489D01*
X172349462Y-80337488D01*
X172349458Y-80337487D01*
X172228231Y-80319214D01*
X172097440Y-80299500D01*
X172097435Y-80299500D01*
X171842565Y-80299500D01*
X171842559Y-80299500D01*
X171685609Y-80323157D01*
X171590542Y-80337487D01*
X171590539Y-80337488D01*
X171590533Y-80337489D01*
X171346992Y-80412612D01*
X171117373Y-80523190D01*
X171117372Y-80523191D01*
X170906782Y-80666768D01*
X170719952Y-80840121D01*
X170719950Y-80840123D01*
X170561041Y-81039388D01*
X170433608Y-81260109D01*
X170340492Y-81497362D01*
X170340490Y-81497369D01*
X170283777Y-81745845D01*
X170267562Y-81962230D01*
X170242923Y-82027611D01*
X170231590Y-82040645D01*
X168024333Y-84247902D01*
X167963010Y-84281387D01*
X167893318Y-84276403D01*
X167856121Y-84254511D01*
X167793662Y-84201166D01*
X167793653Y-84201160D01*
X167578859Y-84069533D01*
X167346110Y-83973126D01*
X167101151Y-83914317D01*
X166850000Y-83894551D01*
X166598848Y-83914317D01*
X166353889Y-83973126D01*
X166121140Y-84069533D01*
X165906346Y-84201160D01*
X165906343Y-84201161D01*
X165714776Y-84364776D01*
X165551161Y-84556343D01*
X165551160Y-84556346D01*
X165419533Y-84771140D01*
X165323126Y-85003889D01*
X165264317Y-85248848D01*
X165244551Y-85500000D01*
X155755449Y-85500000D01*
X155735683Y-85248852D01*
X155676873Y-85003889D01*
X155580466Y-84771141D01*
X155580466Y-84771140D01*
X155448839Y-84556346D01*
X155448838Y-84556343D01*
X155411875Y-84513066D01*
X155285224Y-84364776D01*
X155148382Y-84247902D01*
X155093656Y-84201161D01*
X155093653Y-84201160D01*
X154878859Y-84069533D01*
X154646110Y-83973126D01*
X154467066Y-83930142D01*
X154401148Y-83914317D01*
X154305181Y-83906764D01*
X154295803Y-83906026D01*
X154230515Y-83881141D01*
X154217852Y-83870089D01*
X153935152Y-83587389D01*
X153632074Y-83284310D01*
X153479199Y-83173240D01*
X153452973Y-83159877D01*
X153310836Y-83087454D01*
X153131118Y-83029059D01*
X152944486Y-82999500D01*
X152944481Y-82999500D01*
X148445876Y-82999500D01*
X148378837Y-82979815D01*
X148333082Y-82927011D01*
X148323138Y-82857853D01*
X148340882Y-82809528D01*
X148357671Y-82782807D01*
X148369789Y-82763522D01*
X148429368Y-82593255D01*
X148444500Y-82458954D01*
X148444500Y-80861046D01*
X148439565Y-80817246D01*
X148429369Y-80726750D01*
X148429368Y-80726745D01*
X148404839Y-80656645D01*
X148369789Y-80556478D01*
X148334301Y-80500000D01*
X148273815Y-80403737D01*
X148146263Y-80276185D01*
X148146262Y-80276184D01*
X148135655Y-80269519D01*
X148089366Y-80217184D01*
X148078719Y-80148131D01*
X148085448Y-80121193D01*
X148137597Y-79981376D01*
X148137598Y-79981372D01*
X148143999Y-79921844D01*
X148144000Y-79921827D01*
X148144000Y-79370000D01*
X147323012Y-79370000D01*
X147355925Y-79312993D01*
X147390000Y-79185826D01*
X147390000Y-79054174D01*
X147355925Y-78927007D01*
X147323012Y-78870000D01*
X148144000Y-78870000D01*
X148144000Y-78318172D01*
X148143999Y-78318155D01*
X148137598Y-78258627D01*
X148137597Y-78258623D01*
X148085448Y-78118805D01*
X148080464Y-78049113D01*
X148113949Y-77987790D01*
X148135655Y-77970480D01*
X148146262Y-77963816D01*
X148273816Y-77836262D01*
X148273818Y-77836258D01*
X148278163Y-77830812D01*
X148279717Y-77832052D01*
X148324715Y-77792242D01*
X148377386Y-77780500D01*
X154575348Y-77780500D01*
X154761980Y-77750940D01*
X154869301Y-77716069D01*
X154907620Y-77710000D01*
X155566988Y-77710000D01*
X155534075Y-77767007D01*
X155500000Y-77894174D01*
X155500000Y-78025826D01*
X155534075Y-78152993D01*
X155566988Y-78210000D01*
X154669364Y-78210000D01*
X154726567Y-78423486D01*
X154726570Y-78423492D01*
X154826399Y-78637578D01*
X154961891Y-78831078D01*
X155079662Y-78948850D01*
X155113146Y-79010173D01*
X155108162Y-79079865D01*
X155066290Y-79135798D01*
X155056771Y-79142258D01*
X155026861Y-79160586D01*
X154829311Y-79329311D01*
X154660588Y-79526859D01*
X154524843Y-79748376D01*
X154425427Y-79988389D01*
X154364778Y-80241009D01*
X154344396Y-80500000D01*
X154364778Y-80758990D01*
X154425427Y-81011610D01*
X154524843Y-81251623D01*
X154524845Y-81251627D01*
X154524846Y-81251628D01*
X154660588Y-81473140D01*
X154829311Y-81670689D01*
X155026860Y-81839412D01*
X155248372Y-81975154D01*
X155248374Y-81975154D01*
X155248376Y-81975156D01*
X155308355Y-82000000D01*
X155488390Y-82074573D01*
X155741006Y-82135221D01*
X156000000Y-82155604D01*
X156258994Y-82135221D01*
X156511610Y-82074573D01*
X156751628Y-81975154D01*
X156973140Y-81839412D01*
X157018607Y-81800579D01*
X157101000Y-81730210D01*
X157164761Y-81701639D01*
X157181531Y-81700500D01*
X159594486Y-81700500D01*
X159781118Y-81670940D01*
X159781894Y-81670688D01*
X159960832Y-81612547D01*
X160129199Y-81526760D01*
X160282073Y-81415690D01*
X160415690Y-81282073D01*
X160526760Y-81129199D01*
X160612547Y-80960832D01*
X160670940Y-80781118D01*
X160674445Y-80758990D01*
X160700500Y-80594486D01*
X160700500Y-62141513D01*
X160670940Y-61954881D01*
X160612545Y-61775163D01*
X160526759Y-61606800D01*
X160415690Y-61453926D01*
X149226074Y-50264310D01*
X149073199Y-50153240D01*
X148904836Y-50067454D01*
X148725118Y-50009059D01*
X148538486Y-49979500D01*
X148538481Y-49979500D01*
X148445876Y-49979500D01*
X148378837Y-49959815D01*
X148333082Y-49907011D01*
X148323138Y-49837853D01*
X148340882Y-49789528D01*
X148363034Y-49754273D01*
X148369789Y-49743522D01*
X148429368Y-49573255D01*
X148444500Y-49438954D01*
X148444500Y-47841046D01*
X148429368Y-47706745D01*
X148369789Y-47536478D01*
X148273816Y-47383738D01*
X148146262Y-47256184D01*
X148116264Y-47237335D01*
X147993523Y-47160211D01*
X147823254Y-47100631D01*
X147823249Y-47100630D01*
X147688960Y-47085500D01*
X147688954Y-47085500D01*
X146091046Y-47085500D01*
X146091039Y-47085500D01*
X145956750Y-47100630D01*
X145956745Y-47100631D01*
X145786476Y-47160211D01*
X145633737Y-47256184D01*
X145506184Y-47383737D01*
X145410211Y-47536476D01*
X145350631Y-47706745D01*
X145350630Y-47706750D01*
X145335500Y-47841039D01*
X145335500Y-49438960D01*
X145350630Y-49573249D01*
X145350631Y-49573254D01*
X145410211Y-49743523D01*
X145439118Y-49789528D01*
X145458118Y-49856765D01*
X145437750Y-49923600D01*
X145384482Y-49968814D01*
X145334124Y-49979500D01*
X144228625Y-49979500D01*
X144161586Y-49959815D01*
X144140944Y-49943181D01*
X138282076Y-44084312D01*
X138282075Y-44084311D01*
X138282074Y-44084310D01*
X138129199Y-43973240D01*
X137960836Y-43887454D01*
X137781118Y-43829059D01*
X137594486Y-43799500D01*
X137594481Y-43799500D01*
X126405519Y-43799500D01*
X126405514Y-43799500D01*
X126218881Y-43829059D01*
X126039163Y-43887454D01*
X125870799Y-43973240D01*
X125783578Y-44036610D01*
X125717926Y-44084310D01*
X125717924Y-44084312D01*
X125717923Y-44084312D01*
X101136055Y-68666181D01*
X101074732Y-68699666D01*
X101048374Y-68702500D01*
X99455039Y-68702500D01*
X99320750Y-68717630D01*
X99320745Y-68717631D01*
X99150476Y-68777211D01*
X98997737Y-68873184D01*
X98870184Y-69000737D01*
X98774211Y-69153476D01*
X98714631Y-69323745D01*
X98714630Y-69323750D01*
X98699500Y-69458039D01*
X85500500Y-69458039D01*
X85500500Y-46420000D01*
X87789975Y-46420000D01*
X87810042Y-46674989D01*
X87869752Y-46923702D01*
X87967634Y-47160012D01*
X87967636Y-47160015D01*
X88101277Y-47378098D01*
X88101284Y-47378107D01*
X88104533Y-47381912D01*
X88665884Y-46820560D01*
X88666740Y-46822626D01*
X88759762Y-46961844D01*
X88878156Y-47080238D01*
X89017374Y-47173260D01*
X89019437Y-47174114D01*
X88458087Y-47735465D01*
X88461897Y-47738719D01*
X88679984Y-47872363D01*
X88679987Y-47872365D01*
X88916297Y-47970247D01*
X89165011Y-48029957D01*
X89165010Y-48029957D01*
X89420000Y-48050024D01*
X89674989Y-48029957D01*
X89923702Y-47970247D01*
X90160010Y-47872365D01*
X90238955Y-47823988D01*
X90306401Y-47805743D01*
X90373004Y-47826859D01*
X90417617Y-47880630D01*
X90426078Y-47949986D01*
X90411133Y-47991715D01*
X90310669Y-48165723D01*
X90210712Y-48420410D01*
X90210706Y-48420429D01*
X90149827Y-48687159D01*
X90149827Y-48687160D01*
X90129381Y-48959996D01*
X90129381Y-48960003D01*
X90149827Y-49232839D01*
X90149827Y-49232840D01*
X90210706Y-49499570D01*
X90210712Y-49499589D01*
X90310669Y-49754276D01*
X90411133Y-49928284D01*
X90427606Y-49996184D01*
X90404754Y-50062211D01*
X90349832Y-50105401D01*
X90280279Y-50112043D01*
X90238956Y-50096011D01*
X90160015Y-50047636D01*
X90160012Y-50047634D01*
X89923702Y-49949752D01*
X89674988Y-49890042D01*
X89674989Y-49890042D01*
X89420000Y-49869975D01*
X89165010Y-49890042D01*
X88916297Y-49949752D01*
X88679987Y-50047634D01*
X88679984Y-50047636D01*
X88461893Y-50181282D01*
X88458086Y-50184532D01*
X89019438Y-50745884D01*
X89017374Y-50746740D01*
X88878156Y-50839762D01*
X88759762Y-50958156D01*
X88666740Y-51097374D01*
X88665884Y-51099438D01*
X88104532Y-50538086D01*
X88101282Y-50541893D01*
X87967636Y-50759984D01*
X87967634Y-50759987D01*
X87869752Y-50996297D01*
X87810042Y-51245010D01*
X87789975Y-51500000D01*
X87810042Y-51754989D01*
X87869752Y-52003702D01*
X87967634Y-52240012D01*
X87967636Y-52240015D01*
X88101277Y-52458098D01*
X88101284Y-52458107D01*
X88104533Y-52461912D01*
X88665884Y-51900560D01*
X88666740Y-51902626D01*
X88759762Y-52041844D01*
X88878156Y-52160238D01*
X89017374Y-52253260D01*
X89019437Y-52254114D01*
X88458087Y-52815465D01*
X88461897Y-52818719D01*
X88679984Y-52952363D01*
X88679987Y-52952365D01*
X88916297Y-53050247D01*
X89165011Y-53109957D01*
X89165010Y-53109957D01*
X89420000Y-53130024D01*
X89674989Y-53109957D01*
X89923702Y-53050247D01*
X90160012Y-52952365D01*
X90160015Y-52952363D01*
X90378095Y-52818724D01*
X90378110Y-52818713D01*
X90381911Y-52815466D01*
X90381911Y-52815464D01*
X89820562Y-52254114D01*
X89822626Y-52253260D01*
X89961844Y-52160238D01*
X90080238Y-52041844D01*
X90173260Y-51902626D01*
X90174114Y-51900561D01*
X90735464Y-52461911D01*
X90735466Y-52461911D01*
X90738713Y-52458110D01*
X90738724Y-52458095D01*
X90872363Y-52240015D01*
X90872365Y-52240012D01*
X90970247Y-52003702D01*
X91029957Y-51754989D01*
X91050024Y-51500000D01*
X91029957Y-51245010D01*
X90970247Y-50996297D01*
X90872365Y-50759987D01*
X90872363Y-50759984D01*
X90824828Y-50682414D01*
X90806583Y-50614969D01*
X90827699Y-50548366D01*
X90881471Y-50503752D01*
X90950826Y-50495292D01*
X91000405Y-50515169D01*
X91044691Y-50545363D01*
X91044693Y-50545364D01*
X91044698Y-50545367D01*
X91175618Y-50608414D01*
X91291196Y-50664073D01*
X91291197Y-50664073D01*
X91291200Y-50664075D01*
X91552649Y-50744722D01*
X91552650Y-50744722D01*
X91552653Y-50744723D01*
X91823190Y-50785499D01*
X91823195Y-50785499D01*
X91823198Y-50785500D01*
X91823199Y-50785500D01*
X92096801Y-50785500D01*
X92096802Y-50785500D01*
X92096809Y-50785499D01*
X92367346Y-50744723D01*
X92367347Y-50744722D01*
X92367351Y-50744722D01*
X92628800Y-50664075D01*
X92875310Y-50545363D01*
X92919593Y-50515170D01*
X92986069Y-50493671D01*
X93053620Y-50511524D01*
X93100794Y-50563064D01*
X93112616Y-50631926D01*
X93095171Y-50682414D01*
X93047634Y-50759987D01*
X92949752Y-50996297D01*
X92890042Y-51245010D01*
X92869975Y-51500000D01*
X92890042Y-51754989D01*
X92949752Y-52003702D01*
X93047634Y-52240012D01*
X93047636Y-52240015D01*
X93181277Y-52458098D01*
X93181284Y-52458107D01*
X93184533Y-52461912D01*
X93745884Y-51900561D01*
X93746740Y-51902626D01*
X93839762Y-52041844D01*
X93958156Y-52160238D01*
X94097374Y-52253260D01*
X94099437Y-52254114D01*
X93538087Y-52815465D01*
X93541897Y-52818719D01*
X93759984Y-52952363D01*
X93759987Y-52952365D01*
X93996297Y-53050247D01*
X94245011Y-53109957D01*
X94245010Y-53109957D01*
X94500000Y-53130024D01*
X94754989Y-53109957D01*
X95003702Y-53050247D01*
X95240012Y-52952365D01*
X95240015Y-52952363D01*
X95458095Y-52818724D01*
X95458110Y-52818713D01*
X95461911Y-52815466D01*
X95461911Y-52815464D01*
X94900562Y-52254114D01*
X94902626Y-52253260D01*
X95041844Y-52160238D01*
X95160238Y-52041844D01*
X95253260Y-51902626D01*
X95254114Y-51900562D01*
X95815464Y-52461911D01*
X95815466Y-52461911D01*
X95818713Y-52458110D01*
X95818724Y-52458095D01*
X95952363Y-52240015D01*
X95952365Y-52240012D01*
X96050247Y-52003702D01*
X96109957Y-51754989D01*
X96130024Y-51500000D01*
X96109957Y-51245010D01*
X96050247Y-50996297D01*
X95952365Y-50759987D01*
X95952363Y-50759984D01*
X95818719Y-50541897D01*
X95815465Y-50538087D01*
X95254114Y-51099437D01*
X95253260Y-51097374D01*
X95160238Y-50958156D01*
X95041844Y-50839762D01*
X94902626Y-50746740D01*
X94900561Y-50745884D01*
X95461912Y-50184533D01*
X95458107Y-50181284D01*
X95458098Y-50181277D01*
X95240015Y-50047636D01*
X95240012Y-50047634D01*
X95003702Y-49949752D01*
X94754988Y-49890042D01*
X94754989Y-49890042D01*
X94500000Y-49869975D01*
X94245010Y-49890042D01*
X93996297Y-49949752D01*
X93759987Y-50047634D01*
X93681042Y-50096012D01*
X93613596Y-50114256D01*
X93546994Y-50093139D01*
X93502381Y-50039367D01*
X93493921Y-49970011D01*
X93508863Y-49928288D01*
X93609331Y-49754276D01*
X93709290Y-49499584D01*
X93770172Y-49232840D01*
X93790619Y-48960000D01*
X93770172Y-48687160D01*
X93709290Y-48420416D01*
X93609331Y-48165724D01*
X93508865Y-47991714D01*
X93492393Y-47923815D01*
X93515245Y-47857788D01*
X93570166Y-47814598D01*
X93639720Y-47807956D01*
X93681043Y-47823988D01*
X93759984Y-47872363D01*
X93759987Y-47872365D01*
X93996297Y-47970247D01*
X94245011Y-48029957D01*
X94245010Y-48029957D01*
X94500000Y-48050024D01*
X94754989Y-48029957D01*
X95003702Y-47970247D01*
X95240012Y-47872365D01*
X95240015Y-47872363D01*
X95458095Y-47738724D01*
X95458110Y-47738713D01*
X95461911Y-47735466D01*
X95461911Y-47735464D01*
X94900561Y-47174114D01*
X94902626Y-47173260D01*
X95041844Y-47080238D01*
X95160238Y-46961844D01*
X95253260Y-46822626D01*
X95254114Y-46820562D01*
X95815464Y-47381911D01*
X95815466Y-47381911D01*
X95818713Y-47378110D01*
X95818724Y-47378095D01*
X95952363Y-47160015D01*
X95952365Y-47160012D01*
X96050247Y-46923702D01*
X96109957Y-46674989D01*
X96130024Y-46420000D01*
X96109957Y-46165010D01*
X96050247Y-45916297D01*
X95952365Y-45679987D01*
X95952363Y-45679984D01*
X95818719Y-45461897D01*
X95815465Y-45458087D01*
X95254114Y-46019437D01*
X95253260Y-46017374D01*
X95160238Y-45878156D01*
X95041844Y-45759762D01*
X94902626Y-45666740D01*
X94900561Y-45665884D01*
X95461912Y-45104533D01*
X95458107Y-45101284D01*
X95458098Y-45101277D01*
X95240015Y-44967636D01*
X95240012Y-44967634D01*
X95003702Y-44869752D01*
X94754988Y-44810042D01*
X94754989Y-44810042D01*
X94500000Y-44789975D01*
X94245010Y-44810042D01*
X93996297Y-44869752D01*
X93759987Y-44967634D01*
X93759984Y-44967636D01*
X93541893Y-45101282D01*
X93538086Y-45104532D01*
X94099438Y-45665884D01*
X94097374Y-45666740D01*
X93958156Y-45759762D01*
X93839762Y-45878156D01*
X93746740Y-46017374D01*
X93745884Y-46019438D01*
X93184532Y-45458086D01*
X93181282Y-45461893D01*
X93047636Y-45679984D01*
X93047634Y-45679987D01*
X92949752Y-45916297D01*
X92890042Y-46165010D01*
X92869975Y-46420000D01*
X92890042Y-46674989D01*
X92949752Y-46923702D01*
X93047633Y-47160009D01*
X93095171Y-47237584D01*
X93113415Y-47305030D01*
X93092298Y-47371633D01*
X93038526Y-47416246D01*
X92969171Y-47424706D01*
X92919592Y-47404828D01*
X92875310Y-47374637D01*
X92875302Y-47374632D01*
X92628802Y-47255926D01*
X92628804Y-47255926D01*
X92367352Y-47175278D01*
X92367346Y-47175276D01*
X92096809Y-47134500D01*
X92096802Y-47134500D01*
X91823198Y-47134500D01*
X91823190Y-47134500D01*
X91552653Y-47175276D01*
X91552647Y-47175278D01*
X91291196Y-47255926D01*
X91044698Y-47374632D01*
X91044692Y-47374636D01*
X91000405Y-47404830D01*
X90933925Y-47426329D01*
X90866375Y-47408474D01*
X90819202Y-47356933D01*
X90807383Y-47288070D01*
X90824828Y-47237584D01*
X90872365Y-47160010D01*
X90970247Y-46923702D01*
X91029957Y-46674989D01*
X91050024Y-46420000D01*
X91029957Y-46165010D01*
X90970247Y-45916297D01*
X90872365Y-45679987D01*
X90872363Y-45679984D01*
X90738719Y-45461897D01*
X90735465Y-45458087D01*
X90174114Y-46019437D01*
X90173260Y-46017374D01*
X90080238Y-45878156D01*
X89961844Y-45759762D01*
X89822626Y-45666740D01*
X89820561Y-45665884D01*
X90381912Y-45104533D01*
X90378107Y-45101284D01*
X90378098Y-45101277D01*
X90160015Y-44967636D01*
X90160012Y-44967634D01*
X89923702Y-44869752D01*
X89674988Y-44810042D01*
X89674989Y-44810042D01*
X89420000Y-44789975D01*
X89165010Y-44810042D01*
X88916297Y-44869752D01*
X88679987Y-44967634D01*
X88679984Y-44967636D01*
X88461893Y-45101282D01*
X88458086Y-45104532D01*
X89019438Y-45665884D01*
X89017374Y-45666740D01*
X88878156Y-45759762D01*
X88759762Y-45878156D01*
X88666740Y-46017374D01*
X88665884Y-46019438D01*
X88104532Y-45458086D01*
X88101282Y-45461893D01*
X87967636Y-45679984D01*
X87967634Y-45679987D01*
X87869752Y-45916297D01*
X87810042Y-46165010D01*
X87789975Y-46420000D01*
X85500500Y-46420000D01*
X85500500Y-43624500D01*
X85520185Y-43557461D01*
X85572989Y-43511706D01*
X85624500Y-43500500D01*
X177875500Y-43500500D01*
X177942539Y-43520185D01*
G37*
%TD.AperFunction*%
%TD*%
M02*
