%TF.GenerationSoftware,KiCad,Pcbnew,8.0.2*%
%TF.CreationDate,2024-05-25T14:11:56+03:00*%
%TF.ProjectId,LoRa_irrigation_system,4c6f5261-5f69-4727-9269-676174696f6e,rev?*%
%TF.SameCoordinates,Original*%
%TF.FileFunction,Drillmap*%
%TF.FilePolarity,Positive*%
%FSLAX45Y45*%
G04 Gerber Fmt 4.5, Leading zero omitted, Abs format (unit mm)*
G04 Created by KiCad (PCBNEW 8.0.2) date 2024-05-25 14:11:56*
%MOMM*%
%LPD*%
G01*
G04 APERTURE LIST*
%ADD10C,0.050000*%
%ADD11C,0.200000*%
%ADD12C,0.100000*%
%ADD13C,0.120000*%
%ADD14C,0.130000*%
%ADD15C,0.150000*%
%ADD16C,0.170000*%
G04 APERTURE END LIST*
D10*
X8500000Y-4300000D02*
X17850000Y-4300000D01*
X8500000Y-12050000D02*
X8500000Y-4300000D01*
X17850000Y-12050000D02*
X8500000Y-12050000D01*
X17850000Y-4300000D02*
X17850000Y-11900000D01*
X17850000Y-11900000D02*
X17850000Y-12050000D01*
D11*
D12*
X15375000Y-8510000D02*
X15455000Y-8590000D01*
X15455000Y-8510000D02*
X15375000Y-8590000D01*
X15375000Y-8960000D02*
X15455000Y-9040000D01*
X15455000Y-8960000D02*
X15375000Y-9040000D01*
X15375000Y-9410000D02*
X15455000Y-9490000D01*
X15455000Y-9410000D02*
X15375000Y-9490000D01*
X16645000Y-8510000D02*
X16725000Y-8590000D01*
X16725000Y-8510000D02*
X16645000Y-8590000D01*
X16645000Y-8960000D02*
X16725000Y-9040000D01*
X16725000Y-8960000D02*
X16645000Y-9040000D01*
X16645000Y-9410000D02*
X16725000Y-9490000D01*
X16725000Y-9410000D02*
X16645000Y-9490000D01*
X10095000Y-7050300D02*
G75*
G02*
X10005000Y-7050300I-45000J0D01*
G01*
X10005000Y-7050300D02*
G75*
G02*
X10095000Y-7050300I45000J0D01*
G01*
X10095000Y-10987300D02*
G75*
G02*
X10005000Y-10987300I-45000J0D01*
G01*
X10005000Y-10987300D02*
G75*
G02*
X10095000Y-10987300I45000J0D01*
G01*
X11809500Y-7050300D02*
G75*
G02*
X11719500Y-7050300I-45000J0D01*
G01*
X11719500Y-7050300D02*
G75*
G02*
X11809500Y-7050300I45000J0D01*
G01*
X11809500Y-10987300D02*
G75*
G02*
X11719500Y-10987300I-45000J0D01*
G01*
X11719500Y-10987300D02*
G75*
G02*
X11809500Y-10987300I45000J0D01*
G01*
X17242000Y-8200000D02*
G75*
G02*
X17152000Y-8200000I-45000J0D01*
G01*
X17152000Y-8200000D02*
G75*
G02*
X17242000Y-8200000I45000J0D01*
G01*
X17242000Y-9600000D02*
G75*
G02*
X17152000Y-9600000I-45000J0D01*
G01*
X17152000Y-9600000D02*
G75*
G02*
X17242000Y-9600000I45000J0D01*
G01*
X17245000Y-8900000D02*
G75*
G02*
X17155000Y-8900000I-45000J0D01*
G01*
X17155000Y-8900000D02*
G75*
G02*
X17245000Y-8900000I45000J0D01*
G01*
X17496000Y-8200000D02*
G75*
G02*
X17406000Y-8200000I-45000J0D01*
G01*
X17406000Y-8200000D02*
G75*
G02*
X17496000Y-8200000I45000J0D01*
G01*
X17496000Y-9600000D02*
G75*
G02*
X17406000Y-9600000I-45000J0D01*
G01*
X17406000Y-9600000D02*
G75*
G02*
X17496000Y-9600000I45000J0D01*
G01*
X17499000Y-8900000D02*
G75*
G02*
X17409000Y-8900000I-45000J0D01*
G01*
X17409000Y-8900000D02*
G75*
G02*
X17499000Y-8900000I45000J0D01*
G01*
X12895000Y-10205000D02*
X12895000Y-10305000D01*
X12845000Y-10255000D02*
X12945000Y-10255000D01*
X12895000Y-11405000D02*
X12895000Y-11505000D01*
X12845000Y-11455000D02*
X12945000Y-11455000D01*
X12911000Y-4814000D02*
X12911000Y-4914000D01*
X12861000Y-4864000D02*
X12961000Y-4864000D01*
X12911000Y-5068000D02*
X12911000Y-5168000D01*
X12861000Y-5118000D02*
X12961000Y-5118000D01*
X12911000Y-5322000D02*
X12911000Y-5422000D01*
X12861000Y-5372000D02*
X12961000Y-5372000D01*
X12911000Y-5576000D02*
X12911000Y-5676000D01*
X12861000Y-5626000D02*
X12961000Y-5626000D01*
X12911000Y-5830000D02*
X12911000Y-5930000D01*
X12861000Y-5880000D02*
X12961000Y-5880000D01*
X12911000Y-6084000D02*
X12911000Y-6184000D01*
X12861000Y-6134000D02*
X12961000Y-6134000D01*
X12911000Y-6338000D02*
X12911000Y-6438000D01*
X12861000Y-6388000D02*
X12961000Y-6388000D01*
X12911000Y-6592000D02*
X12911000Y-6692000D01*
X12861000Y-6642000D02*
X12961000Y-6642000D01*
X12911000Y-6846000D02*
X12911000Y-6946000D01*
X12861000Y-6896000D02*
X12961000Y-6896000D01*
X12911000Y-7100000D02*
X12911000Y-7200000D01*
X12861000Y-7150000D02*
X12961000Y-7150000D01*
X12911000Y-7354000D02*
X12911000Y-7454000D01*
X12861000Y-7404000D02*
X12961000Y-7404000D01*
X12911000Y-7608000D02*
X12911000Y-7708000D01*
X12861000Y-7658000D02*
X12961000Y-7658000D01*
X12911000Y-7862000D02*
X12911000Y-7962000D01*
X12861000Y-7912000D02*
X12961000Y-7912000D01*
X12911000Y-8116000D02*
X12911000Y-8216000D01*
X12861000Y-8166000D02*
X12961000Y-8166000D01*
X12911000Y-8370000D02*
X12911000Y-8470000D01*
X12861000Y-8420000D02*
X12961000Y-8420000D01*
X12911000Y-8624000D02*
X12911000Y-8724000D01*
X12861000Y-8674000D02*
X12961000Y-8674000D01*
X12911000Y-8878000D02*
X12911000Y-8978000D01*
X12861000Y-8928000D02*
X12961000Y-8928000D01*
X12911000Y-9132000D02*
X12911000Y-9232000D01*
X12861000Y-9182000D02*
X12961000Y-9182000D01*
X12911000Y-9386000D02*
X12911000Y-9486000D01*
X12861000Y-9436000D02*
X12961000Y-9436000D01*
X12911000Y-9640000D02*
X12911000Y-9740000D01*
X12861000Y-9690000D02*
X12961000Y-9690000D01*
X14689000Y-4814000D02*
X14689000Y-4914000D01*
X14639000Y-4864000D02*
X14739000Y-4864000D01*
X14689000Y-5068000D02*
X14689000Y-5168000D01*
X14639000Y-5118000D02*
X14739000Y-5118000D01*
X14689000Y-5322000D02*
X14689000Y-5422000D01*
X14639000Y-5372000D02*
X14739000Y-5372000D01*
X14689000Y-5576000D02*
X14689000Y-5676000D01*
X14639000Y-5626000D02*
X14739000Y-5626000D01*
X14689000Y-5830000D02*
X14689000Y-5930000D01*
X14639000Y-5880000D02*
X14739000Y-5880000D01*
X14689000Y-6084000D02*
X14689000Y-6184000D01*
X14639000Y-6134000D02*
X14739000Y-6134000D01*
X14689000Y-6338000D02*
X14689000Y-6438000D01*
X14639000Y-6388000D02*
X14739000Y-6388000D01*
X14689000Y-6592000D02*
X14689000Y-6692000D01*
X14639000Y-6642000D02*
X14739000Y-6642000D01*
X14689000Y-6846000D02*
X14689000Y-6946000D01*
X14639000Y-6896000D02*
X14739000Y-6896000D01*
X14689000Y-7100000D02*
X14689000Y-7200000D01*
X14639000Y-7150000D02*
X14739000Y-7150000D01*
X14689000Y-7354000D02*
X14689000Y-7454000D01*
X14639000Y-7404000D02*
X14739000Y-7404000D01*
X14689000Y-7608000D02*
X14689000Y-7708000D01*
X14639000Y-7658000D02*
X14739000Y-7658000D01*
X14689000Y-7862000D02*
X14689000Y-7962000D01*
X14639000Y-7912000D02*
X14739000Y-7912000D01*
X14689000Y-8116000D02*
X14689000Y-8216000D01*
X14639000Y-8166000D02*
X14739000Y-8166000D01*
X14689000Y-8370000D02*
X14689000Y-8470000D01*
X14639000Y-8420000D02*
X14739000Y-8420000D01*
X14689000Y-8624000D02*
X14689000Y-8724000D01*
X14639000Y-8674000D02*
X14739000Y-8674000D01*
X14689000Y-8878000D02*
X14689000Y-8978000D01*
X14639000Y-8928000D02*
X14739000Y-8928000D01*
X14689000Y-9132000D02*
X14689000Y-9232000D01*
X14639000Y-9182000D02*
X14739000Y-9182000D01*
X14689000Y-9386000D02*
X14689000Y-9486000D01*
X14639000Y-9436000D02*
X14739000Y-9436000D01*
X14689000Y-9640000D02*
X14689000Y-9740000D01*
X14639000Y-9690000D02*
X14739000Y-9690000D01*
X15600000Y-7238000D02*
X15600000Y-7338000D01*
X15550000Y-7288000D02*
X15650000Y-7288000D01*
X15600000Y-7492000D02*
X15600000Y-7592000D01*
X15550000Y-7542000D02*
X15650000Y-7542000D01*
X15600000Y-7746000D02*
X15600000Y-7846000D01*
X15550000Y-7796000D02*
X15650000Y-7796000D01*
X15600000Y-8000000D02*
X15600000Y-8100000D01*
X15550000Y-8050000D02*
X15650000Y-8050000D01*
D13*
X15337427Y-11142427D02*
X15337427Y-11057573D01*
X15252573Y-11057573D01*
X15252573Y-11142427D01*
X15337427Y-11142427D01*
X15687427Y-11142427D02*
X15687427Y-11057573D01*
X15602573Y-11057573D01*
X15602573Y-11142427D01*
X15687427Y-11142427D01*
D14*
X9100000Y-10465000D02*
X9165000Y-10400000D01*
X9100000Y-10335000D01*
X9035000Y-10400000D01*
X9100000Y-10465000D01*
X9100000Y-10965000D02*
X9165000Y-10900000D01*
X9100000Y-10835000D01*
X9035000Y-10900000D01*
X9100000Y-10965000D01*
X12700000Y-10915000D02*
X12765000Y-10850000D01*
X12700000Y-10785000D01*
X12635000Y-10850000D01*
X12700000Y-10915000D01*
X14115000Y-11520000D02*
X14180000Y-11455000D01*
X14115000Y-11390000D01*
X14050000Y-11455000D01*
X14115000Y-11520000D01*
X14120000Y-10315000D02*
X14185000Y-10250000D01*
X14120000Y-10185000D01*
X14055000Y-10250000D01*
X14120000Y-10315000D01*
D15*
X9121000Y-4821000D02*
X9271000Y-4971000D01*
X9271000Y-4821000D02*
X9121000Y-4971000D01*
X9271000Y-4896000D02*
G75*
G02*
X9121000Y-4896000I-75000J0D01*
G01*
X9121000Y-4896000D02*
G75*
G02*
X9271000Y-4896000I75000J0D01*
G01*
D16*
X8857000Y-4557000D02*
X9027000Y-4727000D01*
X9027000Y-4557000D02*
X8857000Y-4727000D01*
X8942000Y-4557000D02*
X8942000Y-4727000D01*
X8857000Y-4642000D02*
X9027000Y-4642000D01*
X8857000Y-5065000D02*
X9027000Y-5235000D01*
X9027000Y-5065000D02*
X8857000Y-5235000D01*
X8942000Y-5065000D02*
X8942000Y-5235000D01*
X8857000Y-5150000D02*
X9027000Y-5150000D01*
X9365000Y-4557000D02*
X9535000Y-4727000D01*
X9535000Y-4557000D02*
X9365000Y-4727000D01*
X9450000Y-4557000D02*
X9450000Y-4727000D01*
X9365000Y-4642000D02*
X9535000Y-4642000D01*
X9365000Y-5065000D02*
X9535000Y-5235000D01*
X9535000Y-5065000D02*
X9365000Y-5235000D01*
X9450000Y-5065000D02*
X9450000Y-5235000D01*
X9365000Y-5150000D02*
X9535000Y-5150000D01*
D11*
X8758277Y-12363984D02*
X8758277Y-12163984D01*
X8758277Y-12163984D02*
X8805896Y-12163984D01*
X8805896Y-12163984D02*
X8834467Y-12173508D01*
X8834467Y-12173508D02*
X8853515Y-12192555D01*
X8853515Y-12192555D02*
X8863039Y-12211603D01*
X8863039Y-12211603D02*
X8872563Y-12249698D01*
X8872563Y-12249698D02*
X8872563Y-12278269D01*
X8872563Y-12278269D02*
X8863039Y-12316365D01*
X8863039Y-12316365D02*
X8853515Y-12335412D01*
X8853515Y-12335412D02*
X8834467Y-12354460D01*
X8834467Y-12354460D02*
X8805896Y-12363984D01*
X8805896Y-12363984D02*
X8758277Y-12363984D01*
X8958277Y-12363984D02*
X8958277Y-12230650D01*
X8958277Y-12268746D02*
X8967801Y-12249698D01*
X8967801Y-12249698D02*
X8977324Y-12240174D01*
X8977324Y-12240174D02*
X8996372Y-12230650D01*
X8996372Y-12230650D02*
X9015420Y-12230650D01*
X9082086Y-12363984D02*
X9082086Y-12230650D01*
X9082086Y-12163984D02*
X9072563Y-12173508D01*
X9072563Y-12173508D02*
X9082086Y-12183031D01*
X9082086Y-12183031D02*
X9091610Y-12173508D01*
X9091610Y-12173508D02*
X9082086Y-12163984D01*
X9082086Y-12163984D02*
X9082086Y-12183031D01*
X9205896Y-12363984D02*
X9186848Y-12354460D01*
X9186848Y-12354460D02*
X9177324Y-12335412D01*
X9177324Y-12335412D02*
X9177324Y-12163984D01*
X9310658Y-12363984D02*
X9291610Y-12354460D01*
X9291610Y-12354460D02*
X9282086Y-12335412D01*
X9282086Y-12335412D02*
X9282086Y-12163984D01*
X9539229Y-12363984D02*
X9539229Y-12163984D01*
X9539229Y-12163984D02*
X9605896Y-12306841D01*
X9605896Y-12306841D02*
X9672563Y-12163984D01*
X9672563Y-12163984D02*
X9672563Y-12363984D01*
X9853515Y-12363984D02*
X9853515Y-12259222D01*
X9853515Y-12259222D02*
X9843991Y-12240174D01*
X9843991Y-12240174D02*
X9824944Y-12230650D01*
X9824944Y-12230650D02*
X9786848Y-12230650D01*
X9786848Y-12230650D02*
X9767801Y-12240174D01*
X9853515Y-12354460D02*
X9834467Y-12363984D01*
X9834467Y-12363984D02*
X9786848Y-12363984D01*
X9786848Y-12363984D02*
X9767801Y-12354460D01*
X9767801Y-12354460D02*
X9758277Y-12335412D01*
X9758277Y-12335412D02*
X9758277Y-12316365D01*
X9758277Y-12316365D02*
X9767801Y-12297317D01*
X9767801Y-12297317D02*
X9786848Y-12287793D01*
X9786848Y-12287793D02*
X9834467Y-12287793D01*
X9834467Y-12287793D02*
X9853515Y-12278269D01*
X9948753Y-12230650D02*
X9948753Y-12430650D01*
X9948753Y-12240174D02*
X9967801Y-12230650D01*
X9967801Y-12230650D02*
X10005896Y-12230650D01*
X10005896Y-12230650D02*
X10024944Y-12240174D01*
X10024944Y-12240174D02*
X10034467Y-12249698D01*
X10034467Y-12249698D02*
X10043991Y-12268746D01*
X10043991Y-12268746D02*
X10043991Y-12325888D01*
X10043991Y-12325888D02*
X10034467Y-12344936D01*
X10034467Y-12344936D02*
X10024944Y-12354460D01*
X10024944Y-12354460D02*
X10005896Y-12363984D01*
X10005896Y-12363984D02*
X9967801Y-12363984D01*
X9967801Y-12363984D02*
X9948753Y-12354460D01*
X10129705Y-12344936D02*
X10139229Y-12354460D01*
X10139229Y-12354460D02*
X10129705Y-12363984D01*
X10129705Y-12363984D02*
X10120182Y-12354460D01*
X10120182Y-12354460D02*
X10129705Y-12344936D01*
X10129705Y-12344936D02*
X10129705Y-12363984D01*
X10129705Y-12240174D02*
X10139229Y-12249698D01*
X10139229Y-12249698D02*
X10129705Y-12259222D01*
X10129705Y-12259222D02*
X10120182Y-12249698D01*
X10120182Y-12249698D02*
X10129705Y-12240174D01*
X10129705Y-12240174D02*
X10129705Y-12259222D01*
D12*
X8417500Y-12652500D02*
X8497500Y-12732500D01*
X8497500Y-12652500D02*
X8417500Y-12732500D01*
D11*
X8796372Y-12583984D02*
X8815420Y-12583984D01*
X8815420Y-12583984D02*
X8834467Y-12593508D01*
X8834467Y-12593508D02*
X8843991Y-12603031D01*
X8843991Y-12603031D02*
X8853515Y-12622079D01*
X8853515Y-12622079D02*
X8863039Y-12660174D01*
X8863039Y-12660174D02*
X8863039Y-12707793D01*
X8863039Y-12707793D02*
X8853515Y-12745888D01*
X8853515Y-12745888D02*
X8843991Y-12764936D01*
X8843991Y-12764936D02*
X8834467Y-12774460D01*
X8834467Y-12774460D02*
X8815420Y-12783984D01*
X8815420Y-12783984D02*
X8796372Y-12783984D01*
X8796372Y-12783984D02*
X8777324Y-12774460D01*
X8777324Y-12774460D02*
X8767801Y-12764936D01*
X8767801Y-12764936D02*
X8758277Y-12745888D01*
X8758277Y-12745888D02*
X8748753Y-12707793D01*
X8748753Y-12707793D02*
X8748753Y-12660174D01*
X8748753Y-12660174D02*
X8758277Y-12622079D01*
X8758277Y-12622079D02*
X8767801Y-12603031D01*
X8767801Y-12603031D02*
X8777324Y-12593508D01*
X8777324Y-12593508D02*
X8796372Y-12583984D01*
X8948753Y-12764936D02*
X8958277Y-12774460D01*
X8958277Y-12774460D02*
X8948753Y-12783984D01*
X8948753Y-12783984D02*
X8939229Y-12774460D01*
X8939229Y-12774460D02*
X8948753Y-12764936D01*
X8948753Y-12764936D02*
X8948753Y-12783984D01*
X9072563Y-12669698D02*
X9053515Y-12660174D01*
X9053515Y-12660174D02*
X9043991Y-12650650D01*
X9043991Y-12650650D02*
X9034467Y-12631603D01*
X9034467Y-12631603D02*
X9034467Y-12622079D01*
X9034467Y-12622079D02*
X9043991Y-12603031D01*
X9043991Y-12603031D02*
X9053515Y-12593508D01*
X9053515Y-12593508D02*
X9072563Y-12583984D01*
X9072563Y-12583984D02*
X9110658Y-12583984D01*
X9110658Y-12583984D02*
X9129705Y-12593508D01*
X9129705Y-12593508D02*
X9139229Y-12603031D01*
X9139229Y-12603031D02*
X9148753Y-12622079D01*
X9148753Y-12622079D02*
X9148753Y-12631603D01*
X9148753Y-12631603D02*
X9139229Y-12650650D01*
X9139229Y-12650650D02*
X9129705Y-12660174D01*
X9129705Y-12660174D02*
X9110658Y-12669698D01*
X9110658Y-12669698D02*
X9072563Y-12669698D01*
X9072563Y-12669698D02*
X9053515Y-12679222D01*
X9053515Y-12679222D02*
X9043991Y-12688746D01*
X9043991Y-12688746D02*
X9034467Y-12707793D01*
X9034467Y-12707793D02*
X9034467Y-12745888D01*
X9034467Y-12745888D02*
X9043991Y-12764936D01*
X9043991Y-12764936D02*
X9053515Y-12774460D01*
X9053515Y-12774460D02*
X9072563Y-12783984D01*
X9072563Y-12783984D02*
X9110658Y-12783984D01*
X9110658Y-12783984D02*
X9129705Y-12774460D01*
X9129705Y-12774460D02*
X9139229Y-12764936D01*
X9139229Y-12764936D02*
X9148753Y-12745888D01*
X9148753Y-12745888D02*
X9148753Y-12707793D01*
X9148753Y-12707793D02*
X9139229Y-12688746D01*
X9139229Y-12688746D02*
X9129705Y-12679222D01*
X9129705Y-12679222D02*
X9110658Y-12669698D01*
X9272563Y-12583984D02*
X9291610Y-12583984D01*
X9291610Y-12583984D02*
X9310658Y-12593508D01*
X9310658Y-12593508D02*
X9320182Y-12603031D01*
X9320182Y-12603031D02*
X9329705Y-12622079D01*
X9329705Y-12622079D02*
X9339229Y-12660174D01*
X9339229Y-12660174D02*
X9339229Y-12707793D01*
X9339229Y-12707793D02*
X9329705Y-12745888D01*
X9329705Y-12745888D02*
X9320182Y-12764936D01*
X9320182Y-12764936D02*
X9310658Y-12774460D01*
X9310658Y-12774460D02*
X9291610Y-12783984D01*
X9291610Y-12783984D02*
X9272563Y-12783984D01*
X9272563Y-12783984D02*
X9253515Y-12774460D01*
X9253515Y-12774460D02*
X9243991Y-12764936D01*
X9243991Y-12764936D02*
X9234467Y-12745888D01*
X9234467Y-12745888D02*
X9224944Y-12707793D01*
X9224944Y-12707793D02*
X9224944Y-12660174D01*
X9224944Y-12660174D02*
X9234467Y-12622079D01*
X9234467Y-12622079D02*
X9243991Y-12603031D01*
X9243991Y-12603031D02*
X9253515Y-12593508D01*
X9253515Y-12593508D02*
X9272563Y-12583984D01*
X9463039Y-12583984D02*
X9482086Y-12583984D01*
X9482086Y-12583984D02*
X9501134Y-12593508D01*
X9501134Y-12593508D02*
X9510658Y-12603031D01*
X9510658Y-12603031D02*
X9520182Y-12622079D01*
X9520182Y-12622079D02*
X9529705Y-12660174D01*
X9529705Y-12660174D02*
X9529705Y-12707793D01*
X9529705Y-12707793D02*
X9520182Y-12745888D01*
X9520182Y-12745888D02*
X9510658Y-12764936D01*
X9510658Y-12764936D02*
X9501134Y-12774460D01*
X9501134Y-12774460D02*
X9482086Y-12783984D01*
X9482086Y-12783984D02*
X9463039Y-12783984D01*
X9463039Y-12783984D02*
X9443991Y-12774460D01*
X9443991Y-12774460D02*
X9434467Y-12764936D01*
X9434467Y-12764936D02*
X9424944Y-12745888D01*
X9424944Y-12745888D02*
X9415420Y-12707793D01*
X9415420Y-12707793D02*
X9415420Y-12660174D01*
X9415420Y-12660174D02*
X9424944Y-12622079D01*
X9424944Y-12622079D02*
X9434467Y-12603031D01*
X9434467Y-12603031D02*
X9443991Y-12593508D01*
X9443991Y-12593508D02*
X9463039Y-12583984D01*
X9615420Y-12783984D02*
X9615420Y-12650650D01*
X9615420Y-12669698D02*
X9624944Y-12660174D01*
X9624944Y-12660174D02*
X9643991Y-12650650D01*
X9643991Y-12650650D02*
X9672563Y-12650650D01*
X9672563Y-12650650D02*
X9691610Y-12660174D01*
X9691610Y-12660174D02*
X9701134Y-12679222D01*
X9701134Y-12679222D02*
X9701134Y-12783984D01*
X9701134Y-12679222D02*
X9710658Y-12660174D01*
X9710658Y-12660174D02*
X9729705Y-12650650D01*
X9729705Y-12650650D02*
X9758277Y-12650650D01*
X9758277Y-12650650D02*
X9777325Y-12660174D01*
X9777325Y-12660174D02*
X9786848Y-12679222D01*
X9786848Y-12679222D02*
X9786848Y-12783984D01*
X9882086Y-12783984D02*
X9882086Y-12650650D01*
X9882086Y-12669698D02*
X9891610Y-12660174D01*
X9891610Y-12660174D02*
X9910658Y-12650650D01*
X9910658Y-12650650D02*
X9939229Y-12650650D01*
X9939229Y-12650650D02*
X9958277Y-12660174D01*
X9958277Y-12660174D02*
X9967801Y-12679222D01*
X9967801Y-12679222D02*
X9967801Y-12783984D01*
X9967801Y-12679222D02*
X9977325Y-12660174D01*
X9977325Y-12660174D02*
X9996372Y-12650650D01*
X9996372Y-12650650D02*
X10024944Y-12650650D01*
X10024944Y-12650650D02*
X10043991Y-12660174D01*
X10043991Y-12660174D02*
X10053515Y-12679222D01*
X10053515Y-12679222D02*
X10053515Y-12783984D01*
X10443991Y-12574460D02*
X10272563Y-12831603D01*
X10701134Y-12583984D02*
X10720182Y-12583984D01*
X10720182Y-12583984D02*
X10739229Y-12593508D01*
X10739229Y-12593508D02*
X10748753Y-12603031D01*
X10748753Y-12603031D02*
X10758277Y-12622079D01*
X10758277Y-12622079D02*
X10767801Y-12660174D01*
X10767801Y-12660174D02*
X10767801Y-12707793D01*
X10767801Y-12707793D02*
X10758277Y-12745888D01*
X10758277Y-12745888D02*
X10748753Y-12764936D01*
X10748753Y-12764936D02*
X10739229Y-12774460D01*
X10739229Y-12774460D02*
X10720182Y-12783984D01*
X10720182Y-12783984D02*
X10701134Y-12783984D01*
X10701134Y-12783984D02*
X10682087Y-12774460D01*
X10682087Y-12774460D02*
X10672563Y-12764936D01*
X10672563Y-12764936D02*
X10663039Y-12745888D01*
X10663039Y-12745888D02*
X10653515Y-12707793D01*
X10653515Y-12707793D02*
X10653515Y-12660174D01*
X10653515Y-12660174D02*
X10663039Y-12622079D01*
X10663039Y-12622079D02*
X10672563Y-12603031D01*
X10672563Y-12603031D02*
X10682087Y-12593508D01*
X10682087Y-12593508D02*
X10701134Y-12583984D01*
X10853515Y-12764936D02*
X10863039Y-12774460D01*
X10863039Y-12774460D02*
X10853515Y-12783984D01*
X10853515Y-12783984D02*
X10843991Y-12774460D01*
X10843991Y-12774460D02*
X10853515Y-12764936D01*
X10853515Y-12764936D02*
X10853515Y-12783984D01*
X10986848Y-12583984D02*
X11005896Y-12583984D01*
X11005896Y-12583984D02*
X11024944Y-12593508D01*
X11024944Y-12593508D02*
X11034468Y-12603031D01*
X11034468Y-12603031D02*
X11043991Y-12622079D01*
X11043991Y-12622079D02*
X11053515Y-12660174D01*
X11053515Y-12660174D02*
X11053515Y-12707793D01*
X11053515Y-12707793D02*
X11043991Y-12745888D01*
X11043991Y-12745888D02*
X11034468Y-12764936D01*
X11034468Y-12764936D02*
X11024944Y-12774460D01*
X11024944Y-12774460D02*
X11005896Y-12783984D01*
X11005896Y-12783984D02*
X10986848Y-12783984D01*
X10986848Y-12783984D02*
X10967801Y-12774460D01*
X10967801Y-12774460D02*
X10958277Y-12764936D01*
X10958277Y-12764936D02*
X10948753Y-12745888D01*
X10948753Y-12745888D02*
X10939229Y-12707793D01*
X10939229Y-12707793D02*
X10939229Y-12660174D01*
X10939229Y-12660174D02*
X10948753Y-12622079D01*
X10948753Y-12622079D02*
X10958277Y-12603031D01*
X10958277Y-12603031D02*
X10967801Y-12593508D01*
X10967801Y-12593508D02*
X10986848Y-12583984D01*
X11120182Y-12583984D02*
X11243991Y-12583984D01*
X11243991Y-12583984D02*
X11177325Y-12660174D01*
X11177325Y-12660174D02*
X11205896Y-12660174D01*
X11205896Y-12660174D02*
X11224944Y-12669698D01*
X11224944Y-12669698D02*
X11234467Y-12679222D01*
X11234467Y-12679222D02*
X11243991Y-12698269D01*
X11243991Y-12698269D02*
X11243991Y-12745888D01*
X11243991Y-12745888D02*
X11234467Y-12764936D01*
X11234467Y-12764936D02*
X11224944Y-12774460D01*
X11224944Y-12774460D02*
X11205896Y-12783984D01*
X11205896Y-12783984D02*
X11148753Y-12783984D01*
X11148753Y-12783984D02*
X11129706Y-12774460D01*
X11129706Y-12774460D02*
X11120182Y-12764936D01*
X11434467Y-12783984D02*
X11320182Y-12783984D01*
X11377325Y-12783984D02*
X11377325Y-12583984D01*
X11377325Y-12583984D02*
X11358277Y-12612555D01*
X11358277Y-12612555D02*
X11339229Y-12631603D01*
X11339229Y-12631603D02*
X11320182Y-12641127D01*
X11615420Y-12583984D02*
X11520182Y-12583984D01*
X11520182Y-12583984D02*
X11510658Y-12679222D01*
X11510658Y-12679222D02*
X11520182Y-12669698D01*
X11520182Y-12669698D02*
X11539229Y-12660174D01*
X11539229Y-12660174D02*
X11586848Y-12660174D01*
X11586848Y-12660174D02*
X11605896Y-12669698D01*
X11605896Y-12669698D02*
X11615420Y-12679222D01*
X11615420Y-12679222D02*
X11624944Y-12698269D01*
X11624944Y-12698269D02*
X11624944Y-12745888D01*
X11624944Y-12745888D02*
X11615420Y-12764936D01*
X11615420Y-12764936D02*
X11605896Y-12774460D01*
X11605896Y-12774460D02*
X11586848Y-12783984D01*
X11586848Y-12783984D02*
X11539229Y-12783984D01*
X11539229Y-12783984D02*
X11520182Y-12774460D01*
X11520182Y-12774460D02*
X11510658Y-12764936D01*
X11701134Y-12583984D02*
X11701134Y-12622079D01*
X11777325Y-12583984D02*
X11777325Y-12622079D01*
X12072563Y-12860174D02*
X12063039Y-12850650D01*
X12063039Y-12850650D02*
X12043991Y-12822079D01*
X12043991Y-12822079D02*
X12034468Y-12803031D01*
X12034468Y-12803031D02*
X12024944Y-12774460D01*
X12024944Y-12774460D02*
X12015420Y-12726841D01*
X12015420Y-12726841D02*
X12015420Y-12688746D01*
X12015420Y-12688746D02*
X12024944Y-12641127D01*
X12024944Y-12641127D02*
X12034468Y-12612555D01*
X12034468Y-12612555D02*
X12043991Y-12593508D01*
X12043991Y-12593508D02*
X12063039Y-12564936D01*
X12063039Y-12564936D02*
X12072563Y-12555412D01*
X12234468Y-12583984D02*
X12196372Y-12583984D01*
X12196372Y-12583984D02*
X12177325Y-12593508D01*
X12177325Y-12593508D02*
X12167801Y-12603031D01*
X12167801Y-12603031D02*
X12148753Y-12631603D01*
X12148753Y-12631603D02*
X12139229Y-12669698D01*
X12139229Y-12669698D02*
X12139229Y-12745888D01*
X12139229Y-12745888D02*
X12148753Y-12764936D01*
X12148753Y-12764936D02*
X12158277Y-12774460D01*
X12158277Y-12774460D02*
X12177325Y-12783984D01*
X12177325Y-12783984D02*
X12215420Y-12783984D01*
X12215420Y-12783984D02*
X12234468Y-12774460D01*
X12234468Y-12774460D02*
X12243991Y-12764936D01*
X12243991Y-12764936D02*
X12253515Y-12745888D01*
X12253515Y-12745888D02*
X12253515Y-12698269D01*
X12253515Y-12698269D02*
X12243991Y-12679222D01*
X12243991Y-12679222D02*
X12234468Y-12669698D01*
X12234468Y-12669698D02*
X12215420Y-12660174D01*
X12215420Y-12660174D02*
X12177325Y-12660174D01*
X12177325Y-12660174D02*
X12158277Y-12669698D01*
X12158277Y-12669698D02*
X12148753Y-12679222D01*
X12148753Y-12679222D02*
X12139229Y-12698269D01*
X12491610Y-12783984D02*
X12491610Y-12583984D01*
X12577325Y-12783984D02*
X12577325Y-12679222D01*
X12577325Y-12679222D02*
X12567801Y-12660174D01*
X12567801Y-12660174D02*
X12548753Y-12650650D01*
X12548753Y-12650650D02*
X12520182Y-12650650D01*
X12520182Y-12650650D02*
X12501134Y-12660174D01*
X12501134Y-12660174D02*
X12491610Y-12669698D01*
X12701134Y-12783984D02*
X12682087Y-12774460D01*
X12682087Y-12774460D02*
X12672563Y-12764936D01*
X12672563Y-12764936D02*
X12663039Y-12745888D01*
X12663039Y-12745888D02*
X12663039Y-12688746D01*
X12663039Y-12688746D02*
X12672563Y-12669698D01*
X12672563Y-12669698D02*
X12682087Y-12660174D01*
X12682087Y-12660174D02*
X12701134Y-12650650D01*
X12701134Y-12650650D02*
X12729706Y-12650650D01*
X12729706Y-12650650D02*
X12748753Y-12660174D01*
X12748753Y-12660174D02*
X12758277Y-12669698D01*
X12758277Y-12669698D02*
X12767801Y-12688746D01*
X12767801Y-12688746D02*
X12767801Y-12745888D01*
X12767801Y-12745888D02*
X12758277Y-12764936D01*
X12758277Y-12764936D02*
X12748753Y-12774460D01*
X12748753Y-12774460D02*
X12729706Y-12783984D01*
X12729706Y-12783984D02*
X12701134Y-12783984D01*
X12882087Y-12783984D02*
X12863039Y-12774460D01*
X12863039Y-12774460D02*
X12853515Y-12755412D01*
X12853515Y-12755412D02*
X12853515Y-12583984D01*
X13034468Y-12774460D02*
X13015420Y-12783984D01*
X13015420Y-12783984D02*
X12977325Y-12783984D01*
X12977325Y-12783984D02*
X12958277Y-12774460D01*
X12958277Y-12774460D02*
X12948753Y-12755412D01*
X12948753Y-12755412D02*
X12948753Y-12679222D01*
X12948753Y-12679222D02*
X12958277Y-12660174D01*
X12958277Y-12660174D02*
X12977325Y-12650650D01*
X12977325Y-12650650D02*
X13015420Y-12650650D01*
X13015420Y-12650650D02*
X13034468Y-12660174D01*
X13034468Y-12660174D02*
X13043991Y-12679222D01*
X13043991Y-12679222D02*
X13043991Y-12698269D01*
X13043991Y-12698269D02*
X12948753Y-12717317D01*
X13120182Y-12774460D02*
X13139230Y-12783984D01*
X13139230Y-12783984D02*
X13177325Y-12783984D01*
X13177325Y-12783984D02*
X13196372Y-12774460D01*
X13196372Y-12774460D02*
X13205896Y-12755412D01*
X13205896Y-12755412D02*
X13205896Y-12745888D01*
X13205896Y-12745888D02*
X13196372Y-12726841D01*
X13196372Y-12726841D02*
X13177325Y-12717317D01*
X13177325Y-12717317D02*
X13148753Y-12717317D01*
X13148753Y-12717317D02*
X13129706Y-12707793D01*
X13129706Y-12707793D02*
X13120182Y-12688746D01*
X13120182Y-12688746D02*
X13120182Y-12679222D01*
X13120182Y-12679222D02*
X13129706Y-12660174D01*
X13129706Y-12660174D02*
X13148753Y-12650650D01*
X13148753Y-12650650D02*
X13177325Y-12650650D01*
X13177325Y-12650650D02*
X13196372Y-12660174D01*
X13272563Y-12860174D02*
X13282087Y-12850650D01*
X13282087Y-12850650D02*
X13301134Y-12822079D01*
X13301134Y-12822079D02*
X13310658Y-12803031D01*
X13310658Y-12803031D02*
X13320182Y-12774460D01*
X13320182Y-12774460D02*
X13329706Y-12726841D01*
X13329706Y-12726841D02*
X13329706Y-12688746D01*
X13329706Y-12688746D02*
X13320182Y-12641127D01*
X13320182Y-12641127D02*
X13310658Y-12612555D01*
X13310658Y-12612555D02*
X13301134Y-12593508D01*
X13301134Y-12593508D02*
X13282087Y-12564936D01*
X13282087Y-12564936D02*
X13272563Y-12555412D01*
D12*
X8497500Y-12956500D02*
G75*
G02*
X8407500Y-12956500I-45000J0D01*
G01*
X8407500Y-12956500D02*
G75*
G02*
X8497500Y-12956500I45000J0D01*
G01*
D11*
X8796372Y-12847984D02*
X8815420Y-12847984D01*
X8815420Y-12847984D02*
X8834467Y-12857508D01*
X8834467Y-12857508D02*
X8843991Y-12867031D01*
X8843991Y-12867031D02*
X8853515Y-12886079D01*
X8853515Y-12886079D02*
X8863039Y-12924174D01*
X8863039Y-12924174D02*
X8863039Y-12971793D01*
X8863039Y-12971793D02*
X8853515Y-13009888D01*
X8853515Y-13009888D02*
X8843991Y-13028936D01*
X8843991Y-13028936D02*
X8834467Y-13038460D01*
X8834467Y-13038460D02*
X8815420Y-13047984D01*
X8815420Y-13047984D02*
X8796372Y-13047984D01*
X8796372Y-13047984D02*
X8777324Y-13038460D01*
X8777324Y-13038460D02*
X8767801Y-13028936D01*
X8767801Y-13028936D02*
X8758277Y-13009888D01*
X8758277Y-13009888D02*
X8748753Y-12971793D01*
X8748753Y-12971793D02*
X8748753Y-12924174D01*
X8748753Y-12924174D02*
X8758277Y-12886079D01*
X8758277Y-12886079D02*
X8767801Y-12867031D01*
X8767801Y-12867031D02*
X8777324Y-12857508D01*
X8777324Y-12857508D02*
X8796372Y-12847984D01*
X8948753Y-13028936D02*
X8958277Y-13038460D01*
X8958277Y-13038460D02*
X8948753Y-13047984D01*
X8948753Y-13047984D02*
X8939229Y-13038460D01*
X8939229Y-13038460D02*
X8948753Y-13028936D01*
X8948753Y-13028936D02*
X8948753Y-13047984D01*
X9053515Y-13047984D02*
X9091610Y-13047984D01*
X9091610Y-13047984D02*
X9110658Y-13038460D01*
X9110658Y-13038460D02*
X9120182Y-13028936D01*
X9120182Y-13028936D02*
X9139229Y-13000365D01*
X9139229Y-13000365D02*
X9148753Y-12962269D01*
X9148753Y-12962269D02*
X9148753Y-12886079D01*
X9148753Y-12886079D02*
X9139229Y-12867031D01*
X9139229Y-12867031D02*
X9129705Y-12857508D01*
X9129705Y-12857508D02*
X9110658Y-12847984D01*
X9110658Y-12847984D02*
X9072563Y-12847984D01*
X9072563Y-12847984D02*
X9053515Y-12857508D01*
X9053515Y-12857508D02*
X9043991Y-12867031D01*
X9043991Y-12867031D02*
X9034467Y-12886079D01*
X9034467Y-12886079D02*
X9034467Y-12933698D01*
X9034467Y-12933698D02*
X9043991Y-12952746D01*
X9043991Y-12952746D02*
X9053515Y-12962269D01*
X9053515Y-12962269D02*
X9072563Y-12971793D01*
X9072563Y-12971793D02*
X9110658Y-12971793D01*
X9110658Y-12971793D02*
X9129705Y-12962269D01*
X9129705Y-12962269D02*
X9139229Y-12952746D01*
X9139229Y-12952746D02*
X9148753Y-12933698D01*
X9272563Y-12847984D02*
X9291610Y-12847984D01*
X9291610Y-12847984D02*
X9310658Y-12857508D01*
X9310658Y-12857508D02*
X9320182Y-12867031D01*
X9320182Y-12867031D02*
X9329705Y-12886079D01*
X9329705Y-12886079D02*
X9339229Y-12924174D01*
X9339229Y-12924174D02*
X9339229Y-12971793D01*
X9339229Y-12971793D02*
X9329705Y-13009888D01*
X9329705Y-13009888D02*
X9320182Y-13028936D01*
X9320182Y-13028936D02*
X9310658Y-13038460D01*
X9310658Y-13038460D02*
X9291610Y-13047984D01*
X9291610Y-13047984D02*
X9272563Y-13047984D01*
X9272563Y-13047984D02*
X9253515Y-13038460D01*
X9253515Y-13038460D02*
X9243991Y-13028936D01*
X9243991Y-13028936D02*
X9234467Y-13009888D01*
X9234467Y-13009888D02*
X9224944Y-12971793D01*
X9224944Y-12971793D02*
X9224944Y-12924174D01*
X9224944Y-12924174D02*
X9234467Y-12886079D01*
X9234467Y-12886079D02*
X9243991Y-12867031D01*
X9243991Y-12867031D02*
X9253515Y-12857508D01*
X9253515Y-12857508D02*
X9272563Y-12847984D01*
X9463039Y-12847984D02*
X9482086Y-12847984D01*
X9482086Y-12847984D02*
X9501134Y-12857508D01*
X9501134Y-12857508D02*
X9510658Y-12867031D01*
X9510658Y-12867031D02*
X9520182Y-12886079D01*
X9520182Y-12886079D02*
X9529705Y-12924174D01*
X9529705Y-12924174D02*
X9529705Y-12971793D01*
X9529705Y-12971793D02*
X9520182Y-13009888D01*
X9520182Y-13009888D02*
X9510658Y-13028936D01*
X9510658Y-13028936D02*
X9501134Y-13038460D01*
X9501134Y-13038460D02*
X9482086Y-13047984D01*
X9482086Y-13047984D02*
X9463039Y-13047984D01*
X9463039Y-13047984D02*
X9443991Y-13038460D01*
X9443991Y-13038460D02*
X9434467Y-13028936D01*
X9434467Y-13028936D02*
X9424944Y-13009888D01*
X9424944Y-13009888D02*
X9415420Y-12971793D01*
X9415420Y-12971793D02*
X9415420Y-12924174D01*
X9415420Y-12924174D02*
X9424944Y-12886079D01*
X9424944Y-12886079D02*
X9434467Y-12867031D01*
X9434467Y-12867031D02*
X9443991Y-12857508D01*
X9443991Y-12857508D02*
X9463039Y-12847984D01*
X9615420Y-13047984D02*
X9615420Y-12914650D01*
X9615420Y-12933698D02*
X9624944Y-12924174D01*
X9624944Y-12924174D02*
X9643991Y-12914650D01*
X9643991Y-12914650D02*
X9672563Y-12914650D01*
X9672563Y-12914650D02*
X9691610Y-12924174D01*
X9691610Y-12924174D02*
X9701134Y-12943222D01*
X9701134Y-12943222D02*
X9701134Y-13047984D01*
X9701134Y-12943222D02*
X9710658Y-12924174D01*
X9710658Y-12924174D02*
X9729705Y-12914650D01*
X9729705Y-12914650D02*
X9758277Y-12914650D01*
X9758277Y-12914650D02*
X9777325Y-12924174D01*
X9777325Y-12924174D02*
X9786848Y-12943222D01*
X9786848Y-12943222D02*
X9786848Y-13047984D01*
X9882086Y-13047984D02*
X9882086Y-12914650D01*
X9882086Y-12933698D02*
X9891610Y-12924174D01*
X9891610Y-12924174D02*
X9910658Y-12914650D01*
X9910658Y-12914650D02*
X9939229Y-12914650D01*
X9939229Y-12914650D02*
X9958277Y-12924174D01*
X9958277Y-12924174D02*
X9967801Y-12943222D01*
X9967801Y-12943222D02*
X9967801Y-13047984D01*
X9967801Y-12943222D02*
X9977325Y-12924174D01*
X9977325Y-12924174D02*
X9996372Y-12914650D01*
X9996372Y-12914650D02*
X10024944Y-12914650D01*
X10024944Y-12914650D02*
X10043991Y-12924174D01*
X10043991Y-12924174D02*
X10053515Y-12943222D01*
X10053515Y-12943222D02*
X10053515Y-13047984D01*
X10443991Y-12838460D02*
X10272563Y-13095603D01*
X10701134Y-12847984D02*
X10720182Y-12847984D01*
X10720182Y-12847984D02*
X10739229Y-12857508D01*
X10739229Y-12857508D02*
X10748753Y-12867031D01*
X10748753Y-12867031D02*
X10758277Y-12886079D01*
X10758277Y-12886079D02*
X10767801Y-12924174D01*
X10767801Y-12924174D02*
X10767801Y-12971793D01*
X10767801Y-12971793D02*
X10758277Y-13009888D01*
X10758277Y-13009888D02*
X10748753Y-13028936D01*
X10748753Y-13028936D02*
X10739229Y-13038460D01*
X10739229Y-13038460D02*
X10720182Y-13047984D01*
X10720182Y-13047984D02*
X10701134Y-13047984D01*
X10701134Y-13047984D02*
X10682087Y-13038460D01*
X10682087Y-13038460D02*
X10672563Y-13028936D01*
X10672563Y-13028936D02*
X10663039Y-13009888D01*
X10663039Y-13009888D02*
X10653515Y-12971793D01*
X10653515Y-12971793D02*
X10653515Y-12924174D01*
X10653515Y-12924174D02*
X10663039Y-12886079D01*
X10663039Y-12886079D02*
X10672563Y-12867031D01*
X10672563Y-12867031D02*
X10682087Y-12857508D01*
X10682087Y-12857508D02*
X10701134Y-12847984D01*
X10853515Y-13028936D02*
X10863039Y-13038460D01*
X10863039Y-13038460D02*
X10853515Y-13047984D01*
X10853515Y-13047984D02*
X10843991Y-13038460D01*
X10843991Y-13038460D02*
X10853515Y-13028936D01*
X10853515Y-13028936D02*
X10853515Y-13047984D01*
X10986848Y-12847984D02*
X11005896Y-12847984D01*
X11005896Y-12847984D02*
X11024944Y-12857508D01*
X11024944Y-12857508D02*
X11034468Y-12867031D01*
X11034468Y-12867031D02*
X11043991Y-12886079D01*
X11043991Y-12886079D02*
X11053515Y-12924174D01*
X11053515Y-12924174D02*
X11053515Y-12971793D01*
X11053515Y-12971793D02*
X11043991Y-13009888D01*
X11043991Y-13009888D02*
X11034468Y-13028936D01*
X11034468Y-13028936D02*
X11024944Y-13038460D01*
X11024944Y-13038460D02*
X11005896Y-13047984D01*
X11005896Y-13047984D02*
X10986848Y-13047984D01*
X10986848Y-13047984D02*
X10967801Y-13038460D01*
X10967801Y-13038460D02*
X10958277Y-13028936D01*
X10958277Y-13028936D02*
X10948753Y-13009888D01*
X10948753Y-13009888D02*
X10939229Y-12971793D01*
X10939229Y-12971793D02*
X10939229Y-12924174D01*
X10939229Y-12924174D02*
X10948753Y-12886079D01*
X10948753Y-12886079D02*
X10958277Y-12867031D01*
X10958277Y-12867031D02*
X10967801Y-12857508D01*
X10967801Y-12857508D02*
X10986848Y-12847984D01*
X11120182Y-12847984D02*
X11243991Y-12847984D01*
X11243991Y-12847984D02*
X11177325Y-12924174D01*
X11177325Y-12924174D02*
X11205896Y-12924174D01*
X11205896Y-12924174D02*
X11224944Y-12933698D01*
X11224944Y-12933698D02*
X11234467Y-12943222D01*
X11234467Y-12943222D02*
X11243991Y-12962269D01*
X11243991Y-12962269D02*
X11243991Y-13009888D01*
X11243991Y-13009888D02*
X11234467Y-13028936D01*
X11234467Y-13028936D02*
X11224944Y-13038460D01*
X11224944Y-13038460D02*
X11205896Y-13047984D01*
X11205896Y-13047984D02*
X11148753Y-13047984D01*
X11148753Y-13047984D02*
X11129706Y-13038460D01*
X11129706Y-13038460D02*
X11120182Y-13028936D01*
X11424944Y-12847984D02*
X11329706Y-12847984D01*
X11329706Y-12847984D02*
X11320182Y-12943222D01*
X11320182Y-12943222D02*
X11329706Y-12933698D01*
X11329706Y-12933698D02*
X11348753Y-12924174D01*
X11348753Y-12924174D02*
X11396372Y-12924174D01*
X11396372Y-12924174D02*
X11415420Y-12933698D01*
X11415420Y-12933698D02*
X11424944Y-12943222D01*
X11424944Y-12943222D02*
X11434467Y-12962269D01*
X11434467Y-12962269D02*
X11434467Y-13009888D01*
X11434467Y-13009888D02*
X11424944Y-13028936D01*
X11424944Y-13028936D02*
X11415420Y-13038460D01*
X11415420Y-13038460D02*
X11396372Y-13047984D01*
X11396372Y-13047984D02*
X11348753Y-13047984D01*
X11348753Y-13047984D02*
X11329706Y-13038460D01*
X11329706Y-13038460D02*
X11320182Y-13028936D01*
X11605896Y-12914650D02*
X11605896Y-13047984D01*
X11558277Y-12838460D02*
X11510658Y-12981317D01*
X11510658Y-12981317D02*
X11634467Y-12981317D01*
X11701134Y-12847984D02*
X11701134Y-12886079D01*
X11777325Y-12847984D02*
X11777325Y-12886079D01*
X12072563Y-13124174D02*
X12063039Y-13114650D01*
X12063039Y-13114650D02*
X12043991Y-13086079D01*
X12043991Y-13086079D02*
X12034468Y-13067031D01*
X12034468Y-13067031D02*
X12024944Y-13038460D01*
X12024944Y-13038460D02*
X12015420Y-12990841D01*
X12015420Y-12990841D02*
X12015420Y-12952746D01*
X12015420Y-12952746D02*
X12024944Y-12905127D01*
X12024944Y-12905127D02*
X12034468Y-12876555D01*
X12034468Y-12876555D02*
X12043991Y-12857508D01*
X12043991Y-12857508D02*
X12063039Y-12828936D01*
X12063039Y-12828936D02*
X12072563Y-12819412D01*
X12253515Y-13047984D02*
X12139229Y-13047984D01*
X12196372Y-13047984D02*
X12196372Y-12847984D01*
X12196372Y-12847984D02*
X12177325Y-12876555D01*
X12177325Y-12876555D02*
X12158277Y-12895603D01*
X12158277Y-12895603D02*
X12139229Y-12905127D01*
X12377325Y-12847984D02*
X12396372Y-12847984D01*
X12396372Y-12847984D02*
X12415420Y-12857508D01*
X12415420Y-12857508D02*
X12424944Y-12867031D01*
X12424944Y-12867031D02*
X12434468Y-12886079D01*
X12434468Y-12886079D02*
X12443991Y-12924174D01*
X12443991Y-12924174D02*
X12443991Y-12971793D01*
X12443991Y-12971793D02*
X12434468Y-13009888D01*
X12434468Y-13009888D02*
X12424944Y-13028936D01*
X12424944Y-13028936D02*
X12415420Y-13038460D01*
X12415420Y-13038460D02*
X12396372Y-13047984D01*
X12396372Y-13047984D02*
X12377325Y-13047984D01*
X12377325Y-13047984D02*
X12358277Y-13038460D01*
X12358277Y-13038460D02*
X12348753Y-13028936D01*
X12348753Y-13028936D02*
X12339229Y-13009888D01*
X12339229Y-13009888D02*
X12329706Y-12971793D01*
X12329706Y-12971793D02*
X12329706Y-12924174D01*
X12329706Y-12924174D02*
X12339229Y-12886079D01*
X12339229Y-12886079D02*
X12348753Y-12867031D01*
X12348753Y-12867031D02*
X12358277Y-12857508D01*
X12358277Y-12857508D02*
X12377325Y-12847984D01*
X12682087Y-13047984D02*
X12682087Y-12847984D01*
X12767801Y-13047984D02*
X12767801Y-12943222D01*
X12767801Y-12943222D02*
X12758277Y-12924174D01*
X12758277Y-12924174D02*
X12739230Y-12914650D01*
X12739230Y-12914650D02*
X12710658Y-12914650D01*
X12710658Y-12914650D02*
X12691610Y-12924174D01*
X12691610Y-12924174D02*
X12682087Y-12933698D01*
X12891610Y-13047984D02*
X12872563Y-13038460D01*
X12872563Y-13038460D02*
X12863039Y-13028936D01*
X12863039Y-13028936D02*
X12853515Y-13009888D01*
X12853515Y-13009888D02*
X12853515Y-12952746D01*
X12853515Y-12952746D02*
X12863039Y-12933698D01*
X12863039Y-12933698D02*
X12872563Y-12924174D01*
X12872563Y-12924174D02*
X12891610Y-12914650D01*
X12891610Y-12914650D02*
X12920182Y-12914650D01*
X12920182Y-12914650D02*
X12939230Y-12924174D01*
X12939230Y-12924174D02*
X12948753Y-12933698D01*
X12948753Y-12933698D02*
X12958277Y-12952746D01*
X12958277Y-12952746D02*
X12958277Y-13009888D01*
X12958277Y-13009888D02*
X12948753Y-13028936D01*
X12948753Y-13028936D02*
X12939230Y-13038460D01*
X12939230Y-13038460D02*
X12920182Y-13047984D01*
X12920182Y-13047984D02*
X12891610Y-13047984D01*
X13072563Y-13047984D02*
X13053515Y-13038460D01*
X13053515Y-13038460D02*
X13043991Y-13019412D01*
X13043991Y-13019412D02*
X13043991Y-12847984D01*
X13224944Y-13038460D02*
X13205896Y-13047984D01*
X13205896Y-13047984D02*
X13167801Y-13047984D01*
X13167801Y-13047984D02*
X13148753Y-13038460D01*
X13148753Y-13038460D02*
X13139230Y-13019412D01*
X13139230Y-13019412D02*
X13139230Y-12943222D01*
X13139230Y-12943222D02*
X13148753Y-12924174D01*
X13148753Y-12924174D02*
X13167801Y-12914650D01*
X13167801Y-12914650D02*
X13205896Y-12914650D01*
X13205896Y-12914650D02*
X13224944Y-12924174D01*
X13224944Y-12924174D02*
X13234468Y-12943222D01*
X13234468Y-12943222D02*
X13234468Y-12962269D01*
X13234468Y-12962269D02*
X13139230Y-12981317D01*
X13310658Y-13038460D02*
X13329706Y-13047984D01*
X13329706Y-13047984D02*
X13367801Y-13047984D01*
X13367801Y-13047984D02*
X13386849Y-13038460D01*
X13386849Y-13038460D02*
X13396372Y-13019412D01*
X13396372Y-13019412D02*
X13396372Y-13009888D01*
X13396372Y-13009888D02*
X13386849Y-12990841D01*
X13386849Y-12990841D02*
X13367801Y-12981317D01*
X13367801Y-12981317D02*
X13339230Y-12981317D01*
X13339230Y-12981317D02*
X13320182Y-12971793D01*
X13320182Y-12971793D02*
X13310658Y-12952746D01*
X13310658Y-12952746D02*
X13310658Y-12943222D01*
X13310658Y-12943222D02*
X13320182Y-12924174D01*
X13320182Y-12924174D02*
X13339230Y-12914650D01*
X13339230Y-12914650D02*
X13367801Y-12914650D01*
X13367801Y-12914650D02*
X13386849Y-12924174D01*
X13463039Y-13124174D02*
X13472563Y-13114650D01*
X13472563Y-13114650D02*
X13491611Y-13086079D01*
X13491611Y-13086079D02*
X13501134Y-13067031D01*
X13501134Y-13067031D02*
X13510658Y-13038460D01*
X13510658Y-13038460D02*
X13520182Y-12990841D01*
X13520182Y-12990841D02*
X13520182Y-12952746D01*
X13520182Y-12952746D02*
X13510658Y-12905127D01*
X13510658Y-12905127D02*
X13501134Y-12876555D01*
X13501134Y-12876555D02*
X13491611Y-12857508D01*
X13491611Y-12857508D02*
X13472563Y-12828936D01*
X13472563Y-12828936D02*
X13463039Y-12819412D01*
D12*
X8447500Y-13170500D02*
X8447500Y-13270500D01*
X8397500Y-13220500D02*
X8497500Y-13220500D01*
D11*
X8863039Y-13311984D02*
X8748753Y-13311984D01*
X8805896Y-13311984D02*
X8805896Y-13111984D01*
X8805896Y-13111984D02*
X8786848Y-13140555D01*
X8786848Y-13140555D02*
X8767801Y-13159603D01*
X8767801Y-13159603D02*
X8748753Y-13169127D01*
X8948753Y-13292936D02*
X8958277Y-13302460D01*
X8958277Y-13302460D02*
X8948753Y-13311984D01*
X8948753Y-13311984D02*
X8939229Y-13302460D01*
X8939229Y-13302460D02*
X8948753Y-13292936D01*
X8948753Y-13292936D02*
X8948753Y-13311984D01*
X9082086Y-13111984D02*
X9101134Y-13111984D01*
X9101134Y-13111984D02*
X9120182Y-13121508D01*
X9120182Y-13121508D02*
X9129705Y-13131031D01*
X9129705Y-13131031D02*
X9139229Y-13150079D01*
X9139229Y-13150079D02*
X9148753Y-13188174D01*
X9148753Y-13188174D02*
X9148753Y-13235793D01*
X9148753Y-13235793D02*
X9139229Y-13273888D01*
X9139229Y-13273888D02*
X9129705Y-13292936D01*
X9129705Y-13292936D02*
X9120182Y-13302460D01*
X9120182Y-13302460D02*
X9101134Y-13311984D01*
X9101134Y-13311984D02*
X9082086Y-13311984D01*
X9082086Y-13311984D02*
X9063039Y-13302460D01*
X9063039Y-13302460D02*
X9053515Y-13292936D01*
X9053515Y-13292936D02*
X9043991Y-13273888D01*
X9043991Y-13273888D02*
X9034467Y-13235793D01*
X9034467Y-13235793D02*
X9034467Y-13188174D01*
X9034467Y-13188174D02*
X9043991Y-13150079D01*
X9043991Y-13150079D02*
X9053515Y-13131031D01*
X9053515Y-13131031D02*
X9063039Y-13121508D01*
X9063039Y-13121508D02*
X9082086Y-13111984D01*
X9272563Y-13111984D02*
X9291610Y-13111984D01*
X9291610Y-13111984D02*
X9310658Y-13121508D01*
X9310658Y-13121508D02*
X9320182Y-13131031D01*
X9320182Y-13131031D02*
X9329705Y-13150079D01*
X9329705Y-13150079D02*
X9339229Y-13188174D01*
X9339229Y-13188174D02*
X9339229Y-13235793D01*
X9339229Y-13235793D02*
X9329705Y-13273888D01*
X9329705Y-13273888D02*
X9320182Y-13292936D01*
X9320182Y-13292936D02*
X9310658Y-13302460D01*
X9310658Y-13302460D02*
X9291610Y-13311984D01*
X9291610Y-13311984D02*
X9272563Y-13311984D01*
X9272563Y-13311984D02*
X9253515Y-13302460D01*
X9253515Y-13302460D02*
X9243991Y-13292936D01*
X9243991Y-13292936D02*
X9234467Y-13273888D01*
X9234467Y-13273888D02*
X9224944Y-13235793D01*
X9224944Y-13235793D02*
X9224944Y-13188174D01*
X9224944Y-13188174D02*
X9234467Y-13150079D01*
X9234467Y-13150079D02*
X9243991Y-13131031D01*
X9243991Y-13131031D02*
X9253515Y-13121508D01*
X9253515Y-13121508D02*
X9272563Y-13111984D01*
X9463039Y-13111984D02*
X9482086Y-13111984D01*
X9482086Y-13111984D02*
X9501134Y-13121508D01*
X9501134Y-13121508D02*
X9510658Y-13131031D01*
X9510658Y-13131031D02*
X9520182Y-13150079D01*
X9520182Y-13150079D02*
X9529705Y-13188174D01*
X9529705Y-13188174D02*
X9529705Y-13235793D01*
X9529705Y-13235793D02*
X9520182Y-13273888D01*
X9520182Y-13273888D02*
X9510658Y-13292936D01*
X9510658Y-13292936D02*
X9501134Y-13302460D01*
X9501134Y-13302460D02*
X9482086Y-13311984D01*
X9482086Y-13311984D02*
X9463039Y-13311984D01*
X9463039Y-13311984D02*
X9443991Y-13302460D01*
X9443991Y-13302460D02*
X9434467Y-13292936D01*
X9434467Y-13292936D02*
X9424944Y-13273888D01*
X9424944Y-13273888D02*
X9415420Y-13235793D01*
X9415420Y-13235793D02*
X9415420Y-13188174D01*
X9415420Y-13188174D02*
X9424944Y-13150079D01*
X9424944Y-13150079D02*
X9434467Y-13131031D01*
X9434467Y-13131031D02*
X9443991Y-13121508D01*
X9443991Y-13121508D02*
X9463039Y-13111984D01*
X9615420Y-13311984D02*
X9615420Y-13178650D01*
X9615420Y-13197698D02*
X9624944Y-13188174D01*
X9624944Y-13188174D02*
X9643991Y-13178650D01*
X9643991Y-13178650D02*
X9672563Y-13178650D01*
X9672563Y-13178650D02*
X9691610Y-13188174D01*
X9691610Y-13188174D02*
X9701134Y-13207222D01*
X9701134Y-13207222D02*
X9701134Y-13311984D01*
X9701134Y-13207222D02*
X9710658Y-13188174D01*
X9710658Y-13188174D02*
X9729705Y-13178650D01*
X9729705Y-13178650D02*
X9758277Y-13178650D01*
X9758277Y-13178650D02*
X9777325Y-13188174D01*
X9777325Y-13188174D02*
X9786848Y-13207222D01*
X9786848Y-13207222D02*
X9786848Y-13311984D01*
X9882086Y-13311984D02*
X9882086Y-13178650D01*
X9882086Y-13197698D02*
X9891610Y-13188174D01*
X9891610Y-13188174D02*
X9910658Y-13178650D01*
X9910658Y-13178650D02*
X9939229Y-13178650D01*
X9939229Y-13178650D02*
X9958277Y-13188174D01*
X9958277Y-13188174D02*
X9967801Y-13207222D01*
X9967801Y-13207222D02*
X9967801Y-13311984D01*
X9967801Y-13207222D02*
X9977325Y-13188174D01*
X9977325Y-13188174D02*
X9996372Y-13178650D01*
X9996372Y-13178650D02*
X10024944Y-13178650D01*
X10024944Y-13178650D02*
X10043991Y-13188174D01*
X10043991Y-13188174D02*
X10053515Y-13207222D01*
X10053515Y-13207222D02*
X10053515Y-13311984D01*
X10443991Y-13102460D02*
X10272563Y-13359603D01*
X10701134Y-13111984D02*
X10720182Y-13111984D01*
X10720182Y-13111984D02*
X10739229Y-13121508D01*
X10739229Y-13121508D02*
X10748753Y-13131031D01*
X10748753Y-13131031D02*
X10758277Y-13150079D01*
X10758277Y-13150079D02*
X10767801Y-13188174D01*
X10767801Y-13188174D02*
X10767801Y-13235793D01*
X10767801Y-13235793D02*
X10758277Y-13273888D01*
X10758277Y-13273888D02*
X10748753Y-13292936D01*
X10748753Y-13292936D02*
X10739229Y-13302460D01*
X10739229Y-13302460D02*
X10720182Y-13311984D01*
X10720182Y-13311984D02*
X10701134Y-13311984D01*
X10701134Y-13311984D02*
X10682087Y-13302460D01*
X10682087Y-13302460D02*
X10672563Y-13292936D01*
X10672563Y-13292936D02*
X10663039Y-13273888D01*
X10663039Y-13273888D02*
X10653515Y-13235793D01*
X10653515Y-13235793D02*
X10653515Y-13188174D01*
X10653515Y-13188174D02*
X10663039Y-13150079D01*
X10663039Y-13150079D02*
X10672563Y-13131031D01*
X10672563Y-13131031D02*
X10682087Y-13121508D01*
X10682087Y-13121508D02*
X10701134Y-13111984D01*
X10853515Y-13292936D02*
X10863039Y-13302460D01*
X10863039Y-13302460D02*
X10853515Y-13311984D01*
X10853515Y-13311984D02*
X10843991Y-13302460D01*
X10843991Y-13302460D02*
X10853515Y-13292936D01*
X10853515Y-13292936D02*
X10853515Y-13311984D01*
X10986848Y-13111984D02*
X11005896Y-13111984D01*
X11005896Y-13111984D02*
X11024944Y-13121508D01*
X11024944Y-13121508D02*
X11034468Y-13131031D01*
X11034468Y-13131031D02*
X11043991Y-13150079D01*
X11043991Y-13150079D02*
X11053515Y-13188174D01*
X11053515Y-13188174D02*
X11053515Y-13235793D01*
X11053515Y-13235793D02*
X11043991Y-13273888D01*
X11043991Y-13273888D02*
X11034468Y-13292936D01*
X11034468Y-13292936D02*
X11024944Y-13302460D01*
X11024944Y-13302460D02*
X11005896Y-13311984D01*
X11005896Y-13311984D02*
X10986848Y-13311984D01*
X10986848Y-13311984D02*
X10967801Y-13302460D01*
X10967801Y-13302460D02*
X10958277Y-13292936D01*
X10958277Y-13292936D02*
X10948753Y-13273888D01*
X10948753Y-13273888D02*
X10939229Y-13235793D01*
X10939229Y-13235793D02*
X10939229Y-13188174D01*
X10939229Y-13188174D02*
X10948753Y-13150079D01*
X10948753Y-13150079D02*
X10958277Y-13131031D01*
X10958277Y-13131031D02*
X10967801Y-13121508D01*
X10967801Y-13121508D02*
X10986848Y-13111984D01*
X11120182Y-13111984D02*
X11243991Y-13111984D01*
X11243991Y-13111984D02*
X11177325Y-13188174D01*
X11177325Y-13188174D02*
X11205896Y-13188174D01*
X11205896Y-13188174D02*
X11224944Y-13197698D01*
X11224944Y-13197698D02*
X11234467Y-13207222D01*
X11234467Y-13207222D02*
X11243991Y-13226269D01*
X11243991Y-13226269D02*
X11243991Y-13273888D01*
X11243991Y-13273888D02*
X11234467Y-13292936D01*
X11234467Y-13292936D02*
X11224944Y-13302460D01*
X11224944Y-13302460D02*
X11205896Y-13311984D01*
X11205896Y-13311984D02*
X11148753Y-13311984D01*
X11148753Y-13311984D02*
X11129706Y-13302460D01*
X11129706Y-13302460D02*
X11120182Y-13292936D01*
X11339229Y-13311984D02*
X11377325Y-13311984D01*
X11377325Y-13311984D02*
X11396372Y-13302460D01*
X11396372Y-13302460D02*
X11405896Y-13292936D01*
X11405896Y-13292936D02*
X11424944Y-13264365D01*
X11424944Y-13264365D02*
X11434467Y-13226269D01*
X11434467Y-13226269D02*
X11434467Y-13150079D01*
X11434467Y-13150079D02*
X11424944Y-13131031D01*
X11424944Y-13131031D02*
X11415420Y-13121508D01*
X11415420Y-13121508D02*
X11396372Y-13111984D01*
X11396372Y-13111984D02*
X11358277Y-13111984D01*
X11358277Y-13111984D02*
X11339229Y-13121508D01*
X11339229Y-13121508D02*
X11329706Y-13131031D01*
X11329706Y-13131031D02*
X11320182Y-13150079D01*
X11320182Y-13150079D02*
X11320182Y-13197698D01*
X11320182Y-13197698D02*
X11329706Y-13216746D01*
X11329706Y-13216746D02*
X11339229Y-13226269D01*
X11339229Y-13226269D02*
X11358277Y-13235793D01*
X11358277Y-13235793D02*
X11396372Y-13235793D01*
X11396372Y-13235793D02*
X11415420Y-13226269D01*
X11415420Y-13226269D02*
X11424944Y-13216746D01*
X11424944Y-13216746D02*
X11434467Y-13197698D01*
X11605896Y-13178650D02*
X11605896Y-13311984D01*
X11558277Y-13102460D02*
X11510658Y-13245317D01*
X11510658Y-13245317D02*
X11634467Y-13245317D01*
X11701134Y-13111984D02*
X11701134Y-13150079D01*
X11777325Y-13111984D02*
X11777325Y-13150079D01*
X12072563Y-13388174D02*
X12063039Y-13378650D01*
X12063039Y-13378650D02*
X12043991Y-13350079D01*
X12043991Y-13350079D02*
X12034468Y-13331031D01*
X12034468Y-13331031D02*
X12024944Y-13302460D01*
X12024944Y-13302460D02*
X12015420Y-13254841D01*
X12015420Y-13254841D02*
X12015420Y-13216746D01*
X12015420Y-13216746D02*
X12024944Y-13169127D01*
X12024944Y-13169127D02*
X12034468Y-13140555D01*
X12034468Y-13140555D02*
X12043991Y-13121508D01*
X12043991Y-13121508D02*
X12063039Y-13092936D01*
X12063039Y-13092936D02*
X12072563Y-13083412D01*
X12234468Y-13178650D02*
X12234468Y-13311984D01*
X12186848Y-13102460D02*
X12139229Y-13245317D01*
X12139229Y-13245317D02*
X12263039Y-13245317D01*
X12424944Y-13111984D02*
X12386848Y-13111984D01*
X12386848Y-13111984D02*
X12367801Y-13121508D01*
X12367801Y-13121508D02*
X12358277Y-13131031D01*
X12358277Y-13131031D02*
X12339229Y-13159603D01*
X12339229Y-13159603D02*
X12329706Y-13197698D01*
X12329706Y-13197698D02*
X12329706Y-13273888D01*
X12329706Y-13273888D02*
X12339229Y-13292936D01*
X12339229Y-13292936D02*
X12348753Y-13302460D01*
X12348753Y-13302460D02*
X12367801Y-13311984D01*
X12367801Y-13311984D02*
X12405896Y-13311984D01*
X12405896Y-13311984D02*
X12424944Y-13302460D01*
X12424944Y-13302460D02*
X12434468Y-13292936D01*
X12434468Y-13292936D02*
X12443991Y-13273888D01*
X12443991Y-13273888D02*
X12443991Y-13226269D01*
X12443991Y-13226269D02*
X12434468Y-13207222D01*
X12434468Y-13207222D02*
X12424944Y-13197698D01*
X12424944Y-13197698D02*
X12405896Y-13188174D01*
X12405896Y-13188174D02*
X12367801Y-13188174D01*
X12367801Y-13188174D02*
X12348753Y-13197698D01*
X12348753Y-13197698D02*
X12339229Y-13207222D01*
X12339229Y-13207222D02*
X12329706Y-13226269D01*
X12682087Y-13311984D02*
X12682087Y-13111984D01*
X12767801Y-13311984D02*
X12767801Y-13207222D01*
X12767801Y-13207222D02*
X12758277Y-13188174D01*
X12758277Y-13188174D02*
X12739230Y-13178650D01*
X12739230Y-13178650D02*
X12710658Y-13178650D01*
X12710658Y-13178650D02*
X12691610Y-13188174D01*
X12691610Y-13188174D02*
X12682087Y-13197698D01*
X12891610Y-13311984D02*
X12872563Y-13302460D01*
X12872563Y-13302460D02*
X12863039Y-13292936D01*
X12863039Y-13292936D02*
X12853515Y-13273888D01*
X12853515Y-13273888D02*
X12853515Y-13216746D01*
X12853515Y-13216746D02*
X12863039Y-13197698D01*
X12863039Y-13197698D02*
X12872563Y-13188174D01*
X12872563Y-13188174D02*
X12891610Y-13178650D01*
X12891610Y-13178650D02*
X12920182Y-13178650D01*
X12920182Y-13178650D02*
X12939230Y-13188174D01*
X12939230Y-13188174D02*
X12948753Y-13197698D01*
X12948753Y-13197698D02*
X12958277Y-13216746D01*
X12958277Y-13216746D02*
X12958277Y-13273888D01*
X12958277Y-13273888D02*
X12948753Y-13292936D01*
X12948753Y-13292936D02*
X12939230Y-13302460D01*
X12939230Y-13302460D02*
X12920182Y-13311984D01*
X12920182Y-13311984D02*
X12891610Y-13311984D01*
X13072563Y-13311984D02*
X13053515Y-13302460D01*
X13053515Y-13302460D02*
X13043991Y-13283412D01*
X13043991Y-13283412D02*
X13043991Y-13111984D01*
X13224944Y-13302460D02*
X13205896Y-13311984D01*
X13205896Y-13311984D02*
X13167801Y-13311984D01*
X13167801Y-13311984D02*
X13148753Y-13302460D01*
X13148753Y-13302460D02*
X13139230Y-13283412D01*
X13139230Y-13283412D02*
X13139230Y-13207222D01*
X13139230Y-13207222D02*
X13148753Y-13188174D01*
X13148753Y-13188174D02*
X13167801Y-13178650D01*
X13167801Y-13178650D02*
X13205896Y-13178650D01*
X13205896Y-13178650D02*
X13224944Y-13188174D01*
X13224944Y-13188174D02*
X13234468Y-13207222D01*
X13234468Y-13207222D02*
X13234468Y-13226269D01*
X13234468Y-13226269D02*
X13139230Y-13245317D01*
X13310658Y-13302460D02*
X13329706Y-13311984D01*
X13329706Y-13311984D02*
X13367801Y-13311984D01*
X13367801Y-13311984D02*
X13386849Y-13302460D01*
X13386849Y-13302460D02*
X13396372Y-13283412D01*
X13396372Y-13283412D02*
X13396372Y-13273888D01*
X13396372Y-13273888D02*
X13386849Y-13254841D01*
X13386849Y-13254841D02*
X13367801Y-13245317D01*
X13367801Y-13245317D02*
X13339230Y-13245317D01*
X13339230Y-13245317D02*
X13320182Y-13235793D01*
X13320182Y-13235793D02*
X13310658Y-13216746D01*
X13310658Y-13216746D02*
X13310658Y-13207222D01*
X13310658Y-13207222D02*
X13320182Y-13188174D01*
X13320182Y-13188174D02*
X13339230Y-13178650D01*
X13339230Y-13178650D02*
X13367801Y-13178650D01*
X13367801Y-13178650D02*
X13386849Y-13188174D01*
X13463039Y-13388174D02*
X13472563Y-13378650D01*
X13472563Y-13378650D02*
X13491611Y-13350079D01*
X13491611Y-13350079D02*
X13501134Y-13331031D01*
X13501134Y-13331031D02*
X13510658Y-13302460D01*
X13510658Y-13302460D02*
X13520182Y-13254841D01*
X13520182Y-13254841D02*
X13520182Y-13216746D01*
X13520182Y-13216746D02*
X13510658Y-13169127D01*
X13510658Y-13169127D02*
X13501134Y-13140555D01*
X13501134Y-13140555D02*
X13491611Y-13121508D01*
X13491611Y-13121508D02*
X13472563Y-13092936D01*
X13472563Y-13092936D02*
X13463039Y-13083412D01*
D13*
X8479927Y-13526927D02*
X8479927Y-13442073D01*
X8395073Y-13442073D01*
X8395073Y-13526927D01*
X8479927Y-13526927D01*
D11*
X8863039Y-13575984D02*
X8748753Y-13575984D01*
X8805896Y-13575984D02*
X8805896Y-13375984D01*
X8805896Y-13375984D02*
X8786848Y-13404555D01*
X8786848Y-13404555D02*
X8767801Y-13423603D01*
X8767801Y-13423603D02*
X8748753Y-13433127D01*
X8948753Y-13556936D02*
X8958277Y-13566460D01*
X8958277Y-13566460D02*
X8948753Y-13575984D01*
X8948753Y-13575984D02*
X8939229Y-13566460D01*
X8939229Y-13566460D02*
X8948753Y-13556936D01*
X8948753Y-13556936D02*
X8948753Y-13575984D01*
X9034467Y-13395031D02*
X9043991Y-13385508D01*
X9043991Y-13385508D02*
X9063039Y-13375984D01*
X9063039Y-13375984D02*
X9110658Y-13375984D01*
X9110658Y-13375984D02*
X9129705Y-13385508D01*
X9129705Y-13385508D02*
X9139229Y-13395031D01*
X9139229Y-13395031D02*
X9148753Y-13414079D01*
X9148753Y-13414079D02*
X9148753Y-13433127D01*
X9148753Y-13433127D02*
X9139229Y-13461698D01*
X9139229Y-13461698D02*
X9024944Y-13575984D01*
X9024944Y-13575984D02*
X9148753Y-13575984D01*
X9272563Y-13375984D02*
X9291610Y-13375984D01*
X9291610Y-13375984D02*
X9310658Y-13385508D01*
X9310658Y-13385508D02*
X9320182Y-13395031D01*
X9320182Y-13395031D02*
X9329705Y-13414079D01*
X9329705Y-13414079D02*
X9339229Y-13452174D01*
X9339229Y-13452174D02*
X9339229Y-13499793D01*
X9339229Y-13499793D02*
X9329705Y-13537888D01*
X9329705Y-13537888D02*
X9320182Y-13556936D01*
X9320182Y-13556936D02*
X9310658Y-13566460D01*
X9310658Y-13566460D02*
X9291610Y-13575984D01*
X9291610Y-13575984D02*
X9272563Y-13575984D01*
X9272563Y-13575984D02*
X9253515Y-13566460D01*
X9253515Y-13566460D02*
X9243991Y-13556936D01*
X9243991Y-13556936D02*
X9234467Y-13537888D01*
X9234467Y-13537888D02*
X9224944Y-13499793D01*
X9224944Y-13499793D02*
X9224944Y-13452174D01*
X9224944Y-13452174D02*
X9234467Y-13414079D01*
X9234467Y-13414079D02*
X9243991Y-13395031D01*
X9243991Y-13395031D02*
X9253515Y-13385508D01*
X9253515Y-13385508D02*
X9272563Y-13375984D01*
X9463039Y-13375984D02*
X9482086Y-13375984D01*
X9482086Y-13375984D02*
X9501134Y-13385508D01*
X9501134Y-13385508D02*
X9510658Y-13395031D01*
X9510658Y-13395031D02*
X9520182Y-13414079D01*
X9520182Y-13414079D02*
X9529705Y-13452174D01*
X9529705Y-13452174D02*
X9529705Y-13499793D01*
X9529705Y-13499793D02*
X9520182Y-13537888D01*
X9520182Y-13537888D02*
X9510658Y-13556936D01*
X9510658Y-13556936D02*
X9501134Y-13566460D01*
X9501134Y-13566460D02*
X9482086Y-13575984D01*
X9482086Y-13575984D02*
X9463039Y-13575984D01*
X9463039Y-13575984D02*
X9443991Y-13566460D01*
X9443991Y-13566460D02*
X9434467Y-13556936D01*
X9434467Y-13556936D02*
X9424944Y-13537888D01*
X9424944Y-13537888D02*
X9415420Y-13499793D01*
X9415420Y-13499793D02*
X9415420Y-13452174D01*
X9415420Y-13452174D02*
X9424944Y-13414079D01*
X9424944Y-13414079D02*
X9434467Y-13395031D01*
X9434467Y-13395031D02*
X9443991Y-13385508D01*
X9443991Y-13385508D02*
X9463039Y-13375984D01*
X9615420Y-13575984D02*
X9615420Y-13442650D01*
X9615420Y-13461698D02*
X9624944Y-13452174D01*
X9624944Y-13452174D02*
X9643991Y-13442650D01*
X9643991Y-13442650D02*
X9672563Y-13442650D01*
X9672563Y-13442650D02*
X9691610Y-13452174D01*
X9691610Y-13452174D02*
X9701134Y-13471222D01*
X9701134Y-13471222D02*
X9701134Y-13575984D01*
X9701134Y-13471222D02*
X9710658Y-13452174D01*
X9710658Y-13452174D02*
X9729705Y-13442650D01*
X9729705Y-13442650D02*
X9758277Y-13442650D01*
X9758277Y-13442650D02*
X9777325Y-13452174D01*
X9777325Y-13452174D02*
X9786848Y-13471222D01*
X9786848Y-13471222D02*
X9786848Y-13575984D01*
X9882086Y-13575984D02*
X9882086Y-13442650D01*
X9882086Y-13461698D02*
X9891610Y-13452174D01*
X9891610Y-13452174D02*
X9910658Y-13442650D01*
X9910658Y-13442650D02*
X9939229Y-13442650D01*
X9939229Y-13442650D02*
X9958277Y-13452174D01*
X9958277Y-13452174D02*
X9967801Y-13471222D01*
X9967801Y-13471222D02*
X9967801Y-13575984D01*
X9967801Y-13471222D02*
X9977325Y-13452174D01*
X9977325Y-13452174D02*
X9996372Y-13442650D01*
X9996372Y-13442650D02*
X10024944Y-13442650D01*
X10024944Y-13442650D02*
X10043991Y-13452174D01*
X10043991Y-13452174D02*
X10053515Y-13471222D01*
X10053515Y-13471222D02*
X10053515Y-13575984D01*
X10443991Y-13366460D02*
X10272563Y-13623603D01*
X10701134Y-13375984D02*
X10720182Y-13375984D01*
X10720182Y-13375984D02*
X10739229Y-13385508D01*
X10739229Y-13385508D02*
X10748753Y-13395031D01*
X10748753Y-13395031D02*
X10758277Y-13414079D01*
X10758277Y-13414079D02*
X10767801Y-13452174D01*
X10767801Y-13452174D02*
X10767801Y-13499793D01*
X10767801Y-13499793D02*
X10758277Y-13537888D01*
X10758277Y-13537888D02*
X10748753Y-13556936D01*
X10748753Y-13556936D02*
X10739229Y-13566460D01*
X10739229Y-13566460D02*
X10720182Y-13575984D01*
X10720182Y-13575984D02*
X10701134Y-13575984D01*
X10701134Y-13575984D02*
X10682087Y-13566460D01*
X10682087Y-13566460D02*
X10672563Y-13556936D01*
X10672563Y-13556936D02*
X10663039Y-13537888D01*
X10663039Y-13537888D02*
X10653515Y-13499793D01*
X10653515Y-13499793D02*
X10653515Y-13452174D01*
X10653515Y-13452174D02*
X10663039Y-13414079D01*
X10663039Y-13414079D02*
X10672563Y-13395031D01*
X10672563Y-13395031D02*
X10682087Y-13385508D01*
X10682087Y-13385508D02*
X10701134Y-13375984D01*
X10853515Y-13556936D02*
X10863039Y-13566460D01*
X10863039Y-13566460D02*
X10853515Y-13575984D01*
X10853515Y-13575984D02*
X10843991Y-13566460D01*
X10843991Y-13566460D02*
X10853515Y-13556936D01*
X10853515Y-13556936D02*
X10853515Y-13575984D01*
X10986848Y-13375984D02*
X11005896Y-13375984D01*
X11005896Y-13375984D02*
X11024944Y-13385508D01*
X11024944Y-13385508D02*
X11034468Y-13395031D01*
X11034468Y-13395031D02*
X11043991Y-13414079D01*
X11043991Y-13414079D02*
X11053515Y-13452174D01*
X11053515Y-13452174D02*
X11053515Y-13499793D01*
X11053515Y-13499793D02*
X11043991Y-13537888D01*
X11043991Y-13537888D02*
X11034468Y-13556936D01*
X11034468Y-13556936D02*
X11024944Y-13566460D01*
X11024944Y-13566460D02*
X11005896Y-13575984D01*
X11005896Y-13575984D02*
X10986848Y-13575984D01*
X10986848Y-13575984D02*
X10967801Y-13566460D01*
X10967801Y-13566460D02*
X10958277Y-13556936D01*
X10958277Y-13556936D02*
X10948753Y-13537888D01*
X10948753Y-13537888D02*
X10939229Y-13499793D01*
X10939229Y-13499793D02*
X10939229Y-13452174D01*
X10939229Y-13452174D02*
X10948753Y-13414079D01*
X10948753Y-13414079D02*
X10958277Y-13395031D01*
X10958277Y-13395031D02*
X10967801Y-13385508D01*
X10967801Y-13385508D02*
X10986848Y-13375984D01*
X11224944Y-13442650D02*
X11224944Y-13575984D01*
X11177325Y-13366460D02*
X11129706Y-13509317D01*
X11129706Y-13509317D02*
X11253515Y-13509317D01*
X11310658Y-13375984D02*
X11443991Y-13375984D01*
X11443991Y-13375984D02*
X11358277Y-13575984D01*
X11510658Y-13395031D02*
X11520182Y-13385508D01*
X11520182Y-13385508D02*
X11539229Y-13375984D01*
X11539229Y-13375984D02*
X11586848Y-13375984D01*
X11586848Y-13375984D02*
X11605896Y-13385508D01*
X11605896Y-13385508D02*
X11615420Y-13395031D01*
X11615420Y-13395031D02*
X11624944Y-13414079D01*
X11624944Y-13414079D02*
X11624944Y-13433127D01*
X11624944Y-13433127D02*
X11615420Y-13461698D01*
X11615420Y-13461698D02*
X11501134Y-13575984D01*
X11501134Y-13575984D02*
X11624944Y-13575984D01*
X11701134Y-13375984D02*
X11701134Y-13414079D01*
X11777325Y-13375984D02*
X11777325Y-13414079D01*
X12072563Y-13652174D02*
X12063039Y-13642650D01*
X12063039Y-13642650D02*
X12043991Y-13614079D01*
X12043991Y-13614079D02*
X12034468Y-13595031D01*
X12034468Y-13595031D02*
X12024944Y-13566460D01*
X12024944Y-13566460D02*
X12015420Y-13518841D01*
X12015420Y-13518841D02*
X12015420Y-13480746D01*
X12015420Y-13480746D02*
X12024944Y-13433127D01*
X12024944Y-13433127D02*
X12034468Y-13404555D01*
X12034468Y-13404555D02*
X12043991Y-13385508D01*
X12043991Y-13385508D02*
X12063039Y-13356936D01*
X12063039Y-13356936D02*
X12072563Y-13347412D01*
X12139229Y-13395031D02*
X12148753Y-13385508D01*
X12148753Y-13385508D02*
X12167801Y-13375984D01*
X12167801Y-13375984D02*
X12215420Y-13375984D01*
X12215420Y-13375984D02*
X12234468Y-13385508D01*
X12234468Y-13385508D02*
X12243991Y-13395031D01*
X12243991Y-13395031D02*
X12253515Y-13414079D01*
X12253515Y-13414079D02*
X12253515Y-13433127D01*
X12253515Y-13433127D02*
X12243991Y-13461698D01*
X12243991Y-13461698D02*
X12129706Y-13575984D01*
X12129706Y-13575984D02*
X12253515Y-13575984D01*
X12491610Y-13575984D02*
X12491610Y-13375984D01*
X12577325Y-13575984D02*
X12577325Y-13471222D01*
X12577325Y-13471222D02*
X12567801Y-13452174D01*
X12567801Y-13452174D02*
X12548753Y-13442650D01*
X12548753Y-13442650D02*
X12520182Y-13442650D01*
X12520182Y-13442650D02*
X12501134Y-13452174D01*
X12501134Y-13452174D02*
X12491610Y-13461698D01*
X12701134Y-13575984D02*
X12682087Y-13566460D01*
X12682087Y-13566460D02*
X12672563Y-13556936D01*
X12672563Y-13556936D02*
X12663039Y-13537888D01*
X12663039Y-13537888D02*
X12663039Y-13480746D01*
X12663039Y-13480746D02*
X12672563Y-13461698D01*
X12672563Y-13461698D02*
X12682087Y-13452174D01*
X12682087Y-13452174D02*
X12701134Y-13442650D01*
X12701134Y-13442650D02*
X12729706Y-13442650D01*
X12729706Y-13442650D02*
X12748753Y-13452174D01*
X12748753Y-13452174D02*
X12758277Y-13461698D01*
X12758277Y-13461698D02*
X12767801Y-13480746D01*
X12767801Y-13480746D02*
X12767801Y-13537888D01*
X12767801Y-13537888D02*
X12758277Y-13556936D01*
X12758277Y-13556936D02*
X12748753Y-13566460D01*
X12748753Y-13566460D02*
X12729706Y-13575984D01*
X12729706Y-13575984D02*
X12701134Y-13575984D01*
X12882087Y-13575984D02*
X12863039Y-13566460D01*
X12863039Y-13566460D02*
X12853515Y-13547412D01*
X12853515Y-13547412D02*
X12853515Y-13375984D01*
X13034468Y-13566460D02*
X13015420Y-13575984D01*
X13015420Y-13575984D02*
X12977325Y-13575984D01*
X12977325Y-13575984D02*
X12958277Y-13566460D01*
X12958277Y-13566460D02*
X12948753Y-13547412D01*
X12948753Y-13547412D02*
X12948753Y-13471222D01*
X12948753Y-13471222D02*
X12958277Y-13452174D01*
X12958277Y-13452174D02*
X12977325Y-13442650D01*
X12977325Y-13442650D02*
X13015420Y-13442650D01*
X13015420Y-13442650D02*
X13034468Y-13452174D01*
X13034468Y-13452174D02*
X13043991Y-13471222D01*
X13043991Y-13471222D02*
X13043991Y-13490269D01*
X13043991Y-13490269D02*
X12948753Y-13509317D01*
X13120182Y-13566460D02*
X13139230Y-13575984D01*
X13139230Y-13575984D02*
X13177325Y-13575984D01*
X13177325Y-13575984D02*
X13196372Y-13566460D01*
X13196372Y-13566460D02*
X13205896Y-13547412D01*
X13205896Y-13547412D02*
X13205896Y-13537888D01*
X13205896Y-13537888D02*
X13196372Y-13518841D01*
X13196372Y-13518841D02*
X13177325Y-13509317D01*
X13177325Y-13509317D02*
X13148753Y-13509317D01*
X13148753Y-13509317D02*
X13129706Y-13499793D01*
X13129706Y-13499793D02*
X13120182Y-13480746D01*
X13120182Y-13480746D02*
X13120182Y-13471222D01*
X13120182Y-13471222D02*
X13129706Y-13452174D01*
X13129706Y-13452174D02*
X13148753Y-13442650D01*
X13148753Y-13442650D02*
X13177325Y-13442650D01*
X13177325Y-13442650D02*
X13196372Y-13452174D01*
X13272563Y-13652174D02*
X13282087Y-13642650D01*
X13282087Y-13642650D02*
X13301134Y-13614079D01*
X13301134Y-13614079D02*
X13310658Y-13595031D01*
X13310658Y-13595031D02*
X13320182Y-13566460D01*
X13320182Y-13566460D02*
X13329706Y-13518841D01*
X13329706Y-13518841D02*
X13329706Y-13480746D01*
X13329706Y-13480746D02*
X13320182Y-13433127D01*
X13320182Y-13433127D02*
X13310658Y-13404555D01*
X13310658Y-13404555D02*
X13301134Y-13385508D01*
X13301134Y-13385508D02*
X13282087Y-13356936D01*
X13282087Y-13356936D02*
X13272563Y-13347412D01*
D14*
X8432500Y-13813500D02*
X8497500Y-13748500D01*
X8432500Y-13683500D01*
X8367500Y-13748500D01*
X8432500Y-13813500D01*
D11*
X8863039Y-13839984D02*
X8748753Y-13839984D01*
X8805896Y-13839984D02*
X8805896Y-13639984D01*
X8805896Y-13639984D02*
X8786848Y-13668555D01*
X8786848Y-13668555D02*
X8767801Y-13687603D01*
X8767801Y-13687603D02*
X8748753Y-13697127D01*
X8948753Y-13820936D02*
X8958277Y-13830460D01*
X8958277Y-13830460D02*
X8948753Y-13839984D01*
X8948753Y-13839984D02*
X8939229Y-13830460D01*
X8939229Y-13830460D02*
X8948753Y-13820936D01*
X8948753Y-13820936D02*
X8948753Y-13839984D01*
X9024944Y-13639984D02*
X9148753Y-13639984D01*
X9148753Y-13639984D02*
X9082086Y-13716174D01*
X9082086Y-13716174D02*
X9110658Y-13716174D01*
X9110658Y-13716174D02*
X9129705Y-13725698D01*
X9129705Y-13725698D02*
X9139229Y-13735222D01*
X9139229Y-13735222D02*
X9148753Y-13754269D01*
X9148753Y-13754269D02*
X9148753Y-13801888D01*
X9148753Y-13801888D02*
X9139229Y-13820936D01*
X9139229Y-13820936D02*
X9129705Y-13830460D01*
X9129705Y-13830460D02*
X9110658Y-13839984D01*
X9110658Y-13839984D02*
X9053515Y-13839984D01*
X9053515Y-13839984D02*
X9034467Y-13830460D01*
X9034467Y-13830460D02*
X9024944Y-13820936D01*
X9272563Y-13639984D02*
X9291610Y-13639984D01*
X9291610Y-13639984D02*
X9310658Y-13649508D01*
X9310658Y-13649508D02*
X9320182Y-13659031D01*
X9320182Y-13659031D02*
X9329705Y-13678079D01*
X9329705Y-13678079D02*
X9339229Y-13716174D01*
X9339229Y-13716174D02*
X9339229Y-13763793D01*
X9339229Y-13763793D02*
X9329705Y-13801888D01*
X9329705Y-13801888D02*
X9320182Y-13820936D01*
X9320182Y-13820936D02*
X9310658Y-13830460D01*
X9310658Y-13830460D02*
X9291610Y-13839984D01*
X9291610Y-13839984D02*
X9272563Y-13839984D01*
X9272563Y-13839984D02*
X9253515Y-13830460D01*
X9253515Y-13830460D02*
X9243991Y-13820936D01*
X9243991Y-13820936D02*
X9234467Y-13801888D01*
X9234467Y-13801888D02*
X9224944Y-13763793D01*
X9224944Y-13763793D02*
X9224944Y-13716174D01*
X9224944Y-13716174D02*
X9234467Y-13678079D01*
X9234467Y-13678079D02*
X9243991Y-13659031D01*
X9243991Y-13659031D02*
X9253515Y-13649508D01*
X9253515Y-13649508D02*
X9272563Y-13639984D01*
X9463039Y-13639984D02*
X9482086Y-13639984D01*
X9482086Y-13639984D02*
X9501134Y-13649508D01*
X9501134Y-13649508D02*
X9510658Y-13659031D01*
X9510658Y-13659031D02*
X9520182Y-13678079D01*
X9520182Y-13678079D02*
X9529705Y-13716174D01*
X9529705Y-13716174D02*
X9529705Y-13763793D01*
X9529705Y-13763793D02*
X9520182Y-13801888D01*
X9520182Y-13801888D02*
X9510658Y-13820936D01*
X9510658Y-13820936D02*
X9501134Y-13830460D01*
X9501134Y-13830460D02*
X9482086Y-13839984D01*
X9482086Y-13839984D02*
X9463039Y-13839984D01*
X9463039Y-13839984D02*
X9443991Y-13830460D01*
X9443991Y-13830460D02*
X9434467Y-13820936D01*
X9434467Y-13820936D02*
X9424944Y-13801888D01*
X9424944Y-13801888D02*
X9415420Y-13763793D01*
X9415420Y-13763793D02*
X9415420Y-13716174D01*
X9415420Y-13716174D02*
X9424944Y-13678079D01*
X9424944Y-13678079D02*
X9434467Y-13659031D01*
X9434467Y-13659031D02*
X9443991Y-13649508D01*
X9443991Y-13649508D02*
X9463039Y-13639984D01*
X9615420Y-13839984D02*
X9615420Y-13706650D01*
X9615420Y-13725698D02*
X9624944Y-13716174D01*
X9624944Y-13716174D02*
X9643991Y-13706650D01*
X9643991Y-13706650D02*
X9672563Y-13706650D01*
X9672563Y-13706650D02*
X9691610Y-13716174D01*
X9691610Y-13716174D02*
X9701134Y-13735222D01*
X9701134Y-13735222D02*
X9701134Y-13839984D01*
X9701134Y-13735222D02*
X9710658Y-13716174D01*
X9710658Y-13716174D02*
X9729705Y-13706650D01*
X9729705Y-13706650D02*
X9758277Y-13706650D01*
X9758277Y-13706650D02*
X9777325Y-13716174D01*
X9777325Y-13716174D02*
X9786848Y-13735222D01*
X9786848Y-13735222D02*
X9786848Y-13839984D01*
X9882086Y-13839984D02*
X9882086Y-13706650D01*
X9882086Y-13725698D02*
X9891610Y-13716174D01*
X9891610Y-13716174D02*
X9910658Y-13706650D01*
X9910658Y-13706650D02*
X9939229Y-13706650D01*
X9939229Y-13706650D02*
X9958277Y-13716174D01*
X9958277Y-13716174D02*
X9967801Y-13735222D01*
X9967801Y-13735222D02*
X9967801Y-13839984D01*
X9967801Y-13735222D02*
X9977325Y-13716174D01*
X9977325Y-13716174D02*
X9996372Y-13706650D01*
X9996372Y-13706650D02*
X10024944Y-13706650D01*
X10024944Y-13706650D02*
X10043991Y-13716174D01*
X10043991Y-13716174D02*
X10053515Y-13735222D01*
X10053515Y-13735222D02*
X10053515Y-13839984D01*
X10443991Y-13630460D02*
X10272563Y-13887603D01*
X10701134Y-13639984D02*
X10720182Y-13639984D01*
X10720182Y-13639984D02*
X10739229Y-13649508D01*
X10739229Y-13649508D02*
X10748753Y-13659031D01*
X10748753Y-13659031D02*
X10758277Y-13678079D01*
X10758277Y-13678079D02*
X10767801Y-13716174D01*
X10767801Y-13716174D02*
X10767801Y-13763793D01*
X10767801Y-13763793D02*
X10758277Y-13801888D01*
X10758277Y-13801888D02*
X10748753Y-13820936D01*
X10748753Y-13820936D02*
X10739229Y-13830460D01*
X10739229Y-13830460D02*
X10720182Y-13839984D01*
X10720182Y-13839984D02*
X10701134Y-13839984D01*
X10701134Y-13839984D02*
X10682087Y-13830460D01*
X10682087Y-13830460D02*
X10672563Y-13820936D01*
X10672563Y-13820936D02*
X10663039Y-13801888D01*
X10663039Y-13801888D02*
X10653515Y-13763793D01*
X10653515Y-13763793D02*
X10653515Y-13716174D01*
X10653515Y-13716174D02*
X10663039Y-13678079D01*
X10663039Y-13678079D02*
X10672563Y-13659031D01*
X10672563Y-13659031D02*
X10682087Y-13649508D01*
X10682087Y-13649508D02*
X10701134Y-13639984D01*
X10853515Y-13820936D02*
X10863039Y-13830460D01*
X10863039Y-13830460D02*
X10853515Y-13839984D01*
X10853515Y-13839984D02*
X10843991Y-13830460D01*
X10843991Y-13830460D02*
X10853515Y-13820936D01*
X10853515Y-13820936D02*
X10853515Y-13839984D01*
X10986848Y-13639984D02*
X11005896Y-13639984D01*
X11005896Y-13639984D02*
X11024944Y-13649508D01*
X11024944Y-13649508D02*
X11034468Y-13659031D01*
X11034468Y-13659031D02*
X11043991Y-13678079D01*
X11043991Y-13678079D02*
X11053515Y-13716174D01*
X11053515Y-13716174D02*
X11053515Y-13763793D01*
X11053515Y-13763793D02*
X11043991Y-13801888D01*
X11043991Y-13801888D02*
X11034468Y-13820936D01*
X11034468Y-13820936D02*
X11024944Y-13830460D01*
X11024944Y-13830460D02*
X11005896Y-13839984D01*
X11005896Y-13839984D02*
X10986848Y-13839984D01*
X10986848Y-13839984D02*
X10967801Y-13830460D01*
X10967801Y-13830460D02*
X10958277Y-13820936D01*
X10958277Y-13820936D02*
X10948753Y-13801888D01*
X10948753Y-13801888D02*
X10939229Y-13763793D01*
X10939229Y-13763793D02*
X10939229Y-13716174D01*
X10939229Y-13716174D02*
X10948753Y-13678079D01*
X10948753Y-13678079D02*
X10958277Y-13659031D01*
X10958277Y-13659031D02*
X10967801Y-13649508D01*
X10967801Y-13649508D02*
X10986848Y-13639984D01*
X11234467Y-13639984D02*
X11139229Y-13639984D01*
X11139229Y-13639984D02*
X11129706Y-13735222D01*
X11129706Y-13735222D02*
X11139229Y-13725698D01*
X11139229Y-13725698D02*
X11158277Y-13716174D01*
X11158277Y-13716174D02*
X11205896Y-13716174D01*
X11205896Y-13716174D02*
X11224944Y-13725698D01*
X11224944Y-13725698D02*
X11234467Y-13735222D01*
X11234467Y-13735222D02*
X11243991Y-13754269D01*
X11243991Y-13754269D02*
X11243991Y-13801888D01*
X11243991Y-13801888D02*
X11234467Y-13820936D01*
X11234467Y-13820936D02*
X11224944Y-13830460D01*
X11224944Y-13830460D02*
X11205896Y-13839984D01*
X11205896Y-13839984D02*
X11158277Y-13839984D01*
X11158277Y-13839984D02*
X11139229Y-13830460D01*
X11139229Y-13830460D02*
X11129706Y-13820936D01*
X11434467Y-13839984D02*
X11320182Y-13839984D01*
X11377325Y-13839984D02*
X11377325Y-13639984D01*
X11377325Y-13639984D02*
X11358277Y-13668555D01*
X11358277Y-13668555D02*
X11339229Y-13687603D01*
X11339229Y-13687603D02*
X11320182Y-13697127D01*
X11510658Y-13659031D02*
X11520182Y-13649508D01*
X11520182Y-13649508D02*
X11539229Y-13639984D01*
X11539229Y-13639984D02*
X11586848Y-13639984D01*
X11586848Y-13639984D02*
X11605896Y-13649508D01*
X11605896Y-13649508D02*
X11615420Y-13659031D01*
X11615420Y-13659031D02*
X11624944Y-13678079D01*
X11624944Y-13678079D02*
X11624944Y-13697127D01*
X11624944Y-13697127D02*
X11615420Y-13725698D01*
X11615420Y-13725698D02*
X11501134Y-13839984D01*
X11501134Y-13839984D02*
X11624944Y-13839984D01*
X11701134Y-13639984D02*
X11701134Y-13678079D01*
X11777325Y-13639984D02*
X11777325Y-13678079D01*
X12072563Y-13916174D02*
X12063039Y-13906650D01*
X12063039Y-13906650D02*
X12043991Y-13878079D01*
X12043991Y-13878079D02*
X12034468Y-13859031D01*
X12034468Y-13859031D02*
X12024944Y-13830460D01*
X12024944Y-13830460D02*
X12015420Y-13782841D01*
X12015420Y-13782841D02*
X12015420Y-13744746D01*
X12015420Y-13744746D02*
X12024944Y-13697127D01*
X12024944Y-13697127D02*
X12034468Y-13668555D01*
X12034468Y-13668555D02*
X12043991Y-13649508D01*
X12043991Y-13649508D02*
X12063039Y-13620936D01*
X12063039Y-13620936D02*
X12072563Y-13611412D01*
X12243991Y-13639984D02*
X12148753Y-13639984D01*
X12148753Y-13639984D02*
X12139229Y-13735222D01*
X12139229Y-13735222D02*
X12148753Y-13725698D01*
X12148753Y-13725698D02*
X12167801Y-13716174D01*
X12167801Y-13716174D02*
X12215420Y-13716174D01*
X12215420Y-13716174D02*
X12234468Y-13725698D01*
X12234468Y-13725698D02*
X12243991Y-13735222D01*
X12243991Y-13735222D02*
X12253515Y-13754269D01*
X12253515Y-13754269D02*
X12253515Y-13801888D01*
X12253515Y-13801888D02*
X12243991Y-13820936D01*
X12243991Y-13820936D02*
X12234468Y-13830460D01*
X12234468Y-13830460D02*
X12215420Y-13839984D01*
X12215420Y-13839984D02*
X12167801Y-13839984D01*
X12167801Y-13839984D02*
X12148753Y-13830460D01*
X12148753Y-13830460D02*
X12139229Y-13820936D01*
X12491610Y-13839984D02*
X12491610Y-13639984D01*
X12577325Y-13839984D02*
X12577325Y-13735222D01*
X12577325Y-13735222D02*
X12567801Y-13716174D01*
X12567801Y-13716174D02*
X12548753Y-13706650D01*
X12548753Y-13706650D02*
X12520182Y-13706650D01*
X12520182Y-13706650D02*
X12501134Y-13716174D01*
X12501134Y-13716174D02*
X12491610Y-13725698D01*
X12701134Y-13839984D02*
X12682087Y-13830460D01*
X12682087Y-13830460D02*
X12672563Y-13820936D01*
X12672563Y-13820936D02*
X12663039Y-13801888D01*
X12663039Y-13801888D02*
X12663039Y-13744746D01*
X12663039Y-13744746D02*
X12672563Y-13725698D01*
X12672563Y-13725698D02*
X12682087Y-13716174D01*
X12682087Y-13716174D02*
X12701134Y-13706650D01*
X12701134Y-13706650D02*
X12729706Y-13706650D01*
X12729706Y-13706650D02*
X12748753Y-13716174D01*
X12748753Y-13716174D02*
X12758277Y-13725698D01*
X12758277Y-13725698D02*
X12767801Y-13744746D01*
X12767801Y-13744746D02*
X12767801Y-13801888D01*
X12767801Y-13801888D02*
X12758277Y-13820936D01*
X12758277Y-13820936D02*
X12748753Y-13830460D01*
X12748753Y-13830460D02*
X12729706Y-13839984D01*
X12729706Y-13839984D02*
X12701134Y-13839984D01*
X12882087Y-13839984D02*
X12863039Y-13830460D01*
X12863039Y-13830460D02*
X12853515Y-13811412D01*
X12853515Y-13811412D02*
X12853515Y-13639984D01*
X13034468Y-13830460D02*
X13015420Y-13839984D01*
X13015420Y-13839984D02*
X12977325Y-13839984D01*
X12977325Y-13839984D02*
X12958277Y-13830460D01*
X12958277Y-13830460D02*
X12948753Y-13811412D01*
X12948753Y-13811412D02*
X12948753Y-13735222D01*
X12948753Y-13735222D02*
X12958277Y-13716174D01*
X12958277Y-13716174D02*
X12977325Y-13706650D01*
X12977325Y-13706650D02*
X13015420Y-13706650D01*
X13015420Y-13706650D02*
X13034468Y-13716174D01*
X13034468Y-13716174D02*
X13043991Y-13735222D01*
X13043991Y-13735222D02*
X13043991Y-13754269D01*
X13043991Y-13754269D02*
X12948753Y-13773317D01*
X13120182Y-13830460D02*
X13139230Y-13839984D01*
X13139230Y-13839984D02*
X13177325Y-13839984D01*
X13177325Y-13839984D02*
X13196372Y-13830460D01*
X13196372Y-13830460D02*
X13205896Y-13811412D01*
X13205896Y-13811412D02*
X13205896Y-13801888D01*
X13205896Y-13801888D02*
X13196372Y-13782841D01*
X13196372Y-13782841D02*
X13177325Y-13773317D01*
X13177325Y-13773317D02*
X13148753Y-13773317D01*
X13148753Y-13773317D02*
X13129706Y-13763793D01*
X13129706Y-13763793D02*
X13120182Y-13744746D01*
X13120182Y-13744746D02*
X13120182Y-13735222D01*
X13120182Y-13735222D02*
X13129706Y-13716174D01*
X13129706Y-13716174D02*
X13148753Y-13706650D01*
X13148753Y-13706650D02*
X13177325Y-13706650D01*
X13177325Y-13706650D02*
X13196372Y-13716174D01*
X13272563Y-13916174D02*
X13282087Y-13906650D01*
X13282087Y-13906650D02*
X13301134Y-13878079D01*
X13301134Y-13878079D02*
X13310658Y-13859031D01*
X13310658Y-13859031D02*
X13320182Y-13830460D01*
X13320182Y-13830460D02*
X13329706Y-13782841D01*
X13329706Y-13782841D02*
X13329706Y-13744746D01*
X13329706Y-13744746D02*
X13320182Y-13697127D01*
X13320182Y-13697127D02*
X13310658Y-13668555D01*
X13310658Y-13668555D02*
X13301134Y-13649508D01*
X13301134Y-13649508D02*
X13282087Y-13620936D01*
X13282087Y-13620936D02*
X13272563Y-13611412D01*
D15*
X8347500Y-13937500D02*
X8497500Y-14087500D01*
X8497500Y-13937500D02*
X8347500Y-14087500D01*
X8497500Y-14012500D02*
G75*
G02*
X8347500Y-14012500I-75000J0D01*
G01*
X8347500Y-14012500D02*
G75*
G02*
X8497500Y-14012500I75000J0D01*
G01*
D11*
X8863039Y-14103984D02*
X8748753Y-14103984D01*
X8805896Y-14103984D02*
X8805896Y-13903984D01*
X8805896Y-13903984D02*
X8786848Y-13932555D01*
X8786848Y-13932555D02*
X8767801Y-13951603D01*
X8767801Y-13951603D02*
X8748753Y-13961127D01*
X8948753Y-14084936D02*
X8958277Y-14094460D01*
X8958277Y-14094460D02*
X8948753Y-14103984D01*
X8948753Y-14103984D02*
X8939229Y-14094460D01*
X8939229Y-14094460D02*
X8948753Y-14084936D01*
X8948753Y-14084936D02*
X8948753Y-14103984D01*
X9139229Y-13903984D02*
X9043991Y-13903984D01*
X9043991Y-13903984D02*
X9034467Y-13999222D01*
X9034467Y-13999222D02*
X9043991Y-13989698D01*
X9043991Y-13989698D02*
X9063039Y-13980174D01*
X9063039Y-13980174D02*
X9110658Y-13980174D01*
X9110658Y-13980174D02*
X9129705Y-13989698D01*
X9129705Y-13989698D02*
X9139229Y-13999222D01*
X9139229Y-13999222D02*
X9148753Y-14018269D01*
X9148753Y-14018269D02*
X9148753Y-14065888D01*
X9148753Y-14065888D02*
X9139229Y-14084936D01*
X9139229Y-14084936D02*
X9129705Y-14094460D01*
X9129705Y-14094460D02*
X9110658Y-14103984D01*
X9110658Y-14103984D02*
X9063039Y-14103984D01*
X9063039Y-14103984D02*
X9043991Y-14094460D01*
X9043991Y-14094460D02*
X9034467Y-14084936D01*
X9272563Y-13903984D02*
X9291610Y-13903984D01*
X9291610Y-13903984D02*
X9310658Y-13913508D01*
X9310658Y-13913508D02*
X9320182Y-13923031D01*
X9320182Y-13923031D02*
X9329705Y-13942079D01*
X9329705Y-13942079D02*
X9339229Y-13980174D01*
X9339229Y-13980174D02*
X9339229Y-14027793D01*
X9339229Y-14027793D02*
X9329705Y-14065888D01*
X9329705Y-14065888D02*
X9320182Y-14084936D01*
X9320182Y-14084936D02*
X9310658Y-14094460D01*
X9310658Y-14094460D02*
X9291610Y-14103984D01*
X9291610Y-14103984D02*
X9272563Y-14103984D01*
X9272563Y-14103984D02*
X9253515Y-14094460D01*
X9253515Y-14094460D02*
X9243991Y-14084936D01*
X9243991Y-14084936D02*
X9234467Y-14065888D01*
X9234467Y-14065888D02*
X9224944Y-14027793D01*
X9224944Y-14027793D02*
X9224944Y-13980174D01*
X9224944Y-13980174D02*
X9234467Y-13942079D01*
X9234467Y-13942079D02*
X9243991Y-13923031D01*
X9243991Y-13923031D02*
X9253515Y-13913508D01*
X9253515Y-13913508D02*
X9272563Y-13903984D01*
X9463039Y-13903984D02*
X9482086Y-13903984D01*
X9482086Y-13903984D02*
X9501134Y-13913508D01*
X9501134Y-13913508D02*
X9510658Y-13923031D01*
X9510658Y-13923031D02*
X9520182Y-13942079D01*
X9520182Y-13942079D02*
X9529705Y-13980174D01*
X9529705Y-13980174D02*
X9529705Y-14027793D01*
X9529705Y-14027793D02*
X9520182Y-14065888D01*
X9520182Y-14065888D02*
X9510658Y-14084936D01*
X9510658Y-14084936D02*
X9501134Y-14094460D01*
X9501134Y-14094460D02*
X9482086Y-14103984D01*
X9482086Y-14103984D02*
X9463039Y-14103984D01*
X9463039Y-14103984D02*
X9443991Y-14094460D01*
X9443991Y-14094460D02*
X9434467Y-14084936D01*
X9434467Y-14084936D02*
X9424944Y-14065888D01*
X9424944Y-14065888D02*
X9415420Y-14027793D01*
X9415420Y-14027793D02*
X9415420Y-13980174D01*
X9415420Y-13980174D02*
X9424944Y-13942079D01*
X9424944Y-13942079D02*
X9434467Y-13923031D01*
X9434467Y-13923031D02*
X9443991Y-13913508D01*
X9443991Y-13913508D02*
X9463039Y-13903984D01*
X9615420Y-14103984D02*
X9615420Y-13970650D01*
X9615420Y-13989698D02*
X9624944Y-13980174D01*
X9624944Y-13980174D02*
X9643991Y-13970650D01*
X9643991Y-13970650D02*
X9672563Y-13970650D01*
X9672563Y-13970650D02*
X9691610Y-13980174D01*
X9691610Y-13980174D02*
X9701134Y-13999222D01*
X9701134Y-13999222D02*
X9701134Y-14103984D01*
X9701134Y-13999222D02*
X9710658Y-13980174D01*
X9710658Y-13980174D02*
X9729705Y-13970650D01*
X9729705Y-13970650D02*
X9758277Y-13970650D01*
X9758277Y-13970650D02*
X9777325Y-13980174D01*
X9777325Y-13980174D02*
X9786848Y-13999222D01*
X9786848Y-13999222D02*
X9786848Y-14103984D01*
X9882086Y-14103984D02*
X9882086Y-13970650D01*
X9882086Y-13989698D02*
X9891610Y-13980174D01*
X9891610Y-13980174D02*
X9910658Y-13970650D01*
X9910658Y-13970650D02*
X9939229Y-13970650D01*
X9939229Y-13970650D02*
X9958277Y-13980174D01*
X9958277Y-13980174D02*
X9967801Y-13999222D01*
X9967801Y-13999222D02*
X9967801Y-14103984D01*
X9967801Y-13999222D02*
X9977325Y-13980174D01*
X9977325Y-13980174D02*
X9996372Y-13970650D01*
X9996372Y-13970650D02*
X10024944Y-13970650D01*
X10024944Y-13970650D02*
X10043991Y-13980174D01*
X10043991Y-13980174D02*
X10053515Y-13999222D01*
X10053515Y-13999222D02*
X10053515Y-14103984D01*
X10443991Y-13894460D02*
X10272563Y-14151603D01*
X10701134Y-13903984D02*
X10720182Y-13903984D01*
X10720182Y-13903984D02*
X10739229Y-13913508D01*
X10739229Y-13913508D02*
X10748753Y-13923031D01*
X10748753Y-13923031D02*
X10758277Y-13942079D01*
X10758277Y-13942079D02*
X10767801Y-13980174D01*
X10767801Y-13980174D02*
X10767801Y-14027793D01*
X10767801Y-14027793D02*
X10758277Y-14065888D01*
X10758277Y-14065888D02*
X10748753Y-14084936D01*
X10748753Y-14084936D02*
X10739229Y-14094460D01*
X10739229Y-14094460D02*
X10720182Y-14103984D01*
X10720182Y-14103984D02*
X10701134Y-14103984D01*
X10701134Y-14103984D02*
X10682087Y-14094460D01*
X10682087Y-14094460D02*
X10672563Y-14084936D01*
X10672563Y-14084936D02*
X10663039Y-14065888D01*
X10663039Y-14065888D02*
X10653515Y-14027793D01*
X10653515Y-14027793D02*
X10653515Y-13980174D01*
X10653515Y-13980174D02*
X10663039Y-13942079D01*
X10663039Y-13942079D02*
X10672563Y-13923031D01*
X10672563Y-13923031D02*
X10682087Y-13913508D01*
X10682087Y-13913508D02*
X10701134Y-13903984D01*
X10853515Y-14084936D02*
X10863039Y-14094460D01*
X10863039Y-14094460D02*
X10853515Y-14103984D01*
X10853515Y-14103984D02*
X10843991Y-14094460D01*
X10843991Y-14094460D02*
X10853515Y-14084936D01*
X10853515Y-14084936D02*
X10853515Y-14103984D01*
X10986848Y-13903984D02*
X11005896Y-13903984D01*
X11005896Y-13903984D02*
X11024944Y-13913508D01*
X11024944Y-13913508D02*
X11034468Y-13923031D01*
X11034468Y-13923031D02*
X11043991Y-13942079D01*
X11043991Y-13942079D02*
X11053515Y-13980174D01*
X11053515Y-13980174D02*
X11053515Y-14027793D01*
X11053515Y-14027793D02*
X11043991Y-14065888D01*
X11043991Y-14065888D02*
X11034468Y-14084936D01*
X11034468Y-14084936D02*
X11024944Y-14094460D01*
X11024944Y-14094460D02*
X11005896Y-14103984D01*
X11005896Y-14103984D02*
X10986848Y-14103984D01*
X10986848Y-14103984D02*
X10967801Y-14094460D01*
X10967801Y-14094460D02*
X10958277Y-14084936D01*
X10958277Y-14084936D02*
X10948753Y-14065888D01*
X10948753Y-14065888D02*
X10939229Y-14027793D01*
X10939229Y-14027793D02*
X10939229Y-13980174D01*
X10939229Y-13980174D02*
X10948753Y-13942079D01*
X10948753Y-13942079D02*
X10958277Y-13923031D01*
X10958277Y-13923031D02*
X10967801Y-13913508D01*
X10967801Y-13913508D02*
X10986848Y-13903984D01*
X11234467Y-13903984D02*
X11139229Y-13903984D01*
X11139229Y-13903984D02*
X11129706Y-13999222D01*
X11129706Y-13999222D02*
X11139229Y-13989698D01*
X11139229Y-13989698D02*
X11158277Y-13980174D01*
X11158277Y-13980174D02*
X11205896Y-13980174D01*
X11205896Y-13980174D02*
X11224944Y-13989698D01*
X11224944Y-13989698D02*
X11234467Y-13999222D01*
X11234467Y-13999222D02*
X11243991Y-14018269D01*
X11243991Y-14018269D02*
X11243991Y-14065888D01*
X11243991Y-14065888D02*
X11234467Y-14084936D01*
X11234467Y-14084936D02*
X11224944Y-14094460D01*
X11224944Y-14094460D02*
X11205896Y-14103984D01*
X11205896Y-14103984D02*
X11158277Y-14103984D01*
X11158277Y-14103984D02*
X11139229Y-14094460D01*
X11139229Y-14094460D02*
X11129706Y-14084936D01*
X11339229Y-14103984D02*
X11377325Y-14103984D01*
X11377325Y-14103984D02*
X11396372Y-14094460D01*
X11396372Y-14094460D02*
X11405896Y-14084936D01*
X11405896Y-14084936D02*
X11424944Y-14056365D01*
X11424944Y-14056365D02*
X11434467Y-14018269D01*
X11434467Y-14018269D02*
X11434467Y-13942079D01*
X11434467Y-13942079D02*
X11424944Y-13923031D01*
X11424944Y-13923031D02*
X11415420Y-13913508D01*
X11415420Y-13913508D02*
X11396372Y-13903984D01*
X11396372Y-13903984D02*
X11358277Y-13903984D01*
X11358277Y-13903984D02*
X11339229Y-13913508D01*
X11339229Y-13913508D02*
X11329706Y-13923031D01*
X11329706Y-13923031D02*
X11320182Y-13942079D01*
X11320182Y-13942079D02*
X11320182Y-13989698D01*
X11320182Y-13989698D02*
X11329706Y-14008746D01*
X11329706Y-14008746D02*
X11339229Y-14018269D01*
X11339229Y-14018269D02*
X11358277Y-14027793D01*
X11358277Y-14027793D02*
X11396372Y-14027793D01*
X11396372Y-14027793D02*
X11415420Y-14018269D01*
X11415420Y-14018269D02*
X11424944Y-14008746D01*
X11424944Y-14008746D02*
X11434467Y-13989698D01*
X11624944Y-14103984D02*
X11510658Y-14103984D01*
X11567801Y-14103984D02*
X11567801Y-13903984D01*
X11567801Y-13903984D02*
X11548753Y-13932555D01*
X11548753Y-13932555D02*
X11529706Y-13951603D01*
X11529706Y-13951603D02*
X11510658Y-13961127D01*
X11701134Y-13903984D02*
X11701134Y-13942079D01*
X11777325Y-13903984D02*
X11777325Y-13942079D01*
X12072563Y-14180174D02*
X12063039Y-14170650D01*
X12063039Y-14170650D02*
X12043991Y-14142079D01*
X12043991Y-14142079D02*
X12034468Y-14123031D01*
X12034468Y-14123031D02*
X12024944Y-14094460D01*
X12024944Y-14094460D02*
X12015420Y-14046841D01*
X12015420Y-14046841D02*
X12015420Y-14008746D01*
X12015420Y-14008746D02*
X12024944Y-13961127D01*
X12024944Y-13961127D02*
X12034468Y-13932555D01*
X12034468Y-13932555D02*
X12043991Y-13913508D01*
X12043991Y-13913508D02*
X12063039Y-13884936D01*
X12063039Y-13884936D02*
X12072563Y-13875412D01*
X12253515Y-14103984D02*
X12139229Y-14103984D01*
X12196372Y-14103984D02*
X12196372Y-13903984D01*
X12196372Y-13903984D02*
X12177325Y-13932555D01*
X12177325Y-13932555D02*
X12158277Y-13951603D01*
X12158277Y-13951603D02*
X12139229Y-13961127D01*
X12491610Y-14103984D02*
X12491610Y-13903984D01*
X12577325Y-14103984D02*
X12577325Y-13999222D01*
X12577325Y-13999222D02*
X12567801Y-13980174D01*
X12567801Y-13980174D02*
X12548753Y-13970650D01*
X12548753Y-13970650D02*
X12520182Y-13970650D01*
X12520182Y-13970650D02*
X12501134Y-13980174D01*
X12501134Y-13980174D02*
X12491610Y-13989698D01*
X12701134Y-14103984D02*
X12682087Y-14094460D01*
X12682087Y-14094460D02*
X12672563Y-14084936D01*
X12672563Y-14084936D02*
X12663039Y-14065888D01*
X12663039Y-14065888D02*
X12663039Y-14008746D01*
X12663039Y-14008746D02*
X12672563Y-13989698D01*
X12672563Y-13989698D02*
X12682087Y-13980174D01*
X12682087Y-13980174D02*
X12701134Y-13970650D01*
X12701134Y-13970650D02*
X12729706Y-13970650D01*
X12729706Y-13970650D02*
X12748753Y-13980174D01*
X12748753Y-13980174D02*
X12758277Y-13989698D01*
X12758277Y-13989698D02*
X12767801Y-14008746D01*
X12767801Y-14008746D02*
X12767801Y-14065888D01*
X12767801Y-14065888D02*
X12758277Y-14084936D01*
X12758277Y-14084936D02*
X12748753Y-14094460D01*
X12748753Y-14094460D02*
X12729706Y-14103984D01*
X12729706Y-14103984D02*
X12701134Y-14103984D01*
X12882087Y-14103984D02*
X12863039Y-14094460D01*
X12863039Y-14094460D02*
X12853515Y-14075412D01*
X12853515Y-14075412D02*
X12853515Y-13903984D01*
X13034468Y-14094460D02*
X13015420Y-14103984D01*
X13015420Y-14103984D02*
X12977325Y-14103984D01*
X12977325Y-14103984D02*
X12958277Y-14094460D01*
X12958277Y-14094460D02*
X12948753Y-14075412D01*
X12948753Y-14075412D02*
X12948753Y-13999222D01*
X12948753Y-13999222D02*
X12958277Y-13980174D01*
X12958277Y-13980174D02*
X12977325Y-13970650D01*
X12977325Y-13970650D02*
X13015420Y-13970650D01*
X13015420Y-13970650D02*
X13034468Y-13980174D01*
X13034468Y-13980174D02*
X13043991Y-13999222D01*
X13043991Y-13999222D02*
X13043991Y-14018269D01*
X13043991Y-14018269D02*
X12948753Y-14037317D01*
X13110658Y-14180174D02*
X13120182Y-14170650D01*
X13120182Y-14170650D02*
X13139230Y-14142079D01*
X13139230Y-14142079D02*
X13148753Y-14123031D01*
X13148753Y-14123031D02*
X13158277Y-14094460D01*
X13158277Y-14094460D02*
X13167801Y-14046841D01*
X13167801Y-14046841D02*
X13167801Y-14008746D01*
X13167801Y-14008746D02*
X13158277Y-13961127D01*
X13158277Y-13961127D02*
X13148753Y-13932555D01*
X13148753Y-13932555D02*
X13139230Y-13913508D01*
X13139230Y-13913508D02*
X13120182Y-13884936D01*
X13120182Y-13884936D02*
X13110658Y-13875412D01*
D16*
X8327500Y-14197500D02*
X8497500Y-14367500D01*
X8497500Y-14197500D02*
X8327500Y-14367500D01*
X8412500Y-14197500D02*
X8412500Y-14367500D01*
X8327500Y-14282500D02*
X8497500Y-14282500D01*
D11*
X8863039Y-14373984D02*
X8748753Y-14373984D01*
X8805896Y-14373984D02*
X8805896Y-14173984D01*
X8805896Y-14173984D02*
X8786848Y-14202555D01*
X8786848Y-14202555D02*
X8767801Y-14221603D01*
X8767801Y-14221603D02*
X8748753Y-14231127D01*
X8948753Y-14354936D02*
X8958277Y-14364460D01*
X8958277Y-14364460D02*
X8948753Y-14373984D01*
X8948753Y-14373984D02*
X8939229Y-14364460D01*
X8939229Y-14364460D02*
X8948753Y-14354936D01*
X8948753Y-14354936D02*
X8948753Y-14373984D01*
X9024944Y-14173984D02*
X9158277Y-14173984D01*
X9158277Y-14173984D02*
X9072563Y-14373984D01*
X9272563Y-14173984D02*
X9291610Y-14173984D01*
X9291610Y-14173984D02*
X9310658Y-14183508D01*
X9310658Y-14183508D02*
X9320182Y-14193031D01*
X9320182Y-14193031D02*
X9329705Y-14212079D01*
X9329705Y-14212079D02*
X9339229Y-14250174D01*
X9339229Y-14250174D02*
X9339229Y-14297793D01*
X9339229Y-14297793D02*
X9329705Y-14335888D01*
X9329705Y-14335888D02*
X9320182Y-14354936D01*
X9320182Y-14354936D02*
X9310658Y-14364460D01*
X9310658Y-14364460D02*
X9291610Y-14373984D01*
X9291610Y-14373984D02*
X9272563Y-14373984D01*
X9272563Y-14373984D02*
X9253515Y-14364460D01*
X9253515Y-14364460D02*
X9243991Y-14354936D01*
X9243991Y-14354936D02*
X9234467Y-14335888D01*
X9234467Y-14335888D02*
X9224944Y-14297793D01*
X9224944Y-14297793D02*
X9224944Y-14250174D01*
X9224944Y-14250174D02*
X9234467Y-14212079D01*
X9234467Y-14212079D02*
X9243991Y-14193031D01*
X9243991Y-14193031D02*
X9253515Y-14183508D01*
X9253515Y-14183508D02*
X9272563Y-14173984D01*
X9463039Y-14173984D02*
X9482086Y-14173984D01*
X9482086Y-14173984D02*
X9501134Y-14183508D01*
X9501134Y-14183508D02*
X9510658Y-14193031D01*
X9510658Y-14193031D02*
X9520182Y-14212079D01*
X9520182Y-14212079D02*
X9529705Y-14250174D01*
X9529705Y-14250174D02*
X9529705Y-14297793D01*
X9529705Y-14297793D02*
X9520182Y-14335888D01*
X9520182Y-14335888D02*
X9510658Y-14354936D01*
X9510658Y-14354936D02*
X9501134Y-14364460D01*
X9501134Y-14364460D02*
X9482086Y-14373984D01*
X9482086Y-14373984D02*
X9463039Y-14373984D01*
X9463039Y-14373984D02*
X9443991Y-14364460D01*
X9443991Y-14364460D02*
X9434467Y-14354936D01*
X9434467Y-14354936D02*
X9424944Y-14335888D01*
X9424944Y-14335888D02*
X9415420Y-14297793D01*
X9415420Y-14297793D02*
X9415420Y-14250174D01*
X9415420Y-14250174D02*
X9424944Y-14212079D01*
X9424944Y-14212079D02*
X9434467Y-14193031D01*
X9434467Y-14193031D02*
X9443991Y-14183508D01*
X9443991Y-14183508D02*
X9463039Y-14173984D01*
X9615420Y-14373984D02*
X9615420Y-14240650D01*
X9615420Y-14259698D02*
X9624944Y-14250174D01*
X9624944Y-14250174D02*
X9643991Y-14240650D01*
X9643991Y-14240650D02*
X9672563Y-14240650D01*
X9672563Y-14240650D02*
X9691610Y-14250174D01*
X9691610Y-14250174D02*
X9701134Y-14269222D01*
X9701134Y-14269222D02*
X9701134Y-14373984D01*
X9701134Y-14269222D02*
X9710658Y-14250174D01*
X9710658Y-14250174D02*
X9729705Y-14240650D01*
X9729705Y-14240650D02*
X9758277Y-14240650D01*
X9758277Y-14240650D02*
X9777325Y-14250174D01*
X9777325Y-14250174D02*
X9786848Y-14269222D01*
X9786848Y-14269222D02*
X9786848Y-14373984D01*
X9882086Y-14373984D02*
X9882086Y-14240650D01*
X9882086Y-14259698D02*
X9891610Y-14250174D01*
X9891610Y-14250174D02*
X9910658Y-14240650D01*
X9910658Y-14240650D02*
X9939229Y-14240650D01*
X9939229Y-14240650D02*
X9958277Y-14250174D01*
X9958277Y-14250174D02*
X9967801Y-14269222D01*
X9967801Y-14269222D02*
X9967801Y-14373984D01*
X9967801Y-14269222D02*
X9977325Y-14250174D01*
X9977325Y-14250174D02*
X9996372Y-14240650D01*
X9996372Y-14240650D02*
X10024944Y-14240650D01*
X10024944Y-14240650D02*
X10043991Y-14250174D01*
X10043991Y-14250174D02*
X10053515Y-14269222D01*
X10053515Y-14269222D02*
X10053515Y-14373984D01*
X10443991Y-14164460D02*
X10272563Y-14421603D01*
X10701134Y-14173984D02*
X10720182Y-14173984D01*
X10720182Y-14173984D02*
X10739229Y-14183508D01*
X10739229Y-14183508D02*
X10748753Y-14193031D01*
X10748753Y-14193031D02*
X10758277Y-14212079D01*
X10758277Y-14212079D02*
X10767801Y-14250174D01*
X10767801Y-14250174D02*
X10767801Y-14297793D01*
X10767801Y-14297793D02*
X10758277Y-14335888D01*
X10758277Y-14335888D02*
X10748753Y-14354936D01*
X10748753Y-14354936D02*
X10739229Y-14364460D01*
X10739229Y-14364460D02*
X10720182Y-14373984D01*
X10720182Y-14373984D02*
X10701134Y-14373984D01*
X10701134Y-14373984D02*
X10682087Y-14364460D01*
X10682087Y-14364460D02*
X10672563Y-14354936D01*
X10672563Y-14354936D02*
X10663039Y-14335888D01*
X10663039Y-14335888D02*
X10653515Y-14297793D01*
X10653515Y-14297793D02*
X10653515Y-14250174D01*
X10653515Y-14250174D02*
X10663039Y-14212079D01*
X10663039Y-14212079D02*
X10672563Y-14193031D01*
X10672563Y-14193031D02*
X10682087Y-14183508D01*
X10682087Y-14183508D02*
X10701134Y-14173984D01*
X10853515Y-14354936D02*
X10863039Y-14364460D01*
X10863039Y-14364460D02*
X10853515Y-14373984D01*
X10853515Y-14373984D02*
X10843991Y-14364460D01*
X10843991Y-14364460D02*
X10853515Y-14354936D01*
X10853515Y-14354936D02*
X10853515Y-14373984D01*
X10986848Y-14173984D02*
X11005896Y-14173984D01*
X11005896Y-14173984D02*
X11024944Y-14183508D01*
X11024944Y-14183508D02*
X11034468Y-14193031D01*
X11034468Y-14193031D02*
X11043991Y-14212079D01*
X11043991Y-14212079D02*
X11053515Y-14250174D01*
X11053515Y-14250174D02*
X11053515Y-14297793D01*
X11053515Y-14297793D02*
X11043991Y-14335888D01*
X11043991Y-14335888D02*
X11034468Y-14354936D01*
X11034468Y-14354936D02*
X11024944Y-14364460D01*
X11024944Y-14364460D02*
X11005896Y-14373984D01*
X11005896Y-14373984D02*
X10986848Y-14373984D01*
X10986848Y-14373984D02*
X10967801Y-14364460D01*
X10967801Y-14364460D02*
X10958277Y-14354936D01*
X10958277Y-14354936D02*
X10948753Y-14335888D01*
X10948753Y-14335888D02*
X10939229Y-14297793D01*
X10939229Y-14297793D02*
X10939229Y-14250174D01*
X10939229Y-14250174D02*
X10948753Y-14212079D01*
X10948753Y-14212079D02*
X10958277Y-14193031D01*
X10958277Y-14193031D02*
X10967801Y-14183508D01*
X10967801Y-14183508D02*
X10986848Y-14173984D01*
X11224944Y-14173984D02*
X11186848Y-14173984D01*
X11186848Y-14173984D02*
X11167801Y-14183508D01*
X11167801Y-14183508D02*
X11158277Y-14193031D01*
X11158277Y-14193031D02*
X11139229Y-14221603D01*
X11139229Y-14221603D02*
X11129706Y-14259698D01*
X11129706Y-14259698D02*
X11129706Y-14335888D01*
X11129706Y-14335888D02*
X11139229Y-14354936D01*
X11139229Y-14354936D02*
X11148753Y-14364460D01*
X11148753Y-14364460D02*
X11167801Y-14373984D01*
X11167801Y-14373984D02*
X11205896Y-14373984D01*
X11205896Y-14373984D02*
X11224944Y-14364460D01*
X11224944Y-14364460D02*
X11234467Y-14354936D01*
X11234467Y-14354936D02*
X11243991Y-14335888D01*
X11243991Y-14335888D02*
X11243991Y-14288269D01*
X11243991Y-14288269D02*
X11234467Y-14269222D01*
X11234467Y-14269222D02*
X11224944Y-14259698D01*
X11224944Y-14259698D02*
X11205896Y-14250174D01*
X11205896Y-14250174D02*
X11167801Y-14250174D01*
X11167801Y-14250174D02*
X11148753Y-14259698D01*
X11148753Y-14259698D02*
X11139229Y-14269222D01*
X11139229Y-14269222D02*
X11129706Y-14288269D01*
X11415420Y-14173984D02*
X11377325Y-14173984D01*
X11377325Y-14173984D02*
X11358277Y-14183508D01*
X11358277Y-14183508D02*
X11348753Y-14193031D01*
X11348753Y-14193031D02*
X11329706Y-14221603D01*
X11329706Y-14221603D02*
X11320182Y-14259698D01*
X11320182Y-14259698D02*
X11320182Y-14335888D01*
X11320182Y-14335888D02*
X11329706Y-14354936D01*
X11329706Y-14354936D02*
X11339229Y-14364460D01*
X11339229Y-14364460D02*
X11358277Y-14373984D01*
X11358277Y-14373984D02*
X11396372Y-14373984D01*
X11396372Y-14373984D02*
X11415420Y-14364460D01*
X11415420Y-14364460D02*
X11424944Y-14354936D01*
X11424944Y-14354936D02*
X11434467Y-14335888D01*
X11434467Y-14335888D02*
X11434467Y-14288269D01*
X11434467Y-14288269D02*
X11424944Y-14269222D01*
X11424944Y-14269222D02*
X11415420Y-14259698D01*
X11415420Y-14259698D02*
X11396372Y-14250174D01*
X11396372Y-14250174D02*
X11358277Y-14250174D01*
X11358277Y-14250174D02*
X11339229Y-14259698D01*
X11339229Y-14259698D02*
X11329706Y-14269222D01*
X11329706Y-14269222D02*
X11320182Y-14288269D01*
X11529706Y-14373984D02*
X11567801Y-14373984D01*
X11567801Y-14373984D02*
X11586848Y-14364460D01*
X11586848Y-14364460D02*
X11596372Y-14354936D01*
X11596372Y-14354936D02*
X11615420Y-14326365D01*
X11615420Y-14326365D02*
X11624944Y-14288269D01*
X11624944Y-14288269D02*
X11624944Y-14212079D01*
X11624944Y-14212079D02*
X11615420Y-14193031D01*
X11615420Y-14193031D02*
X11605896Y-14183508D01*
X11605896Y-14183508D02*
X11586848Y-14173984D01*
X11586848Y-14173984D02*
X11548753Y-14173984D01*
X11548753Y-14173984D02*
X11529706Y-14183508D01*
X11529706Y-14183508D02*
X11520182Y-14193031D01*
X11520182Y-14193031D02*
X11510658Y-14212079D01*
X11510658Y-14212079D02*
X11510658Y-14259698D01*
X11510658Y-14259698D02*
X11520182Y-14278746D01*
X11520182Y-14278746D02*
X11529706Y-14288269D01*
X11529706Y-14288269D02*
X11548753Y-14297793D01*
X11548753Y-14297793D02*
X11586848Y-14297793D01*
X11586848Y-14297793D02*
X11605896Y-14288269D01*
X11605896Y-14288269D02*
X11615420Y-14278746D01*
X11615420Y-14278746D02*
X11624944Y-14259698D01*
X11701134Y-14173984D02*
X11701134Y-14212079D01*
X11777325Y-14173984D02*
X11777325Y-14212079D01*
X12072563Y-14450174D02*
X12063039Y-14440650D01*
X12063039Y-14440650D02*
X12043991Y-14412079D01*
X12043991Y-14412079D02*
X12034468Y-14393031D01*
X12034468Y-14393031D02*
X12024944Y-14364460D01*
X12024944Y-14364460D02*
X12015420Y-14316841D01*
X12015420Y-14316841D02*
X12015420Y-14278746D01*
X12015420Y-14278746D02*
X12024944Y-14231127D01*
X12024944Y-14231127D02*
X12034468Y-14202555D01*
X12034468Y-14202555D02*
X12043991Y-14183508D01*
X12043991Y-14183508D02*
X12063039Y-14154936D01*
X12063039Y-14154936D02*
X12072563Y-14145412D01*
X12234468Y-14240650D02*
X12234468Y-14373984D01*
X12186848Y-14164460D02*
X12139229Y-14307317D01*
X12139229Y-14307317D02*
X12263039Y-14307317D01*
X12491610Y-14373984D02*
X12491610Y-14173984D01*
X12577325Y-14373984D02*
X12577325Y-14269222D01*
X12577325Y-14269222D02*
X12567801Y-14250174D01*
X12567801Y-14250174D02*
X12548753Y-14240650D01*
X12548753Y-14240650D02*
X12520182Y-14240650D01*
X12520182Y-14240650D02*
X12501134Y-14250174D01*
X12501134Y-14250174D02*
X12491610Y-14259698D01*
X12701134Y-14373984D02*
X12682087Y-14364460D01*
X12682087Y-14364460D02*
X12672563Y-14354936D01*
X12672563Y-14354936D02*
X12663039Y-14335888D01*
X12663039Y-14335888D02*
X12663039Y-14278746D01*
X12663039Y-14278746D02*
X12672563Y-14259698D01*
X12672563Y-14259698D02*
X12682087Y-14250174D01*
X12682087Y-14250174D02*
X12701134Y-14240650D01*
X12701134Y-14240650D02*
X12729706Y-14240650D01*
X12729706Y-14240650D02*
X12748753Y-14250174D01*
X12748753Y-14250174D02*
X12758277Y-14259698D01*
X12758277Y-14259698D02*
X12767801Y-14278746D01*
X12767801Y-14278746D02*
X12767801Y-14335888D01*
X12767801Y-14335888D02*
X12758277Y-14354936D01*
X12758277Y-14354936D02*
X12748753Y-14364460D01*
X12748753Y-14364460D02*
X12729706Y-14373984D01*
X12729706Y-14373984D02*
X12701134Y-14373984D01*
X12882087Y-14373984D02*
X12863039Y-14364460D01*
X12863039Y-14364460D02*
X12853515Y-14345412D01*
X12853515Y-14345412D02*
X12853515Y-14173984D01*
X13034468Y-14364460D02*
X13015420Y-14373984D01*
X13015420Y-14373984D02*
X12977325Y-14373984D01*
X12977325Y-14373984D02*
X12958277Y-14364460D01*
X12958277Y-14364460D02*
X12948753Y-14345412D01*
X12948753Y-14345412D02*
X12948753Y-14269222D01*
X12948753Y-14269222D02*
X12958277Y-14250174D01*
X12958277Y-14250174D02*
X12977325Y-14240650D01*
X12977325Y-14240650D02*
X13015420Y-14240650D01*
X13015420Y-14240650D02*
X13034468Y-14250174D01*
X13034468Y-14250174D02*
X13043991Y-14269222D01*
X13043991Y-14269222D02*
X13043991Y-14288269D01*
X13043991Y-14288269D02*
X12948753Y-14307317D01*
X13120182Y-14364460D02*
X13139230Y-14373984D01*
X13139230Y-14373984D02*
X13177325Y-14373984D01*
X13177325Y-14373984D02*
X13196372Y-14364460D01*
X13196372Y-14364460D02*
X13205896Y-14345412D01*
X13205896Y-14345412D02*
X13205896Y-14335888D01*
X13205896Y-14335888D02*
X13196372Y-14316841D01*
X13196372Y-14316841D02*
X13177325Y-14307317D01*
X13177325Y-14307317D02*
X13148753Y-14307317D01*
X13148753Y-14307317D02*
X13129706Y-14297793D01*
X13129706Y-14297793D02*
X13120182Y-14278746D01*
X13120182Y-14278746D02*
X13120182Y-14269222D01*
X13120182Y-14269222D02*
X13129706Y-14250174D01*
X13129706Y-14250174D02*
X13148753Y-14240650D01*
X13148753Y-14240650D02*
X13177325Y-14240650D01*
X13177325Y-14240650D02*
X13196372Y-14250174D01*
X13272563Y-14450174D02*
X13282087Y-14440650D01*
X13282087Y-14440650D02*
X13301134Y-14412079D01*
X13301134Y-14412079D02*
X13310658Y-14393031D01*
X13310658Y-14393031D02*
X13320182Y-14364460D01*
X13320182Y-14364460D02*
X13329706Y-14316841D01*
X13329706Y-14316841D02*
X13329706Y-14278746D01*
X13329706Y-14278746D02*
X13320182Y-14231127D01*
X13320182Y-14231127D02*
X13310658Y-14202555D01*
X13310658Y-14202555D02*
X13301134Y-14183508D01*
X13301134Y-14183508D02*
X13282087Y-14154936D01*
X13282087Y-14154936D02*
X13272563Y-14145412D01*
M02*
