%TF.GenerationSoftware,KiCad,Pcbnew,8.0.3*%
%TF.CreationDate,2024-06-26T11:54:07+03:00*%
%TF.ProjectId,LoRa_irrigation_system,4c6f5261-5f69-4727-9269-676174696f6e,rev?*%
%TF.SameCoordinates,Original*%
%TF.FileFunction,Copper,L2,Bot*%
%TF.FilePolarity,Positive*%
%FSLAX46Y46*%
G04 Gerber Fmt 4.6, Leading zero omitted, Abs format (unit mm)*
G04 Created by KiCad (PCBNEW 8.0.3) date 2024-06-26 11:54:07*
%MOMM*%
%LPD*%
G01*
G04 APERTURE LIST*
%TA.AperFunction,ComponentPad*%
%ADD10C,2.050000*%
%TD*%
%TA.AperFunction,ComponentPad*%
%ADD11C,2.250000*%
%TD*%
%TA.AperFunction,ComponentPad*%
%ADD12R,1.800000X1.800000*%
%TD*%
%TA.AperFunction,ComponentPad*%
%ADD13C,1.800000*%
%TD*%
%TA.AperFunction,ComponentPad*%
%ADD14R,2.400000X2.400000*%
%TD*%
%TA.AperFunction,ComponentPad*%
%ADD15C,2.400000*%
%TD*%
%TA.AperFunction,ComponentPad*%
%ADD16R,2.600000X2.600000*%
%TD*%
%TA.AperFunction,ComponentPad*%
%ADD17C,2.600000*%
%TD*%
%TA.AperFunction,ComponentPad*%
%ADD18C,1.600000*%
%TD*%
%TA.AperFunction,ComponentPad*%
%ADD19O,1.600000X1.600000*%
%TD*%
%TA.AperFunction,ComponentPad*%
%ADD20R,2.000000X2.000000*%
%TD*%
%TA.AperFunction,ComponentPad*%
%ADD21R,1.508000X1.508000*%
%TD*%
%TA.AperFunction,ComponentPad*%
%ADD22R,1.700000X1.700000*%
%TD*%
%TA.AperFunction,ComponentPad*%
%ADD23O,1.700000X1.700000*%
%TD*%
%TA.AperFunction,ComponentPad*%
%ADD24C,3.000000*%
%TD*%
%TA.AperFunction,ComponentPad*%
%ADD25C,2.500000*%
%TD*%
%TA.AperFunction,SMDPad,CuDef*%
%ADD26R,3.000000X1.200000*%
%TD*%
%TA.AperFunction,ViaPad*%
%ADD27C,0.800000*%
%TD*%
%TA.AperFunction,Conductor*%
%ADD28C,0.800000*%
%TD*%
G04 APERTURE END LIST*
D10*
%TO.P,J4,1,In*%
%TO.N,Net-(J4-In)*%
X119000000Y-54460000D03*
D11*
%TO.P,J4,2,Ext*%
%TO.N,GND*%
X121540000Y-57000000D03*
X121540000Y-51920000D03*
X116460000Y-57000000D03*
X116460000Y-51920000D03*
%TD*%
D12*
%TO.P,D2,1,K*%
%TO.N,GND*%
X174540000Y-89000000D03*
D13*
%TO.P,D2,2,A*%
%TO.N,Net-(D2-A)*%
X172000000Y-89000000D03*
%TD*%
D12*
%TO.P,D1,1,K*%
%TO.N,GND*%
X174510000Y-82000000D03*
D13*
%TO.P,D1,2,A*%
%TO.N,Net-(D1-A)*%
X171970000Y-82000000D03*
%TD*%
D14*
%TO.P,J3,1,Pin_1*%
%TO.N,Pump active*%
X152950000Y-111000000D03*
D15*
%TO.P,J3,2,Pin_2*%
%TO.N,GND*%
X156450000Y-111000000D03*
%TD*%
D16*
%TO.P,J1,1,Pin_1*%
%TO.N,+12V*%
X91500000Y-114500000D03*
D17*
%TO.P,J1,2,Pin_2*%
%TO.N,GND*%
X91500000Y-109500000D03*
%TD*%
D18*
%TO.P,R2,1*%
%TO.N,MoistureOK*%
X154150000Y-90000000D03*
D19*
%TO.P,R2,2*%
%TO.N,Net-(D2-A)*%
X166850000Y-90000000D03*
%TD*%
D20*
%TO.P,U1,1,IN+*%
%TO.N,+12V*%
X101427500Y-115621500D03*
%TO.P,U1,2,IN-*%
%TO.N,GND*%
X118572500Y-115621500D03*
%TO.P,U1,3,OUT-*%
X118572500Y-76251500D03*
%TO.P,U1,4,OUT+*%
%TO.N,+3.3V*%
X101427500Y-76251500D03*
%TD*%
D21*
%TO.P,U2,3V3,3V3*%
%TO.N,unconnected-(U2-Pad3V3)*%
X146890000Y-58800000D03*
%TO.P,U2,3V3_EN,3V3_EN*%
%TO.N,unconnected-(U2-Pad3V3_EN)*%
X146890000Y-56260000D03*
%TO.P,U2,ADC_VREF,ADC_VREF*%
%TO.N,unconnected-(U2-PadADC_VREF)*%
X146890000Y-61340000D03*
%TO.P,U2,AGND,AGND*%
%TO.N,GND*%
X146890000Y-66420000D03*
%TO.P,U2,GND,GND*%
X146890000Y-53720000D03*
%TO.P,U2,GND2,GND2*%
X146890000Y-79120000D03*
%TO.P,U2,GND3,GND3*%
X146890000Y-91820000D03*
%TO.P,U2,GND4,GND4*%
X129110000Y-53720000D03*
%TO.P,U2,GND5,GND5*%
X129110000Y-66420000D03*
%TO.P,U2,GND6,GND6*%
X129110000Y-79120000D03*
%TO.P,U2,GND7,GND7*%
X129110000Y-91820000D03*
%TO.P,U2,GP0,GP0*%
%TO.N,RESET*%
X129110000Y-48640000D03*
%TO.P,U2,GP1,GP1*%
%TO.N,NSS*%
X129110000Y-51180000D03*
%TO.P,U2,GP2,GP2*%
%TO.N,SCK*%
X129110000Y-56260000D03*
%TO.P,U2,GP3,GP3*%
%TO.N,MOSI*%
X129110000Y-58800000D03*
%TO.P,U2,GP4,GP4*%
%TO.N,MISO*%
X129110000Y-61340000D03*
%TO.P,U2,GP5,GP5*%
%TO.N,DIO0*%
X129110000Y-63880000D03*
%TO.P,U2,GP6,GP6*%
%TO.N,unconnected-(U2-PadGP6)*%
X129110000Y-68960000D03*
%TO.P,U2,GP7,GP7*%
%TO.N,unconnected-(U2-PadGP7)*%
X129110000Y-71500000D03*
%TO.P,U2,GP8,GP8*%
%TO.N,unconnected-(U2-PadGP8)*%
X129110000Y-74040000D03*
%TO.P,U2,GP9,GP9*%
%TO.N,unconnected-(U2-PadGP9)*%
X129110000Y-76580000D03*
%TO.P,U2,GP10,GP10*%
%TO.N,unconnected-(U2-PadGP10)*%
X129110000Y-81660000D03*
%TO.P,U2,GP11,GP11*%
%TO.N,unconnected-(U2-PadGP11)*%
X129110000Y-84200000D03*
%TO.P,U2,GP12,GP12*%
%TO.N,unconnected-(U2-PadGP12)*%
X129110000Y-86740000D03*
%TO.P,U2,GP13,GP13*%
%TO.N,unconnected-(U2-PadGP13)*%
X129110000Y-89280000D03*
%TO.P,U2,GP14,GP14*%
%TO.N,unconnected-(U2-PadGP14)*%
X129110000Y-94360000D03*
%TO.P,U2,GP15,GP15*%
%TO.N,RelayON*%
X129110000Y-96900000D03*
%TO.P,U2,GP16,GP16*%
%TO.N,unconnected-(U2-PadGP16)*%
X146890000Y-96900000D03*
%TO.P,U2,GP17,GP17*%
%TO.N,unconnected-(U2-PadGP17)*%
X146890000Y-94360000D03*
%TO.P,U2,GP18,GP18*%
%TO.N,MoistureLOW*%
X146890000Y-89280000D03*
%TO.P,U2,GP19,GP19*%
%TO.N,MoistureOK*%
X146890000Y-86740000D03*
%TO.P,U2,GP20,GP20*%
%TO.N,IrrigON*%
X146890000Y-84200000D03*
%TO.P,U2,GP21,GP21*%
%TO.N,unconnected-(U2-PadGP21)*%
X146890000Y-81660000D03*
%TO.P,U2,GP22,GP22*%
%TO.N,D0*%
X146890000Y-76580000D03*
%TO.P,U2,GP26_A0,GP26_A0*%
%TO.N,A0*%
X146890000Y-71500000D03*
%TO.P,U2,GP27_A1,GP27_A1*%
%TO.N,unconnected-(U2-PadGP27_A1)*%
X146890000Y-68960000D03*
%TO.P,U2,GP28_A2,GP28_A2*%
%TO.N,unconnected-(U2-PadGP28_A2)*%
X146890000Y-63880000D03*
%TO.P,U2,RUN,RUN*%
%TO.N,unconnected-(U2-PadRUN)*%
X146890000Y-74040000D03*
%TO.P,U2,VBUS,VBUS*%
%TO.N,unconnected-(U2-PadVBUS)*%
X146890000Y-48640000D03*
%TO.P,U2,VSYS,VSYS*%
%TO.N,+3.3V*%
X146890000Y-51180000D03*
%TD*%
D22*
%TO.P,J2,1,Pin_1*%
%TO.N,A0*%
X156000000Y-72880000D03*
D23*
%TO.P,J2,2,Pin_2*%
%TO.N,D0*%
X156000000Y-75420000D03*
%TO.P,J2,3,Pin_3*%
%TO.N,GND*%
X156000000Y-77960000D03*
%TO.P,J2,4,Pin_4*%
%TO.N,+3.3V*%
X156000000Y-80500000D03*
%TD*%
D24*
%TO.P,K2,1*%
%TO.N,+12V*%
X127000000Y-108500000D03*
D25*
%TO.P,K2,2*%
%TO.N,GND*%
X128950000Y-114550000D03*
D24*
%TO.P,K2,3*%
%TO.N,Pump active*%
X141150000Y-114550000D03*
%TO.P,K2,4*%
%TO.N,unconnected-(K2-Pad4)*%
X141200000Y-102500000D03*
D25*
%TO.P,K2,5*%
%TO.N,RelayON*%
X128950000Y-102550000D03*
%TD*%
D18*
%TO.P,R3,1*%
%TO.N,MoistureLOW*%
X154150000Y-94500000D03*
D19*
%TO.P,R3,2*%
%TO.N,Net-(D3-A)*%
X166850000Y-94500000D03*
%TD*%
D18*
%TO.P,R1,1*%
%TO.N,IrrigON*%
X154150000Y-85500000D03*
D19*
%TO.P,R1,2*%
%TO.N,Net-(D1-A)*%
X166850000Y-85500000D03*
%TD*%
D12*
%TO.P,D3,1,K*%
%TO.N,GND*%
X174510000Y-96000000D03*
D13*
%TO.P,D3,2,A*%
%TO.N,Net-(D3-A)*%
X171970000Y-96000000D03*
%TD*%
D26*
%TO.P,U4,1,GND*%
%TO.N,GND*%
X96287258Y-65187258D03*
%TO.P,U4,2,MISO*%
%TO.N,MISO*%
X96287258Y-63187258D03*
%TO.P,U4,3,MOSI*%
%TO.N,MOSI*%
X96287258Y-61187258D03*
%TO.P,U4,4,SCK*%
%TO.N,SCK*%
X96287258Y-59187258D03*
%TO.P,U4,5,NSS*%
%TO.N,NSS*%
X96287258Y-57187258D03*
%TO.P,U4,6,RESET*%
%TO.N,RESET*%
X96287258Y-55187258D03*
%TO.P,U4,7,DIO5*%
%TO.N,unconnected-(U4-DIO5-Pad7)*%
X96287258Y-53187258D03*
%TO.P,U4,8,GND*%
%TO.N,GND*%
X96287258Y-51187258D03*
%TO.P,U4,9,ANT*%
%TO.N,Net-(J4-In)*%
X111287258Y-51187258D03*
%TO.P,U4,10,GND*%
%TO.N,GND*%
X111287258Y-53187258D03*
%TO.P,U4,11,DIO3*%
%TO.N,unconnected-(U4-DIO3-Pad11)*%
X111287258Y-55187258D03*
%TO.P,U4,12,DIO4*%
%TO.N,unconnected-(U4-DIO4-Pad12)*%
X111287258Y-57187258D03*
%TO.P,U4,13,3.3V*%
%TO.N,+3.3V*%
X111287258Y-59187258D03*
%TO.P,U4,14,DIO0*%
%TO.N,DIO0*%
X111287258Y-61187258D03*
%TO.P,U4,15,DIO1*%
%TO.N,unconnected-(U4-DIO1-Pad15)*%
X111287258Y-63187258D03*
%TO.P,U4,16,DIO2*%
%TO.N,unconnected-(U4-DIO2-Pad16)*%
X111287258Y-65187258D03*
%TD*%
D27*
%TO.N,+3.3V*%
X122000000Y-69481371D03*
X117105887Y-62105887D03*
%TO.N,DIO0*%
X120381371Y-67881371D03*
X115855887Y-63355887D03*
%TD*%
D28*
%TO.N,GND*%
X155510000Y-78450000D02*
X156000000Y-77960000D01*
X129110000Y-91820000D02*
X137500000Y-91820000D01*
X152500000Y-96406000D02*
X150943629Y-94849629D01*
X132000000Y-117600000D02*
X132000000Y-118500000D01*
X132000000Y-118500000D02*
X156000000Y-118500000D01*
X121540000Y-51920000D02*
X121920000Y-51920000D01*
X154321572Y-97500000D02*
X152500000Y-97500000D01*
X156450000Y-99628428D02*
X154321572Y-97500000D01*
X156450000Y-111000000D02*
X156450000Y-99628428D01*
X115192742Y-53187258D02*
X116460000Y-51920000D01*
X156000000Y-118500000D02*
X156500000Y-118000000D01*
X123720000Y-53720000D02*
X129110000Y-53720000D01*
X150943629Y-93556371D02*
X149207258Y-91820000D01*
X174510000Y-107990000D02*
X174510000Y-96000000D01*
X171500000Y-111000000D02*
X174510000Y-107990000D01*
X118572500Y-115621500D02*
X127878500Y-115621500D01*
X127878500Y-115621500D02*
X128950000Y-114550000D01*
X116460000Y-57000000D02*
X121540000Y-57000000D01*
X150943629Y-94849629D02*
X150943629Y-93556371D01*
X174510000Y-82000000D02*
X174510000Y-88970000D01*
X122751500Y-76251500D02*
X125620000Y-79120000D01*
X104000000Y-109500000D02*
X118572500Y-94927500D01*
X129110000Y-53720000D02*
X137500000Y-53720000D01*
X149207258Y-91820000D02*
X146890000Y-91820000D01*
X137500000Y-91820000D02*
X146890000Y-91820000D01*
X174510000Y-89030000D02*
X174540000Y-89000000D01*
X125620000Y-79120000D02*
X129110000Y-79120000D01*
X111287258Y-53187258D02*
X115192742Y-53187258D01*
X174510000Y-96000000D02*
X174510000Y-89030000D01*
X174510000Y-88970000D02*
X174540000Y-89000000D01*
X137500000Y-53720000D02*
X137500000Y-91820000D01*
X146890000Y-79120000D02*
X147880000Y-79120000D01*
X125620000Y-79120000D02*
X125500000Y-79000000D01*
X137500000Y-53720000D02*
X146890000Y-53720000D01*
X129110000Y-66420000D02*
X146890000Y-66420000D01*
X121920000Y-51920000D02*
X123720000Y-53720000D01*
X148550000Y-78450000D02*
X155510000Y-78450000D01*
X152500000Y-97500000D02*
X152500000Y-96406000D01*
X118572500Y-76251500D02*
X122751500Y-76251500D01*
X116460000Y-51920000D02*
X116460000Y-57000000D01*
X118572500Y-94927500D02*
X118572500Y-76251500D01*
X156450000Y-111000000D02*
X171500000Y-111000000D01*
X91500000Y-109500000D02*
X104000000Y-109500000D01*
X156500000Y-118000000D02*
X156450000Y-117950000D01*
X147880000Y-79120000D02*
X148550000Y-78450000D01*
X129110000Y-79120000D02*
X146890000Y-79120000D01*
X128950000Y-114550000D02*
X132000000Y-117600000D01*
X156450000Y-117950000D02*
X156450000Y-111000000D01*
X121540000Y-57000000D02*
X121540000Y-51920000D01*
%TO.N,Net-(D1-A)*%
X166850000Y-85500000D02*
X168470000Y-85500000D01*
X168470000Y-85500000D02*
X171970000Y-82000000D01*
%TO.N,Net-(D2-A)*%
X171000000Y-90000000D02*
X172000000Y-89000000D01*
X166850000Y-90000000D02*
X171000000Y-90000000D01*
%TO.N,Net-(D3-A)*%
X170470000Y-94500000D02*
X171970000Y-96000000D01*
X166850000Y-94500000D02*
X170470000Y-94500000D01*
%TO.N,+12V*%
X106378500Y-115621500D02*
X111000000Y-111000000D01*
X114500000Y-108500000D02*
X127000000Y-108500000D01*
X100306000Y-114500000D02*
X101427500Y-115621500D01*
X91500000Y-114500000D02*
X100306000Y-114500000D01*
X126173000Y-107673000D02*
X127000000Y-108500000D01*
X112000000Y-111000000D02*
X114500000Y-108500000D01*
X101427500Y-115621500D02*
X106378500Y-115621500D01*
X111000000Y-111000000D02*
X112000000Y-111000000D01*
%TO.N,D0*%
X155640862Y-75420000D02*
X156000000Y-75420000D01*
X154480862Y-76580000D02*
X155640862Y-75420000D01*
X146890000Y-76580000D02*
X154480862Y-76580000D01*
%TO.N,+3.3V*%
X111512742Y-72487258D02*
X107748500Y-76251500D01*
X142320000Y-51180000D02*
X146890000Y-51180000D01*
X90800000Y-44700000D02*
X135840000Y-44700000D01*
X121391129Y-69481371D02*
X118385242Y-72487258D01*
X90500000Y-66000000D02*
X90500000Y-45000000D01*
X135840000Y-44700000D02*
X142320000Y-51180000D01*
X101427500Y-76251500D02*
X100751500Y-76251500D01*
X100751500Y-76251500D02*
X90500000Y-66000000D01*
X122000000Y-69481371D02*
X121391129Y-69481371D01*
X148444000Y-51180000D02*
X159500000Y-62236000D01*
X107748500Y-76251500D02*
X101427500Y-76251500D01*
X114187258Y-59187258D02*
X117105887Y-62105887D01*
X118385242Y-72487258D02*
X111512742Y-72487258D01*
X111287258Y-59187258D02*
X114187258Y-59187258D01*
X159500000Y-62236000D02*
X159500000Y-80500000D01*
X159500000Y-80500000D02*
X156000000Y-80500000D01*
X90500000Y-45000000D02*
X90800000Y-44700000D01*
X146890000Y-51180000D02*
X148444000Y-51180000D01*
%TO.N,A0*%
X154620000Y-71500000D02*
X156000000Y-72880000D01*
X146890000Y-71500000D02*
X154620000Y-71500000D01*
%TO.N,Pump active*%
X149400000Y-114550000D02*
X152950000Y-111000000D01*
X141150000Y-114550000D02*
X149400000Y-114550000D01*
%TO.N,Net-(J4-In)*%
X111287258Y-51187258D02*
X111287258Y-50712742D01*
X112500000Y-49500000D02*
X118500000Y-49500000D01*
X119000000Y-50000000D02*
X119000000Y-54460000D01*
X111287258Y-50712742D02*
X112500000Y-49500000D01*
X118500000Y-49500000D02*
X119000000Y-50000000D01*
%TO.N,RelayON*%
X129110000Y-102390000D02*
X128950000Y-102550000D01*
X129110000Y-96900000D02*
X129110000Y-102390000D01*
%TO.N,MoistureOK*%
X146890000Y-86740000D02*
X150890000Y-86740000D01*
X150890000Y-86740000D02*
X154150000Y-90000000D01*
%TO.N,MoistureLOW*%
X146890000Y-89280000D02*
X148930000Y-89280000D01*
X148930000Y-89280000D02*
X154150000Y-94500000D01*
%TO.N,SCK*%
X98787258Y-59187258D02*
X107287258Y-67687258D01*
X96287258Y-59187258D02*
X98787258Y-59187258D01*
X122500000Y-61500000D02*
X124000000Y-60000000D01*
X125240000Y-56260000D02*
X129110000Y-56260000D01*
X124000000Y-60000000D02*
X124000000Y-56500000D01*
X113787258Y-67687258D02*
X119974516Y-61500000D01*
X124000000Y-56500000D02*
X125000000Y-56500000D01*
X125000000Y-56500000D02*
X125240000Y-56260000D01*
X119974516Y-61500000D02*
X122500000Y-61500000D01*
X107287258Y-67687258D02*
X113787258Y-67687258D01*
%TO.N,MOSI*%
X106624516Y-69287258D02*
X114450000Y-69287258D01*
X125600000Y-60662742D02*
X125600000Y-59000000D01*
X114450000Y-69287258D02*
X120637258Y-63100000D01*
X96287258Y-61187258D02*
X98524516Y-61187258D01*
X120637258Y-63100000D02*
X123162742Y-63100000D01*
X125600000Y-59000000D02*
X125800000Y-58800000D01*
X98524516Y-61187258D02*
X106624516Y-69287258D01*
X123162742Y-63100000D02*
X125600000Y-60662742D01*
X125800000Y-58800000D02*
X129110000Y-58800000D01*
%TO.N,DIO0*%
X111287258Y-61187258D02*
X113687258Y-61187258D01*
X113687258Y-61187258D02*
X115855887Y-63355887D01*
X120381371Y-67881371D02*
X123554629Y-67881371D01*
X127556000Y-63880000D02*
X129110000Y-63880000D01*
X123554629Y-67881371D02*
X127556000Y-63880000D01*
%TO.N,NSS*%
X108100000Y-47900000D02*
X121900000Y-47900000D01*
X102812742Y-57187258D02*
X106612742Y-53387258D01*
X125180000Y-51180000D02*
X129110000Y-51180000D01*
X106612742Y-49387258D02*
X108100000Y-47900000D01*
X121900000Y-47900000D02*
X125180000Y-51180000D01*
X96287258Y-57187258D02*
X102812742Y-57187258D01*
X106612742Y-53387258D02*
X106612742Y-49387258D01*
%TO.N,MISO*%
X115112742Y-70887258D02*
X121000000Y-65000000D01*
X127185484Y-61340000D02*
X129110000Y-61340000D01*
X123525484Y-65000000D02*
X127185484Y-61340000D01*
X96287258Y-63187258D02*
X98261774Y-63187258D01*
X105961774Y-70887258D02*
X115112742Y-70887258D01*
X121000000Y-65000000D02*
X123525484Y-65000000D01*
X98261774Y-63187258D02*
X105961774Y-70887258D01*
%TO.N,RESET*%
X101812742Y-55187258D02*
X105012742Y-51987258D01*
X105012742Y-51987258D02*
X105012742Y-48724516D01*
X107437258Y-46300000D02*
X123300000Y-46300000D01*
X105012742Y-48724516D02*
X107437258Y-46300000D01*
X96287258Y-55187258D02*
X101812742Y-55187258D01*
X125640000Y-48640000D02*
X129110000Y-48640000D01*
X123300000Y-46300000D02*
X125640000Y-48640000D01*
%TO.N,IrrigON*%
X152850000Y-84200000D02*
X154150000Y-85500000D01*
X146890000Y-84200000D02*
X152850000Y-84200000D01*
%TD*%
%TA.AperFunction,Conductor*%
%TO.N,GND*%
G36*
X90093963Y-43520185D02*
G01*
X90139718Y-43572989D01*
X90149662Y-43642147D01*
X90120637Y-43705703D01*
X90099810Y-43724817D01*
X90017926Y-43784310D01*
X90017924Y-43784312D01*
X90017923Y-43784312D01*
X89584311Y-44217924D01*
X89584309Y-44217927D01*
X89568875Y-44239170D01*
X89473242Y-44370797D01*
X89387454Y-44539163D01*
X89329059Y-44718881D01*
X89299500Y-44905513D01*
X89299500Y-66094486D01*
X89329059Y-66281118D01*
X89387454Y-66460836D01*
X89462633Y-66608382D01*
X89473240Y-66629199D01*
X89584310Y-66782074D01*
X89584312Y-66782076D01*
X99590681Y-76788445D01*
X99624166Y-76849768D01*
X99627000Y-76876126D01*
X99627000Y-77296460D01*
X99642130Y-77430749D01*
X99642131Y-77430754D01*
X99701711Y-77601023D01*
X99770186Y-77709999D01*
X99797684Y-77753762D01*
X99925238Y-77881316D01*
X100015580Y-77938082D01*
X100067141Y-77970480D01*
X100077978Y-77977289D01*
X100208087Y-78022816D01*
X100248245Y-78036868D01*
X100248250Y-78036869D01*
X100338746Y-78047065D01*
X100382540Y-78051999D01*
X100382543Y-78052000D01*
X100382546Y-78052000D01*
X102472457Y-78052000D01*
X102472458Y-78051999D01*
X102539604Y-78044434D01*
X102606749Y-78036869D01*
X102606752Y-78036868D01*
X102606755Y-78036868D01*
X102777022Y-77977289D01*
X102929762Y-77881316D01*
X103057316Y-77753762D01*
X103153289Y-77601022D01*
X103176375Y-77535046D01*
X103217097Y-77478270D01*
X103282049Y-77452522D01*
X103293417Y-77452000D01*
X107842986Y-77452000D01*
X108029618Y-77422440D01*
X108209332Y-77364047D01*
X108377699Y-77278260D01*
X108530574Y-77167190D01*
X110494109Y-75203655D01*
X117072500Y-75203655D01*
X117072500Y-76001500D01*
X118197222Y-76001500D01*
X118153167Y-76077806D01*
X118122500Y-76192256D01*
X118122500Y-76310744D01*
X118153167Y-76425194D01*
X118197222Y-76501500D01*
X117072500Y-76501500D01*
X117072500Y-77299344D01*
X117078901Y-77358872D01*
X117078903Y-77358879D01*
X117129145Y-77493586D01*
X117129149Y-77493593D01*
X117215309Y-77608687D01*
X117215312Y-77608690D01*
X117330406Y-77694850D01*
X117330413Y-77694854D01*
X117465120Y-77745096D01*
X117465127Y-77745098D01*
X117524655Y-77751499D01*
X117524672Y-77751500D01*
X118322500Y-77751500D01*
X118322500Y-76626777D01*
X118398806Y-76670833D01*
X118513256Y-76701500D01*
X118631744Y-76701500D01*
X118746194Y-76670833D01*
X118822500Y-76626777D01*
X118822500Y-77751500D01*
X119620328Y-77751500D01*
X119620344Y-77751499D01*
X119679872Y-77745098D01*
X119679879Y-77745096D01*
X119814586Y-77694854D01*
X119814593Y-77694850D01*
X119929687Y-77608690D01*
X119929690Y-77608687D01*
X120015850Y-77493593D01*
X120015854Y-77493586D01*
X120066096Y-77358879D01*
X120066098Y-77358872D01*
X120072499Y-77299344D01*
X120072500Y-77299327D01*
X120072500Y-76501500D01*
X118947778Y-76501500D01*
X118991833Y-76425194D01*
X119022500Y-76310744D01*
X119022500Y-76192256D01*
X118991833Y-76077806D01*
X118947778Y-76001500D01*
X120072500Y-76001500D01*
X120072500Y-75203672D01*
X120072499Y-75203655D01*
X120066098Y-75144127D01*
X120066096Y-75144120D01*
X120015854Y-75009413D01*
X120015850Y-75009406D01*
X119929690Y-74894312D01*
X119929687Y-74894309D01*
X119814593Y-74808149D01*
X119814586Y-74808145D01*
X119679879Y-74757903D01*
X119679872Y-74757901D01*
X119620344Y-74751500D01*
X118822500Y-74751500D01*
X118822500Y-75876222D01*
X118746194Y-75832167D01*
X118631744Y-75801500D01*
X118513256Y-75801500D01*
X118398806Y-75832167D01*
X118322500Y-75876222D01*
X118322500Y-74751500D01*
X117524655Y-74751500D01*
X117465127Y-74757901D01*
X117465120Y-74757903D01*
X117330413Y-74808145D01*
X117330406Y-74808149D01*
X117215312Y-74894309D01*
X117215309Y-74894312D01*
X117129149Y-75009406D01*
X117129145Y-75009413D01*
X117078903Y-75144120D01*
X117078901Y-75144127D01*
X117072500Y-75203655D01*
X110494109Y-75203655D01*
X111973687Y-73724077D01*
X112035010Y-73690592D01*
X112061368Y-73687758D01*
X118479728Y-73687758D01*
X118666360Y-73658198D01*
X118846074Y-73599805D01*
X119014441Y-73514018D01*
X119167316Y-73402948D01*
X121852074Y-70718190D01*
X121913397Y-70684705D01*
X121939755Y-70681871D01*
X122111244Y-70681871D01*
X122111244Y-70681870D01*
X122202541Y-70664803D01*
X122205857Y-70664230D01*
X122281118Y-70652311D01*
X122289397Y-70649620D01*
X122304919Y-70645665D01*
X122329940Y-70640989D01*
X122390319Y-70617597D01*
X122399415Y-70614074D01*
X122405885Y-70611771D01*
X122460832Y-70593918D01*
X122485011Y-70581597D01*
X122496488Y-70576466D01*
X122537401Y-70560618D01*
X122585137Y-70531059D01*
X122594102Y-70526012D01*
X122629199Y-70508131D01*
X122666039Y-70481363D01*
X122673607Y-70476281D01*
X122726562Y-70443495D01*
X122754461Y-70418061D01*
X122765091Y-70409398D01*
X122782073Y-70397061D01*
X122827272Y-70351860D01*
X122831374Y-70347945D01*
X122852091Y-70329059D01*
X122890981Y-70293607D01*
X122902621Y-70278192D01*
X122913884Y-70265249D01*
X122915690Y-70263444D01*
X122964069Y-70196854D01*
X122965381Y-70195084D01*
X122977017Y-70179674D01*
X123025058Y-70116060D01*
X123071965Y-70021856D01*
X123072360Y-70021071D01*
X123112547Y-69942203D01*
X123112549Y-69942196D01*
X123114411Y-69937701D01*
X123114638Y-69937795D01*
X123118369Y-69928666D01*
X123124229Y-69916899D01*
X123147980Y-69833418D01*
X123149308Y-69829064D01*
X123170936Y-69762501D01*
X123170940Y-69762489D01*
X123173261Y-69747827D01*
X123176464Y-69733306D01*
X123185115Y-69702907D01*
X123191426Y-69634785D01*
X123192417Y-69626879D01*
X123200500Y-69575852D01*
X123200500Y-69542605D01*
X123201029Y-69531164D01*
X123205643Y-69481371D01*
X123205643Y-69481370D01*
X123201029Y-69431576D01*
X123200500Y-69420135D01*
X123200500Y-69386892D01*
X123200500Y-69386890D01*
X123192418Y-69335869D01*
X123191426Y-69327955D01*
X123185115Y-69259835D01*
X123179416Y-69239805D01*
X123180002Y-69169940D01*
X123218268Y-69111480D01*
X123282065Y-69082989D01*
X123298682Y-69081871D01*
X123649115Y-69081871D01*
X123835747Y-69052311D01*
X124015461Y-68993918D01*
X124183828Y-68908131D01*
X124336703Y-68797061D01*
X127648464Y-65485298D01*
X127709785Y-65451815D01*
X127779477Y-65456799D01*
X127835410Y-65498671D01*
X127859827Y-65564135D01*
X127859433Y-65586234D01*
X127856000Y-65618166D01*
X127856000Y-66170000D01*
X128676988Y-66170000D01*
X128644075Y-66227007D01*
X128610000Y-66354174D01*
X128610000Y-66485826D01*
X128644075Y-66612993D01*
X128676988Y-66670000D01*
X127856000Y-66670000D01*
X127856000Y-67221844D01*
X127862401Y-67281372D01*
X127862403Y-67281380D01*
X127914550Y-67421194D01*
X127919534Y-67490886D01*
X127886049Y-67552209D01*
X127864344Y-67569518D01*
X127853743Y-67576179D01*
X127853739Y-67576182D01*
X127726184Y-67703737D01*
X127630211Y-67856476D01*
X127570631Y-68026745D01*
X127570630Y-68026750D01*
X127555500Y-68161039D01*
X127555500Y-69758960D01*
X127570630Y-69893249D01*
X127570631Y-69893254D01*
X127630211Y-70063523D01*
X127693363Y-70164028D01*
X127712363Y-70231265D01*
X127693363Y-70295972D01*
X127630211Y-70396476D01*
X127570631Y-70566745D01*
X127570630Y-70566750D01*
X127555500Y-70701039D01*
X127555500Y-72298960D01*
X127570630Y-72433249D01*
X127570631Y-72433254D01*
X127630211Y-72603523D01*
X127693363Y-72704028D01*
X127712363Y-72771265D01*
X127693363Y-72835972D01*
X127630211Y-72936476D01*
X127570631Y-73106745D01*
X127570630Y-73106750D01*
X127555500Y-73241039D01*
X127555500Y-74838960D01*
X127570630Y-74973249D01*
X127570631Y-74973254D01*
X127630211Y-75143523D01*
X127693363Y-75244028D01*
X127712363Y-75311265D01*
X127693363Y-75375972D01*
X127630211Y-75476476D01*
X127570631Y-75646745D01*
X127570630Y-75646750D01*
X127555500Y-75781039D01*
X127555500Y-77378960D01*
X127570630Y-77513249D01*
X127570631Y-77513254D01*
X127630211Y-77683523D01*
X127682668Y-77767007D01*
X127726184Y-77836262D01*
X127853738Y-77963816D01*
X127860033Y-77967772D01*
X127864343Y-77970480D01*
X127910633Y-78022816D01*
X127921279Y-78091870D01*
X127914550Y-78118804D01*
X127862403Y-78258617D01*
X127862401Y-78258627D01*
X127856000Y-78318155D01*
X127856000Y-78870000D01*
X128676988Y-78870000D01*
X128644075Y-78927007D01*
X128610000Y-79054174D01*
X128610000Y-79185826D01*
X128644075Y-79312993D01*
X128676988Y-79370000D01*
X127856000Y-79370000D01*
X127856000Y-79921844D01*
X127862401Y-79981372D01*
X127862403Y-79981380D01*
X127914550Y-80121194D01*
X127919534Y-80190886D01*
X127886049Y-80252209D01*
X127864344Y-80269518D01*
X127853743Y-80276179D01*
X127853739Y-80276182D01*
X127726184Y-80403737D01*
X127630211Y-80556476D01*
X127570631Y-80726745D01*
X127570630Y-80726750D01*
X127555500Y-80861039D01*
X127555500Y-82458960D01*
X127570630Y-82593249D01*
X127570631Y-82593254D01*
X127630211Y-82763523D01*
X127693363Y-82864028D01*
X127712363Y-82931265D01*
X127693363Y-82995972D01*
X127630211Y-83096476D01*
X127570631Y-83266745D01*
X127570630Y-83266750D01*
X127555500Y-83401039D01*
X127555500Y-84998960D01*
X127570630Y-85133249D01*
X127570631Y-85133254D01*
X127630211Y-85303523D01*
X127693363Y-85404028D01*
X127712363Y-85471265D01*
X127693363Y-85535972D01*
X127630211Y-85636476D01*
X127570631Y-85806745D01*
X127570630Y-85806750D01*
X127555500Y-85941039D01*
X127555500Y-87538960D01*
X127570630Y-87673249D01*
X127570631Y-87673254D01*
X127630211Y-87843523D01*
X127693363Y-87944028D01*
X127712363Y-88011265D01*
X127693363Y-88075972D01*
X127630211Y-88176476D01*
X127570631Y-88346745D01*
X127570630Y-88346750D01*
X127555500Y-88481039D01*
X127555500Y-90078960D01*
X127570630Y-90213249D01*
X127570631Y-90213254D01*
X127630211Y-90383523D01*
X127688827Y-90476809D01*
X127726184Y-90536262D01*
X127853738Y-90663816D01*
X127860033Y-90667772D01*
X127864343Y-90670480D01*
X127910633Y-90722816D01*
X127921279Y-90791870D01*
X127914550Y-90818804D01*
X127862403Y-90958617D01*
X127862401Y-90958627D01*
X127856000Y-91018155D01*
X127856000Y-91570000D01*
X128676988Y-91570000D01*
X128644075Y-91627007D01*
X128610000Y-91754174D01*
X128610000Y-91885826D01*
X128644075Y-92012993D01*
X128676988Y-92070000D01*
X127856000Y-92070000D01*
X127856000Y-92621844D01*
X127862401Y-92681372D01*
X127862403Y-92681380D01*
X127914550Y-92821194D01*
X127919534Y-92890886D01*
X127886049Y-92952209D01*
X127864344Y-92969518D01*
X127853743Y-92976179D01*
X127853739Y-92976182D01*
X127726184Y-93103737D01*
X127630211Y-93256476D01*
X127570631Y-93426745D01*
X127570630Y-93426750D01*
X127555500Y-93561039D01*
X127555500Y-95158960D01*
X127570630Y-95293249D01*
X127570631Y-95293254D01*
X127630211Y-95463523D01*
X127693363Y-95564028D01*
X127712363Y-95631265D01*
X127693363Y-95695972D01*
X127630211Y-95796476D01*
X127570631Y-95966745D01*
X127570630Y-95966750D01*
X127555500Y-96101039D01*
X127555500Y-97698960D01*
X127570630Y-97833249D01*
X127570631Y-97833254D01*
X127630211Y-98003523D01*
X127726184Y-98156262D01*
X127853737Y-98283815D01*
X127859184Y-98288159D01*
X127857943Y-98289714D01*
X127897754Y-98334706D01*
X127909500Y-98387385D01*
X127909500Y-100713145D01*
X127889815Y-100780184D01*
X127849929Y-100819093D01*
X127764754Y-100870888D01*
X127547154Y-101047919D01*
X127355692Y-101252925D01*
X127355692Y-101252926D01*
X127193919Y-101482103D01*
X127064863Y-101731171D01*
X126970926Y-101995483D01*
X126970921Y-101995500D01*
X126913852Y-102270135D01*
X126913851Y-102270137D01*
X126894709Y-102550000D01*
X126913851Y-102829862D01*
X126913852Y-102829864D01*
X126970921Y-103104499D01*
X126970926Y-103104516D01*
X127064863Y-103368828D01*
X127064864Y-103368830D01*
X127193919Y-103617896D01*
X127355688Y-103847069D01*
X127355692Y-103847073D01*
X127355692Y-103847074D01*
X127408352Y-103903459D01*
X127547155Y-104052081D01*
X127764754Y-104229111D01*
X127764756Y-104229112D01*
X127764757Y-104229113D01*
X128004433Y-104374863D01*
X128213257Y-104465567D01*
X128261725Y-104486620D01*
X128531839Y-104562303D01*
X128776159Y-104595884D01*
X128809741Y-104600500D01*
X128809742Y-104600500D01*
X129090259Y-104600500D01*
X129120219Y-104596381D01*
X129368161Y-104562303D01*
X129638275Y-104486620D01*
X129895568Y-104374862D01*
X130135246Y-104229111D01*
X130352845Y-104052081D01*
X130544312Y-103847069D01*
X130706081Y-103617896D01*
X130835136Y-103368830D01*
X130929075Y-103104511D01*
X130929076Y-103104504D01*
X130929078Y-103104499D01*
X130955571Y-102977005D01*
X130986148Y-102829862D01*
X131005291Y-102550000D01*
X131001871Y-102500000D01*
X138894564Y-102500000D01*
X138914287Y-102800918D01*
X138914288Y-102800930D01*
X138973118Y-103096683D01*
X138973122Y-103096698D01*
X139070053Y-103382247D01*
X139070062Y-103382268D01*
X139203431Y-103652713D01*
X139203435Y-103652720D01*
X139370973Y-103903459D01*
X139569810Y-104130189D01*
X139796540Y-104329026D01*
X140047279Y-104496564D01*
X140047286Y-104496568D01*
X140317731Y-104629937D01*
X140317736Y-104629939D01*
X140317748Y-104629945D01*
X140603309Y-104726880D01*
X140803251Y-104766651D01*
X140899069Y-104785711D01*
X140899070Y-104785711D01*
X140899080Y-104785713D01*
X141200000Y-104805436D01*
X141500920Y-104785713D01*
X141796691Y-104726880D01*
X142082252Y-104629945D01*
X142352718Y-104496566D01*
X142603461Y-104329025D01*
X142830189Y-104130189D01*
X143029025Y-103903461D01*
X143196566Y-103652718D01*
X143329945Y-103382252D01*
X143426880Y-103096691D01*
X143485713Y-102800920D01*
X143505436Y-102500000D01*
X143485713Y-102199080D01*
X143426880Y-101903309D01*
X143329945Y-101617748D01*
X143263052Y-101482103D01*
X143196568Y-101347286D01*
X143196564Y-101347279D01*
X143029026Y-101096540D01*
X142830189Y-100869810D01*
X142603459Y-100670973D01*
X142352720Y-100503435D01*
X142352713Y-100503431D01*
X142082268Y-100370062D01*
X142082247Y-100370053D01*
X141796698Y-100273122D01*
X141796692Y-100273120D01*
X141796691Y-100273120D01*
X141796689Y-100273119D01*
X141796683Y-100273118D01*
X141500930Y-100214288D01*
X141500921Y-100214287D01*
X141500920Y-100214287D01*
X141200000Y-100194564D01*
X140899080Y-100214287D01*
X140899079Y-100214287D01*
X140899069Y-100214288D01*
X140603316Y-100273118D01*
X140603301Y-100273122D01*
X140317752Y-100370053D01*
X140317731Y-100370062D01*
X140047286Y-100503431D01*
X140047279Y-100503435D01*
X139796540Y-100670973D01*
X139569810Y-100869810D01*
X139370973Y-101096540D01*
X139203435Y-101347279D01*
X139203431Y-101347286D01*
X139070062Y-101617731D01*
X139070053Y-101617752D01*
X138973122Y-101903301D01*
X138973118Y-101903316D01*
X138914288Y-102199069D01*
X138914287Y-102199081D01*
X138894564Y-102500000D01*
X131001871Y-102500000D01*
X130986148Y-102270138D01*
X130966443Y-102175315D01*
X130929078Y-101995500D01*
X130929073Y-101995483D01*
X130835136Y-101731171D01*
X130835136Y-101731170D01*
X130706081Y-101482104D01*
X130544312Y-101252931D01*
X130544307Y-101252925D01*
X130352848Y-101047922D01*
X130349859Y-101045130D01*
X130314303Y-100984984D01*
X130310500Y-100954510D01*
X130310500Y-98387385D01*
X130330185Y-98320346D01*
X130361650Y-98289204D01*
X130360816Y-98288159D01*
X130366256Y-98283819D01*
X130366262Y-98283816D01*
X130493816Y-98156262D01*
X130589789Y-98003522D01*
X130649368Y-97833255D01*
X130664500Y-97698954D01*
X130664500Y-96101046D01*
X130653115Y-96000000D01*
X130649369Y-95966750D01*
X130649368Y-95966745D01*
X130589788Y-95796475D01*
X130541851Y-95720185D01*
X130526636Y-95695971D01*
X130507636Y-95628736D01*
X130526637Y-95564027D01*
X130589788Y-95463524D01*
X130649368Y-95293254D01*
X130649369Y-95293249D01*
X130664499Y-95158960D01*
X130664500Y-95158956D01*
X130664500Y-93561043D01*
X130664499Y-93561039D01*
X130649369Y-93426750D01*
X130649368Y-93426745D01*
X130627684Y-93364776D01*
X130589789Y-93256478D01*
X130493816Y-93103738D01*
X130366262Y-92976184D01*
X130355655Y-92969519D01*
X130309366Y-92917184D01*
X130298719Y-92848131D01*
X130305448Y-92821193D01*
X130357597Y-92681376D01*
X130357598Y-92681372D01*
X130363999Y-92621844D01*
X130364000Y-92621827D01*
X130364000Y-92070000D01*
X129543012Y-92070000D01*
X129575925Y-92012993D01*
X129610000Y-91885826D01*
X129610000Y-91754174D01*
X129575925Y-91627007D01*
X129543012Y-91570000D01*
X130364000Y-91570000D01*
X130364000Y-91018172D01*
X130363999Y-91018155D01*
X130357598Y-90958627D01*
X130357597Y-90958623D01*
X130305448Y-90818805D01*
X130300464Y-90749113D01*
X130333949Y-90687790D01*
X130355655Y-90670480D01*
X130366262Y-90663816D01*
X130493816Y-90536262D01*
X130589789Y-90383522D01*
X130649368Y-90213255D01*
X130664500Y-90078954D01*
X130664500Y-88481046D01*
X130656982Y-88414318D01*
X130649369Y-88346750D01*
X130649368Y-88346745D01*
X130589788Y-88176475D01*
X130547427Y-88109060D01*
X130526636Y-88075971D01*
X130507636Y-88008736D01*
X130526637Y-87944027D01*
X130528854Y-87940500D01*
X130580751Y-87857906D01*
X130589789Y-87843523D01*
X130649368Y-87673254D01*
X130649369Y-87673249D01*
X130664499Y-87538960D01*
X130664500Y-87538956D01*
X130664500Y-85941043D01*
X130664499Y-85941039D01*
X130649369Y-85806750D01*
X130649368Y-85806745D01*
X130589788Y-85636475D01*
X130546668Y-85567851D01*
X130526636Y-85535971D01*
X130507636Y-85468736D01*
X130526637Y-85404027D01*
X130528854Y-85400500D01*
X130589789Y-85303522D01*
X130649368Y-85133255D01*
X130664500Y-84998954D01*
X130664500Y-83401046D01*
X130658000Y-83343354D01*
X130649369Y-83266750D01*
X130649368Y-83266745D01*
X130589788Y-83096475D01*
X130533800Y-83007372D01*
X130526636Y-82995971D01*
X130507636Y-82928736D01*
X130526637Y-82864027D01*
X130530517Y-82857853D01*
X130589789Y-82763522D01*
X130649368Y-82593255D01*
X130664500Y-82458954D01*
X130664500Y-80861046D01*
X130659565Y-80817246D01*
X130649369Y-80726750D01*
X130649368Y-80726745D01*
X130624839Y-80656645D01*
X130589789Y-80556478D01*
X130554301Y-80500000D01*
X130493815Y-80403737D01*
X130366263Y-80276185D01*
X130366262Y-80276184D01*
X130355655Y-80269519D01*
X130309366Y-80217184D01*
X130298719Y-80148131D01*
X130305448Y-80121193D01*
X130357597Y-79981376D01*
X130357598Y-79981372D01*
X130363999Y-79921844D01*
X130364000Y-79921827D01*
X130364000Y-79370000D01*
X129543012Y-79370000D01*
X129575925Y-79312993D01*
X129610000Y-79185826D01*
X129610000Y-79054174D01*
X129575925Y-78927007D01*
X129543012Y-78870000D01*
X130364000Y-78870000D01*
X130364000Y-78318172D01*
X130363999Y-78318155D01*
X130357598Y-78258627D01*
X130357597Y-78258623D01*
X130305448Y-78118805D01*
X130300464Y-78049113D01*
X130333949Y-77987790D01*
X130355655Y-77970480D01*
X130366262Y-77963816D01*
X130493816Y-77836262D01*
X130589789Y-77683522D01*
X130649368Y-77513255D01*
X130651255Y-77496513D01*
X130664499Y-77378960D01*
X130664500Y-77378956D01*
X130664500Y-75781043D01*
X130664499Y-75781039D01*
X130649369Y-75646750D01*
X130649368Y-75646745D01*
X130589788Y-75476475D01*
X130548205Y-75410297D01*
X130526636Y-75375971D01*
X130507636Y-75308736D01*
X130526637Y-75244027D01*
X130530517Y-75237853D01*
X130589409Y-75144127D01*
X130589788Y-75143524D01*
X130622164Y-75051000D01*
X130649368Y-74973255D01*
X130649966Y-74967954D01*
X130664499Y-74838960D01*
X130664500Y-74838956D01*
X130664500Y-73241043D01*
X130664499Y-73241039D01*
X130649369Y-73106750D01*
X130649368Y-73106745D01*
X130589788Y-72936475D01*
X130526637Y-72835973D01*
X130507636Y-72768736D01*
X130526637Y-72704027D01*
X130528854Y-72700500D01*
X130589789Y-72603522D01*
X130649368Y-72433255D01*
X130664500Y-72298954D01*
X130664500Y-70701046D01*
X130652430Y-70593917D01*
X130649369Y-70566750D01*
X130649368Y-70566745D01*
X130589788Y-70396475D01*
X130547427Y-70329059D01*
X130526636Y-70295971D01*
X130507636Y-70228736D01*
X130526637Y-70164027D01*
X130530517Y-70157853D01*
X130589789Y-70063522D01*
X130649368Y-69893255D01*
X130664500Y-69758954D01*
X130664500Y-68161046D01*
X130649368Y-68026745D01*
X130589789Y-67856478D01*
X130493816Y-67703738D01*
X130366262Y-67576184D01*
X130355655Y-67569519D01*
X130309366Y-67517184D01*
X130298719Y-67448131D01*
X130305448Y-67421193D01*
X130357597Y-67281376D01*
X130357598Y-67281372D01*
X130363999Y-67221844D01*
X130364000Y-67221827D01*
X130364000Y-66670000D01*
X129543012Y-66670000D01*
X129575925Y-66612993D01*
X129610000Y-66485826D01*
X129610000Y-66354174D01*
X129575925Y-66227007D01*
X129543012Y-66170000D01*
X130364000Y-66170000D01*
X130364000Y-65618172D01*
X130363999Y-65618155D01*
X130357598Y-65558627D01*
X130357597Y-65558623D01*
X130305448Y-65418805D01*
X130300464Y-65349113D01*
X130333949Y-65287790D01*
X130355655Y-65270480D01*
X130366262Y-65263816D01*
X130493816Y-65136262D01*
X130589789Y-64983522D01*
X130649368Y-64813255D01*
X130664500Y-64678954D01*
X130664500Y-63081046D01*
X130655053Y-62997202D01*
X130649369Y-62946750D01*
X130649368Y-62946745D01*
X130589788Y-62776475D01*
X130539815Y-62696945D01*
X130526636Y-62675971D01*
X130507636Y-62608736D01*
X130526637Y-62544027D01*
X130528854Y-62540500D01*
X130589789Y-62443522D01*
X130649368Y-62273255D01*
X130654111Y-62231164D01*
X130664499Y-62138960D01*
X130664500Y-62138956D01*
X130664500Y-60541043D01*
X130664499Y-60541039D01*
X130649369Y-60406750D01*
X130649368Y-60406745D01*
X130589788Y-60236475D01*
X130531274Y-60143352D01*
X130526636Y-60135971D01*
X130507636Y-60068736D01*
X130526637Y-60004027D01*
X130528854Y-60000500D01*
X130589789Y-59903522D01*
X130649368Y-59733255D01*
X130664500Y-59598954D01*
X130664500Y-58001046D01*
X130649368Y-57866745D01*
X130589789Y-57696478D01*
X130589788Y-57696476D01*
X130589788Y-57696475D01*
X130547427Y-57629060D01*
X130526636Y-57595971D01*
X130507636Y-57528736D01*
X130526637Y-57464027D01*
X130528854Y-57460500D01*
X130589789Y-57363522D01*
X130649368Y-57193255D01*
X130664500Y-57058954D01*
X130664500Y-55461046D01*
X130649368Y-55326745D01*
X130589789Y-55156478D01*
X130493816Y-55003738D01*
X130366262Y-54876184D01*
X130355655Y-54869519D01*
X130309366Y-54817184D01*
X130298719Y-54748131D01*
X130305448Y-54721193D01*
X130357597Y-54581376D01*
X130357598Y-54581372D01*
X130363999Y-54521844D01*
X130364000Y-54521827D01*
X130364000Y-53970000D01*
X129543012Y-53970000D01*
X129575925Y-53912993D01*
X129610000Y-53785826D01*
X129610000Y-53654174D01*
X129575925Y-53527007D01*
X129543012Y-53470000D01*
X130364000Y-53470000D01*
X130364000Y-52918172D01*
X130363999Y-52918155D01*
X130357598Y-52858627D01*
X130357597Y-52858623D01*
X130305448Y-52718805D01*
X130300464Y-52649113D01*
X130333949Y-52587790D01*
X130355655Y-52570480D01*
X130366262Y-52563816D01*
X130493816Y-52436262D01*
X130589789Y-52283522D01*
X130649368Y-52113255D01*
X130651348Y-52095687D01*
X130661710Y-52003718D01*
X130664500Y-51978954D01*
X130664500Y-50381046D01*
X130654239Y-50289975D01*
X130649369Y-50246750D01*
X130649368Y-50246745D01*
X130589788Y-50076475D01*
X130547427Y-50009059D01*
X130526636Y-49975971D01*
X130507636Y-49908736D01*
X130526637Y-49844027D01*
X130528854Y-49840500D01*
X130589789Y-49743522D01*
X130649368Y-49573255D01*
X130664500Y-49438954D01*
X130664500Y-47841046D01*
X130649368Y-47706745D01*
X130589789Y-47536478D01*
X130493816Y-47383738D01*
X130366262Y-47256184D01*
X130213523Y-47160211D01*
X130043254Y-47100631D01*
X130043249Y-47100630D01*
X129908960Y-47085500D01*
X129908954Y-47085500D01*
X128311046Y-47085500D01*
X128311039Y-47085500D01*
X128176750Y-47100630D01*
X128176745Y-47100631D01*
X128006476Y-47160211D01*
X127853737Y-47256184D01*
X127726182Y-47383739D01*
X127721837Y-47389188D01*
X127720282Y-47387947D01*
X127675285Y-47427758D01*
X127622614Y-47439500D01*
X126188625Y-47439500D01*
X126121586Y-47419815D01*
X126100944Y-47403181D01*
X124809945Y-46112181D01*
X124776460Y-46050858D01*
X124781444Y-45981166D01*
X124823316Y-45925233D01*
X124888780Y-45900816D01*
X124897626Y-45900500D01*
X135291374Y-45900500D01*
X135358413Y-45920185D01*
X135379055Y-45936819D01*
X141404310Y-51962073D01*
X141537927Y-52095690D01*
X141690801Y-52206760D01*
X141751591Y-52237734D01*
X141859163Y-52292545D01*
X141859165Y-52292545D01*
X141859168Y-52292547D01*
X141951741Y-52322626D01*
X142038881Y-52350940D01*
X142225514Y-52380500D01*
X142225519Y-52380500D01*
X145402614Y-52380500D01*
X145469653Y-52400185D01*
X145500791Y-52431645D01*
X145501837Y-52430812D01*
X145506182Y-52436260D01*
X145506184Y-52436262D01*
X145633738Y-52563816D01*
X145640033Y-52567772D01*
X145644343Y-52570480D01*
X145690633Y-52622816D01*
X145701279Y-52691870D01*
X145694550Y-52718804D01*
X145642403Y-52858617D01*
X145642401Y-52858627D01*
X145636000Y-52918155D01*
X145636000Y-53470000D01*
X146456988Y-53470000D01*
X146424075Y-53527007D01*
X146390000Y-53654174D01*
X146390000Y-53785826D01*
X146424075Y-53912993D01*
X146456988Y-53970000D01*
X145636000Y-53970000D01*
X145636000Y-54521844D01*
X145642401Y-54581372D01*
X145642403Y-54581380D01*
X145694550Y-54721194D01*
X145699534Y-54790886D01*
X145666049Y-54852209D01*
X145644344Y-54869518D01*
X145633743Y-54876179D01*
X145633739Y-54876182D01*
X145506184Y-55003737D01*
X145410211Y-55156476D01*
X145350631Y-55326745D01*
X145350630Y-55326750D01*
X145335500Y-55461039D01*
X145335500Y-57058960D01*
X145350630Y-57193249D01*
X145350631Y-57193254D01*
X145410211Y-57363523D01*
X145473363Y-57464028D01*
X145492363Y-57531265D01*
X145473363Y-57595972D01*
X145410211Y-57696476D01*
X145350631Y-57866745D01*
X145350630Y-57866750D01*
X145335500Y-58001039D01*
X145335500Y-59598960D01*
X145350630Y-59733249D01*
X145350631Y-59733254D01*
X145410211Y-59903523D01*
X145473363Y-60004028D01*
X145492363Y-60071265D01*
X145473363Y-60135972D01*
X145410211Y-60236476D01*
X145350631Y-60406745D01*
X145350630Y-60406750D01*
X145335500Y-60541039D01*
X145335500Y-62138960D01*
X145350630Y-62273249D01*
X145350631Y-62273254D01*
X145410211Y-62443523D01*
X145473363Y-62544028D01*
X145492363Y-62611265D01*
X145473363Y-62675972D01*
X145410211Y-62776476D01*
X145350631Y-62946745D01*
X145350630Y-62946750D01*
X145335500Y-63081039D01*
X145335500Y-64678960D01*
X145350630Y-64813249D01*
X145350631Y-64813254D01*
X145410211Y-64983523D01*
X145506184Y-65136262D01*
X145633738Y-65263816D01*
X145640033Y-65267772D01*
X145644343Y-65270480D01*
X145690633Y-65322816D01*
X145701279Y-65391870D01*
X145694550Y-65418804D01*
X145642403Y-65558617D01*
X145642401Y-65558627D01*
X145636000Y-65618155D01*
X145636000Y-66170000D01*
X146456988Y-66170000D01*
X146424075Y-66227007D01*
X146390000Y-66354174D01*
X146390000Y-66485826D01*
X146424075Y-66612993D01*
X146456988Y-66670000D01*
X145636000Y-66670000D01*
X145636000Y-67221844D01*
X145642401Y-67281372D01*
X145642403Y-67281380D01*
X145694550Y-67421194D01*
X145699534Y-67490886D01*
X145666049Y-67552209D01*
X145644344Y-67569518D01*
X145633743Y-67576179D01*
X145633739Y-67576182D01*
X145506184Y-67703737D01*
X145410211Y-67856476D01*
X145350631Y-68026745D01*
X145350630Y-68026750D01*
X145335500Y-68161039D01*
X145335500Y-69758960D01*
X145350630Y-69893249D01*
X145350631Y-69893254D01*
X145410211Y-70063523D01*
X145473363Y-70164028D01*
X145492363Y-70231265D01*
X145473363Y-70295972D01*
X145410211Y-70396476D01*
X145350631Y-70566745D01*
X145350630Y-70566750D01*
X145335500Y-70701039D01*
X145335500Y-72298960D01*
X145350630Y-72433249D01*
X145350631Y-72433254D01*
X145410211Y-72603523D01*
X145473363Y-72704028D01*
X145492363Y-72771265D01*
X145473363Y-72835972D01*
X145410211Y-72936476D01*
X145350631Y-73106745D01*
X145350630Y-73106750D01*
X145335500Y-73241039D01*
X145335500Y-74838960D01*
X145350630Y-74973249D01*
X145350631Y-74973254D01*
X145410211Y-75143523D01*
X145473363Y-75244028D01*
X145492363Y-75311265D01*
X145473363Y-75375972D01*
X145410211Y-75476476D01*
X145350631Y-75646745D01*
X145350630Y-75646750D01*
X145335500Y-75781039D01*
X145335500Y-77378960D01*
X145350630Y-77513249D01*
X145350631Y-77513254D01*
X145410211Y-77683523D01*
X145462668Y-77767007D01*
X145506184Y-77836262D01*
X145633738Y-77963816D01*
X145640033Y-77967772D01*
X145644343Y-77970480D01*
X145690633Y-78022816D01*
X145701279Y-78091870D01*
X145694550Y-78118804D01*
X145642403Y-78258617D01*
X145642401Y-78258627D01*
X145636000Y-78318155D01*
X145636000Y-78870000D01*
X146456988Y-78870000D01*
X146424075Y-78927007D01*
X146390000Y-79054174D01*
X146390000Y-79185826D01*
X146424075Y-79312993D01*
X146456988Y-79370000D01*
X145636000Y-79370000D01*
X145636000Y-79921844D01*
X145642401Y-79981372D01*
X145642403Y-79981380D01*
X145694550Y-80121194D01*
X145699534Y-80190886D01*
X145666049Y-80252209D01*
X145644344Y-80269518D01*
X145633743Y-80276179D01*
X145633739Y-80276182D01*
X145506184Y-80403737D01*
X145410211Y-80556476D01*
X145350631Y-80726745D01*
X145350630Y-80726750D01*
X145335500Y-80861039D01*
X145335500Y-82458960D01*
X145350630Y-82593249D01*
X145350631Y-82593254D01*
X145410211Y-82763523D01*
X145473363Y-82864028D01*
X145492363Y-82931265D01*
X145473363Y-82995972D01*
X145410211Y-83096476D01*
X145350631Y-83266745D01*
X145350630Y-83266750D01*
X145335500Y-83401039D01*
X145335500Y-84998960D01*
X145350630Y-85133249D01*
X145350631Y-85133254D01*
X145410211Y-85303523D01*
X145473363Y-85404028D01*
X145492363Y-85471265D01*
X145473363Y-85535972D01*
X145410211Y-85636476D01*
X145350631Y-85806745D01*
X145350630Y-85806750D01*
X145335500Y-85941039D01*
X145335500Y-87538960D01*
X145350630Y-87673249D01*
X145350631Y-87673254D01*
X145410211Y-87843523D01*
X145473363Y-87944028D01*
X145492363Y-88011265D01*
X145473363Y-88075972D01*
X145410211Y-88176476D01*
X145350631Y-88346745D01*
X145350630Y-88346750D01*
X145335500Y-88481039D01*
X145335500Y-90078960D01*
X145350630Y-90213249D01*
X145350631Y-90213254D01*
X145410211Y-90383523D01*
X145468827Y-90476809D01*
X145506184Y-90536262D01*
X145633738Y-90663816D01*
X145640033Y-90667772D01*
X145644343Y-90670480D01*
X145690633Y-90722816D01*
X145701279Y-90791870D01*
X145694550Y-90818804D01*
X145642403Y-90958617D01*
X145642401Y-90958627D01*
X145636000Y-91018155D01*
X145636000Y-91570000D01*
X146456988Y-91570000D01*
X146424075Y-91627007D01*
X146390000Y-91754174D01*
X146390000Y-91885826D01*
X146424075Y-92012993D01*
X146456988Y-92070000D01*
X145636000Y-92070000D01*
X145636000Y-92621844D01*
X145642401Y-92681372D01*
X145642403Y-92681380D01*
X145694550Y-92821194D01*
X145699534Y-92890886D01*
X145666049Y-92952209D01*
X145644344Y-92969518D01*
X145633743Y-92976179D01*
X145633739Y-92976182D01*
X145506184Y-93103737D01*
X145410211Y-93256476D01*
X145350631Y-93426745D01*
X145350630Y-93426750D01*
X145335500Y-93561039D01*
X145335500Y-95158960D01*
X145350630Y-95293249D01*
X145350631Y-95293254D01*
X145410211Y-95463523D01*
X145473363Y-95564028D01*
X145492363Y-95631265D01*
X145473363Y-95695972D01*
X145410211Y-95796476D01*
X145350631Y-95966745D01*
X145350630Y-95966750D01*
X145335500Y-96101039D01*
X145335500Y-97698960D01*
X145350630Y-97833249D01*
X145350631Y-97833254D01*
X145410211Y-98003523D01*
X145506184Y-98156262D01*
X145633738Y-98283816D01*
X145786478Y-98379789D01*
X145956745Y-98439368D01*
X145956750Y-98439369D01*
X146047246Y-98449565D01*
X146091040Y-98454499D01*
X146091043Y-98454500D01*
X146091046Y-98454500D01*
X147688957Y-98454500D01*
X147688958Y-98454499D01*
X147756104Y-98446934D01*
X147823249Y-98439369D01*
X147823252Y-98439368D01*
X147823255Y-98439368D01*
X147993522Y-98379789D01*
X148146262Y-98283816D01*
X148273816Y-98156262D01*
X148369789Y-98003522D01*
X148429368Y-97833255D01*
X148444500Y-97698954D01*
X148444500Y-96101046D01*
X148433115Y-96000000D01*
X148429369Y-95966750D01*
X148429368Y-95966745D01*
X148369788Y-95796475D01*
X148321851Y-95720185D01*
X148306636Y-95695971D01*
X148287636Y-95628736D01*
X148306637Y-95564027D01*
X148369788Y-95463524D01*
X148429368Y-95293254D01*
X148429369Y-95293249D01*
X148444499Y-95158960D01*
X148444500Y-95158956D01*
X148444500Y-93561043D01*
X148444499Y-93561039D01*
X148429369Y-93426750D01*
X148429368Y-93426745D01*
X148407684Y-93364776D01*
X148369789Y-93256478D01*
X148273816Y-93103738D01*
X148146262Y-92976184D01*
X148135655Y-92969519D01*
X148089366Y-92917184D01*
X148078719Y-92848131D01*
X148085448Y-92821193D01*
X148137597Y-92681376D01*
X148137598Y-92681372D01*
X148143999Y-92621844D01*
X148144000Y-92621827D01*
X148144000Y-92070000D01*
X147323012Y-92070000D01*
X147355925Y-92012993D01*
X147390000Y-91885826D01*
X147390000Y-91754174D01*
X147355925Y-91627007D01*
X147323012Y-91570000D01*
X148144000Y-91570000D01*
X148144000Y-91018172D01*
X148143999Y-91018155D01*
X148137598Y-90958627D01*
X148137597Y-90958623D01*
X148085448Y-90818805D01*
X148080464Y-90749113D01*
X148113949Y-90687790D01*
X148135655Y-90670480D01*
X148146262Y-90663816D01*
X148273816Y-90536262D01*
X148273818Y-90536258D01*
X148278163Y-90530812D01*
X148279717Y-90532052D01*
X148324715Y-90492242D01*
X148377386Y-90480500D01*
X148381374Y-90480500D01*
X148448413Y-90500185D01*
X148469055Y-90516819D01*
X152520089Y-94567852D01*
X152553574Y-94629175D01*
X152556026Y-94645803D01*
X152564317Y-94751148D01*
X152564318Y-94751151D01*
X152623126Y-94996110D01*
X152719533Y-95228859D01*
X152851160Y-95443653D01*
X152851161Y-95443656D01*
X152906604Y-95508571D01*
X153014776Y-95635224D01*
X153163066Y-95761875D01*
X153206343Y-95798838D01*
X153206346Y-95798839D01*
X153421140Y-95930466D01*
X153638928Y-96020676D01*
X153653889Y-96026873D01*
X153898852Y-96085683D01*
X154150000Y-96105449D01*
X154401148Y-96085683D01*
X154646111Y-96026873D01*
X154878859Y-95930466D01*
X155093659Y-95798836D01*
X155285224Y-95635224D01*
X155448836Y-95443659D01*
X155580466Y-95228859D01*
X155676873Y-94996111D01*
X155735683Y-94751148D01*
X155755449Y-94500000D01*
X165244551Y-94500000D01*
X165264317Y-94751151D01*
X165323126Y-94996110D01*
X165419533Y-95228859D01*
X165551160Y-95443653D01*
X165551161Y-95443656D01*
X165606604Y-95508571D01*
X165714776Y-95635224D01*
X165863066Y-95761875D01*
X165906343Y-95798838D01*
X165906346Y-95798839D01*
X166121140Y-95930466D01*
X166338928Y-96020676D01*
X166353889Y-96026873D01*
X166598852Y-96085683D01*
X166850000Y-96105449D01*
X167101148Y-96085683D01*
X167346111Y-96026873D01*
X167578859Y-95930466D01*
X167793659Y-95798836D01*
X167874011Y-95730209D01*
X167937771Y-95701639D01*
X167954541Y-95700500D01*
X169921374Y-95700500D01*
X169988413Y-95720185D01*
X170009055Y-95736819D01*
X170231589Y-95959353D01*
X170265074Y-96020676D01*
X170267561Y-96037767D01*
X170283777Y-96254155D01*
X170321478Y-96419333D01*
X170340492Y-96502637D01*
X170433607Y-96739888D01*
X170561041Y-96960612D01*
X170719950Y-97159877D01*
X170906783Y-97333232D01*
X171117366Y-97476805D01*
X171117371Y-97476807D01*
X171117372Y-97476808D01*
X171117373Y-97476809D01*
X171239328Y-97535538D01*
X171346992Y-97587387D01*
X171346993Y-97587387D01*
X171346996Y-97587389D01*
X171590542Y-97662513D01*
X171842565Y-97700500D01*
X172097435Y-97700500D01*
X172349458Y-97662513D01*
X172593004Y-97587389D01*
X172822634Y-97476805D01*
X173033217Y-97333232D01*
X173100800Y-97270523D01*
X173163328Y-97239357D01*
X173232784Y-97246943D01*
X173259450Y-97262158D01*
X173367910Y-97343352D01*
X173367913Y-97343354D01*
X173502620Y-97393596D01*
X173502627Y-97393598D01*
X173562155Y-97399999D01*
X173562172Y-97400000D01*
X174260000Y-97400000D01*
X174260000Y-96375277D01*
X174336306Y-96419333D01*
X174450756Y-96450000D01*
X174569244Y-96450000D01*
X174683694Y-96419333D01*
X174760000Y-96375277D01*
X174760000Y-97400000D01*
X175457828Y-97400000D01*
X175457844Y-97399999D01*
X175517372Y-97393598D01*
X175517379Y-97393596D01*
X175652086Y-97343354D01*
X175652093Y-97343350D01*
X175767187Y-97257190D01*
X175767190Y-97257187D01*
X175853350Y-97142093D01*
X175853354Y-97142086D01*
X175903596Y-97007379D01*
X175903598Y-97007372D01*
X175909999Y-96947844D01*
X175910000Y-96947827D01*
X175910000Y-96250000D01*
X174885278Y-96250000D01*
X174929333Y-96173694D01*
X174960000Y-96059244D01*
X174960000Y-95940756D01*
X174929333Y-95826306D01*
X174885278Y-95750000D01*
X175910000Y-95750000D01*
X175910000Y-95052172D01*
X175909999Y-95052155D01*
X175903598Y-94992627D01*
X175903596Y-94992620D01*
X175853354Y-94857913D01*
X175853350Y-94857906D01*
X175767190Y-94742812D01*
X175767187Y-94742809D01*
X175652093Y-94656649D01*
X175652086Y-94656645D01*
X175517379Y-94606403D01*
X175517372Y-94606401D01*
X175457844Y-94600000D01*
X174760000Y-94600000D01*
X174760000Y-95624722D01*
X174683694Y-95580667D01*
X174569244Y-95550000D01*
X174450756Y-95550000D01*
X174336306Y-95580667D01*
X174260000Y-95624722D01*
X174260000Y-94600000D01*
X173562155Y-94600000D01*
X173502627Y-94606401D01*
X173502620Y-94606403D01*
X173367913Y-94656645D01*
X173367910Y-94656647D01*
X173259449Y-94737841D01*
X173193984Y-94762258D01*
X173125711Y-94747406D01*
X173100797Y-94729473D01*
X173033217Y-94666768D01*
X172978078Y-94629175D01*
X172822634Y-94523195D01*
X172822630Y-94523193D01*
X172822627Y-94523191D01*
X172822626Y-94523190D01*
X172593006Y-94412612D01*
X172593008Y-94412612D01*
X172349466Y-94337489D01*
X172349462Y-94337488D01*
X172349458Y-94337487D01*
X172228231Y-94319214D01*
X172097440Y-94299500D01*
X172097435Y-94299500D01*
X172018626Y-94299500D01*
X171951587Y-94279815D01*
X171930945Y-94263181D01*
X171252076Y-93584312D01*
X171252074Y-93584310D01*
X171099199Y-93473240D01*
X170930836Y-93387454D01*
X170751118Y-93329059D01*
X170564486Y-93299500D01*
X170564481Y-93299500D01*
X167954541Y-93299500D01*
X167887502Y-93279815D01*
X167874016Y-93269795D01*
X167793659Y-93201164D01*
X167793657Y-93201162D01*
X167793655Y-93201161D01*
X167793653Y-93201160D01*
X167578859Y-93069533D01*
X167346110Y-92973126D01*
X167101151Y-92914317D01*
X166850000Y-92894551D01*
X166598848Y-92914317D01*
X166353889Y-92973126D01*
X166121140Y-93069533D01*
X165906346Y-93201160D01*
X165906343Y-93201161D01*
X165714776Y-93364776D01*
X165551161Y-93556343D01*
X165551160Y-93556346D01*
X165419533Y-93771140D01*
X165323126Y-94003889D01*
X165264317Y-94248848D01*
X165244551Y-94500000D01*
X155755449Y-94500000D01*
X155735683Y-94248852D01*
X155676873Y-94003889D01*
X155580466Y-93771141D01*
X155580466Y-93771140D01*
X155448839Y-93556346D01*
X155448838Y-93556343D01*
X155377861Y-93473240D01*
X155285224Y-93364776D01*
X155158421Y-93256476D01*
X155093656Y-93201161D01*
X155093653Y-93201160D01*
X154878859Y-93069533D01*
X154646110Y-92973126D01*
X154467066Y-92930142D01*
X154401148Y-92914317D01*
X154305181Y-92906764D01*
X154295803Y-92906026D01*
X154230515Y-92881141D01*
X154217852Y-92870089D01*
X149712076Y-88364312D01*
X149712075Y-88364311D01*
X149712074Y-88364310D01*
X149559199Y-88253240D01*
X149408539Y-88176475D01*
X149405615Y-88174985D01*
X149354819Y-88127010D01*
X149338024Y-88059189D01*
X149360561Y-87993054D01*
X149415277Y-87949603D01*
X149461910Y-87940500D01*
X150341374Y-87940500D01*
X150408413Y-87960185D01*
X150429055Y-87976819D01*
X152520089Y-90067853D01*
X152553574Y-90129176D01*
X152556026Y-90145804D01*
X152564317Y-90251148D01*
X152564318Y-90251151D01*
X152623126Y-90496110D01*
X152719533Y-90728859D01*
X152851160Y-90943653D01*
X152851161Y-90943656D01*
X152851164Y-90943659D01*
X153014776Y-91135224D01*
X153163066Y-91261875D01*
X153206343Y-91298838D01*
X153206346Y-91298839D01*
X153421140Y-91430466D01*
X153653889Y-91526873D01*
X153898852Y-91585683D01*
X154150000Y-91605449D01*
X154401148Y-91585683D01*
X154646111Y-91526873D01*
X154878859Y-91430466D01*
X155093659Y-91298836D01*
X155285224Y-91135224D01*
X155448836Y-90943659D01*
X155580466Y-90728859D01*
X155676873Y-90496111D01*
X155735683Y-90251148D01*
X155755449Y-90000000D01*
X165244551Y-90000000D01*
X165264317Y-90251151D01*
X165323126Y-90496110D01*
X165419533Y-90728859D01*
X165551160Y-90943653D01*
X165551161Y-90943656D01*
X165551164Y-90943659D01*
X165714776Y-91135224D01*
X165863066Y-91261875D01*
X165906343Y-91298838D01*
X165906346Y-91298839D01*
X166121140Y-91430466D01*
X166353889Y-91526873D01*
X166598852Y-91585683D01*
X166850000Y-91605449D01*
X167101148Y-91585683D01*
X167346111Y-91526873D01*
X167578859Y-91430466D01*
X167793659Y-91298836D01*
X167874011Y-91230209D01*
X167937771Y-91201639D01*
X167954541Y-91200500D01*
X171094486Y-91200500D01*
X171281118Y-91170940D01*
X171460832Y-91112547D01*
X171629199Y-91026760D01*
X171782074Y-90915690D01*
X171960945Y-90736819D01*
X172022268Y-90703334D01*
X172048626Y-90700500D01*
X172127435Y-90700500D01*
X172379458Y-90662513D01*
X172623004Y-90587389D01*
X172820579Y-90492242D01*
X172852626Y-90476809D01*
X172852626Y-90476808D01*
X172852634Y-90476805D01*
X173063217Y-90333232D01*
X173130800Y-90270523D01*
X173193328Y-90239357D01*
X173262784Y-90246943D01*
X173289450Y-90262158D01*
X173397910Y-90343352D01*
X173397913Y-90343354D01*
X173532620Y-90393596D01*
X173532627Y-90393598D01*
X173592155Y-90399999D01*
X173592172Y-90400000D01*
X174290000Y-90400000D01*
X174290000Y-89375277D01*
X174366306Y-89419333D01*
X174480756Y-89450000D01*
X174599244Y-89450000D01*
X174713694Y-89419333D01*
X174790000Y-89375277D01*
X174790000Y-90400000D01*
X175487828Y-90400000D01*
X175487844Y-90399999D01*
X175547372Y-90393598D01*
X175547379Y-90393596D01*
X175682086Y-90343354D01*
X175682093Y-90343350D01*
X175797187Y-90257190D01*
X175797190Y-90257187D01*
X175883350Y-90142093D01*
X175883354Y-90142086D01*
X175933596Y-90007379D01*
X175933598Y-90007372D01*
X175939999Y-89947844D01*
X175940000Y-89947827D01*
X175940000Y-89250000D01*
X174915278Y-89250000D01*
X174959333Y-89173694D01*
X174990000Y-89059244D01*
X174990000Y-88940756D01*
X174959333Y-88826306D01*
X174915278Y-88750000D01*
X175940000Y-88750000D01*
X175940000Y-88052172D01*
X175939999Y-88052155D01*
X175933598Y-87992627D01*
X175933596Y-87992620D01*
X175883354Y-87857913D01*
X175883350Y-87857906D01*
X175797190Y-87742812D01*
X175797187Y-87742809D01*
X175682093Y-87656649D01*
X175682086Y-87656645D01*
X175547379Y-87606403D01*
X175547372Y-87606401D01*
X175487844Y-87600000D01*
X174790000Y-87600000D01*
X174790000Y-88624722D01*
X174713694Y-88580667D01*
X174599244Y-88550000D01*
X174480756Y-88550000D01*
X174366306Y-88580667D01*
X174290000Y-88624722D01*
X174290000Y-87600000D01*
X173592155Y-87600000D01*
X173532627Y-87606401D01*
X173532620Y-87606403D01*
X173397913Y-87656645D01*
X173397910Y-87656647D01*
X173289449Y-87737841D01*
X173223984Y-87762258D01*
X173155711Y-87747406D01*
X173130797Y-87729473D01*
X173063217Y-87666768D01*
X173048369Y-87656645D01*
X172852634Y-87523195D01*
X172852630Y-87523193D01*
X172852627Y-87523191D01*
X172852626Y-87523190D01*
X172623006Y-87412612D01*
X172623008Y-87412612D01*
X172379466Y-87337489D01*
X172379462Y-87337488D01*
X172379458Y-87337487D01*
X172258231Y-87319214D01*
X172127440Y-87299500D01*
X172127435Y-87299500D01*
X171872565Y-87299500D01*
X171872559Y-87299500D01*
X171715609Y-87323157D01*
X171620542Y-87337487D01*
X171620539Y-87337488D01*
X171620533Y-87337489D01*
X171376992Y-87412612D01*
X171147373Y-87523190D01*
X171147372Y-87523191D01*
X170936782Y-87666768D01*
X170749952Y-87840121D01*
X170749950Y-87840123D01*
X170591041Y-88039388D01*
X170463608Y-88260109D01*
X170370492Y-88497362D01*
X170370490Y-88497369D01*
X170323535Y-88703093D01*
X170289426Y-88764071D01*
X170227765Y-88796929D01*
X170202644Y-88799500D01*
X167954541Y-88799500D01*
X167887502Y-88779815D01*
X167874016Y-88769795D01*
X167793659Y-88701164D01*
X167793657Y-88701162D01*
X167793655Y-88701161D01*
X167793653Y-88701160D01*
X167578859Y-88569533D01*
X167346110Y-88473126D01*
X167101151Y-88414317D01*
X166850000Y-88394551D01*
X166598848Y-88414317D01*
X166353889Y-88473126D01*
X166121140Y-88569533D01*
X165906346Y-88701160D01*
X165906343Y-88701161D01*
X165714776Y-88864776D01*
X165551161Y-89056343D01*
X165551160Y-89056346D01*
X165419533Y-89271140D01*
X165323126Y-89503889D01*
X165264317Y-89748848D01*
X165244551Y-90000000D01*
X155755449Y-90000000D01*
X155735683Y-89748852D01*
X155676873Y-89503889D01*
X155617310Y-89360090D01*
X155580466Y-89271140D01*
X155448839Y-89056346D01*
X155448838Y-89056343D01*
X155350117Y-88940756D01*
X155285224Y-88864776D01*
X155145971Y-88745843D01*
X155093656Y-88701161D01*
X155093653Y-88701160D01*
X154878859Y-88569533D01*
X154646110Y-88473126D01*
X154467066Y-88430142D01*
X154401148Y-88414317D01*
X154307828Y-88406972D01*
X154295804Y-88406026D01*
X154230516Y-88381141D01*
X154217853Y-88370089D01*
X151672076Y-85824312D01*
X151672074Y-85824310D01*
X151519199Y-85713240D01*
X151365615Y-85634985D01*
X151314819Y-85587010D01*
X151298024Y-85519189D01*
X151320561Y-85453054D01*
X151375277Y-85409603D01*
X151421910Y-85400500D01*
X152301374Y-85400500D01*
X152368413Y-85420185D01*
X152389050Y-85436814D01*
X152520090Y-85567853D01*
X152553574Y-85629174D01*
X152556026Y-85645803D01*
X152564317Y-85751148D01*
X152564318Y-85751151D01*
X152623126Y-85996110D01*
X152719533Y-86228859D01*
X152851160Y-86443653D01*
X152851161Y-86443656D01*
X152851164Y-86443659D01*
X153014776Y-86635224D01*
X153163066Y-86761875D01*
X153206343Y-86798838D01*
X153206346Y-86798839D01*
X153421140Y-86930466D01*
X153653889Y-87026873D01*
X153898852Y-87085683D01*
X154150000Y-87105449D01*
X154401148Y-87085683D01*
X154646111Y-87026873D01*
X154878859Y-86930466D01*
X155093659Y-86798836D01*
X155285224Y-86635224D01*
X155448836Y-86443659D01*
X155580466Y-86228859D01*
X155676873Y-85996111D01*
X155735683Y-85751148D01*
X155755449Y-85500000D01*
X165244551Y-85500000D01*
X165264317Y-85751151D01*
X165323126Y-85996110D01*
X165419533Y-86228859D01*
X165551160Y-86443653D01*
X165551161Y-86443656D01*
X165551164Y-86443659D01*
X165714776Y-86635224D01*
X165863066Y-86761875D01*
X165906343Y-86798838D01*
X165906346Y-86798839D01*
X166121140Y-86930466D01*
X166353889Y-87026873D01*
X166598852Y-87085683D01*
X166850000Y-87105449D01*
X167101148Y-87085683D01*
X167346111Y-87026873D01*
X167578859Y-86930466D01*
X167793659Y-86798836D01*
X167874011Y-86730209D01*
X167937771Y-86701639D01*
X167954541Y-86700500D01*
X168564486Y-86700500D01*
X168751118Y-86670940D01*
X168930832Y-86612547D01*
X169099199Y-86526760D01*
X169252074Y-86415690D01*
X171930945Y-83736819D01*
X171992268Y-83703334D01*
X172018626Y-83700500D01*
X172097435Y-83700500D01*
X172349458Y-83662513D01*
X172593004Y-83587389D01*
X172822634Y-83476805D01*
X173033217Y-83333232D01*
X173100800Y-83270523D01*
X173163328Y-83239357D01*
X173232784Y-83246943D01*
X173259450Y-83262158D01*
X173367910Y-83343352D01*
X173367913Y-83343354D01*
X173502620Y-83393596D01*
X173502627Y-83393598D01*
X173562155Y-83399999D01*
X173562172Y-83400000D01*
X174260000Y-83400000D01*
X174260000Y-82375277D01*
X174336306Y-82419333D01*
X174450756Y-82450000D01*
X174569244Y-82450000D01*
X174683694Y-82419333D01*
X174760000Y-82375277D01*
X174760000Y-83400000D01*
X175457828Y-83400000D01*
X175457844Y-83399999D01*
X175517372Y-83393598D01*
X175517379Y-83393596D01*
X175652086Y-83343354D01*
X175652093Y-83343350D01*
X175767187Y-83257190D01*
X175767190Y-83257187D01*
X175853350Y-83142093D01*
X175853354Y-83142086D01*
X175903596Y-83007379D01*
X175903598Y-83007372D01*
X175909999Y-82947844D01*
X175910000Y-82947827D01*
X175910000Y-82250000D01*
X174885278Y-82250000D01*
X174929333Y-82173694D01*
X174960000Y-82059244D01*
X174960000Y-81940756D01*
X174929333Y-81826306D01*
X174885278Y-81750000D01*
X175910000Y-81750000D01*
X175910000Y-81052172D01*
X175909999Y-81052155D01*
X175903598Y-80992627D01*
X175903596Y-80992620D01*
X175853354Y-80857913D01*
X175853350Y-80857906D01*
X175767190Y-80742812D01*
X175767187Y-80742809D01*
X175652093Y-80656649D01*
X175652086Y-80656645D01*
X175517379Y-80606403D01*
X175517372Y-80606401D01*
X175457844Y-80600000D01*
X174760000Y-80600000D01*
X174760000Y-81624722D01*
X174683694Y-81580667D01*
X174569244Y-81550000D01*
X174450756Y-81550000D01*
X174336306Y-81580667D01*
X174260000Y-81624722D01*
X174260000Y-80600000D01*
X173562155Y-80600000D01*
X173502627Y-80606401D01*
X173502620Y-80606403D01*
X173367913Y-80656645D01*
X173367910Y-80656647D01*
X173259449Y-80737841D01*
X173193984Y-80762258D01*
X173125711Y-80747406D01*
X173100797Y-80729473D01*
X173033217Y-80666768D01*
X173018369Y-80656645D01*
X172822634Y-80523195D01*
X172822630Y-80523193D01*
X172822627Y-80523191D01*
X172822626Y-80523190D01*
X172593006Y-80412612D01*
X172593008Y-80412612D01*
X172349466Y-80337489D01*
X172349462Y-80337488D01*
X172349458Y-80337487D01*
X172228231Y-80319214D01*
X172097440Y-80299500D01*
X172097435Y-80299500D01*
X171842565Y-80299500D01*
X171842559Y-80299500D01*
X171685609Y-80323157D01*
X171590542Y-80337487D01*
X171590539Y-80337488D01*
X171590533Y-80337489D01*
X171346992Y-80412612D01*
X171117373Y-80523190D01*
X171117372Y-80523191D01*
X170906782Y-80666768D01*
X170719952Y-80840121D01*
X170719950Y-80840123D01*
X170561041Y-81039388D01*
X170433608Y-81260109D01*
X170340492Y-81497362D01*
X170340490Y-81497369D01*
X170283777Y-81745845D01*
X170267562Y-81962230D01*
X170242923Y-82027611D01*
X170231590Y-82040645D01*
X168024333Y-84247902D01*
X167963010Y-84281387D01*
X167893318Y-84276403D01*
X167856121Y-84254511D01*
X167793662Y-84201166D01*
X167793653Y-84201160D01*
X167578859Y-84069533D01*
X167346110Y-83973126D01*
X167101151Y-83914317D01*
X166850000Y-83894551D01*
X166598848Y-83914317D01*
X166353889Y-83973126D01*
X166121140Y-84069533D01*
X165906346Y-84201160D01*
X165906343Y-84201161D01*
X165714776Y-84364776D01*
X165551161Y-84556343D01*
X165551160Y-84556346D01*
X165419533Y-84771140D01*
X165323126Y-85003889D01*
X165264317Y-85248848D01*
X165244551Y-85500000D01*
X155755449Y-85500000D01*
X155735683Y-85248852D01*
X155676873Y-85003889D01*
X155580466Y-84771141D01*
X155580466Y-84771140D01*
X155448839Y-84556346D01*
X155448838Y-84556343D01*
X155411875Y-84513066D01*
X155285224Y-84364776D01*
X155148382Y-84247902D01*
X155093656Y-84201161D01*
X155093653Y-84201160D01*
X154878859Y-84069533D01*
X154646110Y-83973126D01*
X154467066Y-83930142D01*
X154401148Y-83914317D01*
X154305181Y-83906764D01*
X154295803Y-83906026D01*
X154230515Y-83881141D01*
X154217852Y-83870089D01*
X153935152Y-83587389D01*
X153632074Y-83284310D01*
X153479199Y-83173240D01*
X153452973Y-83159877D01*
X153310836Y-83087454D01*
X153131118Y-83029059D01*
X152944486Y-82999500D01*
X152944481Y-82999500D01*
X148445876Y-82999500D01*
X148378837Y-82979815D01*
X148333082Y-82927011D01*
X148323138Y-82857853D01*
X148340882Y-82809528D01*
X148357671Y-82782807D01*
X148369789Y-82763522D01*
X148429368Y-82593255D01*
X148444500Y-82458954D01*
X148444500Y-80861046D01*
X148439565Y-80817246D01*
X148429369Y-80726750D01*
X148429368Y-80726745D01*
X148404839Y-80656645D01*
X148369789Y-80556478D01*
X148334301Y-80500000D01*
X148273815Y-80403737D01*
X148146263Y-80276185D01*
X148146262Y-80276184D01*
X148135655Y-80269519D01*
X148089366Y-80217184D01*
X148078719Y-80148131D01*
X148085448Y-80121193D01*
X148137597Y-79981376D01*
X148137598Y-79981372D01*
X148143999Y-79921844D01*
X148144000Y-79921827D01*
X148144000Y-79370000D01*
X147323012Y-79370000D01*
X147355925Y-79312993D01*
X147390000Y-79185826D01*
X147390000Y-79054174D01*
X147355925Y-78927007D01*
X147323012Y-78870000D01*
X148144000Y-78870000D01*
X148144000Y-78318172D01*
X148143999Y-78318155D01*
X148137598Y-78258627D01*
X148137597Y-78258623D01*
X148085448Y-78118805D01*
X148080464Y-78049113D01*
X148113949Y-77987790D01*
X148135655Y-77970480D01*
X148146262Y-77963816D01*
X148273816Y-77836262D01*
X148273818Y-77836258D01*
X148278163Y-77830812D01*
X148279717Y-77832052D01*
X148324715Y-77792242D01*
X148377386Y-77780500D01*
X154575348Y-77780500D01*
X154761980Y-77750940D01*
X154869301Y-77716069D01*
X154907620Y-77710000D01*
X155566988Y-77710000D01*
X155534075Y-77767007D01*
X155500000Y-77894174D01*
X155500000Y-78025826D01*
X155534075Y-78152993D01*
X155566988Y-78210000D01*
X154669364Y-78210000D01*
X154726567Y-78423486D01*
X154726570Y-78423492D01*
X154826399Y-78637578D01*
X154961891Y-78831078D01*
X155079662Y-78948850D01*
X155113146Y-79010173D01*
X155108162Y-79079865D01*
X155066290Y-79135798D01*
X155056771Y-79142258D01*
X155026861Y-79160586D01*
X154829311Y-79329311D01*
X154660588Y-79526859D01*
X154524843Y-79748376D01*
X154425427Y-79988389D01*
X154364778Y-80241009D01*
X154344396Y-80500000D01*
X154364778Y-80758990D01*
X154425427Y-81011610D01*
X154524843Y-81251623D01*
X154524845Y-81251627D01*
X154524846Y-81251628D01*
X154660588Y-81473140D01*
X154829311Y-81670689D01*
X155026860Y-81839412D01*
X155248372Y-81975154D01*
X155248374Y-81975154D01*
X155248376Y-81975156D01*
X155308355Y-82000000D01*
X155488390Y-82074573D01*
X155741006Y-82135221D01*
X156000000Y-82155604D01*
X156258994Y-82135221D01*
X156511610Y-82074573D01*
X156751628Y-81975154D01*
X156973140Y-81839412D01*
X157018607Y-81800579D01*
X157101000Y-81730210D01*
X157164761Y-81701639D01*
X157181531Y-81700500D01*
X159594486Y-81700500D01*
X159781118Y-81670940D01*
X159781894Y-81670688D01*
X159960832Y-81612547D01*
X160129199Y-81526760D01*
X160282073Y-81415690D01*
X160415690Y-81282073D01*
X160526760Y-81129199D01*
X160612547Y-80960832D01*
X160670940Y-80781118D01*
X160674445Y-80758990D01*
X160700500Y-80594486D01*
X160700500Y-62141520D01*
X160700498Y-62141507D01*
X160699750Y-62136782D01*
X160699750Y-62136781D01*
X160699747Y-62136769D01*
X160670940Y-61954881D01*
X160612545Y-61775163D01*
X160526759Y-61606800D01*
X160496958Y-61565782D01*
X160415690Y-61453926D01*
X149226074Y-50264310D01*
X149073199Y-50153240D01*
X149054874Y-50143903D01*
X148904836Y-50067454D01*
X148725118Y-50009059D01*
X148538486Y-49979500D01*
X148538481Y-49979500D01*
X148445876Y-49979500D01*
X148378837Y-49959815D01*
X148333082Y-49907011D01*
X148323138Y-49837853D01*
X148340882Y-49789528D01*
X148365443Y-49750439D01*
X148369789Y-49743522D01*
X148429368Y-49573255D01*
X148444500Y-49438954D01*
X148444500Y-47841046D01*
X148429368Y-47706745D01*
X148369789Y-47536478D01*
X148273816Y-47383738D01*
X148146262Y-47256184D01*
X147993523Y-47160211D01*
X147823254Y-47100631D01*
X147823249Y-47100630D01*
X147688960Y-47085500D01*
X147688954Y-47085500D01*
X146091046Y-47085500D01*
X146091039Y-47085500D01*
X145956750Y-47100630D01*
X145956745Y-47100631D01*
X145786476Y-47160211D01*
X145633737Y-47256184D01*
X145506184Y-47383737D01*
X145410211Y-47536476D01*
X145350631Y-47706745D01*
X145350630Y-47706750D01*
X145335500Y-47841039D01*
X145335500Y-49438960D01*
X145350630Y-49573249D01*
X145350631Y-49573254D01*
X145410211Y-49743523D01*
X145439118Y-49789528D01*
X145458118Y-49856765D01*
X145437750Y-49923600D01*
X145384482Y-49968814D01*
X145334124Y-49979500D01*
X142868625Y-49979500D01*
X142801586Y-49959815D01*
X142780944Y-49943181D01*
X136622076Y-43784312D01*
X136622075Y-43784311D01*
X136622074Y-43784310D01*
X136540189Y-43724817D01*
X136497525Y-43669488D01*
X136491546Y-43599874D01*
X136524152Y-43538079D01*
X136584991Y-43503722D01*
X136613076Y-43500500D01*
X177875500Y-43500500D01*
X177942539Y-43520185D01*
X177988294Y-43572989D01*
X177999500Y-43624500D01*
X177999500Y-119875500D01*
X177979815Y-119942539D01*
X177927011Y-119988294D01*
X177875500Y-119999500D01*
X85624500Y-119999500D01*
X85557461Y-119979815D01*
X85511706Y-119927011D01*
X85500500Y-119875500D01*
X85500500Y-113155039D01*
X89399500Y-113155039D01*
X89399500Y-115844960D01*
X89414630Y-115979249D01*
X89414631Y-115979254D01*
X89474211Y-116149523D01*
X89544199Y-116260907D01*
X89570184Y-116302262D01*
X89697738Y-116429816D01*
X89850478Y-116525789D01*
X90020745Y-116585368D01*
X90020750Y-116585369D01*
X90111246Y-116595565D01*
X90155040Y-116600499D01*
X90155043Y-116600500D01*
X90155046Y-116600500D01*
X92844957Y-116600500D01*
X92844958Y-116600499D01*
X92912104Y-116592934D01*
X92979249Y-116585369D01*
X92979252Y-116585368D01*
X92979255Y-116585368D01*
X93149522Y-116525789D01*
X93302262Y-116429816D01*
X93429816Y-116302262D01*
X93525789Y-116149522D01*
X93585368Y-115979255D01*
X93588275Y-115953459D01*
X93600499Y-115844960D01*
X93600500Y-115844956D01*
X93600500Y-115824500D01*
X93620185Y-115757461D01*
X93672989Y-115711706D01*
X93724500Y-115700500D01*
X99503000Y-115700500D01*
X99570039Y-115720185D01*
X99615794Y-115772989D01*
X99627000Y-115824500D01*
X99627000Y-116666460D01*
X99642130Y-116800749D01*
X99642131Y-116800754D01*
X99701711Y-116971023D01*
X99792239Y-117115096D01*
X99797684Y-117123762D01*
X99925238Y-117251316D01*
X100077978Y-117347289D01*
X100248245Y-117406868D01*
X100248250Y-117406869D01*
X100338746Y-117417065D01*
X100382540Y-117421999D01*
X100382543Y-117422000D01*
X100382546Y-117422000D01*
X102472457Y-117422000D01*
X102472458Y-117421999D01*
X102539604Y-117414434D01*
X102606749Y-117406869D01*
X102606752Y-117406868D01*
X102606755Y-117406868D01*
X102777022Y-117347289D01*
X102929762Y-117251316D01*
X103057316Y-117123762D01*
X103153289Y-116971022D01*
X103176375Y-116905046D01*
X103217097Y-116848270D01*
X103282049Y-116822522D01*
X103293417Y-116822000D01*
X106472986Y-116822000D01*
X106659618Y-116792440D01*
X106707506Y-116776880D01*
X106839332Y-116734047D01*
X107007699Y-116648260D01*
X107160574Y-116537190D01*
X109124109Y-114573655D01*
X117072500Y-114573655D01*
X117072500Y-115371500D01*
X118197222Y-115371500D01*
X118153167Y-115447806D01*
X118122500Y-115562256D01*
X118122500Y-115680744D01*
X118153167Y-115795194D01*
X118197222Y-115871500D01*
X117072500Y-115871500D01*
X117072500Y-116669344D01*
X117078901Y-116728872D01*
X117078903Y-116728879D01*
X117129145Y-116863586D01*
X117129149Y-116863593D01*
X117215309Y-116978687D01*
X117215312Y-116978690D01*
X117330406Y-117064850D01*
X117330413Y-117064854D01*
X117465120Y-117115096D01*
X117465127Y-117115098D01*
X117524655Y-117121499D01*
X117524672Y-117121500D01*
X118322500Y-117121500D01*
X118322500Y-115996777D01*
X118398806Y-116040833D01*
X118513256Y-116071500D01*
X118631744Y-116071500D01*
X118746194Y-116040833D01*
X118822500Y-115996777D01*
X118822500Y-117121500D01*
X119620328Y-117121500D01*
X119620344Y-117121499D01*
X119679872Y-117115098D01*
X119679879Y-117115096D01*
X119814586Y-117064854D01*
X119814593Y-117064850D01*
X119929687Y-116978690D01*
X119929690Y-116978687D01*
X120015850Y-116863593D01*
X120015854Y-116863586D01*
X120066096Y-116728879D01*
X120066098Y-116728872D01*
X120072499Y-116669344D01*
X120072500Y-116669327D01*
X120072500Y-115871500D01*
X118947778Y-115871500D01*
X118991833Y-115795194D01*
X119022500Y-115680744D01*
X119022500Y-115562256D01*
X118991833Y-115447806D01*
X118947778Y-115371500D01*
X120072500Y-115371500D01*
X120072500Y-114573672D01*
X120072499Y-114573655D01*
X120069955Y-114549995D01*
X127195093Y-114549995D01*
X127195093Y-114550004D01*
X127214692Y-114811545D01*
X127214693Y-114811550D01*
X127273058Y-115067270D01*
X127368883Y-115311426D01*
X127368882Y-115311426D01*
X127500027Y-115538573D01*
X127547874Y-115598571D01*
X128467037Y-114679409D01*
X128484075Y-114742993D01*
X128549901Y-114857007D01*
X128642993Y-114950099D01*
X128757007Y-115015925D01*
X128820590Y-115032962D01*
X127900830Y-115952720D01*
X128072546Y-116069793D01*
X128072550Y-116069795D01*
X128308854Y-116183594D01*
X128308858Y-116183595D01*
X128559494Y-116260907D01*
X128559500Y-116260909D01*
X128818848Y-116299999D01*
X128818857Y-116300000D01*
X129081143Y-116300000D01*
X129081151Y-116299999D01*
X129340499Y-116260909D01*
X129340505Y-116260907D01*
X129591143Y-116183595D01*
X129827445Y-116069798D01*
X129827447Y-116069797D01*
X129999168Y-115952720D01*
X129079409Y-115032962D01*
X129142993Y-115015925D01*
X129257007Y-114950099D01*
X129350099Y-114857007D01*
X129415925Y-114742993D01*
X129432962Y-114679409D01*
X130352125Y-115598572D01*
X130399971Y-115538573D01*
X130531116Y-115311426D01*
X130626941Y-115067270D01*
X130685306Y-114811550D01*
X130685307Y-114811545D01*
X130704907Y-114550004D01*
X130704907Y-114550000D01*
X138844564Y-114550000D01*
X138864287Y-114850918D01*
X138864288Y-114850930D01*
X138923118Y-115146683D01*
X138923122Y-115146698D01*
X139020053Y-115432247D01*
X139020062Y-115432268D01*
X139153431Y-115702713D01*
X139153435Y-115702720D01*
X139320973Y-115953459D01*
X139519810Y-116180189D01*
X139746540Y-116379026D01*
X139997279Y-116546564D01*
X139997286Y-116546568D01*
X140267731Y-116679937D01*
X140267736Y-116679939D01*
X140267748Y-116679945D01*
X140553309Y-116776880D01*
X140753251Y-116816651D01*
X140849069Y-116835711D01*
X140849070Y-116835711D01*
X140849080Y-116835713D01*
X141150000Y-116855436D01*
X141450920Y-116835713D01*
X141746691Y-116776880D01*
X142032252Y-116679945D01*
X142302718Y-116546566D01*
X142553461Y-116379025D01*
X142780189Y-116180189D01*
X142979025Y-115953461D01*
X143077816Y-115805610D01*
X143131428Y-115760804D01*
X143180918Y-115750500D01*
X149494486Y-115750500D01*
X149681118Y-115720940D01*
X149709537Y-115711706D01*
X149860832Y-115662547D01*
X150029199Y-115576760D01*
X150182074Y-115465690D01*
X152610945Y-113036819D01*
X152672268Y-113003334D01*
X152698626Y-113000500D01*
X154194957Y-113000500D01*
X154194958Y-113000499D01*
X154262104Y-112992934D01*
X154329249Y-112985369D01*
X154329252Y-112985368D01*
X154329255Y-112985368D01*
X154499522Y-112925789D01*
X154652262Y-112829816D01*
X154779816Y-112702262D01*
X154875789Y-112549522D01*
X154935368Y-112379255D01*
X154936779Y-112366738D01*
X154942934Y-112312104D01*
X154950500Y-112244954D01*
X154950500Y-112136684D01*
X154970185Y-112069645D01*
X155022989Y-112023890D01*
X155081454Y-112012879D01*
X155083454Y-112012991D01*
X155885387Y-111211058D01*
X155890889Y-111231591D01*
X155969881Y-111368408D01*
X156081592Y-111480119D01*
X156218409Y-111559111D01*
X156238940Y-111564612D01*
X155436813Y-112366738D01*
X155597616Y-112476371D01*
X155597624Y-112476376D01*
X155827176Y-112586921D01*
X155827174Y-112586921D01*
X156070652Y-112662024D01*
X156070658Y-112662026D01*
X156322595Y-112699999D01*
X156322604Y-112700000D01*
X156577396Y-112700000D01*
X156577404Y-112699999D01*
X156829341Y-112662026D01*
X156829347Y-112662024D01*
X157072824Y-112586921D01*
X157302376Y-112476376D01*
X157302377Y-112476375D01*
X157463185Y-112366738D01*
X156661060Y-111564612D01*
X156681591Y-111559111D01*
X156818408Y-111480119D01*
X156930119Y-111368408D01*
X157009111Y-111231591D01*
X157014612Y-111211059D01*
X157816544Y-112012992D01*
X157816546Y-112012991D01*
X157858544Y-111960330D01*
X157985941Y-111739671D01*
X158079026Y-111502494D01*
X158079031Y-111502477D01*
X158135726Y-111254079D01*
X158154767Y-111000004D01*
X158154767Y-110999995D01*
X158135726Y-110745920D01*
X158079031Y-110497522D01*
X158079026Y-110497505D01*
X157985941Y-110260328D01*
X157985942Y-110260328D01*
X157858545Y-110039672D01*
X157816545Y-109987006D01*
X157014612Y-110788939D01*
X157009111Y-110768409D01*
X156930119Y-110631592D01*
X156818408Y-110519881D01*
X156681591Y-110440889D01*
X156661059Y-110435387D01*
X157463185Y-109633260D01*
X157302384Y-109523628D01*
X157302376Y-109523623D01*
X157072823Y-109413078D01*
X157072825Y-109413078D01*
X156829347Y-109337975D01*
X156829341Y-109337973D01*
X156577404Y-109300000D01*
X156322595Y-109300000D01*
X156070658Y-109337973D01*
X156070652Y-109337975D01*
X155827175Y-109413078D01*
X155597622Y-109523625D01*
X155597609Y-109523632D01*
X155436813Y-109633259D01*
X156238941Y-110435387D01*
X156218409Y-110440889D01*
X156081592Y-110519881D01*
X155969881Y-110631592D01*
X155890889Y-110768409D01*
X155885387Y-110788941D01*
X155083452Y-109987006D01*
X155081452Y-109987119D01*
X155013414Y-109971224D01*
X154964771Y-109921068D01*
X154950500Y-109863314D01*
X154950500Y-109755043D01*
X154950499Y-109755039D01*
X154935369Y-109620750D01*
X154935368Y-109620745D01*
X154901384Y-109523625D01*
X154875789Y-109450478D01*
X154779816Y-109297738D01*
X154652262Y-109170184D01*
X154614485Y-109146447D01*
X154499523Y-109074211D01*
X154329254Y-109014631D01*
X154329249Y-109014630D01*
X154194960Y-108999500D01*
X154194954Y-108999500D01*
X151705046Y-108999500D01*
X151705039Y-108999500D01*
X151570750Y-109014630D01*
X151570745Y-109014631D01*
X151400476Y-109074211D01*
X151247737Y-109170184D01*
X151120184Y-109297737D01*
X151024211Y-109450476D01*
X150964631Y-109620745D01*
X150964630Y-109620750D01*
X150949500Y-109755039D01*
X150949500Y-111251374D01*
X150929815Y-111318413D01*
X150913181Y-111339055D01*
X148939055Y-113313181D01*
X148877732Y-113346666D01*
X148851374Y-113349500D01*
X143180918Y-113349500D01*
X143113879Y-113329815D01*
X143077816Y-113294390D01*
X142979026Y-113146540D01*
X142780189Y-112919810D01*
X142553459Y-112720973D01*
X142302720Y-112553435D01*
X142302713Y-112553431D01*
X142032268Y-112420062D01*
X142032247Y-112420053D01*
X141746698Y-112323122D01*
X141746692Y-112323120D01*
X141746691Y-112323120D01*
X141746689Y-112323119D01*
X141746683Y-112323118D01*
X141450930Y-112264288D01*
X141450921Y-112264287D01*
X141450920Y-112264287D01*
X141150000Y-112244564D01*
X140849080Y-112264287D01*
X140849079Y-112264287D01*
X140849069Y-112264288D01*
X140553316Y-112323118D01*
X140553301Y-112323122D01*
X140267752Y-112420053D01*
X140267731Y-112420062D01*
X139997286Y-112553431D01*
X139997279Y-112553435D01*
X139746540Y-112720973D01*
X139519810Y-112919810D01*
X139320973Y-113146540D01*
X139153435Y-113397279D01*
X139153431Y-113397286D01*
X139020062Y-113667731D01*
X139020053Y-113667752D01*
X138923122Y-113953301D01*
X138923118Y-113953316D01*
X138864288Y-114249069D01*
X138864287Y-114249081D01*
X138844564Y-114550000D01*
X130704907Y-114550000D01*
X130704907Y-114549995D01*
X130685307Y-114288454D01*
X130685306Y-114288449D01*
X130626941Y-114032729D01*
X130531116Y-113788573D01*
X130531117Y-113788573D01*
X130399972Y-113561426D01*
X130352124Y-113501427D01*
X129432962Y-114420589D01*
X129415925Y-114357007D01*
X129350099Y-114242993D01*
X129257007Y-114149901D01*
X129142993Y-114084075D01*
X129079410Y-114067037D01*
X129999168Y-113147278D01*
X129827454Y-113030206D01*
X129827445Y-113030201D01*
X129591142Y-112916404D01*
X129591144Y-112916404D01*
X129340505Y-112839092D01*
X129340499Y-112839090D01*
X129081151Y-112800000D01*
X128818848Y-112800000D01*
X128559500Y-112839090D01*
X128559494Y-112839092D01*
X128308858Y-112916404D01*
X128308854Y-112916405D01*
X128072547Y-113030205D01*
X128072539Y-113030210D01*
X127900830Y-113147277D01*
X128820590Y-114067037D01*
X128757007Y-114084075D01*
X128642993Y-114149901D01*
X128549901Y-114242993D01*
X128484075Y-114357007D01*
X128467037Y-114420589D01*
X127547874Y-113501427D01*
X127500028Y-113561425D01*
X127368883Y-113788573D01*
X127273058Y-114032729D01*
X127214693Y-114288449D01*
X127214692Y-114288454D01*
X127195093Y-114549995D01*
X120069955Y-114549995D01*
X120066098Y-114514127D01*
X120066096Y-114514120D01*
X120015854Y-114379413D01*
X120015850Y-114379406D01*
X119929690Y-114264312D01*
X119929687Y-114264309D01*
X119814593Y-114178149D01*
X119814586Y-114178145D01*
X119679879Y-114127903D01*
X119679872Y-114127901D01*
X119620344Y-114121500D01*
X118822500Y-114121500D01*
X118822500Y-115246222D01*
X118746194Y-115202167D01*
X118631744Y-115171500D01*
X118513256Y-115171500D01*
X118398806Y-115202167D01*
X118322500Y-115246222D01*
X118322500Y-114121500D01*
X117524655Y-114121500D01*
X117465127Y-114127901D01*
X117465120Y-114127903D01*
X117330413Y-114178145D01*
X117330406Y-114178149D01*
X117215312Y-114264309D01*
X117215309Y-114264312D01*
X117129149Y-114379406D01*
X117129145Y-114379413D01*
X117078903Y-114514120D01*
X117078901Y-114514127D01*
X117072500Y-114573655D01*
X109124109Y-114573655D01*
X111460945Y-112236819D01*
X111522268Y-112203334D01*
X111548626Y-112200500D01*
X112094486Y-112200500D01*
X112281118Y-112170940D01*
X112460832Y-112112547D01*
X112629199Y-112026760D01*
X112782074Y-111915690D01*
X114960944Y-109736818D01*
X115022267Y-109703334D01*
X115048625Y-109700500D01*
X124969082Y-109700500D01*
X125036121Y-109720185D01*
X125072184Y-109755610D01*
X125170973Y-109903459D01*
X125369810Y-110130189D01*
X125596540Y-110329026D01*
X125847279Y-110496564D01*
X125847286Y-110496568D01*
X126117731Y-110629937D01*
X126117736Y-110629939D01*
X126117748Y-110629945D01*
X126403309Y-110726880D01*
X126603251Y-110766651D01*
X126699069Y-110785711D01*
X126699070Y-110785711D01*
X126699080Y-110785713D01*
X127000000Y-110805436D01*
X127300920Y-110785713D01*
X127596691Y-110726880D01*
X127882252Y-110629945D01*
X128152718Y-110496566D01*
X128403461Y-110329025D01*
X128630189Y-110130189D01*
X128829025Y-109903461D01*
X128996566Y-109652718D01*
X129129945Y-109382252D01*
X129226880Y-109096691D01*
X129285713Y-108800920D01*
X129305436Y-108500000D01*
X129285713Y-108199080D01*
X129226880Y-107903309D01*
X129129945Y-107617748D01*
X129113456Y-107584312D01*
X128996568Y-107347286D01*
X128996564Y-107347279D01*
X128829026Y-107096540D01*
X128630189Y-106869810D01*
X128403459Y-106670973D01*
X128152720Y-106503435D01*
X128152713Y-106503431D01*
X127882268Y-106370062D01*
X127882247Y-106370053D01*
X127596698Y-106273122D01*
X127596692Y-106273120D01*
X127596691Y-106273120D01*
X127596689Y-106273119D01*
X127596683Y-106273118D01*
X127300930Y-106214288D01*
X127300921Y-106214287D01*
X127300920Y-106214287D01*
X127000000Y-106194564D01*
X126699080Y-106214287D01*
X126699079Y-106214287D01*
X126699069Y-106214288D01*
X126403316Y-106273118D01*
X126403301Y-106273122D01*
X126117752Y-106370053D01*
X126117731Y-106370062D01*
X125847283Y-106503433D01*
X125823322Y-106519442D01*
X125792757Y-106534266D01*
X125712166Y-106560453D01*
X125543800Y-106646240D01*
X125390923Y-106757312D01*
X125257312Y-106890923D01*
X125146240Y-107043800D01*
X125060454Y-107212164D01*
X125059916Y-107213822D01*
X125059540Y-107214371D01*
X125058592Y-107216661D01*
X125058110Y-107216461D01*
X125020477Y-107271496D01*
X124956117Y-107298692D01*
X124941986Y-107299500D01*
X114405514Y-107299500D01*
X114218881Y-107329059D01*
X114039163Y-107387454D01*
X113870800Y-107473240D01*
X113783579Y-107536610D01*
X113717927Y-107584310D01*
X113717925Y-107584312D01*
X113717924Y-107584312D01*
X111539055Y-109763181D01*
X111477732Y-109796666D01*
X111451374Y-109799500D01*
X110905514Y-109799500D01*
X110718881Y-109829059D01*
X110539163Y-109887454D01*
X110370800Y-109973240D01*
X110217923Y-110084312D01*
X105917555Y-114384681D01*
X105856232Y-114418166D01*
X105829874Y-114421000D01*
X103293417Y-114421000D01*
X103226378Y-114401315D01*
X103180623Y-114348511D01*
X103176375Y-114337954D01*
X103153289Y-114271978D01*
X103135076Y-114242993D01*
X103057316Y-114119238D01*
X102929762Y-113991684D01*
X102868676Y-113953301D01*
X102777023Y-113895711D01*
X102606754Y-113836131D01*
X102606749Y-113836130D01*
X102472460Y-113821000D01*
X102472454Y-113821000D01*
X101376126Y-113821000D01*
X101309087Y-113801315D01*
X101288445Y-113784681D01*
X101088076Y-113584312D01*
X101088074Y-113584310D01*
X100935199Y-113473240D01*
X100766836Y-113387454D01*
X100587118Y-113329059D01*
X100400486Y-113299500D01*
X100400481Y-113299500D01*
X93724500Y-113299500D01*
X93657461Y-113279815D01*
X93611706Y-113227011D01*
X93600500Y-113175500D01*
X93600500Y-113155043D01*
X93600499Y-113155039D01*
X93599624Y-113147277D01*
X93587179Y-113036819D01*
X93585369Y-113020750D01*
X93585368Y-113020745D01*
X93552141Y-112925788D01*
X93525789Y-112850478D01*
X93518633Y-112839090D01*
X93444417Y-112720975D01*
X93429816Y-112697738D01*
X93302262Y-112570184D01*
X93269379Y-112549522D01*
X93149523Y-112474211D01*
X92979254Y-112414631D01*
X92979249Y-112414630D01*
X92844960Y-112399500D01*
X92844954Y-112399500D01*
X90155046Y-112399500D01*
X90155039Y-112399500D01*
X90020750Y-112414630D01*
X90020745Y-112414631D01*
X89850476Y-112474211D01*
X89697737Y-112570184D01*
X89570184Y-112697737D01*
X89474211Y-112850476D01*
X89414631Y-113020745D01*
X89414630Y-113020750D01*
X89399500Y-113155039D01*
X85500500Y-113155039D01*
X85500500Y-109499995D01*
X89694953Y-109499995D01*
X89694953Y-109500004D01*
X89715113Y-109769026D01*
X89715113Y-109769028D01*
X89775142Y-110032033D01*
X89775148Y-110032052D01*
X89873709Y-110283181D01*
X89873708Y-110283181D01*
X90008602Y-110516822D01*
X90062294Y-110584151D01*
X90898957Y-109747487D01*
X90923978Y-109807890D01*
X90995112Y-109914351D01*
X91085649Y-110004888D01*
X91192110Y-110076022D01*
X91252510Y-110101041D01*
X90414848Y-110938702D01*
X90597483Y-111063220D01*
X90597485Y-111063221D01*
X90840539Y-111180269D01*
X90840537Y-111180269D01*
X91098337Y-111259790D01*
X91098343Y-111259792D01*
X91365101Y-111299999D01*
X91365110Y-111300000D01*
X91634890Y-111300000D01*
X91634898Y-111299999D01*
X91901656Y-111259792D01*
X91901662Y-111259790D01*
X92159461Y-111180269D01*
X92402521Y-111063218D01*
X92585150Y-110938702D01*
X91747488Y-110101041D01*
X91807890Y-110076022D01*
X91914351Y-110004888D01*
X92004888Y-109914351D01*
X92076022Y-109807890D01*
X92101041Y-109747488D01*
X92937703Y-110584151D01*
X92937704Y-110584150D01*
X92991393Y-110516828D01*
X92991400Y-110516817D01*
X93126290Y-110283181D01*
X93224851Y-110032052D01*
X93224857Y-110032033D01*
X93284886Y-109769028D01*
X93284886Y-109769026D01*
X93305047Y-109500004D01*
X93305047Y-109499995D01*
X93284886Y-109230973D01*
X93284886Y-109230971D01*
X93224857Y-108967966D01*
X93224851Y-108967947D01*
X93126290Y-108716818D01*
X93126291Y-108716818D01*
X92991397Y-108483177D01*
X92937704Y-108415847D01*
X92101041Y-109252510D01*
X92076022Y-109192110D01*
X92004888Y-109085649D01*
X91914351Y-108995112D01*
X91807890Y-108923978D01*
X91747488Y-108898958D01*
X92585150Y-108061296D01*
X92402517Y-107936779D01*
X92402516Y-107936778D01*
X92159460Y-107819730D01*
X92159462Y-107819730D01*
X91901662Y-107740209D01*
X91901656Y-107740207D01*
X91634898Y-107700000D01*
X91365101Y-107700000D01*
X91098343Y-107740207D01*
X91098337Y-107740209D01*
X90840538Y-107819730D01*
X90597485Y-107936778D01*
X90597476Y-107936783D01*
X90414848Y-108061296D01*
X91252511Y-108898958D01*
X91192110Y-108923978D01*
X91085649Y-108995112D01*
X90995112Y-109085649D01*
X90923978Y-109192110D01*
X90898958Y-109252511D01*
X90062295Y-108415848D01*
X90008600Y-108483180D01*
X89873709Y-108716818D01*
X89775148Y-108967947D01*
X89775142Y-108967966D01*
X89715113Y-109230971D01*
X89715113Y-109230973D01*
X89694953Y-109499995D01*
X85500500Y-109499995D01*
X85500500Y-43624500D01*
X85520185Y-43557461D01*
X85572989Y-43511706D01*
X85624500Y-43500500D01*
X90026924Y-43500500D01*
X90093963Y-43520185D01*
G37*
%TD.AperFunction*%
%TA.AperFunction,Conductor*%
G36*
X148334574Y-52771125D02*
G01*
X148351537Y-52785301D01*
X158263181Y-62696945D01*
X158296666Y-62758268D01*
X158299500Y-62784626D01*
X158299500Y-79175500D01*
X158279815Y-79242539D01*
X158227011Y-79288294D01*
X158175500Y-79299500D01*
X157181531Y-79299500D01*
X157114492Y-79279815D01*
X157101000Y-79269790D01*
X156973143Y-79160590D01*
X156973135Y-79160584D01*
X156943229Y-79142258D01*
X156896354Y-79090447D01*
X156884931Y-79021517D01*
X156912588Y-78957354D01*
X156920338Y-78948850D01*
X157038105Y-78831082D01*
X157173600Y-78637578D01*
X157273429Y-78423492D01*
X157273432Y-78423486D01*
X157330636Y-78210000D01*
X156433012Y-78210000D01*
X156465925Y-78152993D01*
X156500000Y-78025826D01*
X156500000Y-77894174D01*
X156465925Y-77767007D01*
X156433012Y-77710000D01*
X157330636Y-77710000D01*
X157330635Y-77709999D01*
X157273432Y-77496513D01*
X157273429Y-77496507D01*
X157173600Y-77282422D01*
X157173599Y-77282420D01*
X157038113Y-77088926D01*
X156920337Y-76971149D01*
X156886853Y-76909826D01*
X156891837Y-76840134D01*
X156933709Y-76784201D01*
X156943223Y-76777744D01*
X156973140Y-76759412D01*
X157170689Y-76590689D01*
X157339412Y-76393140D01*
X157475154Y-76171628D01*
X157574573Y-75931610D01*
X157635221Y-75678994D01*
X157655604Y-75420000D01*
X157635221Y-75161006D01*
X157574573Y-74908390D01*
X157508650Y-74749238D01*
X157475154Y-74668371D01*
X157362297Y-74484205D01*
X157344052Y-74416759D01*
X157365168Y-74350157D01*
X157380333Y-74331744D01*
X157479816Y-74232262D01*
X157575789Y-74079522D01*
X157635368Y-73909255D01*
X157650500Y-73774954D01*
X157650500Y-71985046D01*
X157635368Y-71850745D01*
X157575789Y-71680478D01*
X157479816Y-71527738D01*
X157352262Y-71400184D01*
X157199523Y-71304211D01*
X157029254Y-71244631D01*
X157029249Y-71244630D01*
X156894960Y-71229500D01*
X156894954Y-71229500D01*
X156098626Y-71229500D01*
X156031587Y-71209815D01*
X156010945Y-71193181D01*
X155402076Y-70584312D01*
X155402074Y-70584310D01*
X155249199Y-70473240D01*
X155080836Y-70387454D01*
X154901118Y-70329059D01*
X154714486Y-70299500D01*
X154714481Y-70299500D01*
X148445876Y-70299500D01*
X148378837Y-70279815D01*
X148333082Y-70227011D01*
X148323138Y-70157853D01*
X148340882Y-70109528D01*
X148357671Y-70082807D01*
X148369789Y-70063522D01*
X148429368Y-69893255D01*
X148444500Y-69758954D01*
X148444500Y-68161046D01*
X148429368Y-68026745D01*
X148369789Y-67856478D01*
X148273816Y-67703738D01*
X148146262Y-67576184D01*
X148135655Y-67569519D01*
X148089366Y-67517184D01*
X148078719Y-67448131D01*
X148085448Y-67421193D01*
X148137597Y-67281376D01*
X148137598Y-67281372D01*
X148143999Y-67221844D01*
X148144000Y-67221827D01*
X148144000Y-66670000D01*
X147323012Y-66670000D01*
X147355925Y-66612993D01*
X147390000Y-66485826D01*
X147390000Y-66354174D01*
X147355925Y-66227007D01*
X147323012Y-66170000D01*
X148144000Y-66170000D01*
X148144000Y-65618172D01*
X148143999Y-65618155D01*
X148137598Y-65558627D01*
X148137597Y-65558623D01*
X148085448Y-65418805D01*
X148080464Y-65349113D01*
X148113949Y-65287790D01*
X148135655Y-65270480D01*
X148146262Y-65263816D01*
X148273816Y-65136262D01*
X148369789Y-64983522D01*
X148429368Y-64813255D01*
X148444500Y-64678954D01*
X148444500Y-63081046D01*
X148435053Y-62997202D01*
X148429369Y-62946750D01*
X148429368Y-62946745D01*
X148369788Y-62776475D01*
X148319815Y-62696945D01*
X148306636Y-62675971D01*
X148287636Y-62608736D01*
X148306637Y-62544027D01*
X148308854Y-62540500D01*
X148369789Y-62443522D01*
X148429368Y-62273255D01*
X148434111Y-62231164D01*
X148444499Y-62138960D01*
X148444500Y-62138956D01*
X148444500Y-60541043D01*
X148444499Y-60541039D01*
X148429369Y-60406750D01*
X148429368Y-60406745D01*
X148369788Y-60236475D01*
X148311274Y-60143352D01*
X148306636Y-60135971D01*
X148287636Y-60068736D01*
X148306637Y-60004027D01*
X148308854Y-60000500D01*
X148369789Y-59903522D01*
X148429368Y-59733255D01*
X148444500Y-59598954D01*
X148444500Y-58001046D01*
X148429368Y-57866745D01*
X148369789Y-57696478D01*
X148369788Y-57696476D01*
X148369788Y-57696475D01*
X148327427Y-57629060D01*
X148306636Y-57595971D01*
X148287636Y-57528736D01*
X148306637Y-57464027D01*
X148308854Y-57460500D01*
X148369789Y-57363522D01*
X148429368Y-57193255D01*
X148444500Y-57058954D01*
X148444500Y-55461046D01*
X148429368Y-55326745D01*
X148369789Y-55156478D01*
X148273816Y-55003738D01*
X148146262Y-54876184D01*
X148135655Y-54869519D01*
X148089366Y-54817184D01*
X148078719Y-54748131D01*
X148085448Y-54721193D01*
X148137597Y-54581376D01*
X148137598Y-54581372D01*
X148143999Y-54521844D01*
X148144000Y-54521827D01*
X148144000Y-53970000D01*
X147323012Y-53970000D01*
X147355925Y-53912993D01*
X147390000Y-53785826D01*
X147390000Y-53654174D01*
X147355925Y-53527007D01*
X147323012Y-53470000D01*
X148144000Y-53470000D01*
X148144000Y-52918172D01*
X148143999Y-52918158D01*
X148140567Y-52886239D01*
X148152971Y-52817479D01*
X148200581Y-52766341D01*
X148268280Y-52749061D01*
X148334574Y-52771125D01*
G37*
%TD.AperFunction*%
%TA.AperFunction,Conductor*%
G36*
X105906671Y-45920185D02*
G01*
X105952426Y-45972989D01*
X105962370Y-46042147D01*
X105933345Y-46105703D01*
X105927313Y-46112181D01*
X104097054Y-47942439D01*
X103985982Y-48095316D01*
X103900196Y-48263679D01*
X103841801Y-48443397D01*
X103812242Y-48630029D01*
X103812242Y-51438632D01*
X103792557Y-51505671D01*
X103775923Y-51526313D01*
X101351797Y-53950439D01*
X101290474Y-53983924D01*
X101264116Y-53986758D01*
X98709101Y-53986758D01*
X98642062Y-53967073D01*
X98596307Y-53914269D01*
X98585881Y-53848874D01*
X98587757Y-53832218D01*
X98587758Y-53832212D01*
X98587758Y-52542304D01*
X98581863Y-52489981D01*
X98572627Y-52408008D01*
X98572626Y-52408003D01*
X98531167Y-52289520D01*
X98513047Y-52237736D01*
X98493583Y-52206760D01*
X98434830Y-52113255D01*
X98417074Y-52084996D01*
X98317550Y-51985472D01*
X98284065Y-51924149D01*
X98281942Y-51884535D01*
X98287257Y-51835102D01*
X98287258Y-51835085D01*
X98287258Y-51437258D01*
X94287258Y-51437258D01*
X94287258Y-51835088D01*
X94292574Y-51884536D01*
X94280168Y-51953295D01*
X94256966Y-51985470D01*
X94157443Y-52084994D01*
X94157442Y-52084995D01*
X94061469Y-52237734D01*
X94001889Y-52408003D01*
X94001888Y-52408008D01*
X93986758Y-52542297D01*
X93986758Y-53832218D01*
X94001888Y-53966507D01*
X94001891Y-53966520D01*
X94063768Y-54143352D01*
X94061622Y-54144102D01*
X94071220Y-54202402D01*
X94062867Y-54230848D01*
X94063768Y-54231164D01*
X94001891Y-54407995D01*
X94001888Y-54408008D01*
X93986758Y-54542297D01*
X93986758Y-55832218D01*
X94001888Y-55966507D01*
X94001891Y-55966520D01*
X94063768Y-56143352D01*
X94061622Y-56144102D01*
X94071220Y-56202402D01*
X94062867Y-56230848D01*
X94063768Y-56231164D01*
X94001891Y-56407995D01*
X94001888Y-56408008D01*
X93986758Y-56542297D01*
X93986758Y-57832218D01*
X94001888Y-57966507D01*
X94001891Y-57966520D01*
X94063768Y-58143352D01*
X94061622Y-58144102D01*
X94071220Y-58202402D01*
X94062867Y-58230848D01*
X94063768Y-58231164D01*
X94001891Y-58407995D01*
X94001888Y-58408008D01*
X93986758Y-58542297D01*
X93986758Y-59832218D01*
X94001888Y-59966507D01*
X94001891Y-59966520D01*
X94063768Y-60143352D01*
X94061622Y-60144102D01*
X94071220Y-60202402D01*
X94062867Y-60230848D01*
X94063768Y-60231164D01*
X94001891Y-60407995D01*
X94001888Y-60408008D01*
X93986758Y-60542297D01*
X93986758Y-61832218D01*
X94001888Y-61966507D01*
X94001891Y-61966520D01*
X94063768Y-62143352D01*
X94061622Y-62144102D01*
X94071220Y-62202402D01*
X94062867Y-62230848D01*
X94063768Y-62231164D01*
X94001891Y-62407995D01*
X94001888Y-62408008D01*
X93986758Y-62542297D01*
X93986758Y-63832218D01*
X94001888Y-63966507D01*
X94001889Y-63966512D01*
X94061469Y-64136781D01*
X94157442Y-64289520D01*
X94256966Y-64389044D01*
X94290451Y-64450367D01*
X94292574Y-64489981D01*
X94287258Y-64539413D01*
X94287258Y-64937258D01*
X98262648Y-64937258D01*
X98329687Y-64956943D01*
X98350329Y-64973577D01*
X105179703Y-71802951D01*
X105236590Y-71844281D01*
X105255554Y-71858059D01*
X105332575Y-71914018D01*
X105412121Y-71954548D01*
X105500937Y-71999803D01*
X105500939Y-71999803D01*
X105500942Y-71999805D01*
X105597271Y-72031104D01*
X105680655Y-72058198D01*
X105867288Y-72087758D01*
X105867293Y-72087758D01*
X109915116Y-72087758D01*
X109982155Y-72107443D01*
X110027910Y-72160247D01*
X110037854Y-72229405D01*
X110008829Y-72292961D01*
X110002797Y-72299439D01*
X107287555Y-75014681D01*
X107226232Y-75048166D01*
X107199874Y-75051000D01*
X103293417Y-75051000D01*
X103226378Y-75031315D01*
X103180623Y-74978511D01*
X103176375Y-74967954D01*
X103153289Y-74901978D01*
X103113692Y-74838960D01*
X103057316Y-74749238D01*
X102929762Y-74621684D01*
X102777023Y-74525711D01*
X102606754Y-74466131D01*
X102606749Y-74466130D01*
X102472460Y-74451000D01*
X102472454Y-74451000D01*
X100700126Y-74451000D01*
X100633087Y-74431315D01*
X100612445Y-74414681D01*
X92032866Y-65835102D01*
X94287258Y-65835102D01*
X94293659Y-65894630D01*
X94293661Y-65894637D01*
X94343903Y-66029344D01*
X94343907Y-66029351D01*
X94430067Y-66144445D01*
X94430070Y-66144448D01*
X94545164Y-66230608D01*
X94545171Y-66230612D01*
X94679878Y-66280854D01*
X94679885Y-66280856D01*
X94739413Y-66287257D01*
X94739430Y-66287258D01*
X96037258Y-66287258D01*
X96537258Y-66287258D01*
X97835086Y-66287258D01*
X97835102Y-66287257D01*
X97894630Y-66280856D01*
X97894637Y-66280854D01*
X98029344Y-66230612D01*
X98029351Y-66230608D01*
X98144445Y-66144448D01*
X98144448Y-66144445D01*
X98230608Y-66029351D01*
X98230612Y-66029344D01*
X98280854Y-65894637D01*
X98280856Y-65894630D01*
X98287257Y-65835102D01*
X98287258Y-65835085D01*
X98287258Y-65437258D01*
X96537258Y-65437258D01*
X96537258Y-66287258D01*
X96037258Y-66287258D01*
X96037258Y-65437258D01*
X94287258Y-65437258D01*
X94287258Y-65835102D01*
X92032866Y-65835102D01*
X91736819Y-65539055D01*
X91703334Y-65477732D01*
X91700500Y-65451374D01*
X91700500Y-50539413D01*
X94287258Y-50539413D01*
X94287258Y-50937258D01*
X96037258Y-50937258D01*
X96537258Y-50937258D01*
X98287258Y-50937258D01*
X98287258Y-50539430D01*
X98287257Y-50539413D01*
X98280856Y-50479885D01*
X98280854Y-50479878D01*
X98230612Y-50345171D01*
X98230608Y-50345164D01*
X98144448Y-50230070D01*
X98144445Y-50230067D01*
X98029351Y-50143907D01*
X98029344Y-50143903D01*
X97894637Y-50093661D01*
X97894630Y-50093659D01*
X97835102Y-50087258D01*
X96537258Y-50087258D01*
X96537258Y-50937258D01*
X96037258Y-50937258D01*
X96037258Y-50087258D01*
X94739413Y-50087258D01*
X94679885Y-50093659D01*
X94679878Y-50093661D01*
X94545171Y-50143903D01*
X94545164Y-50143907D01*
X94430070Y-50230067D01*
X94430067Y-50230070D01*
X94343907Y-50345164D01*
X94343903Y-50345171D01*
X94293661Y-50479878D01*
X94293659Y-50479885D01*
X94287258Y-50539413D01*
X91700500Y-50539413D01*
X91700500Y-46024500D01*
X91720185Y-45957461D01*
X91772989Y-45911706D01*
X91824500Y-45900500D01*
X105839632Y-45900500D01*
X105906671Y-45920185D01*
G37*
%TD.AperFunction*%
%TA.AperFunction,Conductor*%
G36*
X110969413Y-49120185D02*
G01*
X111015168Y-49172989D01*
X111025112Y-49242147D01*
X110996087Y-49305703D01*
X110990055Y-49312181D01*
X110551797Y-49750439D01*
X110490474Y-49783924D01*
X110464116Y-49786758D01*
X109742297Y-49786758D01*
X109608008Y-49801888D01*
X109608003Y-49801889D01*
X109437734Y-49861469D01*
X109284995Y-49957442D01*
X109157442Y-50084995D01*
X109061469Y-50237734D01*
X109001889Y-50408003D01*
X109001888Y-50408008D01*
X108986758Y-50542297D01*
X108986758Y-51832218D01*
X109001888Y-51966507D01*
X109001889Y-51966512D01*
X109061469Y-52136781D01*
X109157442Y-52289520D01*
X109256966Y-52389044D01*
X109290451Y-52450367D01*
X109292574Y-52489981D01*
X109287258Y-52539413D01*
X109287258Y-52937258D01*
X113287258Y-52937258D01*
X113287258Y-52539430D01*
X113287257Y-52539413D01*
X113281942Y-52489981D01*
X113294346Y-52421222D01*
X113317550Y-52389044D01*
X113355654Y-52350940D01*
X113417074Y-52289520D01*
X113513047Y-52136780D01*
X113572626Y-51966513D01*
X113573127Y-51962073D01*
X113580837Y-51893642D01*
X113587758Y-51832212D01*
X113587758Y-50824500D01*
X113607443Y-50757461D01*
X113660247Y-50711706D01*
X113711758Y-50700500D01*
X115095558Y-50700500D01*
X115162597Y-50720185D01*
X115208352Y-50772989D01*
X115218296Y-50842147D01*
X115189848Y-50905032D01*
X115141279Y-50961897D01*
X115141278Y-50961899D01*
X115007636Y-51179984D01*
X115007634Y-51179987D01*
X114909752Y-51416297D01*
X114850042Y-51665010D01*
X114829975Y-51920000D01*
X114850042Y-52174989D01*
X114909752Y-52423702D01*
X115007634Y-52660012D01*
X115007636Y-52660015D01*
X115141277Y-52878098D01*
X115141284Y-52878107D01*
X115144533Y-52881912D01*
X115705884Y-52320560D01*
X115706740Y-52322626D01*
X115799762Y-52461844D01*
X115918156Y-52580238D01*
X116057374Y-52673260D01*
X116059437Y-52674114D01*
X115498087Y-53235465D01*
X115501897Y-53238719D01*
X115719984Y-53372363D01*
X115719987Y-53372365D01*
X115956297Y-53470247D01*
X116205011Y-53529957D01*
X116205010Y-53529957D01*
X116460000Y-53550024D01*
X116714989Y-53529957D01*
X116963702Y-53470247D01*
X117200010Y-53372365D01*
X117278955Y-53323988D01*
X117346401Y-53305743D01*
X117413004Y-53326859D01*
X117457617Y-53380630D01*
X117466078Y-53449986D01*
X117451133Y-53491715D01*
X117350669Y-53665723D01*
X117250712Y-53920410D01*
X117250706Y-53920429D01*
X117189827Y-54187159D01*
X117189827Y-54187160D01*
X117169381Y-54459996D01*
X117169381Y-54460003D01*
X117189827Y-54732839D01*
X117189827Y-54732840D01*
X117250706Y-54999570D01*
X117250712Y-54999589D01*
X117350669Y-55254276D01*
X117451133Y-55428284D01*
X117467606Y-55496184D01*
X117444754Y-55562211D01*
X117389832Y-55605401D01*
X117320279Y-55612043D01*
X117278956Y-55596011D01*
X117200015Y-55547636D01*
X117200012Y-55547634D01*
X116963702Y-55449752D01*
X116714988Y-55390042D01*
X116714989Y-55390042D01*
X116460000Y-55369975D01*
X116205010Y-55390042D01*
X115956297Y-55449752D01*
X115719987Y-55547634D01*
X115719984Y-55547636D01*
X115501893Y-55681282D01*
X115498086Y-55684532D01*
X116059438Y-56245884D01*
X116057374Y-56246740D01*
X115918156Y-56339762D01*
X115799762Y-56458156D01*
X115706740Y-56597374D01*
X115705884Y-56599438D01*
X115144532Y-56038086D01*
X115141282Y-56041893D01*
X115007636Y-56259984D01*
X115007634Y-56259987D01*
X114909752Y-56496297D01*
X114850042Y-56745010D01*
X114829975Y-57000000D01*
X114850042Y-57254989D01*
X114909752Y-57503702D01*
X115007634Y-57740012D01*
X115007636Y-57740015D01*
X115141277Y-57958098D01*
X115141284Y-57958107D01*
X115144533Y-57961912D01*
X115705884Y-57400560D01*
X115706740Y-57402626D01*
X115799762Y-57541844D01*
X115918156Y-57660238D01*
X116057374Y-57753260D01*
X116059437Y-57754114D01*
X115498087Y-58315465D01*
X115501897Y-58318719D01*
X115719984Y-58452363D01*
X115719987Y-58452365D01*
X115956297Y-58550247D01*
X116205011Y-58609957D01*
X116205010Y-58609957D01*
X116460000Y-58630024D01*
X116714989Y-58609957D01*
X116963702Y-58550247D01*
X117200012Y-58452365D01*
X117200015Y-58452363D01*
X117418095Y-58318724D01*
X117418110Y-58318713D01*
X117421911Y-58315466D01*
X117421911Y-58315464D01*
X116860562Y-57754114D01*
X116862626Y-57753260D01*
X117001844Y-57660238D01*
X117120238Y-57541844D01*
X117213260Y-57402626D01*
X117214114Y-57400561D01*
X117775464Y-57961911D01*
X117775466Y-57961911D01*
X117778713Y-57958110D01*
X117778724Y-57958095D01*
X117912363Y-57740015D01*
X117912365Y-57740012D01*
X118010247Y-57503702D01*
X118069957Y-57254989D01*
X118090024Y-57000000D01*
X118069957Y-56745010D01*
X118010247Y-56496297D01*
X117912365Y-56259987D01*
X117912363Y-56259984D01*
X117864828Y-56182414D01*
X117846583Y-56114969D01*
X117867699Y-56048366D01*
X117921471Y-56003752D01*
X117990826Y-55995292D01*
X118040405Y-56015169D01*
X118084691Y-56045363D01*
X118084693Y-56045364D01*
X118084698Y-56045367D01*
X118215618Y-56108414D01*
X118331196Y-56164073D01*
X118331197Y-56164073D01*
X118331200Y-56164075D01*
X118592649Y-56244722D01*
X118592650Y-56244722D01*
X118592653Y-56244723D01*
X118863190Y-56285499D01*
X118863195Y-56285499D01*
X118863198Y-56285500D01*
X118863199Y-56285500D01*
X119136801Y-56285500D01*
X119136802Y-56285500D01*
X119136809Y-56285499D01*
X119407346Y-56244723D01*
X119407347Y-56244722D01*
X119407351Y-56244722D01*
X119668800Y-56164075D01*
X119915310Y-56045363D01*
X119959593Y-56015170D01*
X120026069Y-55993671D01*
X120093620Y-56011524D01*
X120140794Y-56063064D01*
X120152616Y-56131926D01*
X120135171Y-56182414D01*
X120087634Y-56259987D01*
X119989752Y-56496297D01*
X119930042Y-56745010D01*
X119909975Y-57000000D01*
X119930042Y-57254989D01*
X119989752Y-57503702D01*
X120087634Y-57740012D01*
X120087636Y-57740015D01*
X120221277Y-57958098D01*
X120221284Y-57958107D01*
X120224533Y-57961912D01*
X120785884Y-57400561D01*
X120786740Y-57402626D01*
X120879762Y-57541844D01*
X120998156Y-57660238D01*
X121137374Y-57753260D01*
X121139437Y-57754114D01*
X120578087Y-58315465D01*
X120581897Y-58318719D01*
X120799984Y-58452363D01*
X120799987Y-58452365D01*
X121036297Y-58550247D01*
X121285011Y-58609957D01*
X121285010Y-58609957D01*
X121540000Y-58630024D01*
X121794989Y-58609957D01*
X122043702Y-58550247D01*
X122280012Y-58452365D01*
X122280015Y-58452363D01*
X122498100Y-58318721D01*
X122498101Y-58318720D01*
X122594968Y-58235988D01*
X122658729Y-58207417D01*
X122727815Y-58217854D01*
X122780291Y-58263985D01*
X122799500Y-58330278D01*
X122799500Y-59451374D01*
X122779815Y-59518413D01*
X122763181Y-59539055D01*
X122039055Y-60263181D01*
X121977732Y-60296666D01*
X121951374Y-60299500D01*
X119880029Y-60299500D01*
X119693401Y-60329059D01*
X119513681Y-60387454D01*
X119345316Y-60473240D01*
X119192439Y-60584312D01*
X118306831Y-61469919D01*
X118245508Y-61503404D01*
X118175816Y-61498420D01*
X118120196Y-61456964D01*
X118071279Y-61392187D01*
X118069914Y-61390345D01*
X118021580Y-61323817D01*
X118019777Y-61322014D01*
X118008505Y-61309061D01*
X117996868Y-61293651D01*
X117996863Y-61293647D01*
X117996862Y-61293645D01*
X117937271Y-61239321D01*
X117933128Y-61235365D01*
X114969334Y-58271570D01*
X114969333Y-58271569D01*
X114969332Y-58271568D01*
X114816457Y-58160498D01*
X114769908Y-58136780D01*
X114648094Y-58074712D01*
X114468376Y-58016317D01*
X114281744Y-57986758D01*
X114281739Y-57986758D01*
X113709101Y-57986758D01*
X113642062Y-57967073D01*
X113596307Y-57914269D01*
X113585881Y-57848874D01*
X113587757Y-57832218D01*
X113587758Y-57832212D01*
X113587758Y-56542304D01*
X113572626Y-56408003D01*
X113572625Y-56408001D01*
X113572624Y-56407995D01*
X113510747Y-56231163D01*
X113512895Y-56230411D01*
X113503293Y-56172130D01*
X113511650Y-56143669D01*
X113510747Y-56143353D01*
X113572624Y-55966520D01*
X113572627Y-55966507D01*
X113587757Y-55832218D01*
X113587758Y-55832214D01*
X113587758Y-54542301D01*
X113587757Y-54542297D01*
X113572627Y-54408008D01*
X113572626Y-54408003D01*
X113513046Y-54237734D01*
X113473840Y-54175338D01*
X113417074Y-54084996D01*
X113317550Y-53985472D01*
X113284065Y-53924149D01*
X113281942Y-53884535D01*
X113287257Y-53835102D01*
X113287258Y-53835085D01*
X113287258Y-53437258D01*
X109287258Y-53437258D01*
X109287258Y-53835088D01*
X109292574Y-53884536D01*
X109280168Y-53953295D01*
X109256966Y-53985470D01*
X109157443Y-54084994D01*
X109157442Y-54084995D01*
X109061469Y-54237734D01*
X109001889Y-54408003D01*
X109001888Y-54408008D01*
X108986758Y-54542297D01*
X108986758Y-55832218D01*
X109001888Y-55966507D01*
X109001891Y-55966520D01*
X109063768Y-56143352D01*
X109061622Y-56144102D01*
X109071220Y-56202402D01*
X109062867Y-56230848D01*
X109063768Y-56231164D01*
X109001891Y-56407995D01*
X109001888Y-56408008D01*
X108986758Y-56542297D01*
X108986758Y-57832218D01*
X109001888Y-57966507D01*
X109001891Y-57966520D01*
X109063768Y-58143352D01*
X109061622Y-58144102D01*
X109071220Y-58202402D01*
X109062867Y-58230848D01*
X109063768Y-58231164D01*
X109001891Y-58407995D01*
X109001888Y-58408008D01*
X108986758Y-58542297D01*
X108986758Y-59832218D01*
X109001888Y-59966507D01*
X109001891Y-59966520D01*
X109063768Y-60143352D01*
X109061622Y-60144102D01*
X109071220Y-60202402D01*
X109062867Y-60230848D01*
X109063768Y-60231164D01*
X109001891Y-60407995D01*
X109001888Y-60408008D01*
X108986758Y-60542297D01*
X108986758Y-61832218D01*
X109001888Y-61966507D01*
X109001891Y-61966520D01*
X109063768Y-62143352D01*
X109061622Y-62144102D01*
X109071220Y-62202402D01*
X109062867Y-62230848D01*
X109063768Y-62231164D01*
X109001891Y-62407995D01*
X109001888Y-62408008D01*
X108986758Y-62542297D01*
X108986758Y-63832218D01*
X109001888Y-63966507D01*
X109001891Y-63966520D01*
X109063768Y-64143352D01*
X109061622Y-64144102D01*
X109071220Y-64202402D01*
X109062867Y-64230848D01*
X109063768Y-64231164D01*
X109001891Y-64407995D01*
X109001888Y-64408008D01*
X108986758Y-64542297D01*
X108986758Y-65832218D01*
X109001888Y-65966507D01*
X109001889Y-65966512D01*
X109061469Y-66136781D01*
X109161147Y-66295416D01*
X109158848Y-66296860D01*
X109180599Y-66350107D01*
X109167857Y-66418805D01*
X109119997Y-66469708D01*
X109057246Y-66486758D01*
X107835884Y-66486758D01*
X107768845Y-66467073D01*
X107748203Y-66450439D01*
X99897203Y-58599439D01*
X99863718Y-58538116D01*
X99868702Y-58468424D01*
X99910574Y-58412491D01*
X99976038Y-58388074D01*
X99984884Y-58387758D01*
X102907228Y-58387758D01*
X103093860Y-58358198D01*
X103273574Y-58299805D01*
X103441941Y-58214018D01*
X103594816Y-58102948D01*
X107528432Y-54169331D01*
X107639502Y-54016457D01*
X107725289Y-53848090D01*
X107783682Y-53668376D01*
X107802427Y-53550024D01*
X107813242Y-53481744D01*
X107813242Y-49935884D01*
X107832927Y-49868845D01*
X107849561Y-49848203D01*
X108560945Y-49136819D01*
X108622268Y-49103334D01*
X108648626Y-49100500D01*
X110902374Y-49100500D01*
X110969413Y-49120185D01*
G37*
%TD.AperFunction*%
%TA.AperFunction,Conductor*%
G36*
X121418413Y-49120185D02*
G01*
X121439055Y-49136819D01*
X124397926Y-52095690D01*
X124454483Y-52136781D01*
X124550795Y-52206757D01*
X124550797Y-52206758D01*
X124550800Y-52206760D01*
X124684163Y-52274711D01*
X124719163Y-52292545D01*
X124719165Y-52292545D01*
X124719168Y-52292547D01*
X124811741Y-52322626D01*
X124898881Y-52350940D01*
X125085514Y-52380500D01*
X125085519Y-52380500D01*
X127622614Y-52380500D01*
X127689653Y-52400185D01*
X127720791Y-52431645D01*
X127721837Y-52430812D01*
X127726182Y-52436260D01*
X127726184Y-52436262D01*
X127853738Y-52563816D01*
X127860033Y-52567772D01*
X127864343Y-52570480D01*
X127910633Y-52622816D01*
X127921279Y-52691870D01*
X127914550Y-52718804D01*
X127862403Y-52858617D01*
X127862401Y-52858627D01*
X127856000Y-52918155D01*
X127856000Y-53470000D01*
X128676988Y-53470000D01*
X128644075Y-53527007D01*
X128610000Y-53654174D01*
X128610000Y-53785826D01*
X128644075Y-53912993D01*
X128676988Y-53970000D01*
X127856000Y-53970000D01*
X127856000Y-54521844D01*
X127862401Y-54581372D01*
X127862403Y-54581380D01*
X127914550Y-54721194D01*
X127919534Y-54790886D01*
X127886049Y-54852209D01*
X127864344Y-54869518D01*
X127853743Y-54876179D01*
X127853739Y-54876182D01*
X127726182Y-55003739D01*
X127721837Y-55009188D01*
X127720282Y-55007947D01*
X127675285Y-55047758D01*
X127622614Y-55059500D01*
X125145513Y-55059500D01*
X124958885Y-55089059D01*
X124779165Y-55147454D01*
X124610800Y-55233240D01*
X124581847Y-55254276D01*
X124552196Y-55275818D01*
X124486392Y-55299298D01*
X124479312Y-55299500D01*
X123905514Y-55299500D01*
X123718881Y-55329059D01*
X123539163Y-55387454D01*
X123370800Y-55473240D01*
X123346048Y-55491224D01*
X123217927Y-55584310D01*
X123217925Y-55584312D01*
X123217924Y-55584312D01*
X123084312Y-55717924D01*
X123084312Y-55717925D01*
X123084310Y-55717927D01*
X123036610Y-55783579D01*
X122973240Y-55870800D01*
X122923402Y-55968613D01*
X122875427Y-56019409D01*
X122873717Y-56019835D01*
X122294114Y-56599437D01*
X122293260Y-56597374D01*
X122200238Y-56458156D01*
X122081844Y-56339762D01*
X121942626Y-56246740D01*
X121940561Y-56245884D01*
X122501912Y-55684533D01*
X122498107Y-55681284D01*
X122498098Y-55681277D01*
X122280015Y-55547636D01*
X122280012Y-55547634D01*
X122043702Y-55449752D01*
X121794988Y-55390042D01*
X121794989Y-55390042D01*
X121540000Y-55369975D01*
X121285010Y-55390042D01*
X121036297Y-55449752D01*
X120799987Y-55547634D01*
X120721042Y-55596012D01*
X120653596Y-55614256D01*
X120586994Y-55593139D01*
X120542381Y-55539367D01*
X120533921Y-55470011D01*
X120548863Y-55428288D01*
X120649331Y-55254276D01*
X120749290Y-54999584D01*
X120810172Y-54732840D01*
X120830619Y-54460000D01*
X120826722Y-54408003D01*
X120810172Y-54187160D01*
X120810172Y-54187159D01*
X120749293Y-53920429D01*
X120749292Y-53920428D01*
X120749290Y-53920416D01*
X120649331Y-53665724D01*
X120548865Y-53491714D01*
X120532393Y-53423815D01*
X120555245Y-53357788D01*
X120610166Y-53314598D01*
X120679720Y-53307956D01*
X120721043Y-53323988D01*
X120799984Y-53372363D01*
X120799987Y-53372365D01*
X121036297Y-53470247D01*
X121285011Y-53529957D01*
X121285010Y-53529957D01*
X121540000Y-53550024D01*
X121794989Y-53529957D01*
X122043702Y-53470247D01*
X122280012Y-53372365D01*
X122280015Y-53372363D01*
X122498095Y-53238724D01*
X122498110Y-53238713D01*
X122501911Y-53235466D01*
X122501911Y-53235464D01*
X121940561Y-52674114D01*
X121942626Y-52673260D01*
X122081844Y-52580238D01*
X122200238Y-52461844D01*
X122293260Y-52322626D01*
X122294114Y-52320561D01*
X122855464Y-52881911D01*
X122855466Y-52881911D01*
X122858713Y-52878110D01*
X122858724Y-52878095D01*
X122992363Y-52660015D01*
X122992365Y-52660012D01*
X123090247Y-52423702D01*
X123149957Y-52174989D01*
X123170024Y-51920000D01*
X123149957Y-51665010D01*
X123090247Y-51416297D01*
X122992365Y-51179987D01*
X122992363Y-51179984D01*
X122858719Y-50961897D01*
X122855465Y-50958087D01*
X122294114Y-51519437D01*
X122293260Y-51517374D01*
X122200238Y-51378156D01*
X122081844Y-51259762D01*
X121942626Y-51166740D01*
X121940561Y-51165884D01*
X122501912Y-50604533D01*
X122498107Y-50601284D01*
X122498098Y-50601277D01*
X122280015Y-50467636D01*
X122280012Y-50467634D01*
X122043702Y-50369752D01*
X121794988Y-50310042D01*
X121794989Y-50310042D01*
X121540000Y-50289975D01*
X121285010Y-50310042D01*
X121036297Y-50369752D01*
X120799987Y-50467634D01*
X120799984Y-50467636D01*
X120581893Y-50601282D01*
X120578086Y-50604532D01*
X121139438Y-51165884D01*
X121137374Y-51166740D01*
X120998156Y-51259762D01*
X120879762Y-51378156D01*
X120786740Y-51517374D01*
X120785885Y-51519438D01*
X120236819Y-50970372D01*
X120203334Y-50909049D01*
X120200500Y-50882691D01*
X120200500Y-49905513D01*
X120170940Y-49718881D01*
X120143846Y-49635497D01*
X120112547Y-49539168D01*
X120112545Y-49539165D01*
X120112545Y-49539163D01*
X120026759Y-49370800D01*
X119973419Y-49297384D01*
X119949940Y-49231580D01*
X119965765Y-49163526D01*
X120015870Y-49114831D01*
X120073738Y-49100500D01*
X121351374Y-49100500D01*
X121418413Y-49120185D01*
G37*
%TD.AperFunction*%
%TD*%
M02*
