<?xml version="1.0" encoding="utf-8"?>
<!-- Generator: Fusion 360, Shaper Origin Export Add-In, Version 1.5.0  -->
<svg enable-background="new 0 0 9.2000001 7.2" height="7.2cm" shaper:fusionaddin="version:1.5.0" version="1.1" viewBox="0 0 9.2000001 7.2" width="9.2000001cm" x="0cm" xml:space="preserve" xmlns="http://www.w3.org/2000/svg" xmlns:shaper="http://www.shapertools.com/namespaces/shaper" xmlns:xlink="http://www.w3.org/1999/xlink" y="0cm"><path d="M0,7.2 L-0.5,6.7 -0.5,0.5 0,0 8.2000001,-0 8.7000001,0.5 8.7000001,6.7 8.2000001,7.2 0,7.2z" fill="rgb(0,0,0)" shaper:cutDepth="0.002" shaper:pathType="exterior" transform="matrix(1,0,0,-1,0.5,7.2)" vector-effect="non-scaling-stroke" /><path d="M8.2950001,6.0000001 a0.155,0.155 0 1,1 0.31,0 a0.155,0.155 0 1,1 -0.31,0z" fill="rgb(255,255,255)" shaper:cutDepth="0.002" shaper:pathType="interior" stroke="rgb(0,0,0)" transform="matrix(1,0,0,-1,0.5,7.2)" vector-effect="non-scaling-stroke" /><path d="M-0.405,1.5 a0.155,0.155 0 1,1 0.31,0 a0.155,0.155 0 1,1 -0.31,0z" fill="rgb(255,255,255)" shaper:cutDepth="0.002" shaper:pathType="interior" stroke="rgb(0,0,0)" transform="matrix(1,0,0,-1,0.5,7.2)" vector-effect="non-scaling-stroke" /><path d="M1.345,0.25 a0.155,0.155 0 1,1 0.31,0 a0.155,0.155 0 1,1 -0.31,0z" fill="rgb(255,255,255)" shaper:cutDepth="0.002" shaper:pathType="interior" stroke="rgb(0,0,0)" transform="matrix(1,0,0,-1,0.5,7.2)" vector-effect="non-scaling-stroke" /><path d="M6.345,6.95 a0.155,0.155 0 1,1 0.31,0 a0.155,0.155 0 1,1 -0.31,0z" fill="rgb(255,255,255)" shaper:cutDepth="0.002" shaper:pathType="interior" stroke="rgb(0,0,0)" transform="matrix(1,0,0,-1,0.5,7.2)" vector-effect="non-scaling-stroke" /><path d="M8.2950001,1.4 a0.155,0.155 0 1,1 0.31,0 a0.155,0.155 0 1,1 -0.31,0z" fill="rgb(255,255,255)" shaper:cutDepth="0.002" shaper:pathType="interior" stroke="rgb(0,0,0)" transform="matrix(1,0,0,-1,0.5,7.2)" vector-effect="non-scaling-stroke" /><path d="M-0.405,5.4000001 a0.155,0.155 0 1,1 0.31,0 a0.155,0.155 0 1,1 -0.31,0z" fill="rgb(255,255,255)" shaper:cutDepth="0.002" shaper:pathType="interior" stroke="rgb(0,0,0)" transform="matrix(1,0,0,-1,0.5,7.2)" vector-effect="non-scaling-stroke" /><path d="M6.345,0.25 a0.155,0.155 0 1,1 0.31,0 a0.155,0.155 0 1,1 -0.31,0z" fill="rgb(255,255,255)" shaper:cutDepth="0.002" shaper:pathType="interior" stroke="rgb(0,0,0)" transform="matrix(1,0,0,-1,0.5,7.2)" vector-effect="non-scaling-stroke" /><path d="M1.345,6.95 a0.155,0.155 0 1,1 0.31,0 a0.155,0.155 0 1,1 -0.31,0z" fill="rgb(255,255,255)" shaper:cutDepth="0.002" shaper:pathType="interior" stroke="rgb(0,0,0)" transform="matrix(1,0,0,-1,0.5,7.2)" vector-effect="non-scaling-stroke" /></svg>