<?xml version="1.0" encoding="utf-8"?>
<!-- Generator: Fusion 360, Shaper Origin Export Add-In, Version 1.5.0  -->
<svg enable-background="new 0 0 7.2 6.1631505" height="6.1631505cm" shaper:fusionaddin="version:1.5.0" version="1.1" viewBox="0 0 7.2 6.1631505" width="7.2cm" x="0cm" xml:space="preserve" xmlns="http://www.w3.org/2000/svg" xmlns:shaper="http://www.shapertools.com/namespaces/shaper" xmlns:xlink="http://www.w3.org/1999/xlink" y="0cm"><path d="M-0.4999999,1.9100505 L-0.4999999,-0.5 0,0 6.2,0 6.7000001,-0.5 6.7000001,3.2999999 6.2000001,3.7999999 0.8899002,3.7999999 0.6899002,3.9999999 0.6899002,5.1631505 0.8899002,5.3631505 0.8899002,5.6631505 0.0000002,5.6631505 -0.4999998,5.1631505 -0.4999999,1.9100505z" fill="rgb(0,0,0)" shaper:cutDepth="0.002" shaper:pathType="exterior" transform="matrix(1,0,0,-1,0.4999999,5.6631505)" vector-effect="non-scaling-stroke" /><path d="M1.7,1.0666667 L4.4500001,1.0666666 A0.2,0.2 269.9999991 0,1 4.4500001,1.4666666 L1.7,1.4666667 A0.2,0.2 89.9999991 0,1 1.7,1.0666667z" fill="rgb(255,255,255)" shaper:cutDepth="0.002" shaper:pathType="interior" stroke="rgb(0,0,0)" transform="matrix(1,0,0,-1,0.4999999,5.6631505)" vector-effect="non-scaling-stroke" /><path d="M1.7,1.8333333 L4.4500001,1.8333333 A0.2,0.2 269.9999991 0,1 4.4500001,2.2333333 L1.7,2.2333333 A0.2,0.2 89.9999991 0,1 1.7,1.8333333z" fill="rgb(255,255,255)" shaper:cutDepth="0.002" shaper:pathType="interior" stroke="rgb(0,0,0)" transform="matrix(1,0,0,-1,0.4999999,5.6631505)" vector-effect="non-scaling-stroke" /><path d="M1.7,0.7 A0.2,0.2 89.9999991 0,1 1.7,0.3 L4.4500001,0.3 A0.2,0.2 269.9999991 0,1 4.4500001,0.7 L1.7,0.7z" fill="rgb(255,255,255)" shaper:cutDepth="0.002" shaper:pathType="interior" stroke="rgb(0,0,0)" transform="matrix(1,0,0,-1,0.4999999,5.6631505)" vector-effect="non-scaling-stroke" /><path d="M1.7,2.6 L4.4500001,2.6 A0.2,0.2 269.9999991 0,1 4.4500001,3 L1.7,3 A0.2,0.2 89.9999991 1,1 1.7,2.6z" fill="rgb(255,255,255)" shaper:cutDepth="0.002" shaper:pathType="interior" stroke="rgb(0,0,0)" transform="matrix(1,0,0,-1,0.4999999,5.6631505)" vector-effect="non-scaling-stroke" /><path d="M0.545,3.5499999 a0.155,0.155 0 1,1 0.31,0 a0.155,0.155 0 1,1 -0.31,0z" fill="rgb(255,255,255)" shaper:cutDepth="0.002" shaper:pathType="interior" stroke="rgb(0,0,0)" transform="matrix(1,0,0,-1,0.4999999,5.6631505)" vector-effect="non-scaling-stroke" /><path d="M6.2950001,0.2999999 a0.155,0.155 0 1,1 0.31,0 a0.155,0.155 0 1,1 -0.31,0z" fill="rgb(255,255,255)" shaper:cutDepth="0.002" shaper:pathType="interior" stroke="rgb(0,0,0)" transform="matrix(1,0,0,-1,0.4999999,5.6631505)" vector-effect="non-scaling-stroke" /><path d="M0.2899502,5.4131505 a0.155,0.155 0 1,1 0.31,0 a0.155,0.155 0 1,1 -0.31,0z" fill="rgb(255,255,255)" shaper:cutDepth="0.002" shaper:pathType="interior" stroke="rgb(0,0,0)" transform="matrix(1,0,0,-1,0.4999999,5.6631505)" vector-effect="non-scaling-stroke" /><path d="M5.1450001,3.55 a0.155,0.155 0 1,1 0.31,0 a0.155,0.155 0 1,1 -0.31,0z" fill="rgb(255,255,255)" shaper:cutDepth="0.002" shaper:pathType="interior" stroke="rgb(0,0,0)" transform="matrix(1,0,0,-1,0.4999999,5.6631505)" vector-effect="non-scaling-stroke" /><path d="M6.2950001,2.6 a0.155,0.155 0 1,1 0.31,0 a0.155,0.155 0 1,1 -0.31,0z" fill="rgb(255,255,255)" shaper:cutDepth="0.002" shaper:pathType="interior" stroke="rgb(0,0,0)" transform="matrix(1,0,0,-1,0.4999999,5.6631505)" vector-effect="non-scaling-stroke" /><path d="M-0.4049999,0.2999999 a0.155,0.155 0 1,1 0.31,0 a0.155,0.155 0 1,1 -0.31,0z" fill="rgb(255,255,255)" shaper:cutDepth="0.002" shaper:pathType="interior" stroke="rgb(0,0,0)" transform="matrix(1,0,0,-1,0.4999999,5.6631505)" vector-effect="non-scaling-stroke" /></svg>